ISO-10303-21;
HEADER;
/* Generated by software containing ST-Developer
 * from STEP Tools, Inc. (www.steptools.com) 
 */
/* OPTION: using custom renumber hook */

FILE_DESCRIPTION(
/* description */ ('STEP AP242 Edition 2',
'CAx-IF Rec.Pracs.---Representation and Presentation of Product Manufa
cturing Information (PMI)---4.0---2014-10-13',
'CAx-IF Rec.Pracs.---3D Tessellated Geometry---0.4---2014-09-14','2;1',
'CAx-IF Rec.Pracs.---User Defined Attributes---1.5---2016-08-15'),
/* implementation_level */ '2;1');

FILE_NAME(
/* name */ 'V2 - Part 14',
/* time_stamp */ '2026-05-14T03:10:36Z',
/* author */ (''),
/* organization */ (''),
/* preprocessor_version */ 'ST-DEVELOPER v20',
/* originating_system */ 'ONSHAPE BY PTC INC, 1.214',
/* authorisation */ '  ');

FILE_SCHEMA (('AP242_MANAGED_MODEL_BASED_3D_ENGINEERING_MIM_LF { 1 0 10303 442 3 1 4 }'));
ENDSEC;

DATA;
#10=SHAPE_REPRESENTATION_RELATIONSHIP('','',#832,#11);
#11=ADVANCED_BREP_SHAPE_REPRESENTATION('',(#830),#1410);
#12=CONICAL_SURFACE('',#917,0.004064,0.785398163397448);
#13=CONICAL_SURFACE('',#918,0.004064,0.785398163397448);
#14=CONICAL_SURFACE('',#919,0.004064,0.785398163397448);
#15=CONICAL_SURFACE('',#920,0.004064,0.785398163397448);
#16=CYLINDRICAL_SURFACE('',#849,0.001524);
#17=CYLINDRICAL_SURFACE('',#850,0.001524);
#18=CYLINDRICAL_SURFACE('',#872,0.001651);
#19=CYLINDRICAL_SURFACE('',#875,0.001651);
#20=CYLINDRICAL_SURFACE('',#878,0.001651);
#21=CYLINDRICAL_SURFACE('',#881,0.001651);
#22=CYLINDRICAL_SURFACE('',#884,0.00889);
#23=CYLINDRICAL_SURFACE('',#885,0.001778);
#24=CYLINDRICAL_SURFACE('',#888,0.00254);
#25=CYLINDRICAL_SURFACE('',#893,0.001778);
#26=CYLINDRICAL_SURFACE('',#896,0.00254);
#27=CYLINDRICAL_SURFACE('',#901,0.001778);
#28=CYLINDRICAL_SURFACE('',#904,0.00254);
#29=CYLINDRICAL_SURFACE('',#909,0.001778);
#30=CYLINDRICAL_SURFACE('',#912,0.00254);
#31=CYLINDRICAL_SURFACE('',#921,0.001651);
#32=CYLINDRICAL_SURFACE('',#924,0.001651);
#33=CYLINDRICAL_SURFACE('',#927,0.001651);
#34=CYLINDRICAL_SURFACE('',#930,0.001651);
#35=LINE('',#1189,#84);
#36=LINE('',#1192,#85);
#37=LINE('',#1194,#86);
#38=LINE('',#1196,#87);
#39=LINE('',#1202,#88);
#40=LINE('',#1205,#89);
#41=LINE('',#1207,#90);
#42=LINE('',#1209,#91);
#43=LINE('',#1217,#92);
#44=LINE('',#1220,#93);
#45=LINE('',#1222,#94);
#46=LINE('',#1224,#95);
#47=LINE('',#1226,#96);
#48=LINE('',#1228,#97);
#49=LINE('',#1230,#98);
#50=LINE('',#1232,#99);
#51=LINE('',#1234,#100);
#52=LINE('',#1236,#101);
#53=LINE('',#1238,#102);
#54=LINE('',#1240,#103);
#55=LINE('',#1242,#104);
#56=LINE('',#1244,#105);
#57=LINE('',#1246,#106);
#58=LINE('',#1248,#107);
#59=LINE('',#1254,#108);
#60=LINE('',#1256,#109);
#61=LINE('',#1258,#110);
#62=LINE('',#1260,#111);
#63=LINE('',#1262,#112);
#64=LINE('',#1263,#113);
#65=LINE('',#1270,#114);
#66=LINE('',#1271,#115);
#67=LINE('',#1277,#116);
#68=LINE('',#1278,#117);
#69=LINE('',#1290,#118);
#70=LINE('',#1291,#119);
#71=LINE('',#1293,#120);
#72=LINE('',#1295,#121);
#73=LINE('',#1297,#122);
#74=LINE('',#1298,#123);
#75=LINE('',#1299,#124);
#76=LINE('',#1301,#125);
#77=LINE('',#1303,#126);
#78=LINE('',#1305,#127);
#79=LINE('',#1307,#128);
#80=LINE('',#1309,#129);
#81=LINE('',#1311,#130);
#82=LINE('',#1313,#131);
#83=LINE('',#1314,#132);
#84=VECTOR('',#940,1.);
#85=VECTOR('',#941,1.);
#86=VECTOR('',#942,1.);
#87=VECTOR('',#943,1.);
#88=VECTOR('',#950,1.);
#89=VECTOR('',#951,1.);
#90=VECTOR('',#952,1.);
#91=VECTOR('',#953,1.);
#92=VECTOR('',#962,1.);
#93=VECTOR('',#963,1.);
#94=VECTOR('',#964,1.);
#95=VECTOR('',#965,1.);
#96=VECTOR('',#966,1.);
#97=VECTOR('',#967,1.);
#98=VECTOR('',#968,1.);
#99=VECTOR('',#969,1.);
#100=VECTOR('',#970,1.);
#101=VECTOR('',#971,1.);
#102=VECTOR('',#972,1.);
#103=VECTOR('',#973,1.);
#104=VECTOR('',#976,1.);
#105=VECTOR('',#977,1.);
#106=VECTOR('',#978,1.);
#107=VECTOR('',#979,1.);
#108=VECTOR('',#986,1.);
#109=VECTOR('',#987,1.);
#110=VECTOR('',#988,1.);
#111=VECTOR('',#991,1.);
#112=VECTOR('',#992,1.);
#113=VECTOR('',#993,1.);
#114=VECTOR('',#1004,1.);
#115=VECTOR('',#1005,1.);
#116=VECTOR('',#1012,1.);
#117=VECTOR('',#1013,1.);
#118=VECTOR('',#1026,1.);
#119=VECTOR('',#1027,1.);
#120=VECTOR('',#1028,1.);
#121=VECTOR('',#1029,1.);
#122=VECTOR('',#1032,1.);
#123=VECTOR('',#1033,1.);
#124=VECTOR('',#1034,1.);
#125=VECTOR('',#1037,1.);
#126=VECTOR('',#1038,1.);
#127=VECTOR('',#1039,1.);
#128=VECTOR('',#1042,1.);
#129=VECTOR('',#1043,1.);
#130=VECTOR('',#1044,1.);
#131=VECTOR('',#1047,1.);
#132=VECTOR('',#1048,1.);
#133=ORIENTED_EDGE('',*,*,#315,.T.);
#134=ORIENTED_EDGE('',*,*,#316,.T.);
#135=ORIENTED_EDGE('',*,*,#317,.F.);
#136=ORIENTED_EDGE('',*,*,#318,.F.);
#137=ORIENTED_EDGE('',*,*,#319,.T.);
#138=ORIENTED_EDGE('',*,*,#320,.F.);
#139=ORIENTED_EDGE('',*,*,#321,.T.);
#140=ORIENTED_EDGE('',*,*,#322,.T.);
#141=ORIENTED_EDGE('',*,*,#323,.T.);
#142=ORIENTED_EDGE('',*,*,#324,.F.);
#143=ORIENTED_EDGE('',*,*,#325,.T.);
#144=ORIENTED_EDGE('',*,*,#326,.F.);
#145=ORIENTED_EDGE('',*,*,#327,.F.);
#146=ORIENTED_EDGE('',*,*,#328,.F.);
#147=ORIENTED_EDGE('',*,*,#329,.T.);
#148=ORIENTED_EDGE('',*,*,#330,.T.);
#149=ORIENTED_EDGE('',*,*,#331,.T.);
#150=ORIENTED_EDGE('',*,*,#332,.T.);
#151=ORIENTED_EDGE('',*,*,#333,.F.);
#152=ORIENTED_EDGE('',*,*,#334,.F.);
#153=ORIENTED_EDGE('',*,*,#335,.T.);
#154=ORIENTED_EDGE('',*,*,#336,.F.);
#155=ORIENTED_EDGE('',*,*,#337,.F.);
#156=ORIENTED_EDGE('',*,*,#338,.T.);
#157=ORIENTED_EDGE('',*,*,#339,.F.);
#158=ORIENTED_EDGE('',*,*,#340,.T.);
#159=ORIENTED_EDGE('',*,*,#341,.T.);
#160=ORIENTED_EDGE('',*,*,#342,.T.);
#161=ORIENTED_EDGE('',*,*,#343,.F.);
#162=ORIENTED_EDGE('',*,*,#344,.F.);
#163=ORIENTED_EDGE('',*,*,#339,.T.);
#164=ORIENTED_EDGE('',*,*,#345,.F.);
#165=ORIENTED_EDGE('',*,*,#346,.F.);
#166=ORIENTED_EDGE('',*,*,#343,.T.);
#167=ORIENTED_EDGE('',*,*,#347,.T.);
#168=ORIENTED_EDGE('',*,*,#348,.F.);
#169=ORIENTED_EDGE('',*,*,#349,.F.);
#170=ORIENTED_EDGE('',*,*,#350,.F.);
#171=ORIENTED_EDGE('',*,*,#329,.F.);
#172=ORIENTED_EDGE('',*,*,#351,.T.);
#173=ORIENTED_EDGE('',*,*,#348,.T.);
#174=ORIENTED_EDGE('',*,*,#352,.T.);
#175=ORIENTED_EDGE('',*,*,#340,.F.);
#176=ORIENTED_EDGE('',*,*,#344,.T.);
#177=ORIENTED_EDGE('',*,*,#349,.T.);
#178=ORIENTED_EDGE('',*,*,#351,.F.);
#179=ORIENTED_EDGE('',*,*,#328,.T.);
#180=ORIENTED_EDGE('',*,*,#346,.T.);
#181=ORIENTED_EDGE('',*,*,#327,.T.);
#182=ORIENTED_EDGE('',*,*,#345,.T.);
#183=ORIENTED_EDGE('',*,*,#353,.T.);
#184=ORIENTED_EDGE('',*,*,#354,.T.);
#185=ORIENTED_EDGE('',*,*,#332,.F.);
#186=ORIENTED_EDGE('',*,*,#355,.F.);
#187=ORIENTED_EDGE('',*,*,#317,.T.);
#188=ORIENTED_EDGE('',*,*,#356,.F.);
#189=ORIENTED_EDGE('',*,*,#357,.T.);
#190=ORIENTED_EDGE('',*,*,#358,.T.);
#191=ORIENTED_EDGE('',*,*,#325,.F.);
#192=ORIENTED_EDGE('',*,*,#359,.F.);
#193=ORIENTED_EDGE('',*,*,#336,.T.);
#194=ORIENTED_EDGE('',*,*,#360,.F.);
#195=ORIENTED_EDGE('',*,*,#361,.T.);
#196=ORIENTED_EDGE('',*,*,#362,.T.);
#197=ORIENTED_EDGE('',*,*,#363,.T.);
#198=ORIENTED_EDGE('',*,*,#364,.T.);
#199=ORIENTED_EDGE('',*,*,#350,.T.);
#200=ORIENTED_EDGE('',*,*,#365,.T.);
#201=ORIENTED_EDGE('',*,*,#341,.F.);
#202=ORIENTED_EDGE('',*,*,#338,.F.);
#203=ORIENTED_EDGE('',*,*,#366,.T.);
#204=ORIENTED_EDGE('',*,*,#367,.T.);
#205=ORIENTED_EDGE('',*,*,#368,.F.);
#206=ORIENTED_EDGE('',*,*,#330,.F.);
#207=ORIENTED_EDGE('',*,*,#367,.F.);
#208=ORIENTED_EDGE('',*,*,#369,.T.);
#209=ORIENTED_EDGE('',*,*,#370,.T.);
#210=ORIENTED_EDGE('',*,*,#371,.F.);
#211=ORIENTED_EDGE('',*,*,#372,.T.);
#212=ORIENTED_EDGE('',*,*,#319,.F.);
#213=ORIENTED_EDGE('',*,*,#370,.F.);
#214=ORIENTED_EDGE('',*,*,#323,.F.);
#215=ORIENTED_EDGE('',*,*,#373,.F.);
#216=ORIENTED_EDGE('',*,*,#374,.T.);
#217=ORIENTED_EDGE('',*,*,#375,.T.);
#218=ORIENTED_EDGE('',*,*,#374,.F.);
#219=ORIENTED_EDGE('',*,*,#376,.F.);
#220=ORIENTED_EDGE('',*,*,#377,.T.);
#221=ORIENTED_EDGE('',*,*,#378,.T.);
#222=ORIENTED_EDGE('',*,*,#377,.F.);
#223=ORIENTED_EDGE('',*,*,#379,.F.);
#224=ORIENTED_EDGE('',*,*,#334,.T.);
#225=ORIENTED_EDGE('',*,*,#380,.F.);
#226=ORIENTED_EDGE('',*,*,#373,.T.);
#227=ORIENTED_EDGE('',*,*,#322,.F.);
#228=ORIENTED_EDGE('',*,*,#358,.F.);
#229=ORIENTED_EDGE('',*,*,#335,.F.);
#230=ORIENTED_EDGE('',*,*,#379,.T.);
#231=ORIENTED_EDGE('',*,*,#376,.T.);
#232=ORIENTED_EDGE('',*,*,#372,.F.);
#233=ORIENTED_EDGE('',*,*,#375,.F.);
#234=ORIENTED_EDGE('',*,*,#378,.F.);
#235=ORIENTED_EDGE('',*,*,#333,.T.);
#236=ORIENTED_EDGE('',*,*,#354,.F.);
#237=ORIENTED_EDGE('',*,*,#316,.F.);
#238=ORIENTED_EDGE('',*,*,#368,.T.);
#239=ORIENTED_EDGE('',*,*,#371,.T.);
#240=ORIENTED_EDGE('',*,*,#318,.T.);
#241=ORIENTED_EDGE('',*,*,#355,.T.);
#242=ORIENTED_EDGE('',*,*,#331,.F.);
#243=ORIENTED_EDGE('',*,*,#381,.T.);
#244=ORIENTED_EDGE('',*,*,#337,.T.);
#245=ORIENTED_EDGE('',*,*,#359,.T.);
#246=ORIENTED_EDGE('',*,*,#324,.T.);
#247=ORIENTED_EDGE('',*,*,#369,.F.);
#248=ORIENTED_EDGE('',*,*,#366,.F.);
#249=ORIENTED_EDGE('',*,*,#382,.F.);
#250=ORIENTED_EDGE('',*,*,#357,.F.);
#251=ORIENTED_EDGE('',*,*,#382,.T.);
#252=ORIENTED_EDGE('',*,*,#383,.T.);
#253=ORIENTED_EDGE('',*,*,#360,.T.);
#254=ORIENTED_EDGE('',*,*,#383,.F.);
#255=ORIENTED_EDGE('',*,*,#384,.F.);
#256=ORIENTED_EDGE('',*,*,#353,.F.);
#257=ORIENTED_EDGE('',*,*,#384,.T.);
#258=ORIENTED_EDGE('',*,*,#385,.T.);
#259=ORIENTED_EDGE('',*,*,#356,.T.);
#260=ORIENTED_EDGE('',*,*,#385,.F.);
#261=ORIENTED_EDGE('',*,*,#380,.T.);
#262=ORIENTED_EDGE('',*,*,#381,.F.);
#263=ORIENTED_EDGE('',*,*,#386,.T.);
#264=ORIENTED_EDGE('',*,*,#387,.F.);
#265=ORIENTED_EDGE('',*,*,#388,.T.);
#266=ORIENTED_EDGE('',*,*,#389,.T.);
#267=ORIENTED_EDGE('',*,*,#387,.T.);
#268=ORIENTED_EDGE('',*,*,#389,.F.);
#269=ORIENTED_EDGE('',*,*,#386,.F.);
#270=ORIENTED_EDGE('',*,*,#390,.T.);
#271=ORIENTED_EDGE('',*,*,#391,.F.);
#272=ORIENTED_EDGE('',*,*,#392,.T.);
#273=ORIENTED_EDGE('',*,*,#393,.T.);
#274=ORIENTED_EDGE('',*,*,#391,.T.);
#275=ORIENTED_EDGE('',*,*,#393,.F.);
#276=ORIENTED_EDGE('',*,*,#390,.F.);
#277=ORIENTED_EDGE('',*,*,#394,.T.);
#278=ORIENTED_EDGE('',*,*,#395,.F.);
#279=ORIENTED_EDGE('',*,*,#396,.T.);
#280=ORIENTED_EDGE('',*,*,#397,.T.);
#281=ORIENTED_EDGE('',*,*,#395,.T.);
#282=ORIENTED_EDGE('',*,*,#397,.F.);
#283=ORIENTED_EDGE('',*,*,#394,.F.);
#284=ORIENTED_EDGE('',*,*,#398,.T.);
#285=ORIENTED_EDGE('',*,*,#399,.F.);
#286=ORIENTED_EDGE('',*,*,#400,.T.);
#287=ORIENTED_EDGE('',*,*,#401,.T.);
#288=ORIENTED_EDGE('',*,*,#399,.T.);
#289=ORIENTED_EDGE('',*,*,#401,.F.);
#290=ORIENTED_EDGE('',*,*,#398,.F.);
#291=ORIENTED_EDGE('',*,*,#392,.F.);
#292=ORIENTED_EDGE('',*,*,#361,.F.);
#293=ORIENTED_EDGE('',*,*,#396,.F.);
#294=ORIENTED_EDGE('',*,*,#362,.F.);
#295=ORIENTED_EDGE('',*,*,#400,.F.);
#296=ORIENTED_EDGE('',*,*,#363,.F.);
#297=ORIENTED_EDGE('',*,*,#388,.F.);
#298=ORIENTED_EDGE('',*,*,#364,.F.);
#299=ORIENTED_EDGE('',*,*,#402,.F.);
#300=ORIENTED_EDGE('',*,*,#321,.F.);
#301=ORIENTED_EDGE('',*,*,#402,.T.);
#302=ORIENTED_EDGE('',*,*,#403,.T.);
#303=ORIENTED_EDGE('',*,*,#326,.T.);
#304=ORIENTED_EDGE('',*,*,#403,.F.);
#305=ORIENTED_EDGE('',*,*,#404,.F.);
#306=ORIENTED_EDGE('',*,*,#315,.F.);
#307=ORIENTED_EDGE('',*,*,#404,.T.);
#308=ORIENTED_EDGE('',*,*,#405,.T.);
#309=ORIENTED_EDGE('',*,*,#320,.T.);
#310=ORIENTED_EDGE('',*,*,#405,.F.);
#311=ORIENTED_EDGE('',*,*,#342,.F.);
#312=ORIENTED_EDGE('',*,*,#365,.F.);
#313=ORIENTED_EDGE('',*,*,#352,.F.);
#314=ORIENTED_EDGE('',*,*,#347,.F.);
#315=EDGE_CURVE('',#406,#406,#480,.T.);
#316=EDGE_CURVE('',#407,#408,#35,.T.);
#317=EDGE_CURVE('',#409,#408,#36,.T.);
#318=EDGE_CURVE('',#410,#409,#37,.T.);
#319=EDGE_CURVE('',#410,#407,#38,.T.);
#320=EDGE_CURVE('',#411,#411,#481,.F.);
#321=EDGE_CURVE('',#412,#412,#482,.T.);
#322=EDGE_CURVE('',#413,#414,#39,.T.);
#323=EDGE_CURVE('',#414,#415,#40,.T.);
#324=EDGE_CURVE('',#416,#415,#41,.T.);
#325=EDGE_CURVE('',#416,#413,#42,.T.);
#326=EDGE_CURVE('',#417,#417,#483,.F.);
#327=EDGE_CURVE('',#418,#418,#484,.T.);
#328=EDGE_CURVE('',#419,#419,#485,.T.);
#329=EDGE_CURVE('',#420,#421,#43,.T.);
#330=EDGE_CURVE('',#421,#422,#44,.T.);
#331=EDGE_CURVE('',#422,#423,#45,.T.);
#332=EDGE_CURVE('',#423,#424,#46,.T.);
#333=EDGE_CURVE('',#425,#424,#47,.T.);
#334=EDGE_CURVE('',#426,#425,#48,.T.);
#335=EDGE_CURVE('',#426,#427,#49,.T.);
#336=EDGE_CURVE('',#428,#427,#50,.T.);
#337=EDGE_CURVE('',#429,#428,#51,.T.);
#338=EDGE_CURVE('',#429,#430,#52,.T.);
#339=EDGE_CURVE('',#431,#430,#53,.T.);
#340=EDGE_CURVE('',#431,#420,#54,.T.);
#341=EDGE_CURVE('',#430,#432,#55,.T.);
#342=EDGE_CURVE('',#432,#433,#56,.T.);
#343=EDGE_CURVE('',#434,#433,#57,.T.);
#344=EDGE_CURVE('',#431,#434,#58,.T.);
#345=EDGE_CURVE('',#435,#435,#486,.T.);
#346=EDGE_CURVE('',#436,#436,#487,.T.);
#347=EDGE_CURVE('',#433,#437,#59,.T.);
#348=EDGE_CURVE('',#438,#437,#60,.T.);
#349=EDGE_CURVE('',#434,#438,#61,.T.);
#350=EDGE_CURVE('',#421,#439,#62,.T.);
#351=EDGE_CURVE('',#420,#438,#63,.T.);
#352=EDGE_CURVE('',#437,#439,#64,.T.);
#353=EDGE_CURVE('',#440,#440,#488,.T.);
#354=EDGE_CURVE('',#408,#424,#65,.T.);
#355=EDGE_CURVE('',#409,#423,#66,.T.);
#356=EDGE_CURVE('',#441,#441,#489,.F.);
#357=EDGE_CURVE('',#442,#442,#490,.T.);
#358=EDGE_CURVE('',#427,#413,#67,.T.);
#359=EDGE_CURVE('',#428,#416,#68,.T.);
#360=EDGE_CURVE('',#443,#443,#491,.F.);
#361=EDGE_CURVE('',#444,#444,#492,.F.);
#362=EDGE_CURVE('',#445,#445,#493,.F.);
#363=EDGE_CURVE('',#446,#446,#494,.F.);
#364=EDGE_CURVE('',#447,#447,#495,.F.);
#365=EDGE_CURVE('',#439,#432,#69,.T.);
#366=EDGE_CURVE('',#429,#448,#70,.T.);
#367=EDGE_CURVE('',#448,#449,#71,.T.);
#368=EDGE_CURVE('',#422,#449,#72,.T.);
#369=EDGE_CURVE('',#448,#415,#73,.T.);
#370=EDGE_CURVE('',#415,#410,#74,.T.);
#371=EDGE_CURVE('',#449,#410,#75,.T.);
#372=EDGE_CURVE('',#450,#407,#76,.T.);
#373=EDGE_CURVE('',#451,#414,#77,.T.);
#374=EDGE_CURVE('',#451,#450,#78,.T.);
#375=EDGE_CURVE('',#452,#450,#79,.T.);
#376=EDGE_CURVE('',#453,#451,#80,.T.);
#377=EDGE_CURVE('',#453,#452,#81,.T.);
#378=EDGE_CURVE('',#425,#452,#82,.T.);
#379=EDGE_CURVE('',#426,#453,#83,.T.);
#380=EDGE_CURVE('',#454,#454,#496,.T.);
#381=EDGE_CURVE('',#455,#455,#497,.T.);
#382=EDGE_CURVE('',#456,#456,#498,.T.);
#383=EDGE_CURVE('',#457,#457,#499,.T.);
#384=EDGE_CURVE('',#458,#458,#500,.T.);
#385=EDGE_CURVE('',#459,#459,#501,.T.);
#386=EDGE_CURVE('',#460,#460,#502,.F.);
#387=EDGE_CURVE('',#461,#461,#503,.T.);
#388=EDGE_CURVE('',#462,#462,#504,.T.);
#389=EDGE_CURVE('',#463,#463,#505,.T.);
#390=EDGE_CURVE('',#464,#464,#506,.F.);
#391=EDGE_CURVE('',#465,#465,#507,.T.);
#392=EDGE_CURVE('',#466,#466,#508,.T.);
#393=EDGE_CURVE('',#467,#467,#509,.T.);
#394=EDGE_CURVE('',#468,#468,#510,.F.);
#395=EDGE_CURVE('',#469,#469,#511,.T.);
#396=EDGE_CURVE('',#470,#470,#512,.T.);
#397=EDGE_CURVE('',#471,#471,#513,.T.);
#398=EDGE_CURVE('',#472,#472,#514,.F.);
#399=EDGE_CURVE('',#473,#473,#515,.T.);
#400=EDGE_CURVE('',#474,#474,#516,.T.);
#401=EDGE_CURVE('',#475,#475,#517,.T.);
#402=EDGE_CURVE('',#476,#476,#518,.T.);
#403=EDGE_CURVE('',#477,#477,#519,.T.);
#404=EDGE_CURVE('',#478,#478,#520,.T.);
#405=EDGE_CURVE('',#479,#479,#521,.T.);
#406=VERTEX_POINT('',#1188);
#407=VERTEX_POINT('',#1190);
#408=VERTEX_POINT('',#1191);
#409=VERTEX_POINT('',#1193);
#410=VERTEX_POINT('',#1195);
#411=VERTEX_POINT('',#1198);
#412=VERTEX_POINT('',#1201);
#413=VERTEX_POINT('',#1203);
#414=VERTEX_POINT('',#1204);
#415=VERTEX_POINT('',#1206);
#416=VERTEX_POINT('',#1208);
#417=VERTEX_POINT('',#1211);
#418=VERTEX_POINT('',#1214);
#419=VERTEX_POINT('',#1216);
#420=VERTEX_POINT('',#1218);
#421=VERTEX_POINT('',#1219);
#422=VERTEX_POINT('',#1221);
#423=VERTEX_POINT('',#1223);
#424=VERTEX_POINT('',#1225);
#425=VERTEX_POINT('',#1227);
#426=VERTEX_POINT('',#1229);
#427=VERTEX_POINT('',#1231);
#428=VERTEX_POINT('',#1233);
#429=VERTEX_POINT('',#1235);
#430=VERTEX_POINT('',#1237);
#431=VERTEX_POINT('',#1239);
#432=VERTEX_POINT('',#1243);
#433=VERTEX_POINT('',#1245);
#434=VERTEX_POINT('',#1247);
#435=VERTEX_POINT('',#1251);
#436=VERTEX_POINT('',#1253);
#437=VERTEX_POINT('',#1255);
#438=VERTEX_POINT('',#1257);
#439=VERTEX_POINT('',#1261);
#440=VERTEX_POINT('',#1269);
#441=VERTEX_POINT('',#1273);
#442=VERTEX_POINT('',#1276);
#443=VERTEX_POINT('',#1280);
#444=VERTEX_POINT('',#1283);
#445=VERTEX_POINT('',#1285);
#446=VERTEX_POINT('',#1287);
#447=VERTEX_POINT('',#1289);
#448=VERTEX_POINT('',#1292);
#449=VERTEX_POINT('',#1294);
#450=VERTEX_POINT('',#1302);
#451=VERTEX_POINT('',#1304);
#452=VERTEX_POINT('',#1308);
#453=VERTEX_POINT('',#1310);
#454=VERTEX_POINT('',#1317);
#455=VERTEX_POINT('',#1322);
#456=VERTEX_POINT('',#1325);
#457=VERTEX_POINT('',#1329);
#458=VERTEX_POINT('',#1333);
#459=VERTEX_POINT('',#1337);
#460=VERTEX_POINT('',#1342);
#461=VERTEX_POINT('',#1344);
#462=VERTEX_POINT('',#1347);
#463=VERTEX_POINT('',#1349);
#464=VERTEX_POINT('',#1354);
#465=VERTEX_POINT('',#1356);
#466=VERTEX_POINT('',#1359);
#467=VERTEX_POINT('',#1361);
#468=VERTEX_POINT('',#1366);
#469=VERTEX_POINT('',#1368);
#470=VERTEX_POINT('',#1371);
#471=VERTEX_POINT('',#1373);
#472=VERTEX_POINT('',#1378);
#473=VERTEX_POINT('',#1380);
#474=VERTEX_POINT('',#1383);
#475=VERTEX_POINT('',#1385);
#476=VERTEX_POINT('',#1394);
#477=VERTEX_POINT('',#1398);
#478=VERTEX_POINT('',#1402);
#479=VERTEX_POINT('',#1406);
#480=CIRCLE('',#835,0.001651);
#481=CIRCLE('',#836,0.001651);
#482=CIRCLE('',#838,0.001651);
#483=CIRCLE('',#839,0.001651);
#484=CIRCLE('',#841,0.001524);
#485=CIRCLE('',#842,0.001524);
#486=CIRCLE('',#845,0.001524);
#487=CIRCLE('',#846,0.001524);
#488=CIRCLE('',#852,0.001651);
#489=CIRCLE('',#853,0.001651);
#490=CIRCLE('',#855,0.001651);
#491=CIRCLE('',#856,0.001651);
#492=CIRCLE('',#858,0.004064);
#493=CIRCLE('',#859,0.004064);
#494=CIRCLE('',#860,0.004064);
#495=CIRCLE('',#861,0.004064);
#496=CIRCLE('',#867,0.00889);
#497=CIRCLE('',#871,0.00889);
#498=CIRCLE('',#873,0.001651);
#499=CIRCLE('',#876,0.001651);
#500=CIRCLE('',#879,0.001651);
#501=CIRCLE('',#882,0.001651);
#502=CIRCLE('',#886,0.001778);
#503=CIRCLE('',#887,0.001778);
#504=CIRCLE('',#889,0.00254);
#505=CIRCLE('',#890,0.00254);
#506=CIRCLE('',#894,0.001778);
#507=CIRCLE('',#895,0.001778);
#508=CIRCLE('',#897,0.00254);
#509=CIRCLE('',#898,0.00254);
#510=CIRCLE('',#902,0.001778);
#511=CIRCLE('',#903,0.001778);
#512=CIRCLE('',#905,0.00254);
#513=CIRCLE('',#906,0.00254);
#514=CIRCLE('',#910,0.001778);
#515=CIRCLE('',#911,0.001778);
#516=CIRCLE('',#913,0.00254);
#517=CIRCLE('',#914,0.00254);
#518=CIRCLE('',#922,0.001651);
#519=CIRCLE('',#925,0.001651);
#520=CIRCLE('',#928,0.001651);
#521=CIRCLE('',#931,0.001651);
#522=EDGE_LOOP('',(#133));
#523=EDGE_LOOP('',(#134,#135,#136,#137));
#524=EDGE_LOOP('',(#138));
#525=EDGE_LOOP('',(#139));
#526=EDGE_LOOP('',(#140,#141,#142,#143));
#527=EDGE_LOOP('',(#144));
#528=EDGE_LOOP('',(#145));
#529=EDGE_LOOP('',(#146));
#530=EDGE_LOOP('',(#147,#148,#149,#150,#151,#152,#153,#154,#155,#156,#157,
#158));
#531=EDGE_LOOP('',(#159,#160,#161,#162,#163));
#532=EDGE_LOOP('',(#164));
#533=EDGE_LOOP('',(#165));
#534=EDGE_LOOP('',(#166,#167,#168,#169));
#535=EDGE_LOOP('',(#170,#171,#172,#173,#174));
#536=EDGE_LOOP('',(#175,#176,#177,#178));
#537=EDGE_LOOP('',(#179));
#538=EDGE_LOOP('',(#180));
#539=EDGE_LOOP('',(#181));
#540=EDGE_LOOP('',(#182));
#541=EDGE_LOOP('',(#183));
#542=EDGE_LOOP('',(#184,#185,#186,#187));
#543=EDGE_LOOP('',(#188));
#544=EDGE_LOOP('',(#189));
#545=EDGE_LOOP('',(#190,#191,#192,#193));
#546=EDGE_LOOP('',(#194));
#547=EDGE_LOOP('',(#195));
#548=EDGE_LOOP('',(#196));
#549=EDGE_LOOP('',(#197));
#550=EDGE_LOOP('',(#198));
#551=EDGE_LOOP('',(#199,#200,#201,#202,#203,#204,#205,#206));
#552=EDGE_LOOP('',(#207,#208,#209,#210));
#553=EDGE_LOOP('',(#211,#212,#213,#214,#215,#216));
#554=EDGE_LOOP('',(#217,#218,#219,#220));
#555=EDGE_LOOP('',(#221,#222,#223,#224));
#556=EDGE_LOOP('',(#225));
#557=EDGE_LOOP('',(#226,#227,#228,#229,#230,#231));
#558=EDGE_LOOP('',(#232,#233,#234,#235,#236,#237));
#559=EDGE_LOOP('',(#238,#239,#240,#241,#242));
#560=EDGE_LOOP('',(#243));
#561=EDGE_LOOP('',(#244,#245,#246,#247,#248));
#562=EDGE_LOOP('',(#249));
#563=EDGE_LOOP('',(#250));
#564=EDGE_LOOP('',(#251));
#565=EDGE_LOOP('',(#252));
#566=EDGE_LOOP('',(#253));
#567=EDGE_LOOP('',(#254));
#568=EDGE_LOOP('',(#255));
#569=EDGE_LOOP('',(#256));
#570=EDGE_LOOP('',(#257));
#571=EDGE_LOOP('',(#258));
#572=EDGE_LOOP('',(#259));
#573=EDGE_LOOP('',(#260));
#574=EDGE_LOOP('',(#261));
#575=EDGE_LOOP('',(#262));
#576=EDGE_LOOP('',(#263));
#577=EDGE_LOOP('',(#264));
#578=EDGE_LOOP('',(#265));
#579=EDGE_LOOP('',(#266));
#580=EDGE_LOOP('',(#267));
#581=EDGE_LOOP('',(#268));
#582=EDGE_LOOP('',(#269));
#583=EDGE_LOOP('',(#270));
#584=EDGE_LOOP('',(#271));
#585=EDGE_LOOP('',(#272));
#586=EDGE_LOOP('',(#273));
#587=EDGE_LOOP('',(#274));
#588=EDGE_LOOP('',(#275));
#589=EDGE_LOOP('',(#276));
#590=EDGE_LOOP('',(#277));
#591=EDGE_LOOP('',(#278));
#592=EDGE_LOOP('',(#279));
#593=EDGE_LOOP('',(#280));
#594=EDGE_LOOP('',(#281));
#595=EDGE_LOOP('',(#282));
#596=EDGE_LOOP('',(#283));
#597=EDGE_LOOP('',(#284));
#598=EDGE_LOOP('',(#285));
#599=EDGE_LOOP('',(#286));
#600=EDGE_LOOP('',(#287));
#601=EDGE_LOOP('',(#288));
#602=EDGE_LOOP('',(#289));
#603=EDGE_LOOP('',(#290));
#604=EDGE_LOOP('',(#291));
#605=EDGE_LOOP('',(#292));
#606=EDGE_LOOP('',(#293));
#607=EDGE_LOOP('',(#294));
#608=EDGE_LOOP('',(#295));
#609=EDGE_LOOP('',(#296));
#610=EDGE_LOOP('',(#297));
#611=EDGE_LOOP('',(#298));
#612=EDGE_LOOP('',(#299));
#613=EDGE_LOOP('',(#300));
#614=EDGE_LOOP('',(#301));
#615=EDGE_LOOP('',(#302));
#616=EDGE_LOOP('',(#303));
#617=EDGE_LOOP('',(#304));
#618=EDGE_LOOP('',(#305));
#619=EDGE_LOOP('',(#306));
#620=EDGE_LOOP('',(#307));
#621=EDGE_LOOP('',(#308));
#622=EDGE_LOOP('',(#309));
#623=EDGE_LOOP('',(#310));
#624=EDGE_LOOP('',(#311,#312,#313,#314));
#625=FACE_BOUND('',#522,.T.);
#626=FACE_BOUND('',#523,.T.);
#627=FACE_BOUND('',#524,.T.);
#628=FACE_BOUND('',#525,.T.);
#629=FACE_BOUND('',#526,.T.);
#630=FACE_BOUND('',#527,.T.);
#631=FACE_BOUND('',#528,.T.);
#632=FACE_BOUND('',#529,.T.);
#633=FACE_BOUND('',#530,.T.);
#634=FACE_BOUND('',#531,.T.);
#635=FACE_BOUND('',#532,.T.);
#636=FACE_BOUND('',#533,.T.);
#637=FACE_BOUND('',#534,.T.);
#638=FACE_BOUND('',#535,.T.);
#639=FACE_BOUND('',#536,.T.);
#640=FACE_BOUND('',#537,.T.);
#641=FACE_BOUND('',#538,.T.);
#642=FACE_BOUND('',#539,.T.);
#643=FACE_BOUND('',#540,.T.);
#644=FACE_BOUND('',#541,.T.);
#645=FACE_BOUND('',#542,.T.);
#646=FACE_BOUND('',#543,.T.);
#647=FACE_BOUND('',#544,.T.);
#648=FACE_BOUND('',#545,.T.);
#649=FACE_BOUND('',#546,.T.);
#650=FACE_BOUND('',#547,.T.);
#651=FACE_BOUND('',#548,.T.);
#652=FACE_BOUND('',#549,.T.);
#653=FACE_BOUND('',#550,.T.);
#654=FACE_BOUND('',#551,.T.);
#655=FACE_BOUND('',#552,.T.);
#656=FACE_BOUND('',#553,.T.);
#657=FACE_BOUND('',#554,.T.);
#658=FACE_BOUND('',#555,.T.);
#659=FACE_BOUND('',#556,.T.);
#660=FACE_BOUND('',#557,.T.);
#661=FACE_BOUND('',#558,.T.);
#662=FACE_BOUND('',#559,.T.);
#663=FACE_BOUND('',#560,.T.);
#664=FACE_BOUND('',#561,.T.);
#665=FACE_BOUND('',#562,.T.);
#666=FACE_BOUND('',#563,.T.);
#667=FACE_BOUND('',#564,.T.);
#668=FACE_BOUND('',#565,.T.);
#669=FACE_BOUND('',#566,.T.);
#670=FACE_BOUND('',#567,.T.);
#671=FACE_BOUND('',#568,.T.);
#672=FACE_BOUND('',#569,.T.);
#673=FACE_BOUND('',#570,.T.);
#674=FACE_BOUND('',#571,.T.);
#675=FACE_BOUND('',#572,.T.);
#676=FACE_BOUND('',#573,.T.);
#677=FACE_BOUND('',#574,.T.);
#678=FACE_BOUND('',#575,.T.);
#679=FACE_BOUND('',#576,.T.);
#680=FACE_BOUND('',#577,.T.);
#681=FACE_BOUND('',#578,.T.);
#682=FACE_BOUND('',#579,.T.);
#683=FACE_BOUND('',#580,.T.);
#684=FACE_BOUND('',#581,.T.);
#685=FACE_BOUND('',#582,.T.);
#686=FACE_BOUND('',#583,.T.);
#687=FACE_BOUND('',#584,.T.);
#688=FACE_BOUND('',#585,.T.);
#689=FACE_BOUND('',#586,.T.);
#690=FACE_BOUND('',#587,.T.);
#691=FACE_BOUND('',#588,.T.);
#692=FACE_BOUND('',#589,.T.);
#693=FACE_BOUND('',#590,.T.);
#694=FACE_BOUND('',#591,.T.);
#695=FACE_BOUND('',#592,.T.);
#696=FACE_BOUND('',#593,.T.);
#697=FACE_BOUND('',#594,.T.);
#698=FACE_BOUND('',#595,.T.);
#699=FACE_BOUND('',#596,.T.);
#700=FACE_BOUND('',#597,.T.);
#701=FACE_BOUND('',#598,.T.);
#702=FACE_BOUND('',#599,.T.);
#703=FACE_BOUND('',#600,.T.);
#704=FACE_BOUND('',#601,.T.);
#705=FACE_BOUND('',#602,.T.);
#706=FACE_BOUND('',#603,.T.);
#707=FACE_BOUND('',#604,.T.);
#708=FACE_BOUND('',#605,.T.);
#709=FACE_BOUND('',#606,.T.);
#710=FACE_BOUND('',#607,.T.);
#711=FACE_BOUND('',#608,.T.);
#712=FACE_BOUND('',#609,.T.);
#713=FACE_BOUND('',#610,.T.);
#714=FACE_BOUND('',#611,.T.);
#715=FACE_BOUND('',#612,.T.);
#716=FACE_BOUND('',#613,.T.);
#717=FACE_BOUND('',#614,.T.);
#718=FACE_BOUND('',#615,.T.);
#719=FACE_BOUND('',#616,.T.);
#720=FACE_BOUND('',#617,.T.);
#721=FACE_BOUND('',#618,.T.);
#722=FACE_BOUND('',#619,.T.);
#723=FACE_BOUND('',#620,.T.);
#724=FACE_BOUND('',#621,.T.);
#725=FACE_BOUND('',#622,.T.);
#726=FACE_BOUND('',#623,.T.);
#727=FACE_BOUND('',#624,.T.);
#728=PLANE('',#834);
#729=PLANE('',#837);
#730=PLANE('',#840);
#731=PLANE('',#843);
#732=PLANE('',#844);
#733=PLANE('',#847);
#734=PLANE('',#848);
#735=PLANE('',#851);
#736=PLANE('',#854);
#737=PLANE('',#857);
#738=PLANE('',#862);
#739=PLANE('',#863);
#740=PLANE('',#864);
#741=PLANE('',#865);
#742=PLANE('',#866);
#743=PLANE('',#868);
#744=PLANE('',#869);
#745=PLANE('',#870);
#746=PLANE('',#874);
#747=PLANE('',#877);
#748=PLANE('',#880);
#749=PLANE('',#883);
#750=PLANE('',#891);
#751=PLANE('',#892);
#752=PLANE('',#899);
#753=PLANE('',#900);
#754=PLANE('',#907);
#755=PLANE('',#908);
#756=PLANE('',#915);
#757=PLANE('',#916);
#758=PLANE('',#923);
#759=PLANE('',#926);
#760=PLANE('',#929);
#761=PLANE('',#932);
#762=PLANE('',#933);
#763=ADVANCED_FACE('',(#625,#626,#627),#728,.F.);
#764=ADVANCED_FACE('',(#628,#629,#630),#729,.F.);
#765=ADVANCED_FACE('',(#631,#632,#633),#730,.T.);
#766=ADVANCED_FACE('',(#634),#731,.F.);
#767=ADVANCED_FACE('',(#635,#636,#637),#732,.F.);
#768=ADVANCED_FACE('',(#638),#733,.T.);
#769=ADVANCED_FACE('',(#639),#734,.T.);
#770=ADVANCED_FACE('',(#640,#641),#16,.F.);
#771=ADVANCED_FACE('',(#642,#643),#17,.F.);
#772=ADVANCED_FACE('',(#644,#645,#646),#735,.F.);
#773=ADVANCED_FACE('',(#647,#648,#649),#736,.F.);
#774=ADVANCED_FACE('',(#650,#651,#652,#653,#654),#737,.T.);
#775=ADVANCED_FACE('',(#655),#738,.T.);
#776=ADVANCED_FACE('',(#656),#739,.F.);
#777=ADVANCED_FACE('',(#657),#740,.F.);
#778=ADVANCED_FACE('',(#658),#741,.F.);
#779=ADVANCED_FACE('',(#659,#660),#742,.F.);
#780=ADVANCED_FACE('',(#661),#743,.T.);
#781=ADVANCED_FACE('',(#662),#744,.F.);
#782=ADVANCED_FACE('',(#663,#664),#745,.F.);
#783=ADVANCED_FACE('',(#665,#666),#18,.F.);
#784=ADVANCED_FACE('',(#667),#746,.T.);
#785=ADVANCED_FACE('',(#668,#669),#19,.F.);
#786=ADVANCED_FACE('',(#670),#747,.T.);
#787=ADVANCED_FACE('',(#671,#672),#20,.F.);
#788=ADVANCED_FACE('',(#673),#748,.T.);
#789=ADVANCED_FACE('',(#674,#675),#21,.F.);
#790=ADVANCED_FACE('',(#676),#749,.T.);
#791=ADVANCED_FACE('',(#677,#678),#22,.F.);
#792=ADVANCED_FACE('',(#679,#680),#23,.F.);
#793=ADVANCED_FACE('',(#681,#682),#24,.T.);
#794=ADVANCED_FACE('',(#683,#684),#750,.F.);
#795=ADVANCED_FACE('',(#685),#751,.T.);
#796=ADVANCED_FACE('',(#686,#687),#25,.F.);
#797=ADVANCED_FACE('',(#688,#689),#26,.T.);
#798=ADVANCED_FACE('',(#690,#691),#752,.F.);
#799=ADVANCED_FACE('',(#692),#753,.T.);
#800=ADVANCED_FACE('',(#693,#694),#27,.F.);
#801=ADVANCED_FACE('',(#695,#696),#28,.T.);
#802=ADVANCED_FACE('',(#697,#698),#754,.F.);
#803=ADVANCED_FACE('',(#699),#755,.T.);
#804=ADVANCED_FACE('',(#700,#701),#29,.F.);
#805=ADVANCED_FACE('',(#702,#703),#30,.T.);
#806=ADVANCED_FACE('',(#704,#705),#756,.F.);
#807=ADVANCED_FACE('',(#706),#757,.T.);
#808=ADVANCED_FACE('',(#707,#708),#12,.T.);
#809=ADVANCED_FACE('',(#709,#710),#13,.T.);
#810=ADVANCED_FACE('',(#711,#712),#14,.T.);
#811=ADVANCED_FACE('',(#713,#714),#15,.T.);
#812=ADVANCED_FACE('',(#715,#716),#31,.F.);
#813=ADVANCED_FACE('',(#717),#758,.T.);
#814=ADVANCED_FACE('',(#718,#719),#32,.F.);
#815=ADVANCED_FACE('',(#720),#759,.T.);
#816=ADVANCED_FACE('',(#721,#722),#33,.F.);
#817=ADVANCED_FACE('',(#723),#760,.T.);
#818=ADVANCED_FACE('',(#724,#725),#34,.F.);
#819=ADVANCED_FACE('',(#726),#761,.T.);
#820=ADVANCED_FACE('',(#727),#762,.F.);
#821=CLOSED_SHELL('',(#763,#764,#765,#766,#767,#768,#769,#770,#771,#772,
#773,#774,#775,#776,#777,#778,#779,#780,#781,#782,#783,#784,#785,#786,#787,
#788,#789,#790,#791,#792,#793,#794,#795,#796,#797,#798,#799,#800,#801,#802,
#803,#804,#805,#806,#807,#808,#809,#810,#811,#812,#813,#814,#815,#816,#817,
#818,#819,#820));
#822=STYLED_ITEM('',(#823),#830);
#823=PRESENTATION_STYLE_ASSIGNMENT((#824));
#824=SURFACE_STYLE_USAGE(.BOTH.,#825);
#825=SURFACE_SIDE_STYLE('',(#826));
#826=SURFACE_STYLE_FILL_AREA(#827);
#827=FILL_AREA_STYLE('',(#828));
#828=FILL_AREA_STYLE_COLOUR('',#829);
#829=COLOUR_RGB('',0.972549019607843,0.529411764705882,0.00392156862745098);
#830=MANIFOLD_SOLID_BREP('Part 14',#821);
#831=SHAPE_DEFINITION_REPRESENTATION(#1415,#832);
#832=SHAPE_REPRESENTATION('Part 14',(#833),#1410);
#833=AXIS2_PLACEMENT_3D('',#1185,#934,#935);
#834=AXIS2_PLACEMENT_3D('',#1186,#936,#937);
#835=AXIS2_PLACEMENT_3D('',#1187,#938,#939);
#836=AXIS2_PLACEMENT_3D('',#1197,#944,#945);
#837=AXIS2_PLACEMENT_3D('',#1199,#946,#947);
#838=AXIS2_PLACEMENT_3D('',#1200,#948,#949);
#839=AXIS2_PLACEMENT_3D('',#1210,#954,#955);
#840=AXIS2_PLACEMENT_3D('',#1212,#956,#957);
#841=AXIS2_PLACEMENT_3D('',#1213,#958,#959);
#842=AXIS2_PLACEMENT_3D('',#1215,#960,#961);
#843=AXIS2_PLACEMENT_3D('',#1241,#974,#975);
#844=AXIS2_PLACEMENT_3D('',#1249,#980,#981);
#845=AXIS2_PLACEMENT_3D('',#1250,#982,#983);
#846=AXIS2_PLACEMENT_3D('',#1252,#984,#985);
#847=AXIS2_PLACEMENT_3D('',#1259,#989,#990);
#848=AXIS2_PLACEMENT_3D('',#1264,#994,#995);
#849=AXIS2_PLACEMENT_3D('',#1265,#996,#997);
#850=AXIS2_PLACEMENT_3D('',#1266,#998,#999);
#851=AXIS2_PLACEMENT_3D('',#1267,#1000,#1001);
#852=AXIS2_PLACEMENT_3D('',#1268,#1002,#1003);
#853=AXIS2_PLACEMENT_3D('',#1272,#1006,#1007);
#854=AXIS2_PLACEMENT_3D('',#1274,#1008,#1009);
#855=AXIS2_PLACEMENT_3D('',#1275,#1010,#1011);
#856=AXIS2_PLACEMENT_3D('',#1279,#1014,#1015);
#857=AXIS2_PLACEMENT_3D('',#1281,#1016,#1017);
#858=AXIS2_PLACEMENT_3D('',#1282,#1018,#1019);
#859=AXIS2_PLACEMENT_3D('',#1284,#1020,#1021);
#860=AXIS2_PLACEMENT_3D('',#1286,#1022,#1023);
#861=AXIS2_PLACEMENT_3D('',#1288,#1024,#1025);
#862=AXIS2_PLACEMENT_3D('',#1296,#1030,#1031);
#863=AXIS2_PLACEMENT_3D('',#1300,#1035,#1036);
#864=AXIS2_PLACEMENT_3D('',#1306,#1040,#1041);
#865=AXIS2_PLACEMENT_3D('',#1312,#1045,#1046);
#866=AXIS2_PLACEMENT_3D('',#1315,#1049,#1050);
#867=AXIS2_PLACEMENT_3D('',#1316,#1051,#1052);
#868=AXIS2_PLACEMENT_3D('',#1318,#1053,#1054);
#869=AXIS2_PLACEMENT_3D('',#1319,#1055,#1056);
#870=AXIS2_PLACEMENT_3D('',#1320,#1057,#1058);
#871=AXIS2_PLACEMENT_3D('',#1321,#1059,#1060);
#872=AXIS2_PLACEMENT_3D('',#1323,#1061,#1062);
#873=AXIS2_PLACEMENT_3D('',#1324,#1063,#1064);
#874=AXIS2_PLACEMENT_3D('',#1326,#1065,#1066);
#875=AXIS2_PLACEMENT_3D('',#1327,#1067,#1068);
#876=AXIS2_PLACEMENT_3D('',#1328,#1069,#1070);
#877=AXIS2_PLACEMENT_3D('',#1330,#1071,#1072);
#878=AXIS2_PLACEMENT_3D('',#1331,#1073,#1074);
#879=AXIS2_PLACEMENT_3D('',#1332,#1075,#1076);
#880=AXIS2_PLACEMENT_3D('',#1334,#1077,#1078);
#881=AXIS2_PLACEMENT_3D('',#1335,#1079,#1080);
#882=AXIS2_PLACEMENT_3D('',#1336,#1081,#1082);
#883=AXIS2_PLACEMENT_3D('',#1338,#1083,#1084);
#884=AXIS2_PLACEMENT_3D('',#1339,#1085,#1086);
#885=AXIS2_PLACEMENT_3D('',#1340,#1087,#1088);
#886=AXIS2_PLACEMENT_3D('',#1341,#1089,#1090);
#887=AXIS2_PLACEMENT_3D('',#1343,#1091,#1092);
#888=AXIS2_PLACEMENT_3D('',#1345,#1093,#1094);
#889=AXIS2_PLACEMENT_3D('',#1346,#1095,#1096);
#890=AXIS2_PLACEMENT_3D('',#1348,#1097,#1098);
#891=AXIS2_PLACEMENT_3D('',#1350,#1099,#1100);
#892=AXIS2_PLACEMENT_3D('',#1351,#1101,#1102);
#893=AXIS2_PLACEMENT_3D('',#1352,#1103,#1104);
#894=AXIS2_PLACEMENT_3D('',#1353,#1105,#1106);
#895=AXIS2_PLACEMENT_3D('',#1355,#1107,#1108);
#896=AXIS2_PLACEMENT_3D('',#1357,#1109,#1110);
#897=AXIS2_PLACEMENT_3D('',#1358,#1111,#1112);
#898=AXIS2_PLACEMENT_3D('',#1360,#1113,#1114);
#899=AXIS2_PLACEMENT_3D('',#1362,#1115,#1116);
#900=AXIS2_PLACEMENT_3D('',#1363,#1117,#1118);
#901=AXIS2_PLACEMENT_3D('',#1364,#1119,#1120);
#902=AXIS2_PLACEMENT_3D('',#1365,#1121,#1122);
#903=AXIS2_PLACEMENT_3D('',#1367,#1123,#1124);
#904=AXIS2_PLACEMENT_3D('',#1369,#1125,#1126);
#905=AXIS2_PLACEMENT_3D('',#1370,#1127,#1128);
#906=AXIS2_PLACEMENT_3D('',#1372,#1129,#1130);
#907=AXIS2_PLACEMENT_3D('',#1374,#1131,#1132);
#908=AXIS2_PLACEMENT_3D('',#1375,#1133,#1134);
#909=AXIS2_PLACEMENT_3D('',#1376,#1135,#1136);
#910=AXIS2_PLACEMENT_3D('',#1377,#1137,#1138);
#911=AXIS2_PLACEMENT_3D('',#1379,#1139,#1140);
#912=AXIS2_PLACEMENT_3D('',#1381,#1141,#1142);
#913=AXIS2_PLACEMENT_3D('',#1382,#1143,#1144);
#914=AXIS2_PLACEMENT_3D('',#1384,#1145,#1146);
#915=AXIS2_PLACEMENT_3D('',#1386,#1147,#1148);
#916=AXIS2_PLACEMENT_3D('',#1387,#1149,#1150);
#917=AXIS2_PLACEMENT_3D('',#1388,#1151,#1152);
#918=AXIS2_PLACEMENT_3D('',#1389,#1153,#1154);
#919=AXIS2_PLACEMENT_3D('',#1390,#1155,#1156);
#920=AXIS2_PLACEMENT_3D('',#1391,#1157,#1158);
#921=AXIS2_PLACEMENT_3D('',#1392,#1159,#1160);
#922=AXIS2_PLACEMENT_3D('',#1393,#1161,#1162);
#923=AXIS2_PLACEMENT_3D('',#1395,#1163,#1164);
#924=AXIS2_PLACEMENT_3D('',#1396,#1165,#1166);
#925=AXIS2_PLACEMENT_3D('',#1397,#1167,#1168);
#926=AXIS2_PLACEMENT_3D('',#1399,#1169,#1170);
#927=AXIS2_PLACEMENT_3D('',#1400,#1171,#1172);
#928=AXIS2_PLACEMENT_3D('',#1401,#1173,#1174);
#929=AXIS2_PLACEMENT_3D('',#1403,#1175,#1176);
#930=AXIS2_PLACEMENT_3D('',#1404,#1177,#1178);
#931=AXIS2_PLACEMENT_3D('',#1405,#1179,#1180);
#932=AXIS2_PLACEMENT_3D('',#1407,#1181,#1182);
#933=AXIS2_PLACEMENT_3D('',#1408,#1183,#1184);
#934=DIRECTION('',(0.,0.,1.));
#935=DIRECTION('',(1.,0.,0.));
#936=DIRECTION('',(0.,0.666794859469826,-0.745241313525099));
#937=DIRECTION('',(0.,0.745241313525099,0.666794859469826));
#938=DIRECTION('',(0.,0.666794859469826,-0.745241313525099));
#939=DIRECTION('',(0.,0.745241313525099,0.666794859469826));
#940=DIRECTION('',(0.,0.745241313525099,0.666794859469826));
#941=DIRECTION('',(1.,0.,0.));
#942=DIRECTION('',(0.,0.745241313525099,0.666794859469826));
#943=DIRECTION('',(1.,0.,0.));
#944=DIRECTION('',(0.,0.666794859469826,-0.745241313525099));
#945=DIRECTION('',(0.,0.745241313525099,0.666794859469826));
#946=DIRECTION('',(0.,0.666794859469825,-0.7452413135251));
#947=DIRECTION('',(0.,0.7452413135251,0.666794859469826));
#948=DIRECTION('',(0.,0.666794859469825,-0.7452413135251));
#949=DIRECTION('',(0.,0.7452413135251,0.666794859469826));
#950=DIRECTION('',(0.,-0.7452413135251,-0.666794859469826));
#951=DIRECTION('',(1.,0.,0.));
#952=DIRECTION('',(0.,-0.7452413135251,-0.666794859469826));
#953=DIRECTION('',(-1.,0.,0.));
#954=DIRECTION('',(0.,0.666794859469825,-0.7452413135251));
#955=DIRECTION('',(0.,0.7452413135251,0.666794859469826));
#956=DIRECTION('',(0.,1.,0.));
#957=DIRECTION('',(0.,0.,1.));
#958=DIRECTION('',(0.,1.,0.));
#959=DIRECTION('',(0.,0.,1.));
#960=DIRECTION('',(0.,1.,0.));
#961=DIRECTION('',(0.,0.,1.));
#962=DIRECTION('',(0.,0.,-1.));
#963=DIRECTION('',(1.,0.,0.));
#964=DIRECTION('',(0.,0.,1.));
#965=DIRECTION('',(1.,0.,0.));
#966=DIRECTION('',(0.,0.,1.));
#967=DIRECTION('',(1.,0.,0.));
#968=DIRECTION('',(0.,0.,1.));
#969=DIRECTION('',(-1.,0.,0.));
#970=DIRECTION('',(0.,0.,1.));
#971=DIRECTION('',(1.,0.,0.));
#972=DIRECTION('',(0.,0.,-1.));
#973=DIRECTION('',(1.,0.,0.));
#974=DIRECTION('',(1.,0.,0.));
#975=DIRECTION('',(0.,0.,-1.));
#976=DIRECTION('',(0.,-1.,0.));
#977=DIRECTION('',(0.,0.707106781186548,0.707106781186548));
#978=DIRECTION('',(0.,0.,-1.));
#979=DIRECTION('',(0.,-1.,0.));
#980=DIRECTION('',(0.,1.,0.));
#981=DIRECTION('',(0.,0.,1.));
#982=DIRECTION('',(0.,-1.,0.));
#983=DIRECTION('',(0.,0.,-1.));
#984=DIRECTION('',(0.,-1.,0.));
#985=DIRECTION('',(0.,0.,-1.));
#986=DIRECTION('',(1.,0.,0.));
#987=DIRECTION('',(0.,0.,-1.));
#988=DIRECTION('',(1.,0.,0.));
#989=DIRECTION('',(1.,0.,0.));
#990=DIRECTION('',(0.,0.,-1.));
#991=DIRECTION('',(0.,-1.,0.));
#992=DIRECTION('',(0.,-1.,0.));
#993=DIRECTION('',(0.,-0.707106781186548,-0.707106781186548));
#994=DIRECTION('',(0.,0.,1.));
#995=DIRECTION('',(1.,0.,0.));
#996=DIRECTION('',(0.,-1.,0.));
#997=DIRECTION('',(0.,0.,-1.));
#998=DIRECTION('',(0.,-1.,0.));
#999=DIRECTION('',(0.,0.,-1.));
#1000=DIRECTION('',(0.,0.,-1.));
#1001=DIRECTION('',(-1.,0.,0.));
#1002=DIRECTION('',(0.,0.,-1.));
#1003=DIRECTION('',(-1.,0.,0.));
#1004=DIRECTION('',(0.,1.,0.));
#1005=DIRECTION('',(0.,1.,0.));
#1006=DIRECTION('',(0.,0.,-1.));
#1007=DIRECTION('',(-1.,0.,0.));
#1008=DIRECTION('',(0.,-1.56162350284663E-17,-1.));
#1009=DIRECTION('',(0.,1.,-1.56162350284663E-17));
#1010=DIRECTION('',(0.,-1.56162350284663E-17,-1.));
#1011=DIRECTION('',(0.,1.,-1.56162350284663E-17));
#1012=DIRECTION('',(0.,-1.,1.56162350284663E-17));
#1013=DIRECTION('',(0.,-1.,1.56162350284663E-17));
#1014=DIRECTION('',(0.,-1.56162350284663E-17,-1.));
#1015=DIRECTION('',(0.,1.,-1.56162350284663E-17));
#1016=DIRECTION('',(0.,0.,1.));
#1017=DIRECTION('',(1.,0.,0.));
#1018=DIRECTION('',(0.,0.,1.));
#1019=DIRECTION('',(1.,0.,0.));
#1020=DIRECTION('',(0.,0.,1.));
#1021=DIRECTION('',(1.,0.,0.));
#1022=DIRECTION('',(0.,0.,1.));
#1023=DIRECTION('',(1.,0.,0.));
#1024=DIRECTION('',(0.,0.,1.));
#1025=DIRECTION('',(1.,0.,0.));
#1026=DIRECTION('',(-1.,0.,0.));
#1027=DIRECTION('',(0.,-1.,0.));
#1028=DIRECTION('',(1.,0.,0.));
#1029=DIRECTION('',(0.,-1.,0.));
#1030=DIRECTION('',(0.,1.,0.));
#1031=DIRECTION('',(0.,0.,1.));
#1032=DIRECTION('',(0.,0.,1.));
#1033=DIRECTION('',(1.,0.,0.));
#1034=DIRECTION('',(0.,0.,1.));
#1035=DIRECTION('',(0.,0.,-1.));
#1036=DIRECTION('',(-1.,0.,0.));
#1037=DIRECTION('',(0.,1.,0.));
#1038=DIRECTION('',(0.,1.,0.));
#1039=DIRECTION('',(1.,0.,0.));
#1040=DIRECTION('',(0.,1.,0.));
#1041=DIRECTION('',(0.,0.,1.));
#1042=DIRECTION('',(0.,0.,1.));
#1043=DIRECTION('',(0.,0.,1.));
#1044=DIRECTION('',(1.,0.,0.));
#1045=DIRECTION('',(0.,0.,1.));
#1046=DIRECTION('',(1.,0.,0.));
#1047=DIRECTION('',(0.,-1.,0.));
#1048=DIRECTION('',(0.,-1.,0.));
#1049=DIRECTION('',(1.,0.,0.));
#1050=DIRECTION('',(0.,1.,0.));
#1051=DIRECTION('',(-1.,0.,0.));
#1052=DIRECTION('',(0.,0.,1.));
#1053=DIRECTION('',(1.,0.,0.));
#1054=DIRECTION('',(0.,1.,0.));
#1055=DIRECTION('',(1.,0.,0.));
#1056=DIRECTION('',(0.,1.,0.));
#1057=DIRECTION('',(-1.,0.,0.));
#1058=DIRECTION('',(0.,-1.,0.));
#1059=DIRECTION('',(-1.,0.,0.));
#1060=DIRECTION('',(0.,0.,1.));
#1061=DIRECTION('',(0.,4.98239845561417E-17,1.));
#1062=DIRECTION('',(0.,-1.,4.98239845561417E-17));
#1063=DIRECTION('',(0.,4.98239845561417E-17,1.));
#1064=DIRECTION('',(0.,-1.,4.98239845561417E-17));
#1065=DIRECTION('',(0.,4.98239845561417E-17,1.));
#1066=DIRECTION('',(1.,0.,0.));
#1067=DIRECTION('',(0.,4.98239845561417E-17,1.));
#1068=DIRECTION('',(0.,-1.,4.98239845561417E-17));
#1069=DIRECTION('',(0.,-4.98239845561417E-17,-1.));
#1070=DIRECTION('',(0.,-1.,4.98239845561417E-17));
#1071=DIRECTION('',(0.,4.98239845561417E-17,1.));
#1072=DIRECTION('',(1.,0.,0.));
#1073=DIRECTION('',(0.,4.98239845561417E-17,1.));
#1074=DIRECTION('',(0.,-1.,4.98239845561417E-17));
#1075=DIRECTION('',(0.,4.98239845561417E-17,1.));
#1076=DIRECTION('',(0.,-1.,4.98239845561417E-17));
#1077=DIRECTION('',(0.,4.98239845561417E-17,1.));
#1078=DIRECTION('',(1.,0.,0.));
#1079=DIRECTION('',(0.,4.98239845561417E-17,1.));
#1080=DIRECTION('',(0.,-1.,4.98239845561417E-17));
#1081=DIRECTION('',(0.,-4.98239845561417E-17,-1.));
#1082=DIRECTION('',(0.,-1.,4.98239845561417E-17));
#1083=DIRECTION('',(0.,4.98239845561417E-17,1.));
#1084=DIRECTION('',(1.,0.,0.));
#1085=DIRECTION('',(-1.,0.,0.));
#1086=DIRECTION('',(0.,0.,1.));
#1087=DIRECTION('',(0.,0.,1.));
#1088=DIRECTION('',(1.,0.,0.));
#1089=DIRECTION('',(0.,0.,1.));
#1090=DIRECTION('',(1.,0.,0.));
#1091=DIRECTION('',(0.,0.,-1.));
#1092=DIRECTION('',(-1.,0.,0.));
#1093=DIRECTION('',(0.,0.,1.));
#1094=DIRECTION('',(1.,0.,0.));
#1095=DIRECTION('',(0.,0.,1.));
#1096=DIRECTION('',(1.,0.,0.));
#1097=DIRECTION('',(0.,0.,-1.));
#1098=DIRECTION('',(-1.,0.,0.));
#1099=DIRECTION('',(0.,0.,-1.));
#1100=DIRECTION('',(1.,0.,0.));
#1101=DIRECTION('',(0.,0.,1.));
#1102=DIRECTION('',(1.,0.,0.));
#1103=DIRECTION('',(0.,0.,1.));
#1104=DIRECTION('',(1.,0.,0.));
#1105=DIRECTION('',(0.,0.,1.));
#1106=DIRECTION('',(1.,0.,0.));
#1107=DIRECTION('',(0.,0.,-1.));
#1108=DIRECTION('',(-1.,0.,0.));
#1109=DIRECTION('',(0.,0.,1.));
#1110=DIRECTION('',(1.,0.,0.));
#1111=DIRECTION('',(0.,0.,1.));
#1112=DIRECTION('',(1.,0.,0.));
#1113=DIRECTION('',(0.,0.,-1.));
#1114=DIRECTION('',(-1.,0.,0.));
#1115=DIRECTION('',(0.,0.,-1.));
#1116=DIRECTION('',(1.,0.,0.));
#1117=DIRECTION('',(0.,0.,1.));
#1118=DIRECTION('',(1.,0.,0.));
#1119=DIRECTION('',(0.,0.,1.));
#1120=DIRECTION('',(1.,0.,0.));
#1121=DIRECTION('',(0.,0.,1.));
#1122=DIRECTION('',(1.,0.,0.));
#1123=DIRECTION('',(0.,0.,-1.));
#1124=DIRECTION('',(-1.,0.,0.));
#1125=DIRECTION('',(0.,0.,1.));
#1126=DIRECTION('',(1.,0.,0.));
#1127=DIRECTION('',(0.,0.,1.));
#1128=DIRECTION('',(1.,0.,0.));
#1129=DIRECTION('',(0.,0.,-1.));
#1130=DIRECTION('',(-1.,0.,0.));
#1131=DIRECTION('',(0.,0.,-1.));
#1132=DIRECTION('',(1.,0.,0.));
#1133=DIRECTION('',(0.,0.,1.));
#1134=DIRECTION('',(1.,0.,0.));
#1135=DIRECTION('',(0.,0.,1.));
#1136=DIRECTION('',(1.,0.,0.));
#1137=DIRECTION('',(0.,0.,1.));
#1138=DIRECTION('',(1.,0.,0.));
#1139=DIRECTION('',(0.,0.,-1.));
#1140=DIRECTION('',(-1.,0.,0.));
#1141=DIRECTION('',(0.,0.,1.));
#1142=DIRECTION('',(1.,0.,0.));
#1143=DIRECTION('',(0.,0.,1.));
#1144=DIRECTION('',(1.,0.,0.));
#1145=DIRECTION('',(0.,0.,-1.));
#1146=DIRECTION('',(-1.,0.,0.));
#1147=DIRECTION('',(0.,0.,-1.));
#1148=DIRECTION('',(1.,0.,0.));
#1149=DIRECTION('',(0.,0.,1.));
#1150=DIRECTION('',(1.,0.,0.));
#1151=DIRECTION('',(0.,0.,-1.));
#1152=DIRECTION('',(-1.,0.,0.));
#1153=DIRECTION('',(0.,0.,-1.));
#1154=DIRECTION('',(-1.,0.,0.));
#1155=DIRECTION('',(0.,0.,-1.));
#1156=DIRECTION('',(-1.,0.,0.));
#1157=DIRECTION('',(0.,0.,-1.));
#1158=DIRECTION('',(-1.,0.,0.));
#1159=DIRECTION('',(0.,-0.666794859469826,0.745241313525099));
#1160=DIRECTION('',(0.,-0.745241313525099,-0.666794859469826));
#1161=DIRECTION('',(0.,-0.666794859469826,0.745241313525099));
#1162=DIRECTION('',(0.,-0.745241313525099,-0.666794859469826));
#1163=DIRECTION('',(0.,-0.666794859469826,0.745241313525099));
#1164=DIRECTION('',(1.,0.,0.));
#1165=DIRECTION('',(0.,-0.666794859469826,0.745241313525099));
#1166=DIRECTION('',(0.,-0.745241313525099,-0.666794859469826));
#1167=DIRECTION('',(0.,0.666794859469826,-0.745241313525099));
#1168=DIRECTION('',(0.,-0.745241313525099,-0.666794859469826));
#1169=DIRECTION('',(0.,-0.666794859469826,0.745241313525099));
#1170=DIRECTION('',(1.,0.,0.));
#1171=DIRECTION('',(0.,-0.666794859469826,0.745241313525099));
#1172=DIRECTION('',(0.,-0.745241313525099,-0.666794859469826));
#1173=DIRECTION('',(0.,-0.666794859469826,0.745241313525099));
#1174=DIRECTION('',(0.,-0.745241313525099,-0.666794859469826));
#1175=DIRECTION('',(0.,-0.666794859469826,0.745241313525099));
#1176=DIRECTION('',(1.,0.,0.));
#1177=DIRECTION('',(0.,-0.666794859469826,0.745241313525099));
#1178=DIRECTION('',(0.,-0.745241313525099,-0.666794859469826));
#1179=DIRECTION('',(0.,0.666794859469826,-0.745241313525099));
#1180=DIRECTION('',(0.,-0.745241313525099,-0.666794859469826));
#1181=DIRECTION('',(0.,-0.666794859469826,0.745241313525099));
#1182=DIRECTION('',(1.,0.,0.));
#1183=DIRECTION('',(0.,0.707106781186548,-0.707106781186548));
#1184=DIRECTION('',(1.,0.,0.));
#1185=CARTESIAN_POINT('',(0.,0.,0.));
#1186=CARTESIAN_POINT('',(0.175335293992996,-0.133012308143245,-0.0235604862334294));
#1187=CARTESIAN_POINT('',(0.177843790028416,-0.151109986043285,-0.03975314540715));
#1188=CARTESIAN_POINT('',(0.177843790028416,-0.149879592634656,-0.0386522670941653));
#1189=CARTESIAN_POINT('',(0.180415293992996,-0.133012308143245,-0.0235604862334294));
#1190=CARTESIAN_POINT('',(0.180415293992996,-0.15494,-0.04318));
#1191=CARTESIAN_POINT('',(0.180415293992996,-0.111084616286489,-0.00394097246685863));
#1192=CARTESIAN_POINT('',(0.175335293992996,-0.111084616286489,-0.00394097246685863));
#1193=CARTESIAN_POINT('',(0.175335293992996,-0.111084616286489,-0.00394097246685863));
#1194=CARTESIAN_POINT('',(0.175335293992996,-0.133012308143245,-0.0235604862334294));
#1195=CARTESIAN_POINT('',(0.175335293992996,-0.15494,-0.04318));
#1196=CARTESIAN_POINT('',(0.175335293992996,-0.15494,-0.04318));
#1197=CARTESIAN_POINT('',(0.177672784936921,-0.115666399902754,-0.00804046307088477));
#1198=CARTESIAN_POINT('',(0.177672784936921,-0.114436006494124,-0.00693958475790009));
#1199=CARTESIAN_POINT('',(-0.00119470600700378,-0.133012308143245,-0.0235604862334293));
#1200=CARTESIAN_POINT('',(-0.00373470600700379,-0.115909446221198,-0.00825792556633471));
#1201=CARTESIAN_POINT('',(-0.00373470600700379,-0.114679052812568,-0.00715704725335003));
#1202=CARTESIAN_POINT('',(-0.00627470600700378,-0.133012308143245,-0.0235604862334293));
#1203=CARTESIAN_POINT('',(-0.00627470600700378,-0.111084616286489,-0.00394097246685862));
#1204=CARTESIAN_POINT('',(-0.00627470600700378,-0.15494,-0.04318));
#1205=CARTESIAN_POINT('',(-0.00627470600700378,-0.15494,-0.04318));
#1206=CARTESIAN_POINT('',(-0.00119470600700378,-0.15494,-0.04318));
#1207=CARTESIAN_POINT('',(-0.00119470600700378,-0.133012308143245,-0.0235604862334293));
#1208=CARTESIAN_POINT('',(-0.00119470600700378,-0.111084616286489,-0.00394097246685862));
#1209=CARTESIAN_POINT('',(-0.00119470600700378,-0.111084616286489,-0.00394097246685862));
#1210=CARTESIAN_POINT('',(-0.00373470600700377,-0.15135326147111,-0.0399708128952038));
#1211=CARTESIAN_POINT('',(-0.00373470600700377,-0.15012286806248,-0.0388699345822191));
#1212=CARTESIAN_POINT('',(-0.00627470600700378,0.,-0.03683));
#1213=CARTESIAN_POINT('',(0.0470528299188488,0.,-0.04191));
#1214=CARTESIAN_POINT('',(0.0470528299188488,0.,-0.040386));
#1215=CARTESIAN_POINT('',(0.0555987148226391,0.,-0.04191));
#1216=CARTESIAN_POINT('',(0.0555987148226391,0.,-0.040386));
#1217=CARTESIAN_POINT('',(0.0610075843813203,0.,-0.03683));
#1218=CARTESIAN_POINT('',(0.0610075843813203,0.,-0.03683));
#1219=CARTESIAN_POINT('',(0.0610075843813203,0.,-0.04699));
#1220=CARTESIAN_POINT('',(-0.00627470600700378,0.,-0.04699));
#1221=CARTESIAN_POINT('',(0.175335293992996,0.,-0.04699));
#1222=CARTESIAN_POINT('',(0.175335293992996,0.,-0.0254));
#1223=CARTESIAN_POINT('',(0.175335293992996,0.,-0.00394097246685863));
#1224=CARTESIAN_POINT('',(0.175335293992996,0.,-0.00394097246685863));
#1225=CARTESIAN_POINT('',(0.180415293992996,0.,-0.00394097246685863));
#1226=CARTESIAN_POINT('',(0.180415293992996,0.,-0.0254));
#1227=CARTESIAN_POINT('',(0.180415293992996,0.,-0.0508));
#1228=CARTESIAN_POINT('',(-0.00627470600700378,0.,-0.0508));
#1229=CARTESIAN_POINT('',(-0.00627470600700378,0.,-0.0508));
#1230=CARTESIAN_POINT('',(-0.00627470600700378,0.,-0.0254));
#1231=CARTESIAN_POINT('',(-0.00627470600700378,0.,-0.00394097246685863));
#1232=CARTESIAN_POINT('',(-0.00119470600700378,0.,-0.00394097246685863));
#1233=CARTESIAN_POINT('',(-0.00119470600700378,0.,-0.00394097246685863));
#1234=CARTESIAN_POINT('',(-0.00119470600700378,0.,-0.045085));
#1235=CARTESIAN_POINT('',(-0.00119470600700378,0.,-0.04699));
#1236=CARTESIAN_POINT('',(-0.00627470600700378,0.,-0.04699));
#1237=CARTESIAN_POINT('',(0.0439158145737395,0.,-0.04699));
#1238=CARTESIAN_POINT('',(0.0439158145737395,0.,-0.03683));
#1239=CARTESIAN_POINT('',(0.0439158145737395,0.,-0.03683));
#1240=CARTESIAN_POINT('',(-0.00627470600700378,0.,-0.03683));
#1241=CARTESIAN_POINT('',(0.0439158145737395,-0.00120138377980451,-0.03683));
#1242=CARTESIAN_POINT('',(0.0439158145737395,-0.00120138377980451,-0.04699));
#1243=CARTESIAN_POINT('',(0.0439158145737395,-0.00570476755960903,-0.04699));
#1244=CARTESIAN_POINT('',(0.0439158145737395,0.00162692433029324,-0.0396583081100977));
#1245=CARTESIAN_POINT('',(0.0439158145737395,-0.00240276755960903,-0.043688));
#1246=CARTESIAN_POINT('',(0.0439158145737395,-0.00240276755960903,-0.03683));
#1247=CARTESIAN_POINT('',(0.0439158145737395,-0.00240276755960903,-0.03683));
#1248=CARTESIAN_POINT('',(0.0439158145737395,-0.00120138377980451,-0.03683));
#1249=CARTESIAN_POINT('',(0.0471144946491592,-0.00240276755960903,-0.03683));
#1250=CARTESIAN_POINT('',(0.0470528299188488,-0.00240276755960903,-0.04191));
#1251=CARTESIAN_POINT('',(0.0470528299188488,-0.00240276755960903,-0.043434));
#1252=CARTESIAN_POINT('',(0.0555987148226391,-0.00240276755960903,-0.04191));
#1253=CARTESIAN_POINT('',(0.0555987148226391,-0.00240276755960903,-0.043434));
#1254=CARTESIAN_POINT('',(0.0471144946491592,-0.00240276755960903,-0.043688));
#1255=CARTESIAN_POINT('',(0.0610075843813203,-0.00240276755960903,-0.043688));
#1256=CARTESIAN_POINT('',(0.0610075843813203,-0.00240276755960903,-0.03683));
#1257=CARTESIAN_POINT('',(0.0610075843813203,-0.00240276755960903,-0.03683));
#1258=CARTESIAN_POINT('',(0.0471144946491592,-0.00240276755960903,-0.03683));
#1259=CARTESIAN_POINT('',(0.0610075843813203,-0.00120138377980451,-0.03683));
#1260=CARTESIAN_POINT('',(0.0610075843813203,-0.00120138377980451,-0.04699));
#1261=CARTESIAN_POINT('',(0.0610075843813203,-0.00570476755960903,-0.04699));
#1262=CARTESIAN_POINT('',(0.0610075843813203,-0.00120138377980451,-0.03683));
#1263=CARTESIAN_POINT('',(0.0610075843813203,-0.00240276755960903,-0.043688));
#1264=CARTESIAN_POINT('',(0.0870702939929962,-0.07747,-0.03683));
#1265=CARTESIAN_POINT('',(0.0555987148226391,0.00775723244039098,-0.04191));
#1266=CARTESIAN_POINT('',(0.0470528299188488,0.00775723244039098,-0.04191));
#1267=CARTESIAN_POINT('',(0.175335293992996,-0.0555423081432445,-0.00394097246685863));
#1268=CARTESIAN_POINT('',(0.177875293992996,-0.100947990315258,-0.00394097246685863));
#1269=CARTESIAN_POINT('',(0.176224293992996,-0.100947990315258,-0.00394097246685863));
#1270=CARTESIAN_POINT('',(0.180415293992996,-0.0555423081432445,-0.00394097246685863));
#1271=CARTESIAN_POINT('',(0.175335293992996,-0.0555423081432445,-0.00394097246685863));
#1272=CARTESIAN_POINT('',(0.177875293992996,-0.0108120096847415,-0.00394097246685863));
#1273=CARTESIAN_POINT('',(0.176224293992996,-0.0108120096847415,-0.00394097246685863));
#1274=CARTESIAN_POINT('',(-0.00119470600700378,-0.0555423081432445,-0.00394097246685863));
#1275=CARTESIAN_POINT('',(-0.00373470600700378,-0.0108120096847415,-0.00394097246685863));
#1276=CARTESIAN_POINT('',(-0.00373470600700378,-0.0091610096847415,-0.00394097246685863));
#1277=CARTESIAN_POINT('',(-0.00627470600700378,-0.0555423081432445,-0.00394097246685863));
#1278=CARTESIAN_POINT('',(-0.00119470600700378,-0.0555423081432445,-0.00394097246685863));
#1279=CARTESIAN_POINT('',(-0.00373470600700378,-0.100947990315258,-0.00394097246685863));
#1280=CARTESIAN_POINT('',(-0.00373470600700378,-0.0992969903152584,-0.00394097246685863));
#1281=CARTESIAN_POINT('',(-0.00627470600700378,-0.1101419135046,-0.04699));
#1282=CARTESIAN_POINT('',(0.15407130489893,-0.1225858,-0.04699));
#1283=CARTESIAN_POINT('',(0.15813530489893,-0.1225858,-0.04699));
#1284=CARTESIAN_POINT('',(0.0520491,-0.1225858,-0.04699));
#1285=CARTESIAN_POINT('',(0.0561131,-0.1225858,-0.04699));
#1286=CARTESIAN_POINT('',(0.15407130489893,-0.0465829,-0.04699));
#1287=CARTESIAN_POINT('',(0.15813530489893,-0.0465829,-0.04699));
#1288=CARTESIAN_POINT('',(0.0520491,-0.0465829,-0.04699));
#1289=CARTESIAN_POINT('',(0.0561131,-0.0465829,-0.04699));
#1290=CARTESIAN_POINT('',(-0.00627470600700378,-0.00570476755960903,-0.04699));
#1291=CARTESIAN_POINT('',(-0.00119470600700378,-0.1101419135046,-0.04699));
#1292=CARTESIAN_POINT('',(-0.00119470600700378,-0.15494,-0.04699));
#1293=CARTESIAN_POINT('',(-0.00627470600700378,-0.15494,-0.04699));
#1294=CARTESIAN_POINT('',(0.175335293992996,-0.15494,-0.04699));
#1295=CARTESIAN_POINT('',(0.175335293992996,-0.1101419135046,-0.04699));
#1296=CARTESIAN_POINT('',(-0.00627470600700378,-0.15494,-0.045085));
#1297=CARTESIAN_POINT('',(-0.00119470600700378,-0.15494,-0.045085));
#1298=CARTESIAN_POINT('',(-0.00627470600700378,-0.15494,-0.04318));
#1299=CARTESIAN_POINT('',(0.175335293992996,-0.15494,-0.045085));
#1300=CARTESIAN_POINT('',(-0.00627470600700378,-0.15748,-0.04318));
#1301=CARTESIAN_POINT('',(0.180415293992996,-0.15748,-0.04318));
#1302=CARTESIAN_POINT('',(0.180415293992996,-0.16002,-0.04318));
#1303=CARTESIAN_POINT('',(-0.00627470600700378,-0.15748,-0.04318));
#1304=CARTESIAN_POINT('',(-0.00627470600700378,-0.16002,-0.04318));
#1305=CARTESIAN_POINT('',(-0.00627470600700378,-0.16002,-0.04318));
#1306=CARTESIAN_POINT('',(-0.00627470600700378,-0.16002,-0.04699));
#1307=CARTESIAN_POINT('',(0.180415293992996,-0.16002,-0.04699));
#1308=CARTESIAN_POINT('',(0.180415293992996,-0.16002,-0.0508));
#1309=CARTESIAN_POINT('',(-0.00627470600700378,-0.16002,-0.04699));
#1310=CARTESIAN_POINT('',(-0.00627470600700378,-0.16002,-0.0508));
#1311=CARTESIAN_POINT('',(-0.00627470600700378,-0.16002,-0.0508));
#1312=CARTESIAN_POINT('',(-0.00627470600700378,-0.1126819135046,-0.0508));
#1313=CARTESIAN_POINT('',(0.180415293992996,-0.1126819135046,-0.0508));
#1314=CARTESIAN_POINT('',(-0.00627470600700378,-0.1126819135046,-0.0508));
#1315=CARTESIAN_POINT('',(-0.00627470600700378,-0.0549559326267243,-0.0254));
#1316=CARTESIAN_POINT('',(-0.00627470600700378,-0.0272844545543194,-0.0273704862334293));
#1317=CARTESIAN_POINT('',(-0.00627470600700378,-0.0272844545543194,-0.0184804862334293));
#1318=CARTESIAN_POINT('',(0.180415293992996,-0.0549559326267243,-0.0254));
#1319=CARTESIAN_POINT('',(0.175335293992996,-0.0549559326267243,-0.0254));
#1320=CARTESIAN_POINT('',(-0.00119470600700378,-0.08001,-0.0273704862334293));
#1321=CARTESIAN_POINT('',(-0.00119470600700378,-0.0272844545543194,-0.0273704862334293));
#1322=CARTESIAN_POINT('',(-0.00119470600700378,-0.0272844545543194,-0.0184804862334293));
#1323=CARTESIAN_POINT('',(-0.00373470600700378,-0.0108120096847415,-0.01016));
#1324=CARTESIAN_POINT('',(-0.00373470600700378,-0.0108120096847415,-0.01016));
#1325=CARTESIAN_POINT('',(-0.00373470600700378,-0.0124630096847415,-0.01016));
#1326=CARTESIAN_POINT('',(0.0870702939929962,-0.05588,-0.01016));
#1327=CARTESIAN_POINT('',(-0.00373470600700378,-0.100947990315258,-0.01016));
#1328=CARTESIAN_POINT('',(-0.00373470600700378,-0.100947990315258,-0.01016));
#1329=CARTESIAN_POINT('',(-0.00373470600700378,-0.102598990315258,-0.01016));
#1330=CARTESIAN_POINT('',(0.0870702939929962,-0.05588,-0.01016));
#1331=CARTESIAN_POINT('',(0.177875293992996,-0.100947990315258,-0.01016));
#1332=CARTESIAN_POINT('',(0.177875293992996,-0.100947990315258,-0.01016));
#1333=CARTESIAN_POINT('',(0.177875293992996,-0.102598990315258,-0.01016));
#1334=CARTESIAN_POINT('',(0.0870702939929962,-0.05588,-0.01016));
#1335=CARTESIAN_POINT('',(0.177875293992996,-0.0108120096847415,-0.01016));
#1336=CARTESIAN_POINT('',(0.177875293992996,-0.0108120096847415,-0.01016));
#1337=CARTESIAN_POINT('',(0.177875293992996,-0.0124630096847415,-0.01016));
#1338=CARTESIAN_POINT('',(0.0870702939929962,-0.05588,-0.01016));
#1339=CARTESIAN_POINT('',(0.0191252939929962,-0.0272844545543194,-0.0273704862334293));
#1340=CARTESIAN_POINT('',(0.0520491,-0.0465829,-0.047498));
#1341=CARTESIAN_POINT('',(0.0520491,-0.0465829,-0.04699));
#1342=CARTESIAN_POINT('',(0.0538271,-0.0465829,-0.04699));
#1343=CARTESIAN_POINT('',(0.0520491,-0.0465829,-0.04064));
#1344=CARTESIAN_POINT('',(0.0502711,-0.0465829,-0.04064));
#1345=CARTESIAN_POINT('',(0.0520491,-0.0465829,-0.047498));
#1346=CARTESIAN_POINT('',(0.0520491,-0.0465829,-0.045466));
#1347=CARTESIAN_POINT('',(0.0545891,-0.0465829,-0.045466));
#1348=CARTESIAN_POINT('',(0.0520491,-0.0465829,-0.04064));
#1349=CARTESIAN_POINT('',(0.0495091,-0.0465829,-0.04064));
#1350=CARTESIAN_POINT('',(0.10305275,-0.08461075,-0.04064));
#1351=CARTESIAN_POINT('',(-0.00627470600700378,-0.1101419135046,-0.04699));
#1352=CARTESIAN_POINT('',(0.15407130489893,-0.1225858,-0.047498));
#1353=CARTESIAN_POINT('',(0.15407130489893,-0.1225858,-0.04699));
#1354=CARTESIAN_POINT('',(0.15584930489893,-0.1225858,-0.04699));
#1355=CARTESIAN_POINT('',(0.15407130489893,-0.1225858,-0.04064));
#1356=CARTESIAN_POINT('',(0.15229330489893,-0.1225858,-0.04064));
#1357=CARTESIAN_POINT('',(0.15407130489893,-0.1225858,-0.047498));
#1358=CARTESIAN_POINT('',(0.15407130489893,-0.1225858,-0.045466));
#1359=CARTESIAN_POINT('',(0.156611304898929,-0.1225858,-0.045466));
#1360=CARTESIAN_POINT('',(0.15407130489893,-0.1225858,-0.04064));
#1361=CARTESIAN_POINT('',(0.15153130489893,-0.1225858,-0.04064));
#1362=CARTESIAN_POINT('',(0.10305275,-0.08461075,-0.04064));
#1363=CARTESIAN_POINT('',(-0.00627470600700378,-0.1101419135046,-0.04699));
#1364=CARTESIAN_POINT('',(0.0520491,-0.1225858,-0.047498));
#1365=CARTESIAN_POINT('',(0.0520491,-0.1225858,-0.04699));
#1366=CARTESIAN_POINT('',(0.0538271,-0.1225858,-0.04699));
#1367=CARTESIAN_POINT('',(0.0520491,-0.1225858,-0.04064));
#1368=CARTESIAN_POINT('',(0.0502711,-0.1225858,-0.04064));
#1369=CARTESIAN_POINT('',(0.0520491,-0.1225858,-0.047498));
#1370=CARTESIAN_POINT('',(0.0520491,-0.1225858,-0.045466));
#1371=CARTESIAN_POINT('',(0.0545891,-0.1225858,-0.045466));
#1372=CARTESIAN_POINT('',(0.0520491,-0.1225858,-0.04064));
#1373=CARTESIAN_POINT('',(0.0495091,-0.1225858,-0.04064));
#1374=CARTESIAN_POINT('',(0.10305275,-0.08461075,-0.04064));
#1375=CARTESIAN_POINT('',(-0.00627470600700378,-0.1101419135046,-0.04699));
#1376=CARTESIAN_POINT('',(0.15407130489893,-0.0465829,-0.047498));
#1377=CARTESIAN_POINT('',(0.15407130489893,-0.0465829,-0.04699));
#1378=CARTESIAN_POINT('',(0.15584930489893,-0.0465829,-0.04699));
#1379=CARTESIAN_POINT('',(0.15407130489893,-0.0465829,-0.04064));
#1380=CARTESIAN_POINT('',(0.15229330489893,-0.0465829,-0.04064));
#1381=CARTESIAN_POINT('',(0.15407130489893,-0.0465829,-0.047498));
#1382=CARTESIAN_POINT('',(0.15407130489893,-0.0465829,-0.045466));
#1383=CARTESIAN_POINT('',(0.156611304898929,-0.0465829,-0.045466));
#1384=CARTESIAN_POINT('',(0.15407130489893,-0.0465829,-0.04064));
#1385=CARTESIAN_POINT('',(0.15153130489893,-0.0465829,-0.04064));
#1386=CARTESIAN_POINT('',(0.10305275,-0.08461075,-0.04064));
#1387=CARTESIAN_POINT('',(-0.00627470600700378,-0.1101419135046,-0.04699));
#1388=CARTESIAN_POINT('',(0.15407130489893,-0.1225858,-0.04699));
#1389=CARTESIAN_POINT('',(0.0520491,-0.1225858,-0.04699));
#1390=CARTESIAN_POINT('',(0.15407130489893,-0.0465829,-0.04699));
#1391=CARTESIAN_POINT('',(0.0520491,-0.0465829,-0.04699));
#1392=CARTESIAN_POINT('',(-0.00373470600700379,-0.110631310078456,-0.0141570189023397));
#1393=CARTESIAN_POINT('',(-0.00373470600700379,-0.110631310078456,-0.0141570189023397));
#1394=CARTESIAN_POINT('',(-0.00373470600700379,-0.111861703487086,-0.0152578972153244));
#1395=CARTESIAN_POINT('',(0.0870702939929962,-0.128353217703413,-0.0300134625667742));
#1396=CARTESIAN_POINT('',(-0.00373470600700377,-0.146075125328369,-0.0458699062312088));
#1397=CARTESIAN_POINT('',(-0.00373470600700377,-0.146075125328369,-0.0458699062312088));
#1398=CARTESIAN_POINT('',(-0.00373470600700377,-0.147305518736999,-0.0469707845441935));
#1399=CARTESIAN_POINT('',(0.0870702939929962,-0.128353217703413,-0.0300134625667742));
#1400=CARTESIAN_POINT('',(0.177843790028416,-0.145831849900544,-0.045652238743155));
#1401=CARTESIAN_POINT('',(0.177843790028416,-0.145831849900544,-0.045652238743155));
#1402=CARTESIAN_POINT('',(0.177843790028416,-0.147062243309174,-0.0467531170561397));
#1403=CARTESIAN_POINT('',(0.0870702939929962,-0.128353217703413,-0.0300134625667742));
#1404=CARTESIAN_POINT('',(0.177672784936921,-0.110388263760012,-0.0139395564068897));
#1405=CARTESIAN_POINT('',(0.177672784936921,-0.110388263760012,-0.0139395564068897));
#1406=CARTESIAN_POINT('',(0.177672784936921,-0.111618657168642,-0.0150404347198744));
#1407=CARTESIAN_POINT('',(0.0870702939929962,-0.128353217703413,-0.0300134625667742));
#1408=CARTESIAN_POINT('',(0.0471144946491592,-0.00240276755960903,-0.043688));
#1409=MECHANICAL_DESIGN_GEOMETRIC_PRESENTATION_REPRESENTATION('',(#822),
#1410);
#1410=(
GEOMETRIC_REPRESENTATION_CONTEXT(3)
GLOBAL_UNCERTAINTY_ASSIGNED_CONTEXT((#1411))
GLOBAL_UNIT_ASSIGNED_CONTEXT((#1414,#1413,#1412))
REPRESENTATION_CONTEXT('Part 14','TOP_LEVEL_ASSEMBLY_PART')
);
#1411=UNCERTAINTY_MEASURE_WITH_UNIT(LENGTH_MEASURE(1.E-8),#1414,
'DISTANCE_ACCURACY_VALUE','Maximum Tolerance applied to model');
#1412=(
NAMED_UNIT(*)
SI_UNIT($,.STERADIAN.)
SOLID_ANGLE_UNIT()
);
#1413=(
NAMED_UNIT(*)
PLANE_ANGLE_UNIT()
SI_UNIT($,.RADIAN.)
);
#1414=(
LENGTH_UNIT()
NAMED_UNIT(*)
SI_UNIT($,.METRE.)
);
#1415=PRODUCT_DEFINITION_SHAPE('','',#1416);
#1416=PRODUCT_DEFINITION('','',#1418,#1417);
#1417=PRODUCT_DEFINITION_CONTEXT('',#1424,'design');
#1418=PRODUCT_DEFINITION_FORMATION_WITH_SPECIFIED_SOURCE('','',#1420,
 .NOT_KNOWN.);
#1419=PRODUCT_RELATED_PRODUCT_CATEGORY('','',(#1420));
#1420=PRODUCT('Part 14','Part 14','Part 14',(#1422));
#1421=PRODUCT_CATEGORY('','');
#1422=PRODUCT_CONTEXT('',#1424,'mechanical');
#1423=APPLICATION_PROTOCOL_DEFINITION('international standard',
'ap242_managed_model_based_3d_engineering',2020,#1424);
#1424=APPLICATION_CONTEXT('managed model based 3d engineering');
ENDSEC;
END-ISO-10303-21;
