ISO-10303-21;
HEADER;
/* Generated by software containing ST-Developer
 * from STEP Tools, Inc. (www.steptools.com) 
 */
/* OPTION: using custom renumber hook */

FILE_DESCRIPTION(
/* description */ ('STEP AP242 Edition 2',
'CAx-IF Rec.Pracs.---Representation and Presentation of Product Manufa
cturing Information (PMI)---4.0---2014-10-13',
'CAx-IF Rec.Pracs.---3D Tessellated Geometry---0.4---2014-09-14','2;1',
'CAx-IF Rec.Pracs.---User Defined Attributes---1.5---2016-08-15'),
/* implementation_level */ '2;1');

FILE_NAME(
/* name */ 'V2 - Part 15',
/* time_stamp */ '2026-05-14T03:10:51Z',
/* author */ (''),
/* organization */ (''),
/* preprocessor_version */ 'ST-DEVELOPER v20',
/* originating_system */ 'ONSHAPE BY PTC INC, 1.214',
/* authorisation */ '  ');

FILE_SCHEMA (('AP242_MANAGED_MODEL_BASED_3D_ENGINEERING_MIM_LF { 1 0 10303 442 3 1 4 }'));
ENDSEC;

DATA;
#10=SHAPE_REPRESENTATION_RELATIONSHIP('','',#329,#11);
#11=ADVANCED_BREP_SHAPE_REPRESENTATION('',(#327),#568);
#12=PLANE('',#337);
#13=PLANE('',#341);
#14=PLANE('',#345);
#15=PLANE('',#349);
#16=PLANE('',#350);
#17=PLANE('',#351);
#18=PLANE('',#355);
#19=PLANE('',#360);
#20=CIRCLE('',#332,0.0125315200209617);
#21=CIRCLE('',#333,0.0125315200209617);
#22=CIRCLE('',#335,0.00603873316779177);
#23=CIRCLE('',#336,0.00603873316779177);
#24=CIRCLE('',#338,0.00474109534754796);
#25=CIRCLE('',#340,0.00474109534754796);
#26=CIRCLE('',#342,0.00603873316779177);
#27=CIRCLE('',#344,0.00603873316779177);
#28=CIRCLE('',#346,0.00474109534754796);
#29=CIRCLE('',#348,0.00474109534754796);
#30=CIRCLE('',#352,0.001524);
#31=CIRCLE('',#353,0.00377592341744426);
#32=CIRCLE('',#354,0.00378989800810814);
#33=CIRCLE('',#357,0.00378989800810814);
#34=CIRCLE('',#359,0.00377592341744426);
#35=CIRCLE('',#361,0.001524);
#36=CIRCLE('',#362,0.00254);
#37=B_SPLINE_CURVE_WITH_KNOTS('',3,(#466,#467,#468,#469,#470,#471,#472,
#473,#474,#475,#476,#477,#478,#479,#480),.UNSPECIFIED.,.F.,.F.,(4,1,1,1,
1,1,1,1,1,1,1,1,4),(0.,0.00157962050005304,0.00315924100010607,0.00394905125013259,
0.00473886150015911,0.00552867175018563,0.00631848200021214,0.00710829225023866,
0.00789810250026518,0.0086879127502917,0.00947772300031822,0.0110573435003713,
0.0126369640004243),.UNSPECIFIED.);
#38=ORIENTED_EDGE('',*,*,#126,.F.);
#39=ORIENTED_EDGE('',*,*,#127,.T.);
#40=ORIENTED_EDGE('',*,*,#128,.F.);
#41=ORIENTED_EDGE('',*,*,#129,.T.);
#42=ORIENTED_EDGE('',*,*,#130,.F.);
#43=ORIENTED_EDGE('',*,*,#131,.F.);
#44=ORIENTED_EDGE('',*,*,#132,.F.);
#45=ORIENTED_EDGE('',*,*,#133,.T.);
#46=ORIENTED_EDGE('',*,*,#134,.T.);
#47=ORIENTED_EDGE('',*,*,#135,.F.);
#48=ORIENTED_EDGE('',*,*,#136,.F.);
#49=ORIENTED_EDGE('',*,*,#137,.F.);
#50=ORIENTED_EDGE('',*,*,#132,.T.);
#51=ORIENTED_EDGE('',*,*,#138,.T.);
#52=ORIENTED_EDGE('',*,*,#139,.F.);
#53=ORIENTED_EDGE('',*,*,#140,.F.);
#54=ORIENTED_EDGE('',*,*,#136,.T.);
#55=ORIENTED_EDGE('',*,*,#141,.T.);
#56=ORIENTED_EDGE('',*,*,#142,.F.);
#57=ORIENTED_EDGE('',*,*,#143,.F.);
#58=ORIENTED_EDGE('',*,*,#139,.T.);
#59=ORIENTED_EDGE('',*,*,#144,.T.);
#60=ORIENTED_EDGE('',*,*,#145,.F.);
#61=ORIENTED_EDGE('',*,*,#146,.T.);
#62=ORIENTED_EDGE('',*,*,#142,.T.);
#63=ORIENTED_EDGE('',*,*,#147,.F.);
#64=ORIENTED_EDGE('',*,*,#148,.F.);
#65=ORIENTED_EDGE('',*,*,#149,.F.);
#66=ORIENTED_EDGE('',*,*,#145,.T.);
#67=ORIENTED_EDGE('',*,*,#150,.T.);
#68=ORIENTED_EDGE('',*,*,#151,.F.);
#69=ORIENTED_EDGE('',*,*,#152,.F.);
#70=ORIENTED_EDGE('',*,*,#148,.T.);
#71=ORIENTED_EDGE('',*,*,#153,.T.);
#72=ORIENTED_EDGE('',*,*,#154,.T.);
#73=ORIENTED_EDGE('',*,*,#155,.F.);
#74=ORIENTED_EDGE('',*,*,#151,.T.);
#75=ORIENTED_EDGE('',*,*,#156,.T.);
#76=ORIENTED_EDGE('',*,*,#129,.F.);
#77=ORIENTED_EDGE('',*,*,#157,.F.);
#78=ORIENTED_EDGE('',*,*,#158,.F.);
#79=ORIENTED_EDGE('',*,*,#159,.F.);
#80=ORIENTED_EDGE('',*,*,#160,.T.);
#81=ORIENTED_EDGE('',*,*,#131,.T.);
#82=ORIENTED_EDGE('',*,*,#161,.T.);
#83=ORIENTED_EDGE('',*,*,#134,.F.);
#84=ORIENTED_EDGE('',*,*,#162,.F.);
#85=ORIENTED_EDGE('',*,*,#158,.T.);
#86=ORIENTED_EDGE('',*,*,#133,.F.);
#87=ORIENTED_EDGE('',*,*,#137,.T.);
#88=ORIENTED_EDGE('',*,*,#140,.T.);
#89=ORIENTED_EDGE('',*,*,#143,.T.);
#90=ORIENTED_EDGE('',*,*,#146,.F.);
#91=ORIENTED_EDGE('',*,*,#149,.T.);
#92=ORIENTED_EDGE('',*,*,#152,.T.);
#93=ORIENTED_EDGE('',*,*,#155,.T.);
#94=ORIENTED_EDGE('',*,*,#163,.F.);
#95=ORIENTED_EDGE('',*,*,#164,.F.);
#96=ORIENTED_EDGE('',*,*,#135,.T.);
#97=ORIENTED_EDGE('',*,*,#161,.F.);
#98=ORIENTED_EDGE('',*,*,#130,.T.);
#99=ORIENTED_EDGE('',*,*,#156,.F.);
#100=ORIENTED_EDGE('',*,*,#153,.F.);
#101=ORIENTED_EDGE('',*,*,#150,.F.);
#102=ORIENTED_EDGE('',*,*,#147,.T.);
#103=ORIENTED_EDGE('',*,*,#144,.F.);
#104=ORIENTED_EDGE('',*,*,#141,.F.);
#105=ORIENTED_EDGE('',*,*,#138,.F.);
#106=ORIENTED_EDGE('',*,*,#164,.T.);
#107=ORIENTED_EDGE('',*,*,#165,.F.);
#108=ORIENTED_EDGE('',*,*,#166,.F.);
#109=ORIENTED_EDGE('',*,*,#159,.T.);
#110=ORIENTED_EDGE('',*,*,#163,.T.);
#111=ORIENTED_EDGE('',*,*,#154,.F.);
#112=ORIENTED_EDGE('',*,*,#167,.F.);
#113=ORIENTED_EDGE('',*,*,#165,.T.);
#114=ORIENTED_EDGE('',*,*,#168,.F.);
#115=ORIENTED_EDGE('',*,*,#128,.T.);
#116=ORIENTED_EDGE('',*,*,#169,.T.);
#117=ORIENTED_EDGE('',*,*,#126,.T.);
#118=ORIENTED_EDGE('',*,*,#160,.F.);
#119=ORIENTED_EDGE('',*,*,#166,.T.);
#120=ORIENTED_EDGE('',*,*,#167,.T.);
#121=ORIENTED_EDGE('',*,*,#157,.T.);
#122=ORIENTED_EDGE('',*,*,#169,.F.);
#123=ORIENTED_EDGE('',*,*,#127,.F.);
#124=ORIENTED_EDGE('',*,*,#162,.T.);
#125=ORIENTED_EDGE('',*,*,#168,.T.);
#126=EDGE_CURVE('',#170,#171,#200,.T.);
#127=EDGE_CURVE('',#170,#172,#37,.T.);
#128=EDGE_CURVE('',#173,#172,#201,.T.);
#129=EDGE_CURVE('',#173,#174,#20,.T.);
#130=EDGE_CURVE('',#175,#174,#202,.T.);
#131=EDGE_CURVE('',#171,#175,#21,.T.);
#132=EDGE_CURVE('',#176,#177,#22,.T.);
#133=EDGE_CURVE('',#176,#178,#203,.T.);
#134=EDGE_CURVE('',#178,#179,#23,.T.);
#135=EDGE_CURVE('',#177,#179,#204,.T.);
#136=EDGE_CURVE('',#180,#181,#24,.T.);
#137=EDGE_CURVE('',#176,#180,#205,.T.);
#138=EDGE_CURVE('',#177,#181,#206,.T.);
#139=EDGE_CURVE('',#182,#183,#25,.T.);
#140=EDGE_CURVE('',#180,#182,#207,.T.);
#141=EDGE_CURVE('',#181,#183,#208,.T.);
#142=EDGE_CURVE('',#184,#185,#26,.T.);
#143=EDGE_CURVE('',#182,#184,#209,.T.);
#144=EDGE_CURVE('',#183,#185,#210,.T.);
#145=EDGE_CURVE('',#186,#187,#27,.T.);
#146=EDGE_CURVE('',#186,#184,#211,.T.);
#147=EDGE_CURVE('',#187,#185,#212,.T.);
#148=EDGE_CURVE('',#188,#189,#28,.T.);
#149=EDGE_CURVE('',#186,#188,#213,.T.);
#150=EDGE_CURVE('',#187,#189,#214,.T.);
#151=EDGE_CURVE('',#190,#191,#29,.T.);
#152=EDGE_CURVE('',#188,#190,#215,.T.);
#153=EDGE_CURVE('',#189,#191,#216,.T.);
#154=EDGE_CURVE('',#192,#193,#217,.T.);
#155=EDGE_CURVE('',#190,#193,#218,.T.);
#156=EDGE_CURVE('',#191,#174,#219,.T.);
#157=EDGE_CURVE('',#192,#173,#220,.T.);
#158=EDGE_CURVE('',#194,#178,#221,.T.);
#159=EDGE_CURVE('',#195,#194,#222,.T.);
#160=EDGE_CURVE('',#195,#171,#223,.T.);
#161=EDGE_CURVE('',#175,#179,#224,.T.);
#162=EDGE_CURVE('',#196,#196,#30,.T.);
#163=EDGE_CURVE('',#197,#193,#31,.T.);
#164=EDGE_CURVE('',#194,#197,#32,.T.);
#165=EDGE_CURVE('',#198,#197,#225,.T.);
#166=EDGE_CURVE('',#195,#198,#33,.T.);
#167=EDGE_CURVE('',#198,#192,#34,.T.);
#168=EDGE_CURVE('',#199,#199,#35,.T.);
#169=EDGE_CURVE('',#172,#170,#36,.T.);
#170=VERTEX_POINT('',#464);
#171=VERTEX_POINT('',#465);
#172=VERTEX_POINT('',#481);
#173=VERTEX_POINT('',#483);
#174=VERTEX_POINT('',#485);
#175=VERTEX_POINT('',#487);
#176=VERTEX_POINT('',#491);
#177=VERTEX_POINT('',#492);
#178=VERTEX_POINT('',#494);
#179=VERTEX_POINT('',#496);
#180=VERTEX_POINT('',#500);
#181=VERTEX_POINT('',#501);
#182=VERTEX_POINT('',#506);
#183=VERTEX_POINT('',#507);
#184=VERTEX_POINT('',#512);
#185=VERTEX_POINT('',#513);
#186=VERTEX_POINT('',#518);
#187=VERTEX_POINT('',#519);
#188=VERTEX_POINT('',#524);
#189=VERTEX_POINT('',#525);
#190=VERTEX_POINT('',#530);
#191=VERTEX_POINT('',#531);
#192=VERTEX_POINT('',#536);
#193=VERTEX_POINT('',#537);
#194=VERTEX_POINT('',#543);
#195=VERTEX_POINT('',#545);
#196=VERTEX_POINT('',#550);
#197=VERTEX_POINT('',#552);
#198=VERTEX_POINT('',#557);
#199=VERTEX_POINT('',#563);
#200=LINE('',#463,#226);
#201=LINE('',#482,#227);
#202=LINE('',#486,#228);
#203=LINE('',#493,#229);
#204=LINE('',#497,#230);
#205=LINE('',#502,#231);
#206=LINE('',#503,#232);
#207=LINE('',#508,#233);
#208=LINE('',#509,#234);
#209=LINE('',#514,#235);
#210=LINE('',#515,#236);
#211=LINE('',#520,#237);
#212=LINE('',#521,#238);
#213=LINE('',#526,#239);
#214=LINE('',#527,#240);
#215=LINE('',#532,#241);
#216=LINE('',#533,#242);
#217=LINE('',#535,#243);
#218=LINE('',#538,#244);
#219=LINE('',#539,#245);
#220=LINE('',#540,#246);
#221=LINE('',#542,#247);
#222=LINE('',#544,#248);
#223=LINE('',#546,#249);
#224=LINE('',#547,#250);
#225=LINE('',#556,#251);
#226=VECTOR('',#369,1.);
#227=VECTOR('',#370,1.);
#228=VECTOR('',#373,1.);
#229=VECTOR('',#380,1.);
#230=VECTOR('',#383,1.);
#231=VECTOR('',#388,1.);
#232=VECTOR('',#389,1.);
#233=VECTOR('',#394,1.);
#234=VECTOR('',#395,1.);
#235=VECTOR('',#400,1.);
#236=VECTOR('',#401,1.);
#237=VECTOR('',#406,1.);
#238=VECTOR('',#407,1.);
#239=VECTOR('',#412,1.);
#240=VECTOR('',#413,1.);
#241=VECTOR('',#418,1.);
#242=VECTOR('',#419,1.);
#243=VECTOR('',#422,1.);
#244=VECTOR('',#423,1.);
#245=VECTOR('',#424,1.);
#246=VECTOR('',#425,1.);
#247=VECTOR('',#428,1.);
#248=VECTOR('',#429,1.);
#249=VECTOR('',#430,1.);
#250=VECTOR('',#431,1.);
#251=VECTOR('',#444,1.);
#252=EDGE_LOOP('',(#38,#39,#40,#41,#42,#43));
#253=EDGE_LOOP('',(#44,#45,#46,#47));
#254=EDGE_LOOP('',(#48,#49,#50,#51));
#255=EDGE_LOOP('',(#52,#53,#54,#55));
#256=EDGE_LOOP('',(#56,#57,#58,#59));
#257=EDGE_LOOP('',(#60,#61,#62,#63));
#258=EDGE_LOOP('',(#64,#65,#66,#67));
#259=EDGE_LOOP('',(#68,#69,#70,#71));
#260=EDGE_LOOP('',(#72,#73,#74,#75,#76,#77));
#261=EDGE_LOOP('',(#78,#79,#80,#81,#82,#83));
#262=EDGE_LOOP('',(#84));
#263=EDGE_LOOP('',(#85,#86,#87,#88,#89,#90,#91,#92,#93,#94,#95));
#264=EDGE_LOOP('',(#96,#97,#98,#99,#100,#101,#102,#103,#104,#105));
#265=EDGE_LOOP('',(#106,#107,#108,#109));
#266=EDGE_LOOP('',(#110,#111,#112,#113));
#267=EDGE_LOOP('',(#114));
#268=EDGE_LOOP('',(#115,#116,#117,#118,#119,#120,#121));
#269=EDGE_LOOP('',(#122,#123));
#270=EDGE_LOOP('',(#124));
#271=EDGE_LOOP('',(#125));
#272=FACE_BOUND('',#252,.T.);
#273=FACE_BOUND('',#253,.T.);
#274=FACE_BOUND('',#254,.T.);
#275=FACE_BOUND('',#255,.T.);
#276=FACE_BOUND('',#256,.T.);
#277=FACE_BOUND('',#257,.T.);
#278=FACE_BOUND('',#258,.T.);
#279=FACE_BOUND('',#259,.T.);
#280=FACE_BOUND('',#260,.T.);
#281=FACE_BOUND('',#261,.T.);
#282=FACE_BOUND('',#262,.T.);
#283=FACE_BOUND('',#263,.T.);
#284=FACE_BOUND('',#264,.T.);
#285=FACE_BOUND('',#265,.T.);
#286=FACE_BOUND('',#266,.T.);
#287=FACE_BOUND('',#267,.T.);
#288=FACE_BOUND('',#268,.T.);
#289=FACE_BOUND('',#269,.T.);
#290=FACE_BOUND('',#270,.T.);
#291=FACE_BOUND('',#271,.T.);
#292=CYLINDRICAL_SURFACE('',#331,0.0125315200209617);
#293=CYLINDRICAL_SURFACE('',#334,0.00603873316779177);
#294=CYLINDRICAL_SURFACE('',#339,0.00474109534754796);
#295=CYLINDRICAL_SURFACE('',#343,0.00603873316779177);
#296=CYLINDRICAL_SURFACE('',#347,0.00474109534754796);
#297=CYLINDRICAL_SURFACE('',#356,0.00378989800810814);
#298=CYLINDRICAL_SURFACE('',#358,0.00377592341744426);
#299=CYLINDRICAL_SURFACE('',#363,0.00254);
#300=CYLINDRICAL_SURFACE('',#364,0.001524);
#301=ADVANCED_FACE('',(#272),#292,.T.);
#302=ADVANCED_FACE('',(#273),#293,.F.);
#303=ADVANCED_FACE('',(#274),#12,.F.);
#304=ADVANCED_FACE('',(#275),#294,.F.);
#305=ADVANCED_FACE('',(#276),#13,.F.);
#306=ADVANCED_FACE('',(#277),#295,.F.);
#307=ADVANCED_FACE('',(#278),#14,.F.);
#308=ADVANCED_FACE('',(#279),#296,.F.);
#309=ADVANCED_FACE('',(#280),#15,.F.);
#310=ADVANCED_FACE('',(#281),#16,.F.);
#311=ADVANCED_FACE('',(#282,#283),#17,.T.);
#312=ADVANCED_FACE('',(#284),#18,.F.);
#313=ADVANCED_FACE('',(#285),#297,.T.);
#314=ADVANCED_FACE('',(#286),#298,.T.);
#315=ADVANCED_FACE('',(#287,#288),#19,.T.);
#316=ADVANCED_FACE('',(#289),#299,.F.);
#317=ADVANCED_FACE('',(#290,#291),#300,.F.);
#318=CLOSED_SHELL('',(#301,#302,#303,#304,#305,#306,#307,#308,#309,#310,
#311,#312,#313,#314,#315,#316,#317));
#319=STYLED_ITEM('',(#320),#327);
#320=PRESENTATION_STYLE_ASSIGNMENT((#321));
#321=SURFACE_STYLE_USAGE(.BOTH.,#322);
#322=SURFACE_SIDE_STYLE('',(#323));
#323=SURFACE_STYLE_FILL_AREA(#324);
#324=FILL_AREA_STYLE('',(#325));
#325=FILL_AREA_STYLE_COLOUR('',#326);
#326=COLOUR_RGB('',0.498039215686275,0.498039215686275,0.498039215686275);
#327=MANIFOLD_SOLID_BREP('Part 15',#318);
#328=SHAPE_DEFINITION_REPRESENTATION(#573,#329);
#329=SHAPE_REPRESENTATION('Part 15',(#330),#568);
#330=AXIS2_PLACEMENT_3D('',#461,#365,#366);
#331=AXIS2_PLACEMENT_3D('',#462,#367,#368);
#332=AXIS2_PLACEMENT_3D('',#484,#371,#372);
#333=AXIS2_PLACEMENT_3D('',#488,#374,#375);
#334=AXIS2_PLACEMENT_3D('',#489,#376,#377);
#335=AXIS2_PLACEMENT_3D('',#490,#378,#379);
#336=AXIS2_PLACEMENT_3D('',#495,#381,#382);
#337=AXIS2_PLACEMENT_3D('',#498,#384,#385);
#338=AXIS2_PLACEMENT_3D('',#499,#386,#387);
#339=AXIS2_PLACEMENT_3D('',#504,#390,#391);
#340=AXIS2_PLACEMENT_3D('',#505,#392,#393);
#341=AXIS2_PLACEMENT_3D('',#510,#396,#397);
#342=AXIS2_PLACEMENT_3D('',#511,#398,#399);
#343=AXIS2_PLACEMENT_3D('',#516,#402,#403);
#344=AXIS2_PLACEMENT_3D('',#517,#404,#405);
#345=AXIS2_PLACEMENT_3D('',#522,#408,#409);
#346=AXIS2_PLACEMENT_3D('',#523,#410,#411);
#347=AXIS2_PLACEMENT_3D('',#528,#414,#415);
#348=AXIS2_PLACEMENT_3D('',#529,#416,#417);
#349=AXIS2_PLACEMENT_3D('',#534,#420,#421);
#350=AXIS2_PLACEMENT_3D('',#541,#426,#427);
#351=AXIS2_PLACEMENT_3D('',#548,#432,#433);
#352=AXIS2_PLACEMENT_3D('',#549,#434,#435);
#353=AXIS2_PLACEMENT_3D('',#551,#436,#437);
#354=AXIS2_PLACEMENT_3D('',#553,#438,#439);
#355=AXIS2_PLACEMENT_3D('',#554,#440,#441);
#356=AXIS2_PLACEMENT_3D('',#555,#442,#443);
#357=AXIS2_PLACEMENT_3D('',#558,#445,#446);
#358=AXIS2_PLACEMENT_3D('',#559,#447,#448);
#359=AXIS2_PLACEMENT_3D('',#560,#449,#450);
#360=AXIS2_PLACEMENT_3D('',#561,#451,#452);
#361=AXIS2_PLACEMENT_3D('',#562,#453,#454);
#362=AXIS2_PLACEMENT_3D('',#564,#455,#456);
#363=AXIS2_PLACEMENT_3D('',#565,#457,#458);
#364=AXIS2_PLACEMENT_3D('',#566,#459,#460);
#365=DIRECTION('',(0.,0.,1.));
#366=DIRECTION('',(1.,0.,0.));
#367=DIRECTION('',(0.,0.,1.));
#368=DIRECTION('',(1.,0.,0.));
#369=DIRECTION('',(0.,0.,1.));
#370=DIRECTION('',(0.,0.,1.));
#371=DIRECTION('',(0.,0.,1.));
#372=DIRECTION('',(1.,0.,0.));
#373=DIRECTION('',(0.,-2.73184799366426E-16,-1.));
#374=DIRECTION('',(0.,0.,1.));
#375=DIRECTION('',(1.,0.,0.));
#376=DIRECTION('',(0.,0.,1.));
#377=DIRECTION('',(1.,0.,0.));
#378=DIRECTION('',(0.,0.,1.));
#379=DIRECTION('',(1.,0.,0.));
#380=DIRECTION('',(3.34554890119806E-32,-2.73184799366426E-16,1.));
#381=DIRECTION('',(0.,0.,1.));
#382=DIRECTION('',(1.,0.,0.));
#383=DIRECTION('',(0.,2.73184799366426E-16,1.));
#384=DIRECTION('',(0.,0.,-1.));
#385=DIRECTION('',(-1.,0.,0.));
#386=DIRECTION('',(0.,0.,1.));
#387=DIRECTION('',(1.,0.,0.));
#388=DIRECTION('',(-1.,-1.22464679914735E-16,0.));
#389=DIRECTION('',(1.,0.,0.));
#390=DIRECTION('',(0.,0.,1.));
#391=DIRECTION('',(1.,0.,0.));
#392=DIRECTION('',(0.,0.,1.));
#393=DIRECTION('',(1.,0.,0.));
#394=DIRECTION('',(-3.34554890119806E-32,2.73184799366426E-16,-1.));
#395=DIRECTION('',(0.,-2.73184799366426E-16,-1.));
#396=DIRECTION('',(0.,0.,1.));
#397=DIRECTION('',(1.,0.,0.));
#398=DIRECTION('',(0.,0.,1.));
#399=DIRECTION('',(1.,0.,0.));
#400=DIRECTION('',(1.,1.22464679914735E-16,0.));
#401=DIRECTION('',(-1.,0.,0.));
#402=DIRECTION('',(0.,0.,1.));
#403=DIRECTION('',(1.,0.,0.));
#404=DIRECTION('',(0.,0.,1.));
#405=DIRECTION('',(1.,0.,0.));
#406=DIRECTION('',(3.34554890119806E-32,-2.73184799366426E-16,1.));
#407=DIRECTION('',(0.,2.73184799366426E-16,1.));
#408=DIRECTION('',(0.,0.,-1.));
#409=DIRECTION('',(-1.,0.,0.));
#410=DIRECTION('',(0.,0.,1.));
#411=DIRECTION('',(1.,0.,0.));
#412=DIRECTION('',(-1.,-1.22464679914735E-16,0.));
#413=DIRECTION('',(1.,0.,0.));
#414=DIRECTION('',(0.,0.,1.));
#415=DIRECTION('',(1.,0.,0.));
#416=DIRECTION('',(0.,0.,1.));
#417=DIRECTION('',(1.,0.,0.));
#418=DIRECTION('',(-3.34554890119806E-32,2.73184799366426E-16,-1.));
#419=DIRECTION('',(0.,-2.73184799366426E-16,-1.));
#420=DIRECTION('',(0.,0.,1.));
#421=DIRECTION('',(1.,0.,0.));
#422=DIRECTION('',(0.,-1.,2.73184799366426E-16));
#423=DIRECTION('',(1.,1.22464679914735E-16,0.));
#424=DIRECTION('',(-1.,0.,0.));
#425=DIRECTION('',(-1.,0.,0.));
#426=DIRECTION('',(0.,0.,-1.));
#427=DIRECTION('',(-1.,0.,0.));
#428=DIRECTION('',(-1.,-1.22464679914735E-16,0.));
#429=DIRECTION('',(0.,-1.,2.73184799366426E-16));
#430=DIRECTION('',(-1.,0.,0.));
#431=DIRECTION('',(1.,0.,0.));
#432=DIRECTION('',(1.22464679914735E-16,-1.,-2.73184799366426E-16));
#433=DIRECTION('',(1.,1.22464679914735E-16,0.));
#434=DIRECTION('',(1.22464679914735E-16,-1.,-2.73184799366426E-16));
#435=DIRECTION('',(0.,2.73184799366426E-16,-1.));
#436=DIRECTION('',(0.,1.,-2.73184799366426E-16));
#437=DIRECTION('',(0.,2.73184799366426E-16,1.));
#438=DIRECTION('',(0.,1.,-2.73184799366426E-16));
#439=DIRECTION('',(0.,2.73184799366426E-16,1.));
#440=DIRECTION('',(0.,1.,-2.73184799366426E-16));
#441=DIRECTION('',(-1.,0.,0.));
#442=DIRECTION('',(0.,-1.,2.73184799366426E-16));
#443=DIRECTION('',(0.,-2.73184799366426E-16,-1.));
#444=DIRECTION('',(0.,-1.,2.73184799366426E-16));
#445=DIRECTION('',(0.,1.,-2.73184799366426E-16));
#446=DIRECTION('',(0.,2.73184799366426E-16,1.));
#447=DIRECTION('',(0.,-1.,2.73184799366426E-16));
#448=DIRECTION('',(0.,-2.73184799366426E-16,-1.));
#449=DIRECTION('',(0.,1.,-2.73184799366426E-16));
#450=DIRECTION('',(0.,2.73184799366426E-16,1.));
#451=DIRECTION('',(0.,1.,-2.73184799366426E-16));
#452=DIRECTION('',(-1.,0.,0.));
#453=DIRECTION('',(0.,1.,-2.73184799366426E-16));
#454=DIRECTION('',(0.,2.73184799366426E-16,1.));
#455=DIRECTION('',(0.,1.,-2.73184799366426E-16));
#456=DIRECTION('',(0.,2.73184799366426E-16,1.));
#457=DIRECTION('',(0.,-1.,2.73184799366426E-16));
#458=DIRECTION('',(0.,-2.73184799366426E-16,-1.));
#459=DIRECTION('',(0.,1.,-2.73184799366426E-16));
#460=DIRECTION('',(0.,2.73184799366426E-16,1.));
#461=CARTESIAN_POINT('',(0.,0.,0.));
#462=CARTESIAN_POINT('',(0.1384140324162,0.0373845856018067,0.0984674729406834));
#463=CARTESIAN_POINT('',(0.150744599110224,0.0396197856018067,0.0984674729406834));
#464=CARTESIAN_POINT('',(0.150744599110224,0.0396197856018067,0.0991141113327355));
#465=CARTESIAN_POINT('',(0.150744599110224,0.0396197856018067,0.100389532744884));
#466=CARTESIAN_POINT('',(0.150744599110224,0.0396197856018067,0.0991141113327355));
#467=CARTESIAN_POINT('',(0.150649489768083,0.0401444599425775,0.0990944755059371));
#468=CARTESIAN_POINT('',(0.150395224655644,0.0411683744464734,0.0990314622701458));
#469=CARTESIAN_POINT('',(0.149923794732629,0.0423874782700176,0.0988162359294773));
#470=CARTESIAN_POINT('',(0.149472098717922,0.043295328969122,0.0984532210027705));
#471=CARTESIAN_POINT('',(0.149127740702423,0.0438958649029373,0.0980514279556621));
#472=CARTESIAN_POINT('',(0.148816676795347,0.0443763129871776,0.0974500056708174));
#473=CARTESIAN_POINT('',(0.148672436136804,0.0445814583344757,0.0966541668032621));
#474=CARTESIAN_POINT('',(0.14880327839563,0.0443956779528191,0.0958400266735636));
#475=CARTESIAN_POINT('',(0.149106844424384,0.043930049033244,0.0952326035001088));
#476=CARTESIAN_POINT('',(0.149455901335074,0.0433255171678042,0.094814919871171));
#477=CARTESIAN_POINT('',(0.14990748641761,0.0424248599867707,0.0944466214180802));
#478=CARTESIAN_POINT('',(0.150392251635334,0.0411821368174777,0.0942215649087593));
#479=CARTESIAN_POINT('',(0.150648753155021,0.0401485234968429,0.0941588211935753));
#480=CARTESIAN_POINT('',(0.150744599110224,0.0396197856018067,0.0941390332891136));
#481=CARTESIAN_POINT('',(0.150744599110224,0.0396197856018067,0.0941390332891136));
#482=CARTESIAN_POINT('',(0.150744599110224,0.0396197856018067,0.0984674729406834));
#483=CARTESIAN_POINT('',(0.150744610136099,0.0396197876040015,0.0928636118769646));
#484=CARTESIAN_POINT('',(0.1384140324162,0.0373845856018067,0.0928636118769646));
#485=CARTESIAN_POINT('',(0.125882512395238,0.0373845856018067,0.0928636118769646));
#486=CARTESIAN_POINT('',(0.125882512395238,0.0373845856018067,0.0961412973332405));
#487=CARTESIAN_POINT('',(0.125882512395238,0.0373845856018067,0.100389532744884));
#488=CARTESIAN_POINT('',(0.1384140324162,0.0373845856018067,0.100389532744884));
#489=CARTESIAN_POINT('',(0.1384140324162,0.0373845856018067,0.0984674729406834));
#490=CARTESIAN_POINT('',(0.1384140324162,0.0373845856018067,0.0966806039214134));
#491=CARTESIAN_POINT('',(0.144452765583992,0.0373845856018067,0.0966806039214134));
#492=CARTESIAN_POINT('',(0.132375299248408,0.0373845856018067,0.0966806039214134));
#493=CARTESIAN_POINT('',(0.144452765583992,0.0373845856018067,0.100099787116051));
#494=CARTESIAN_POINT('',(0.144452765583992,0.0373845856018067,0.100389532744884));
#495=CARTESIAN_POINT('',(0.1384140324162,0.0373845856018067,0.100389532744884));
#496=CARTESIAN_POINT('',(0.132375299248408,0.0373845856018067,0.100389532744884));
#497=CARTESIAN_POINT('',(0.132375299248408,0.0373845856018067,0.100099787116051));
#498=CARTESIAN_POINT('',(0.144841618835926,0.0373845856018067,0.0966806039214134));
#499=CARTESIAN_POINT('',(0.1384140324162,0.0373845856018067,0.0966806039214134));
#500=CARTESIAN_POINT('',(0.143155127763748,0.0373845856018067,0.0966806039214134));
#501=CARTESIAN_POINT('',(0.133672937068652,0.0373845856018067,0.0966806039214134));
#502=CARTESIAN_POINT('',(0.144841618835926,0.0373845856018067,0.0966806039214134));
#503=CARTESIAN_POINT('',(0.131986445996474,0.0373845856018067,0.0966806039214134));
#504=CARTESIAN_POINT('',(0.1384140324162,0.0373845856018067,0.0984674729406834));
#505=CARTESIAN_POINT('',(0.1384140324162,0.0373845856018067,0.095315046608448));
#506=CARTESIAN_POINT('',(0.143155127763748,0.0373845856018067,0.095315046608448));
#507=CARTESIAN_POINT('',(0.133672937068652,0.0373845856018067,0.095315046608448));
#508=CARTESIAN_POINT('',(0.143155127763748,0.0373845856018067,0.0959978252649307));
#509=CARTESIAN_POINT('',(0.133672937068652,0.0373845856018067,0.0959978252649307));
#510=CARTESIAN_POINT('',(0.144841618835926,0.0373845856018067,0.095315046608448));
#511=CARTESIAN_POINT('',(0.1384140324162,0.0373845856018067,0.095315046608448));
#512=CARTESIAN_POINT('',(0.144452765583992,0.0373845856018067,0.095315046608448));
#513=CARTESIAN_POINT('',(0.132375299248408,0.0373845856018067,0.095315046608448));
#514=CARTESIAN_POINT('',(0.144841618835926,0.0373845856018067,0.095315046608448));
#515=CARTESIAN_POINT('',(0.131986445996474,0.0373845856018067,0.095315046608448));
#516=CARTESIAN_POINT('',(0.1384140324162,0.0373845856018067,0.0984674729406834));
#517=CARTESIAN_POINT('',(0.1384140324162,0.0373845856018067,0.0941963270306587));
#518=CARTESIAN_POINT('',(0.144452765583992,0.0373845856018067,0.0941963270306587));
#519=CARTESIAN_POINT('',(0.132375299248408,0.0373845856018067,0.0941963270306587));
#520=CARTESIAN_POINT('',(0.144452765583992,0.0373845856018067,0.0928584327448845));
#521=CARTESIAN_POINT('',(0.132375299248408,0.0373845856018067,0.0928584327448845));
#522=CARTESIAN_POINT('',(0.144841618835926,0.0373845856018067,0.0941963270306587));
#523=CARTESIAN_POINT('',(0.1384140324162,0.0373845856018067,0.0941963270306587));
#524=CARTESIAN_POINT('',(0.143155127763748,0.0373845856018067,0.0941963270306587));
#525=CARTESIAN_POINT('',(0.133672937068652,0.0373845856018067,0.0941963270306587));
#526=CARTESIAN_POINT('',(0.144841618835926,0.0373845856018067,0.0941963270306587));
#527=CARTESIAN_POINT('',(0.131986445996474,0.0373845856018067,0.0941963270306587));
#528=CARTESIAN_POINT('',(0.1384140324162,0.0373845856018067,0.0984674729406834));
#529=CARTESIAN_POINT('',(0.1384140324162,0.0373845856018067,0.0928636118769646));
#530=CARTESIAN_POINT('',(0.143155127763748,0.0373845856018067,0.0928636118769646));
#531=CARTESIAN_POINT('',(0.133672937068652,0.0373845856018067,0.0928636118769646));
#532=CARTESIAN_POINT('',(0.143155127763748,0.0373845856018067,0.0935299694538116));
#533=CARTESIAN_POINT('',(0.133672937068652,0.0373845856018067,0.0935299694538116));
#534=CARTESIAN_POINT('',(0.147052638232708,0.0373845856018067,0.0928636118769646));
#535=CARTESIAN_POINT('',(0.150945552437162,0.0396197856018067,0.0928636118769646));
#536=CARTESIAN_POINT('',(0.150945552437162,0.0396197856018067,0.0928636118769646));
#537=CARTESIAN_POINT('',(0.150945552437162,0.0373845856018067,0.0928636118769646));
#538=CARTESIAN_POINT('',(0.147052638232708,0.0373845856018067,0.0928636118769646));
#539=CARTESIAN_POINT('',(0.129775426599692,0.0373845856018067,0.0928636118769646));
#540=CARTESIAN_POINT('',(0.15008806101911,0.0396197856018067,0.0928636118769646));
#541=CARTESIAN_POINT('',(0.14770145714283,0.0373845856018067,0.100389532744884));
#542=CARTESIAN_POINT('',(0.14770145714283,0.0373845856018067,0.100389532744884));
#543=CARTESIAN_POINT('',(0.151269510388374,0.0373845856018067,0.100389532744884));
#544=CARTESIAN_POINT('',(0.151269510388374,0.0396197856018067,0.100389532744884));
#545=CARTESIAN_POINT('',(0.151269510388374,0.0396197856018067,0.100389532744884));
#546=CARTESIAN_POINT('',(0.147861137986183,0.0396197856018067,0.100389532744884));
#547=CARTESIAN_POINT('',(0.12912660768957,0.0373845856018067,0.100389532744884));
#548=CARTESIAN_POINT('',(0.136359402568793,0.0373845856018067,0.08636));
#549=CARTESIAN_POINT('',(0.151258164699967,0.0373845856018067,0.0966265723109245));
#550=CARTESIAN_POINT('',(0.151258164699967,0.0373845856018067,0.0951025723109245));
#551=CARTESIAN_POINT('',(0.151258164699967,0.0373845856018067,0.0966265723109245));
#552=CARTESIAN_POINT('',(0.153623818518429,0.0373845856018062,0.0995695775208417));
#553=CARTESIAN_POINT('',(0.151269510388374,0.0373845856018067,0.0965996347367764));
#554=CARTESIAN_POINT('',(0.140468662263608,0.0373845856018067,0.08636));
#555=CARTESIAN_POINT('',(0.151269510388374,0.0396197856018067,0.0965996347367764));
#556=CARTESIAN_POINT('',(0.153623818518429,0.0396197856018062,0.0995695775208417));
#557=CARTESIAN_POINT('',(0.153623818518429,0.0396197856018062,0.0995695775208417));
#558=CARTESIAN_POINT('',(0.151269510388374,0.0396197856018067,0.0965996347367764));
#559=CARTESIAN_POINT('',(0.151258164699967,0.0396197856018067,0.0966265723109245));
#560=CARTESIAN_POINT('',(0.151258164699967,0.0396197856018067,0.0966265723109245));
#561=CARTESIAN_POINT('',(0.149090884253383,0.0396197856018067,0.0966061162285185));
#562=CARTESIAN_POINT('',(0.151258164699967,0.0396197856018067,0.0966265723109245));
#563=CARTESIAN_POINT('',(0.151258164699967,0.0396197856018067,0.0981505723109245));
#564=CARTESIAN_POINT('',(0.151258164699967,0.0396197856018067,0.0966265723109245));
#565=CARTESIAN_POINT('',(0.151258164699967,0.0650197856018066,0.0966265723109245));
#566=CARTESIAN_POINT('',(0.151258164699967,0.0309329856018066,0.0966265723109245));
#567=MECHANICAL_DESIGN_GEOMETRIC_PRESENTATION_REPRESENTATION('',(#319),
#568);
#568=(
GEOMETRIC_REPRESENTATION_CONTEXT(3)
GLOBAL_UNCERTAINTY_ASSIGNED_CONTEXT((#569))
GLOBAL_UNIT_ASSIGNED_CONTEXT((#572,#571,#570))
REPRESENTATION_CONTEXT('Part 15','TOP_LEVEL_ASSEMBLY_PART')
);
#569=UNCERTAINTY_MEASURE_WITH_UNIT(LENGTH_MEASURE(2.E-5),#572,
'DISTANCE_ACCURACY_VALUE','Maximum Tolerance applied to model');
#570=(
NAMED_UNIT(*)
SI_UNIT($,.STERADIAN.)
SOLID_ANGLE_UNIT()
);
#571=(
NAMED_UNIT(*)
PLANE_ANGLE_UNIT()
SI_UNIT($,.RADIAN.)
);
#572=(
LENGTH_UNIT()
NAMED_UNIT(*)
SI_UNIT($,.METRE.)
);
#573=PRODUCT_DEFINITION_SHAPE('','',#574);
#574=PRODUCT_DEFINITION('','',#576,#575);
#575=PRODUCT_DEFINITION_CONTEXT('',#582,'design');
#576=PRODUCT_DEFINITION_FORMATION_WITH_SPECIFIED_SOURCE('','',#578,
 .NOT_KNOWN.);
#577=PRODUCT_RELATED_PRODUCT_CATEGORY('','',(#578));
#578=PRODUCT('Part 15','Part 15','Part 15',(#580));
#579=PRODUCT_CATEGORY('','');
#580=PRODUCT_CONTEXT('',#582,'mechanical');
#581=APPLICATION_PROTOCOL_DEFINITION('international standard',
'ap242_managed_model_based_3d_engineering',2020,#582);
#582=APPLICATION_CONTEXT('managed model based 3d engineering');
ENDSEC;
END-ISO-10303-21;
