ISO-10303-21;
HEADER;
/* Generated by software containing ST-Developer
 * from STEP Tools, Inc. (www.steptools.com) 
 */
/* OPTION: using custom renumber hook */

FILE_DESCRIPTION(
/* description */ ('STEP AP242 Edition 2',
'CAx-IF Rec.Pracs.---Representation and Presentation of Product Manufa
cturing Information (PMI)---4.0---2014-10-13',
'CAx-IF Rec.Pracs.---3D Tessellated Geometry---0.4---2014-09-14','2;1',
'CAx-IF Rec.Pracs.---User Defined Attributes---1.5---2016-08-15'),
/* implementation_level */ '2;1');

FILE_NAME(
/* name */ 'V2 - Part 3',
/* time_stamp */ '2026-05-14T03:05:46Z',
/* author */ (''),
/* organization */ (''),
/* preprocessor_version */ 'ST-DEVELOPER v20',
/* originating_system */ 'ONSHAPE BY PTC INC, 1.214',
/* authorisation */ '  ');

FILE_SCHEMA (('AP242_MANAGED_MODEL_BASED_3D_ENGINEERING_MIM_LF { 1 0 10303 442 3 1 4 }'));
ENDSEC;

DATA;
#10=SHAPE_REPRESENTATION_RELATIONSHIP('','',#798,#11);
#11=ADVANCED_BREP_SHAPE_REPRESENTATION('',(#796),#1317);
#12=LINE('',#1146,#68);
#13=LINE('',#1149,#69);
#14=LINE('',#1151,#70);
#15=LINE('',#1153,#71);
#16=LINE('',#1155,#72);
#17=LINE('',#1157,#73);
#18=LINE('',#1159,#74);
#19=LINE('',#1161,#75);
#20=LINE('',#1163,#76);
#21=LINE('',#1165,#77);
#22=LINE('',#1179,#78);
#23=LINE('',#1182,#79);
#24=LINE('',#1184,#80);
#25=LINE('',#1186,#81);
#26=LINE('',#1188,#82);
#27=LINE('',#1191,#83);
#28=LINE('',#1192,#84);
#29=LINE('',#1194,#85);
#30=LINE('',#1196,#86);
#31=LINE('',#1198,#87);
#32=LINE('',#1200,#88);
#33=LINE('',#1202,#89);
#34=LINE('',#1204,#90);
#35=LINE('',#1206,#91);
#36=LINE('',#1208,#92);
#37=LINE('',#1210,#93);
#38=LINE('',#1212,#94);
#39=LINE('',#1214,#95);
#40=LINE('',#1216,#96);
#41=LINE('',#1218,#97);
#42=LINE('',#1220,#98);
#43=LINE('',#1222,#99);
#44=LINE('',#1224,#100);
#45=LINE('',#1225,#101);
#46=LINE('',#1227,#102);
#47=LINE('',#1238,#103);
#48=LINE('',#1240,#104);
#49=LINE('',#1242,#105);
#50=LINE('',#1244,#106);
#51=LINE('',#1246,#107);
#52=LINE('',#1256,#108);
#53=LINE('',#1259,#109);
#54=LINE('',#1260,#110);
#55=LINE('',#1266,#111);
#56=LINE('',#1268,#112);
#57=LINE('',#1270,#113);
#58=LINE('',#1272,#114);
#59=LINE('',#1274,#115);
#60=LINE('',#1276,#116);
#61=LINE('',#1278,#117);
#62=LINE('',#1279,#118);
#63=LINE('',#1281,#119);
#64=LINE('',#1283,#120);
#65=LINE('',#1285,#121);
#66=LINE('',#1287,#122);
#67=LINE('',#1288,#123);
#68=VECTOR('',#932,1.);
#69=VECTOR('',#933,1.);
#70=VECTOR('',#934,1.);
#71=VECTOR('',#935,1.);
#72=VECTOR('',#936,1.);
#73=VECTOR('',#937,1.);
#74=VECTOR('',#938,1.);
#75=VECTOR('',#939,1.);
#76=VECTOR('',#940,1.);
#77=VECTOR('',#941,1.);
#78=VECTOR('',#956,1.);
#79=VECTOR('',#957,1.);
#80=VECTOR('',#958,1.);
#81=VECTOR('',#959,1.);
#82=VECTOR('',#962,1.);
#83=VECTOR('',#963,1.);
#84=VECTOR('',#964,1.);
#85=VECTOR('',#967,1.);
#86=VECTOR('',#968,1.);
#87=VECTOR('',#971,1.);
#88=VECTOR('',#972,1.);
#89=VECTOR('',#975,1.);
#90=VECTOR('',#976,1.);
#91=VECTOR('',#979,1.);
#92=VECTOR('',#980,1.);
#93=VECTOR('',#983,1.);
#94=VECTOR('',#984,1.);
#95=VECTOR('',#987,1.);
#96=VECTOR('',#988,1.);
#97=VECTOR('',#991,1.);
#98=VECTOR('',#992,1.);
#99=VECTOR('',#993,1.);
#100=VECTOR('',#994,1.);
#101=VECTOR('',#995,1.);
#102=VECTOR('',#998,1.);
#103=VECTOR('',#1013,1.);
#104=VECTOR('',#1014,1.);
#105=VECTOR('',#1015,1.);
#106=VECTOR('',#1016,1.);
#107=VECTOR('',#1017,1.);
#108=VECTOR('',#1030,1.);
#109=VECTOR('',#1031,1.);
#110=VECTOR('',#1032,1.);
#111=VECTOR('',#1041,1.);
#112=VECTOR('',#1042,1.);
#113=VECTOR('',#1043,1.);
#114=VECTOR('',#1046,1.);
#115=VECTOR('',#1047,1.);
#116=VECTOR('',#1048,1.);
#117=VECTOR('',#1051,1.);
#118=VECTOR('',#1052,1.);
#119=VECTOR('',#1055,1.);
#120=VECTOR('',#1056,1.);
#121=VECTOR('',#1057,1.);
#122=VECTOR('',#1060,1.);
#123=VECTOR('',#1061,1.);
#124=PLANE('',#818);
#125=PLANE('',#828);
#126=PLANE('',#831);
#127=PLANE('',#832);
#128=PLANE('',#833);
#129=PLANE('',#834);
#130=PLANE('',#835);
#131=PLANE('',#836);
#132=PLANE('',#837);
#133=PLANE('',#838);
#134=PLANE('',#839);
#135=PLANE('',#846);
#136=PLANE('',#851);
#137=PLANE('',#855);
#138=PLANE('',#856);
#139=PLANE('',#857);
#140=PLANE('',#858);
#141=PLANE('',#859);
#142=PLANE('',#860);
#143=PLANE('',#861);
#144=PLANE('',#862);
#145=PLANE('',#863);
#146=PLANE('',#866);
#147=PLANE('',#869);
#148=PLANE('',#872);
#149=PLANE('',#875);
#150=PLANE('',#878);
#151=PLANE('',#881);
#152=ORIENTED_EDGE('',*,*,#336,.F.);
#153=ORIENTED_EDGE('',*,*,#337,.T.);
#154=ORIENTED_EDGE('',*,*,#338,.F.);
#155=ORIENTED_EDGE('',*,*,#339,.T.);
#156=ORIENTED_EDGE('',*,*,#340,.F.);
#157=ORIENTED_EDGE('',*,*,#341,.T.);
#158=ORIENTED_EDGE('',*,*,#342,.F.);
#159=ORIENTED_EDGE('',*,*,#343,.T.);
#160=ORIENTED_EDGE('',*,*,#344,.F.);
#161=ORIENTED_EDGE('',*,*,#345,.T.);
#162=ORIENTED_EDGE('',*,*,#346,.T.);
#163=ORIENTED_EDGE('',*,*,#347,.T.);
#164=ORIENTED_EDGE('',*,*,#348,.T.);
#165=ORIENTED_EDGE('',*,*,#349,.T.);
#166=ORIENTED_EDGE('',*,*,#350,.T.);
#167=ORIENTED_EDGE('',*,*,#351,.T.);
#168=ORIENTED_EDGE('',*,*,#344,.T.);
#169=ORIENTED_EDGE('',*,*,#352,.T.);
#170=ORIENTED_EDGE('',*,*,#353,.T.);
#171=ORIENTED_EDGE('',*,*,#354,.F.);
#172=ORIENTED_EDGE('',*,*,#355,.T.);
#173=ORIENTED_EDGE('',*,*,#356,.T.);
#174=ORIENTED_EDGE('',*,*,#357,.T.);
#175=ORIENTED_EDGE('',*,*,#358,.T.);
#176=ORIENTED_EDGE('',*,*,#359,.F.);
#177=ORIENTED_EDGE('',*,*,#360,.F.);
#178=ORIENTED_EDGE('',*,*,#361,.F.);
#179=ORIENTED_EDGE('',*,*,#362,.T.);
#180=ORIENTED_EDGE('',*,*,#363,.F.);
#181=ORIENTED_EDGE('',*,*,#364,.F.);
#182=ORIENTED_EDGE('',*,*,#365,.T.);
#183=ORIENTED_EDGE('',*,*,#366,.F.);
#184=ORIENTED_EDGE('',*,*,#346,.F.);
#185=ORIENTED_EDGE('',*,*,#367,.F.);
#186=ORIENTED_EDGE('',*,*,#368,.F.);
#187=ORIENTED_EDGE('',*,*,#369,.T.);
#188=ORIENTED_EDGE('',*,*,#370,.F.);
#189=ORIENTED_EDGE('',*,*,#371,.F.);
#190=ORIENTED_EDGE('',*,*,#372,.T.);
#191=ORIENTED_EDGE('',*,*,#373,.T.);
#192=ORIENTED_EDGE('',*,*,#374,.F.);
#193=ORIENTED_EDGE('',*,*,#353,.F.);
#194=ORIENTED_EDGE('',*,*,#375,.T.);
#195=ORIENTED_EDGE('',*,*,#376,.F.);
#196=ORIENTED_EDGE('',*,*,#377,.F.);
#197=ORIENTED_EDGE('',*,*,#354,.T.);
#198=ORIENTED_EDGE('',*,*,#374,.T.);
#199=ORIENTED_EDGE('',*,*,#378,.T.);
#200=ORIENTED_EDGE('',*,*,#379,.F.);
#201=ORIENTED_EDGE('',*,*,#355,.F.);
#202=ORIENTED_EDGE('',*,*,#377,.T.);
#203=ORIENTED_EDGE('',*,*,#380,.T.);
#204=ORIENTED_EDGE('',*,*,#381,.F.);
#205=ORIENTED_EDGE('',*,*,#356,.F.);
#206=ORIENTED_EDGE('',*,*,#379,.T.);
#207=ORIENTED_EDGE('',*,*,#382,.T.);
#208=ORIENTED_EDGE('',*,*,#383,.F.);
#209=ORIENTED_EDGE('',*,*,#357,.F.);
#210=ORIENTED_EDGE('',*,*,#381,.T.);
#211=ORIENTED_EDGE('',*,*,#384,.T.);
#212=ORIENTED_EDGE('',*,*,#385,.F.);
#213=ORIENTED_EDGE('',*,*,#358,.F.);
#214=ORIENTED_EDGE('',*,*,#383,.T.);
#215=ORIENTED_EDGE('',*,*,#386,.F.);
#216=ORIENTED_EDGE('',*,*,#387,.F.);
#217=ORIENTED_EDGE('',*,*,#359,.T.);
#218=ORIENTED_EDGE('',*,*,#385,.T.);
#219=ORIENTED_EDGE('',*,*,#388,.F.);
#220=ORIENTED_EDGE('',*,*,#389,.T.);
#221=ORIENTED_EDGE('',*,*,#390,.F.);
#222=ORIENTED_EDGE('',*,*,#391,.T.);
#223=ORIENTED_EDGE('',*,*,#370,.T.);
#224=ORIENTED_EDGE('',*,*,#392,.F.);
#225=ORIENTED_EDGE('',*,*,#360,.T.);
#226=ORIENTED_EDGE('',*,*,#387,.T.);
#227=ORIENTED_EDGE('',*,*,#369,.F.);
#228=ORIENTED_EDGE('',*,*,#393,.F.);
#229=ORIENTED_EDGE('',*,*,#361,.T.);
#230=ORIENTED_EDGE('',*,*,#392,.T.);
#231=ORIENTED_EDGE('',*,*,#365,.F.);
#232=ORIENTED_EDGE('',*,*,#394,.T.);
#233=ORIENTED_EDGE('',*,*,#364,.T.);
#234=ORIENTED_EDGE('',*,*,#395,.F.);
#235=ORIENTED_EDGE('',*,*,#363,.T.);
#236=ORIENTED_EDGE('',*,*,#396,.F.);
#237=ORIENTED_EDGE('',*,*,#393,.T.);
#238=ORIENTED_EDGE('',*,*,#372,.F.);
#239=ORIENTED_EDGE('',*,*,#397,.F.);
#240=ORIENTED_EDGE('',*,*,#398,.T.);
#241=ORIENTED_EDGE('',*,*,#399,.F.);
#242=ORIENTED_EDGE('',*,*,#400,.T.);
#243=ORIENTED_EDGE('',*,*,#401,.T.);
#244=ORIENTED_EDGE('',*,*,#375,.F.);
#245=ORIENTED_EDGE('',*,*,#362,.F.);
#246=ORIENTED_EDGE('',*,*,#352,.F.);
#247=ORIENTED_EDGE('',*,*,#402,.T.);
#248=ORIENTED_EDGE('',*,*,#403,.F.);
#249=ORIENTED_EDGE('',*,*,#366,.T.);
#250=ORIENTED_EDGE('',*,*,#404,.T.);
#251=ORIENTED_EDGE('',*,*,#402,.F.);
#252=ORIENTED_EDGE('',*,*,#405,.T.);
#253=ORIENTED_EDGE('',*,*,#406,.T.);
#254=ORIENTED_EDGE('',*,*,#388,.T.);
#255=ORIENTED_EDGE('',*,*,#386,.T.);
#256=ORIENTED_EDGE('',*,*,#384,.F.);
#257=ORIENTED_EDGE('',*,*,#382,.F.);
#258=ORIENTED_EDGE('',*,*,#380,.F.);
#259=ORIENTED_EDGE('',*,*,#378,.F.);
#260=ORIENTED_EDGE('',*,*,#376,.T.);
#261=ORIENTED_EDGE('',*,*,#373,.F.);
#262=ORIENTED_EDGE('',*,*,#401,.F.);
#263=ORIENTED_EDGE('',*,*,#407,.T.);
#264=ORIENTED_EDGE('',*,*,#396,.T.);
#265=ORIENTED_EDGE('',*,*,#395,.T.);
#266=ORIENTED_EDGE('',*,*,#394,.F.);
#267=ORIENTED_EDGE('',*,*,#336,.T.);
#268=ORIENTED_EDGE('',*,*,#338,.T.);
#269=ORIENTED_EDGE('',*,*,#340,.T.);
#270=ORIENTED_EDGE('',*,*,#342,.T.);
#271=ORIENTED_EDGE('',*,*,#408,.T.);
#272=ORIENTED_EDGE('',*,*,#404,.F.);
#273=ORIENTED_EDGE('',*,*,#403,.T.);
#274=ORIENTED_EDGE('',*,*,#408,.F.);
#275=ORIENTED_EDGE('',*,*,#400,.F.);
#276=ORIENTED_EDGE('',*,*,#409,.T.);
#277=ORIENTED_EDGE('',*,*,#410,.F.);
#278=ORIENTED_EDGE('',*,*,#411,.F.);
#279=ORIENTED_EDGE('',*,*,#412,.F.);
#280=ORIENTED_EDGE('',*,*,#405,.F.);
#281=ORIENTED_EDGE('',*,*,#413,.T.);
#282=ORIENTED_EDGE('',*,*,#414,.T.);
#283=ORIENTED_EDGE('',*,*,#415,.F.);
#284=ORIENTED_EDGE('',*,*,#414,.F.);
#285=ORIENTED_EDGE('',*,*,#416,.T.);
#286=ORIENTED_EDGE('',*,*,#390,.T.);
#287=ORIENTED_EDGE('',*,*,#417,.F.);
#288=ORIENTED_EDGE('',*,*,#398,.F.);
#289=ORIENTED_EDGE('',*,*,#418,.T.);
#290=ORIENTED_EDGE('',*,*,#419,.T.);
#291=ORIENTED_EDGE('',*,*,#410,.T.);
#292=ORIENTED_EDGE('',*,*,#420,.T.);
#293=ORIENTED_EDGE('',*,*,#419,.F.);
#294=ORIENTED_EDGE('',*,*,#421,.F.);
#295=ORIENTED_EDGE('',*,*,#411,.T.);
#296=ORIENTED_EDGE('',*,*,#421,.T.);
#297=ORIENTED_EDGE('',*,*,#418,.F.);
#298=ORIENTED_EDGE('',*,*,#397,.T.);
#299=ORIENTED_EDGE('',*,*,#371,.T.);
#300=ORIENTED_EDGE('',*,*,#391,.F.);
#301=ORIENTED_EDGE('',*,*,#416,.F.);
#302=ORIENTED_EDGE('',*,*,#413,.F.);
#303=ORIENTED_EDGE('',*,*,#407,.F.);
#304=ORIENTED_EDGE('',*,*,#399,.T.);
#305=ORIENTED_EDGE('',*,*,#417,.T.);
#306=ORIENTED_EDGE('',*,*,#420,.F.);
#307=ORIENTED_EDGE('',*,*,#409,.F.);
#308=ORIENTED_EDGE('',*,*,#406,.F.);
#309=ORIENTED_EDGE('',*,*,#412,.T.);
#310=ORIENTED_EDGE('',*,*,#415,.T.);
#311=ORIENTED_EDGE('',*,*,#389,.F.);
#312=ORIENTED_EDGE('',*,*,#422,.F.);
#313=ORIENTED_EDGE('',*,*,#367,.T.);
#314=ORIENTED_EDGE('',*,*,#347,.F.);
#315=ORIENTED_EDGE('',*,*,#422,.T.);
#316=ORIENTED_EDGE('',*,*,#423,.F.);
#317=ORIENTED_EDGE('',*,*,#368,.T.);
#318=ORIENTED_EDGE('',*,*,#345,.F.);
#319=ORIENTED_EDGE('',*,*,#423,.T.);
#320=ORIENTED_EDGE('',*,*,#424,.T.);
#321=ORIENTED_EDGE('',*,*,#349,.F.);
#322=ORIENTED_EDGE('',*,*,#343,.F.);
#323=ORIENTED_EDGE('',*,*,#424,.F.);
#324=ORIENTED_EDGE('',*,*,#425,.T.);
#325=ORIENTED_EDGE('',*,*,#348,.F.);
#326=ORIENTED_EDGE('',*,*,#341,.F.);
#327=ORIENTED_EDGE('',*,*,#425,.F.);
#328=ORIENTED_EDGE('',*,*,#426,.T.);
#329=ORIENTED_EDGE('',*,*,#351,.F.);
#330=ORIENTED_EDGE('',*,*,#339,.F.);
#331=ORIENTED_EDGE('',*,*,#426,.F.);
#332=ORIENTED_EDGE('',*,*,#427,.T.);
#333=ORIENTED_EDGE('',*,*,#350,.F.);
#334=ORIENTED_EDGE('',*,*,#337,.F.);
#335=ORIENTED_EDGE('',*,*,#427,.F.);
#336=EDGE_CURVE('',#428,#428,#501,.T.);
#337=EDGE_CURVE('',#429,#429,#502,.T.);
#338=EDGE_CURVE('',#430,#430,#503,.T.);
#339=EDGE_CURVE('',#431,#431,#504,.T.);
#340=EDGE_CURVE('',#432,#432,#505,.T.);
#341=EDGE_CURVE('',#433,#433,#506,.T.);
#342=EDGE_CURVE('',#434,#434,#507,.T.);
#343=EDGE_CURVE('',#435,#435,#508,.T.);
#344=EDGE_CURVE('',#436,#436,#509,.F.);
#345=EDGE_CURVE('',#437,#437,#510,.T.);
#346=EDGE_CURVE('',#438,#438,#511,.T.);
#347=EDGE_CURVE('',#439,#439,#512,.T.);
#348=EDGE_CURVE('',#440,#440,#513,.T.);
#349=EDGE_CURVE('',#441,#441,#514,.T.);
#350=EDGE_CURVE('',#442,#442,#515,.T.);
#351=EDGE_CURVE('',#443,#443,#516,.T.);
#352=EDGE_CURVE('',#444,#444,#517,.T.);
#353=EDGE_CURVE('',#445,#446,#12,.T.);
#354=EDGE_CURVE('',#447,#446,#13,.T.);
#355=EDGE_CURVE('',#447,#448,#14,.T.);
#356=EDGE_CURVE('',#448,#449,#15,.T.);
#357=EDGE_CURVE('',#449,#450,#16,.T.);
#358=EDGE_CURVE('',#450,#451,#17,.T.);
#359=EDGE_CURVE('',#452,#451,#18,.T.);
#360=EDGE_CURVE('',#453,#452,#19,.T.);
#361=EDGE_CURVE('',#454,#453,#20,.T.);
#362=EDGE_CURVE('',#454,#445,#21,.T.);
#363=EDGE_CURVE('',#455,#455,#518,.T.);
#364=EDGE_CURVE('',#456,#456,#519,.T.);
#365=EDGE_CURVE('',#457,#457,#520,.T.);
#366=EDGE_CURVE('',#458,#458,#521,.T.);
#367=EDGE_CURVE('',#459,#459,#522,.T.);
#368=EDGE_CURVE('',#460,#460,#523,.T.);
#369=EDGE_CURVE('',#461,#462,#22,.T.);
#370=EDGE_CURVE('',#463,#462,#23,.T.);
#371=EDGE_CURVE('',#464,#463,#24,.T.);
#372=EDGE_CURVE('',#464,#461,#25,.T.);
#373=EDGE_CURVE('',#465,#466,#26,.T.);
#374=EDGE_CURVE('',#446,#466,#27,.T.);
#375=EDGE_CURVE('',#445,#465,#28,.T.);
#376=EDGE_CURVE('',#467,#466,#29,.T.);
#377=EDGE_CURVE('',#447,#467,#30,.T.);
#378=EDGE_CURVE('',#467,#468,#31,.T.);
#379=EDGE_CURVE('',#448,#468,#32,.T.);
#380=EDGE_CURVE('',#468,#469,#33,.T.);
#381=EDGE_CURVE('',#449,#469,#34,.T.);
#382=EDGE_CURVE('',#469,#470,#35,.T.);
#383=EDGE_CURVE('',#450,#470,#36,.T.);
#384=EDGE_CURVE('',#470,#471,#37,.T.);
#385=EDGE_CURVE('',#451,#471,#38,.T.);
#386=EDGE_CURVE('',#472,#471,#39,.T.);
#387=EDGE_CURVE('',#452,#472,#40,.T.);
#388=EDGE_CURVE('',#473,#472,#41,.T.);
#389=EDGE_CURVE('',#473,#474,#42,.T.);
#390=EDGE_CURVE('',#475,#474,#43,.T.);
#391=EDGE_CURVE('',#475,#463,#44,.T.);
#392=EDGE_CURVE('',#453,#462,#45,.T.);
#393=EDGE_CURVE('',#454,#461,#46,.T.);
#394=EDGE_CURVE('',#476,#476,#524,.T.);
#395=EDGE_CURVE('',#477,#477,#525,.T.);
#396=EDGE_CURVE('',#478,#478,#526,.T.);
#397=EDGE_CURVE('',#479,#464,#47,.T.);
#398=EDGE_CURVE('',#479,#480,#48,.T.);
#399=EDGE_CURVE('',#481,#480,#49,.T.);
#400=EDGE_CURVE('',#481,#482,#50,.T.);
#401=EDGE_CURVE('',#482,#465,#51,.T.);
#402=EDGE_CURVE('',#483,#483,#527,.T.);
#403=EDGE_CURVE('',#484,#484,#528,.T.);
#404=EDGE_CURVE('',#485,#485,#529,.T.);
#405=EDGE_CURVE('',#486,#487,#52,.T.);
#406=EDGE_CURVE('',#487,#473,#53,.T.);
#407=EDGE_CURVE('',#482,#486,#54,.T.);
#408=EDGE_CURVE('',#488,#488,#530,.T.);
#409=EDGE_CURVE('',#481,#489,#55,.T.);
#410=EDGE_CURVE('',#490,#489,#56,.T.);
#411=EDGE_CURVE('',#482,#490,#57,.T.);
#412=EDGE_CURVE('',#487,#491,#58,.T.);
#413=EDGE_CURVE('',#486,#492,#59,.T.);
#414=EDGE_CURVE('',#492,#491,#60,.T.);
#415=EDGE_CURVE('',#491,#474,#61,.T.);
#416=EDGE_CURVE('',#492,#475,#62,.T.);
#417=EDGE_CURVE('',#480,#493,#63,.T.);
#418=EDGE_CURVE('',#479,#494,#64,.T.);
#419=EDGE_CURVE('',#494,#493,#65,.T.);
#420=EDGE_CURVE('',#489,#493,#66,.T.);
#421=EDGE_CURVE('',#490,#494,#67,.T.);
#422=EDGE_CURVE('',#495,#495,#531,.T.);
#423=EDGE_CURVE('',#496,#496,#532,.T.);
#424=EDGE_CURVE('',#497,#497,#533,.T.);
#425=EDGE_CURVE('',#498,#498,#534,.T.);
#426=EDGE_CURVE('',#499,#499,#535,.T.);
#427=EDGE_CURVE('',#500,#500,#536,.T.);
#428=VERTEX_POINT('',#1107);
#429=VERTEX_POINT('',#1109);
#430=VERTEX_POINT('',#1112);
#431=VERTEX_POINT('',#1114);
#432=VERTEX_POINT('',#1117);
#433=VERTEX_POINT('',#1119);
#434=VERTEX_POINT('',#1122);
#435=VERTEX_POINT('',#1124);
#436=VERTEX_POINT('',#1127);
#437=VERTEX_POINT('',#1129);
#438=VERTEX_POINT('',#1132);
#439=VERTEX_POINT('',#1134);
#440=VERTEX_POINT('',#1137);
#441=VERTEX_POINT('',#1139);
#442=VERTEX_POINT('',#1141);
#443=VERTEX_POINT('',#1143);
#444=VERTEX_POINT('',#1145);
#445=VERTEX_POINT('',#1147);
#446=VERTEX_POINT('',#1148);
#447=VERTEX_POINT('',#1150);
#448=VERTEX_POINT('',#1152);
#449=VERTEX_POINT('',#1154);
#450=VERTEX_POINT('',#1156);
#451=VERTEX_POINT('',#1158);
#452=VERTEX_POINT('',#1160);
#453=VERTEX_POINT('',#1162);
#454=VERTEX_POINT('',#1164);
#455=VERTEX_POINT('',#1167);
#456=VERTEX_POINT('',#1169);
#457=VERTEX_POINT('',#1171);
#458=VERTEX_POINT('',#1173);
#459=VERTEX_POINT('',#1176);
#460=VERTEX_POINT('',#1178);
#461=VERTEX_POINT('',#1180);
#462=VERTEX_POINT('',#1181);
#463=VERTEX_POINT('',#1183);
#464=VERTEX_POINT('',#1185);
#465=VERTEX_POINT('',#1189);
#466=VERTEX_POINT('',#1190);
#467=VERTEX_POINT('',#1195);
#468=VERTEX_POINT('',#1199);
#469=VERTEX_POINT('',#1203);
#470=VERTEX_POINT('',#1207);
#471=VERTEX_POINT('',#1211);
#472=VERTEX_POINT('',#1215);
#473=VERTEX_POINT('',#1219);
#474=VERTEX_POINT('',#1221);
#475=VERTEX_POINT('',#1223);
#476=VERTEX_POINT('',#1230);
#477=VERTEX_POINT('',#1233);
#478=VERTEX_POINT('',#1236);
#479=VERTEX_POINT('',#1239);
#480=VERTEX_POINT('',#1241);
#481=VERTEX_POINT('',#1243);
#482=VERTEX_POINT('',#1245);
#483=VERTEX_POINT('',#1249);
#484=VERTEX_POINT('',#1252);
#485=VERTEX_POINT('',#1255);
#486=VERTEX_POINT('',#1257);
#487=VERTEX_POINT('',#1258);
#488=VERTEX_POINT('',#1263);
#489=VERTEX_POINT('',#1267);
#490=VERTEX_POINT('',#1269);
#491=VERTEX_POINT('',#1273);
#492=VERTEX_POINT('',#1275);
#493=VERTEX_POINT('',#1282);
#494=VERTEX_POINT('',#1284);
#495=VERTEX_POINT('',#1294);
#496=VERTEX_POINT('',#1298);
#497=VERTEX_POINT('',#1302);
#498=VERTEX_POINT('',#1306);
#499=VERTEX_POINT('',#1310);
#500=VERTEX_POINT('',#1314);
#501=CIRCLE('',#801,0.001524);
#502=CIRCLE('',#802,0.001524);
#503=CIRCLE('',#804,0.001524);
#504=CIRCLE('',#805,0.001524);
#505=CIRCLE('',#807,0.001524);
#506=CIRCLE('',#808,0.001524);
#507=CIRCLE('',#810,0.001524);
#508=CIRCLE('',#811,0.001524);
#509=CIRCLE('',#813,0.001651);
#510=CIRCLE('',#814,0.001651);
#511=CIRCLE('',#816,0.001651);
#512=CIRCLE('',#817,0.001651);
#513=CIRCLE('',#819,0.002286);
#514=CIRCLE('',#820,0.002286);
#515=CIRCLE('',#821,0.002286);
#516=CIRCLE('',#822,0.002286);
#517=CIRCLE('',#823,0.001524);
#518=CIRCLE('',#824,0.001524);
#519=CIRCLE('',#825,0.001524);
#520=CIRCLE('',#826,0.001524);
#521=CIRCLE('',#827,0.00254);
#522=CIRCLE('',#829,0.002413);
#523=CIRCLE('',#830,0.002413);
#524=CIRCLE('',#841,0.001524);
#525=CIRCLE('',#843,0.001524);
#526=CIRCLE('',#845,0.001524);
#527=CIRCLE('',#848,0.001524);
#528=CIRCLE('',#850,0.00254);
#529=CIRCLE('',#852,0.0127);
#530=CIRCLE('',#854,0.0127);
#531=CIRCLE('',#865,0.002413);
#532=CIRCLE('',#868,0.002413);
#533=CIRCLE('',#871,0.002286);
#534=CIRCLE('',#874,0.002286);
#535=CIRCLE('',#877,0.002286);
#536=CIRCLE('',#880,0.002286);
#537=EDGE_LOOP('',(#152));
#538=EDGE_LOOP('',(#153));
#539=EDGE_LOOP('',(#154));
#540=EDGE_LOOP('',(#155));
#541=EDGE_LOOP('',(#156));
#542=EDGE_LOOP('',(#157));
#543=EDGE_LOOP('',(#158));
#544=EDGE_LOOP('',(#159));
#545=EDGE_LOOP('',(#160));
#546=EDGE_LOOP('',(#161));
#547=EDGE_LOOP('',(#162));
#548=EDGE_LOOP('',(#163));
#549=EDGE_LOOP('',(#164));
#550=EDGE_LOOP('',(#165));
#551=EDGE_LOOP('',(#166));
#552=EDGE_LOOP('',(#167));
#553=EDGE_LOOP('',(#168));
#554=EDGE_LOOP('',(#169));
#555=EDGE_LOOP('',(#170,#171,#172,#173,#174,#175,#176,#177,#178,#179));
#556=EDGE_LOOP('',(#180));
#557=EDGE_LOOP('',(#181));
#558=EDGE_LOOP('',(#182));
#559=EDGE_LOOP('',(#183));
#560=EDGE_LOOP('',(#184));
#561=EDGE_LOOP('',(#185));
#562=EDGE_LOOP('',(#186));
#563=EDGE_LOOP('',(#187,#188,#189,#190));
#564=EDGE_LOOP('',(#191,#192,#193,#194));
#565=EDGE_LOOP('',(#195,#196,#197,#198));
#566=EDGE_LOOP('',(#199,#200,#201,#202));
#567=EDGE_LOOP('',(#203,#204,#205,#206));
#568=EDGE_LOOP('',(#207,#208,#209,#210));
#569=EDGE_LOOP('',(#211,#212,#213,#214));
#570=EDGE_LOOP('',(#215,#216,#217,#218));
#571=EDGE_LOOP('',(#219,#220,#221,#222,#223,#224,#225,#226));
#572=EDGE_LOOP('',(#227,#228,#229,#230));
#573=EDGE_LOOP('',(#231));
#574=EDGE_LOOP('',(#232));
#575=EDGE_LOOP('',(#233));
#576=EDGE_LOOP('',(#234));
#577=EDGE_LOOP('',(#235));
#578=EDGE_LOOP('',(#236));
#579=EDGE_LOOP('',(#237,#238,#239,#240,#241,#242,#243,#244,#245));
#580=EDGE_LOOP('',(#246));
#581=EDGE_LOOP('',(#247));
#582=EDGE_LOOP('',(#248));
#583=EDGE_LOOP('',(#249));
#584=EDGE_LOOP('',(#250));
#585=EDGE_LOOP('',(#251));
#586=EDGE_LOOP('',(#252,#253,#254,#255,#256,#257,#258,#259,#260,#261,#262,
#263));
#587=EDGE_LOOP('',(#264));
#588=EDGE_LOOP('',(#265));
#589=EDGE_LOOP('',(#266));
#590=EDGE_LOOP('',(#267));
#591=EDGE_LOOP('',(#268));
#592=EDGE_LOOP('',(#269));
#593=EDGE_LOOP('',(#270));
#594=EDGE_LOOP('',(#271));
#595=EDGE_LOOP('',(#272));
#596=EDGE_LOOP('',(#273));
#597=EDGE_LOOP('',(#274));
#598=EDGE_LOOP('',(#275,#276,#277,#278));
#599=EDGE_LOOP('',(#279,#280,#281,#282));
#600=EDGE_LOOP('',(#283,#284,#285,#286));
#601=EDGE_LOOP('',(#287,#288,#289,#290));
#602=EDGE_LOOP('',(#291,#292,#293,#294));
#603=EDGE_LOOP('',(#295,#296,#297,#298,#299,#300,#301,#302,#303));
#604=EDGE_LOOP('',(#304,#305,#306,#307));
#605=EDGE_LOOP('',(#308,#309,#310,#311));
#606=EDGE_LOOP('',(#312));
#607=EDGE_LOOP('',(#313));
#608=EDGE_LOOP('',(#314));
#609=EDGE_LOOP('',(#315));
#610=EDGE_LOOP('',(#316));
#611=EDGE_LOOP('',(#317));
#612=EDGE_LOOP('',(#318));
#613=EDGE_LOOP('',(#319));
#614=EDGE_LOOP('',(#320));
#615=EDGE_LOOP('',(#321));
#616=EDGE_LOOP('',(#322));
#617=EDGE_LOOP('',(#323));
#618=EDGE_LOOP('',(#324));
#619=EDGE_LOOP('',(#325));
#620=EDGE_LOOP('',(#326));
#621=EDGE_LOOP('',(#327));
#622=EDGE_LOOP('',(#328));
#623=EDGE_LOOP('',(#329));
#624=EDGE_LOOP('',(#330));
#625=EDGE_LOOP('',(#331));
#626=EDGE_LOOP('',(#332));
#627=EDGE_LOOP('',(#333));
#628=EDGE_LOOP('',(#334));
#629=EDGE_LOOP('',(#335));
#630=FACE_BOUND('',#537,.T.);
#631=FACE_BOUND('',#538,.T.);
#632=FACE_BOUND('',#539,.T.);
#633=FACE_BOUND('',#540,.T.);
#634=FACE_BOUND('',#541,.T.);
#635=FACE_BOUND('',#542,.T.);
#636=FACE_BOUND('',#543,.T.);
#637=FACE_BOUND('',#544,.T.);
#638=FACE_BOUND('',#545,.T.);
#639=FACE_BOUND('',#546,.T.);
#640=FACE_BOUND('',#547,.T.);
#641=FACE_BOUND('',#548,.T.);
#642=FACE_BOUND('',#549,.T.);
#643=FACE_BOUND('',#550,.T.);
#644=FACE_BOUND('',#551,.T.);
#645=FACE_BOUND('',#552,.T.);
#646=FACE_BOUND('',#553,.T.);
#647=FACE_BOUND('',#554,.T.);
#648=FACE_BOUND('',#555,.T.);
#649=FACE_BOUND('',#556,.T.);
#650=FACE_BOUND('',#557,.T.);
#651=FACE_BOUND('',#558,.T.);
#652=FACE_BOUND('',#559,.T.);
#653=FACE_BOUND('',#560,.T.);
#654=FACE_BOUND('',#561,.T.);
#655=FACE_BOUND('',#562,.T.);
#656=FACE_BOUND('',#563,.T.);
#657=FACE_BOUND('',#564,.T.);
#658=FACE_BOUND('',#565,.T.);
#659=FACE_BOUND('',#566,.T.);
#660=FACE_BOUND('',#567,.T.);
#661=FACE_BOUND('',#568,.T.);
#662=FACE_BOUND('',#569,.T.);
#663=FACE_BOUND('',#570,.T.);
#664=FACE_BOUND('',#571,.T.);
#665=FACE_BOUND('',#572,.T.);
#666=FACE_BOUND('',#573,.T.);
#667=FACE_BOUND('',#574,.T.);
#668=FACE_BOUND('',#575,.T.);
#669=FACE_BOUND('',#576,.T.);
#670=FACE_BOUND('',#577,.T.);
#671=FACE_BOUND('',#578,.T.);
#672=FACE_BOUND('',#579,.T.);
#673=FACE_BOUND('',#580,.T.);
#674=FACE_BOUND('',#581,.T.);
#675=FACE_BOUND('',#582,.T.);
#676=FACE_BOUND('',#583,.T.);
#677=FACE_BOUND('',#584,.T.);
#678=FACE_BOUND('',#585,.T.);
#679=FACE_BOUND('',#586,.T.);
#680=FACE_BOUND('',#587,.T.);
#681=FACE_BOUND('',#588,.T.);
#682=FACE_BOUND('',#589,.T.);
#683=FACE_BOUND('',#590,.T.);
#684=FACE_BOUND('',#591,.T.);
#685=FACE_BOUND('',#592,.T.);
#686=FACE_BOUND('',#593,.T.);
#687=FACE_BOUND('',#594,.T.);
#688=FACE_BOUND('',#595,.T.);
#689=FACE_BOUND('',#596,.T.);
#690=FACE_BOUND('',#597,.T.);
#691=FACE_BOUND('',#598,.T.);
#692=FACE_BOUND('',#599,.T.);
#693=FACE_BOUND('',#600,.T.);
#694=FACE_BOUND('',#601,.T.);
#695=FACE_BOUND('',#602,.T.);
#696=FACE_BOUND('',#603,.T.);
#697=FACE_BOUND('',#604,.T.);
#698=FACE_BOUND('',#605,.T.);
#699=FACE_BOUND('',#606,.T.);
#700=FACE_BOUND('',#607,.T.);
#701=FACE_BOUND('',#608,.T.);
#702=FACE_BOUND('',#609,.T.);
#703=FACE_BOUND('',#610,.T.);
#704=FACE_BOUND('',#611,.T.);
#705=FACE_BOUND('',#612,.T.);
#706=FACE_BOUND('',#613,.T.);
#707=FACE_BOUND('',#614,.T.);
#708=FACE_BOUND('',#615,.T.);
#709=FACE_BOUND('',#616,.T.);
#710=FACE_BOUND('',#617,.T.);
#711=FACE_BOUND('',#618,.T.);
#712=FACE_BOUND('',#619,.T.);
#713=FACE_BOUND('',#620,.T.);
#714=FACE_BOUND('',#621,.T.);
#715=FACE_BOUND('',#622,.T.);
#716=FACE_BOUND('',#623,.T.);
#717=FACE_BOUND('',#624,.T.);
#718=FACE_BOUND('',#625,.T.);
#719=FACE_BOUND('',#626,.T.);
#720=FACE_BOUND('',#627,.T.);
#721=FACE_BOUND('',#628,.T.);
#722=FACE_BOUND('',#629,.T.);
#723=CYLINDRICAL_SURFACE('',#800,0.001524);
#724=CYLINDRICAL_SURFACE('',#803,0.001524);
#725=CYLINDRICAL_SURFACE('',#806,0.001524);
#726=CYLINDRICAL_SURFACE('',#809,0.001524);
#727=CYLINDRICAL_SURFACE('',#812,0.001651);
#728=CYLINDRICAL_SURFACE('',#815,0.001651);
#729=CYLINDRICAL_SURFACE('',#840,0.001524);
#730=CYLINDRICAL_SURFACE('',#842,0.001524);
#731=CYLINDRICAL_SURFACE('',#844,0.001524);
#732=CYLINDRICAL_SURFACE('',#847,0.001524);
#733=CYLINDRICAL_SURFACE('',#849,0.00254);
#734=CYLINDRICAL_SURFACE('',#853,0.0127);
#735=CYLINDRICAL_SURFACE('',#864,0.002413);
#736=CYLINDRICAL_SURFACE('',#867,0.002413);
#737=CYLINDRICAL_SURFACE('',#870,0.002286);
#738=CYLINDRICAL_SURFACE('',#873,0.002286);
#739=CYLINDRICAL_SURFACE('',#876,0.002286);
#740=CYLINDRICAL_SURFACE('',#879,0.002286);
#741=ADVANCED_FACE('',(#630,#631),#723,.F.);
#742=ADVANCED_FACE('',(#632,#633),#724,.F.);
#743=ADVANCED_FACE('',(#634,#635),#725,.F.);
#744=ADVANCED_FACE('',(#636,#637),#726,.F.);
#745=ADVANCED_FACE('',(#638,#639),#727,.F.);
#746=ADVANCED_FACE('',(#640,#641),#728,.F.);
#747=ADVANCED_FACE('',(#642,#643,#644,#645,#646,#647,#648,#649,#650,#651,
#652,#653),#124,.T.);
#748=ADVANCED_FACE('',(#654,#655,#656),#125,.F.);
#749=ADVANCED_FACE('',(#657),#126,.F.);
#750=ADVANCED_FACE('',(#658),#127,.T.);
#751=ADVANCED_FACE('',(#659),#128,.F.);
#752=ADVANCED_FACE('',(#660),#129,.F.);
#753=ADVANCED_FACE('',(#661),#130,.F.);
#754=ADVANCED_FACE('',(#662),#131,.F.);
#755=ADVANCED_FACE('',(#663),#132,.T.);
#756=ADVANCED_FACE('',(#664),#133,.T.);
#757=ADVANCED_FACE('',(#665),#134,.T.);
#758=ADVANCED_FACE('',(#666,#667),#729,.F.);
#759=ADVANCED_FACE('',(#668,#669),#730,.F.);
#760=ADVANCED_FACE('',(#670,#671),#731,.F.);
#761=ADVANCED_FACE('',(#672),#135,.F.);
#762=ADVANCED_FACE('',(#673,#674),#732,.F.);
#763=ADVANCED_FACE('',(#675,#676),#733,.F.);
#764=ADVANCED_FACE('',(#677,#678,#679,#680,#681,#682,#683,#684,#685,#686),
#136,.F.);
#765=ADVANCED_FACE('',(#687,#688),#734,.F.);
#766=ADVANCED_FACE('',(#689,#690),#137,.F.);
#767=ADVANCED_FACE('',(#691),#138,.F.);
#768=ADVANCED_FACE('',(#692),#139,.T.);
#769=ADVANCED_FACE('',(#693),#140,.T.);
#770=ADVANCED_FACE('',(#694),#141,.T.);
#771=ADVANCED_FACE('',(#695),#142,.F.);
#772=ADVANCED_FACE('',(#696),#143,.F.);
#773=ADVANCED_FACE('',(#697),#144,.F.);
#774=ADVANCED_FACE('',(#698),#145,.F.);
#775=ADVANCED_FACE('',(#699,#700),#735,.F.);
#776=ADVANCED_FACE('',(#701,#702),#146,.T.);
#777=ADVANCED_FACE('',(#703,#704),#736,.F.);
#778=ADVANCED_FACE('',(#705,#706),#147,.T.);
#779=ADVANCED_FACE('',(#707,#708),#737,.F.);
#780=ADVANCED_FACE('',(#709,#710),#148,.T.);
#781=ADVANCED_FACE('',(#711,#712),#738,.F.);
#782=ADVANCED_FACE('',(#713,#714),#149,.T.);
#783=ADVANCED_FACE('',(#715,#716),#739,.F.);
#784=ADVANCED_FACE('',(#717,#718),#150,.T.);
#785=ADVANCED_FACE('',(#719,#720),#740,.F.);
#786=ADVANCED_FACE('',(#721,#722),#151,.T.);
#787=CLOSED_SHELL('',(#741,#742,#743,#744,#745,#746,#747,#748,#749,#750,
#751,#752,#753,#754,#755,#756,#757,#758,#759,#760,#761,#762,#763,#764,#765,
#766,#767,#768,#769,#770,#771,#772,#773,#774,#775,#776,#777,#778,#779,#780,
#781,#782,#783,#784,#785,#786));
#788=STYLED_ITEM('',(#789),#796);
#789=PRESENTATION_STYLE_ASSIGNMENT((#790));
#790=SURFACE_STYLE_USAGE(.BOTH.,#791);
#791=SURFACE_SIDE_STYLE('',(#792));
#792=SURFACE_STYLE_FILL_AREA(#793);
#793=FILL_AREA_STYLE('',(#794));
#794=FILL_AREA_STYLE_COLOUR('',#795);
#795=COLOUR_RGB('',0.917647058823529,0.917647058823529,0.917647058823529);
#796=MANIFOLD_SOLID_BREP('Part 3',#787);
#797=SHAPE_DEFINITION_REPRESENTATION(#1322,#798);
#798=SHAPE_REPRESENTATION('Part 3',(#799),#1317);
#799=AXIS2_PLACEMENT_3D('',#1104,#882,#883);
#800=AXIS2_PLACEMENT_3D('',#1105,#884,#885);
#801=AXIS2_PLACEMENT_3D('',#1106,#886,#887);
#802=AXIS2_PLACEMENT_3D('',#1108,#888,#889);
#803=AXIS2_PLACEMENT_3D('',#1110,#890,#891);
#804=AXIS2_PLACEMENT_3D('',#1111,#892,#893);
#805=AXIS2_PLACEMENT_3D('',#1113,#894,#895);
#806=AXIS2_PLACEMENT_3D('',#1115,#896,#897);
#807=AXIS2_PLACEMENT_3D('',#1116,#898,#899);
#808=AXIS2_PLACEMENT_3D('',#1118,#900,#901);
#809=AXIS2_PLACEMENT_3D('',#1120,#902,#903);
#810=AXIS2_PLACEMENT_3D('',#1121,#904,#905);
#811=AXIS2_PLACEMENT_3D('',#1123,#906,#907);
#812=AXIS2_PLACEMENT_3D('',#1125,#908,#909);
#813=AXIS2_PLACEMENT_3D('',#1126,#910,#911);
#814=AXIS2_PLACEMENT_3D('',#1128,#912,#913);
#815=AXIS2_PLACEMENT_3D('',#1130,#914,#915);
#816=AXIS2_PLACEMENT_3D('',#1131,#916,#917);
#817=AXIS2_PLACEMENT_3D('',#1133,#918,#919);
#818=AXIS2_PLACEMENT_3D('',#1135,#920,#921);
#819=AXIS2_PLACEMENT_3D('',#1136,#922,#923);
#820=AXIS2_PLACEMENT_3D('',#1138,#924,#925);
#821=AXIS2_PLACEMENT_3D('',#1140,#926,#927);
#822=AXIS2_PLACEMENT_3D('',#1142,#928,#929);
#823=AXIS2_PLACEMENT_3D('',#1144,#930,#931);
#824=AXIS2_PLACEMENT_3D('',#1166,#942,#943);
#825=AXIS2_PLACEMENT_3D('',#1168,#944,#945);
#826=AXIS2_PLACEMENT_3D('',#1170,#946,#947);
#827=AXIS2_PLACEMENT_3D('',#1172,#948,#949);
#828=AXIS2_PLACEMENT_3D('',#1174,#950,#951);
#829=AXIS2_PLACEMENT_3D('',#1175,#952,#953);
#830=AXIS2_PLACEMENT_3D('',#1177,#954,#955);
#831=AXIS2_PLACEMENT_3D('',#1187,#960,#961);
#832=AXIS2_PLACEMENT_3D('',#1193,#965,#966);
#833=AXIS2_PLACEMENT_3D('',#1197,#969,#970);
#834=AXIS2_PLACEMENT_3D('',#1201,#973,#974);
#835=AXIS2_PLACEMENT_3D('',#1205,#977,#978);
#836=AXIS2_PLACEMENT_3D('',#1209,#981,#982);
#837=AXIS2_PLACEMENT_3D('',#1213,#985,#986);
#838=AXIS2_PLACEMENT_3D('',#1217,#989,#990);
#839=AXIS2_PLACEMENT_3D('',#1226,#996,#997);
#840=AXIS2_PLACEMENT_3D('',#1228,#999,#1000);
#841=AXIS2_PLACEMENT_3D('',#1229,#1001,#1002);
#842=AXIS2_PLACEMENT_3D('',#1231,#1003,#1004);
#843=AXIS2_PLACEMENT_3D('',#1232,#1005,#1006);
#844=AXIS2_PLACEMENT_3D('',#1234,#1007,#1008);
#845=AXIS2_PLACEMENT_3D('',#1235,#1009,#1010);
#846=AXIS2_PLACEMENT_3D('',#1237,#1011,#1012);
#847=AXIS2_PLACEMENT_3D('',#1247,#1018,#1019);
#848=AXIS2_PLACEMENT_3D('',#1248,#1020,#1021);
#849=AXIS2_PLACEMENT_3D('',#1250,#1022,#1023);
#850=AXIS2_PLACEMENT_3D('',#1251,#1024,#1025);
#851=AXIS2_PLACEMENT_3D('',#1253,#1026,#1027);
#852=AXIS2_PLACEMENT_3D('',#1254,#1028,#1029);
#853=AXIS2_PLACEMENT_3D('',#1261,#1033,#1034);
#854=AXIS2_PLACEMENT_3D('',#1262,#1035,#1036);
#855=AXIS2_PLACEMENT_3D('',#1264,#1037,#1038);
#856=AXIS2_PLACEMENT_3D('',#1265,#1039,#1040);
#857=AXIS2_PLACEMENT_3D('',#1271,#1044,#1045);
#858=AXIS2_PLACEMENT_3D('',#1277,#1049,#1050);
#859=AXIS2_PLACEMENT_3D('',#1280,#1053,#1054);
#860=AXIS2_PLACEMENT_3D('',#1286,#1058,#1059);
#861=AXIS2_PLACEMENT_3D('',#1289,#1062,#1063);
#862=AXIS2_PLACEMENT_3D('',#1290,#1064,#1065);
#863=AXIS2_PLACEMENT_3D('',#1291,#1066,#1067);
#864=AXIS2_PLACEMENT_3D('',#1292,#1068,#1069);
#865=AXIS2_PLACEMENT_3D('',#1293,#1070,#1071);
#866=AXIS2_PLACEMENT_3D('',#1295,#1072,#1073);
#867=AXIS2_PLACEMENT_3D('',#1296,#1074,#1075);
#868=AXIS2_PLACEMENT_3D('',#1297,#1076,#1077);
#869=AXIS2_PLACEMENT_3D('',#1299,#1078,#1079);
#870=AXIS2_PLACEMENT_3D('',#1300,#1080,#1081);
#871=AXIS2_PLACEMENT_3D('',#1301,#1082,#1083);
#872=AXIS2_PLACEMENT_3D('',#1303,#1084,#1085);
#873=AXIS2_PLACEMENT_3D('',#1304,#1086,#1087);
#874=AXIS2_PLACEMENT_3D('',#1305,#1088,#1089);
#875=AXIS2_PLACEMENT_3D('',#1307,#1090,#1091);
#876=AXIS2_PLACEMENT_3D('',#1308,#1092,#1093);
#877=AXIS2_PLACEMENT_3D('',#1309,#1094,#1095);
#878=AXIS2_PLACEMENT_3D('',#1311,#1096,#1097);
#879=AXIS2_PLACEMENT_3D('',#1312,#1098,#1099);
#880=AXIS2_PLACEMENT_3D('',#1313,#1100,#1101);
#881=AXIS2_PLACEMENT_3D('',#1315,#1102,#1103);
#882=DIRECTION('',(0.,0.,1.));
#883=DIRECTION('',(1.,0.,0.));
#884=DIRECTION('',(0.,-1.,0.));
#885=DIRECTION('',(0.,0.,-1.));
#886=DIRECTION('',(0.,-1.,0.));
#887=DIRECTION('',(0.,0.,-1.));
#888=DIRECTION('',(0.,-1.,0.));
#889=DIRECTION('',(0.,0.,-1.));
#890=DIRECTION('',(0.,-1.,0.));
#891=DIRECTION('',(0.,0.,-1.));
#892=DIRECTION('',(0.,-1.,0.));
#893=DIRECTION('',(0.,0.,-1.));
#894=DIRECTION('',(0.,-1.,0.));
#895=DIRECTION('',(0.,0.,-1.));
#896=DIRECTION('',(0.,-1.,0.));
#897=DIRECTION('',(0.,0.,-1.));
#898=DIRECTION('',(0.,-1.,0.));
#899=DIRECTION('',(0.,0.,-1.));
#900=DIRECTION('',(0.,-1.,0.));
#901=DIRECTION('',(0.,0.,-1.));
#902=DIRECTION('',(0.,-1.,0.));
#903=DIRECTION('',(0.,0.,-1.));
#904=DIRECTION('',(0.,-1.,0.));
#905=DIRECTION('',(0.,0.,-1.));
#906=DIRECTION('',(0.,-1.,0.));
#907=DIRECTION('',(0.,0.,-1.));
#908=DIRECTION('',(0.,1.,-2.73184799366426E-16));
#909=DIRECTION('',(0.,2.73184799366426E-16,1.));
#910=DIRECTION('',(0.,-1.,0.));
#911=DIRECTION('',(0.,0.,-1.));
#912=DIRECTION('',(0.,1.,-2.73184799366426E-16));
#913=DIRECTION('',(0.,2.73184799366426E-16,1.));
#914=DIRECTION('',(0.,1.,-2.73184799366426E-16));
#915=DIRECTION('',(0.,2.73184799366426E-16,1.));
#916=DIRECTION('',(0.,-1.,0.));
#917=DIRECTION('',(0.,0.,-1.));
#918=DIRECTION('',(0.,1.,-2.73184799366426E-16));
#919=DIRECTION('',(0.,2.73184799366426E-16,1.));
#920=DIRECTION('',(0.,-1.,0.));
#921=DIRECTION('',(1.,0.,0.));
#922=DIRECTION('',(0.,1.,0.));
#923=DIRECTION('',(0.,0.,1.));
#924=DIRECTION('',(0.,1.,0.));
#925=DIRECTION('',(0.,0.,1.));
#926=DIRECTION('',(0.,1.,0.));
#927=DIRECTION('',(0.,0.,1.));
#928=DIRECTION('',(0.,1.,0.));
#929=DIRECTION('',(0.,0.,1.));
#930=DIRECTION('',(0.,1.,0.));
#931=DIRECTION('',(0.,0.,-1.));
#932=DIRECTION('',(-0.628068873783617,0.,0.778157753790438));
#933=DIRECTION('',(1.,0.,0.));
#934=DIRECTION('',(-0.707106781186548,0.,-0.707106781186547));
#935=DIRECTION('',(0.,0.,-1.));
#936=DIRECTION('',(0.70710678118655,0.,-0.707106781186546));
#937=DIRECTION('',(1.,0.,0.));
#938=DIRECTION('',(-0.628068873783617,0.,-0.778157753790438));
#939=DIRECTION('',(-1.,0.,0.));
#940=DIRECTION('',(0.,0.,-1.));
#941=DIRECTION('',(-1.,0.,0.));
#942=DIRECTION('',(0.,-1.,0.));
#943=DIRECTION('',(0.,0.,-1.));
#944=DIRECTION('',(0.,-1.,0.));
#945=DIRECTION('',(0.,0.,-1.));
#946=DIRECTION('',(0.,1.,0.));
#947=DIRECTION('',(0.,0.,-1.));
#948=DIRECTION('',(0.,-1.,0.));
#949=DIRECTION('',(0.,0.,-1.));
#950=DIRECTION('',(0.,-1.,2.73184799366426E-16));
#951=DIRECTION('',(0.,-2.73184799366426E-16,-1.));
#952=DIRECTION('',(0.,1.,-2.73184799366426E-16));
#953=DIRECTION('',(0.,2.73184799366426E-16,1.));
#954=DIRECTION('',(0.,1.,-2.73184799366426E-16));
#955=DIRECTION('',(0.,2.73184799366426E-16,1.));
#956=DIRECTION('',(0.,-2.73184799366426E-16,-1.));
#957=DIRECTION('',(1.,0.,0.));
#958=DIRECTION('',(0.,-2.73184799366426E-16,-1.));
#959=DIRECTION('',(1.,0.,0.));
#960=DIRECTION('',(-0.778157753790438,0.,-0.628068873783617));
#961=DIRECTION('',(-0.628068873783617,0.,0.778157753790438));
#962=DIRECTION('',(-0.628068873783617,0.,0.778157753790438));
#963=DIRECTION('',(0.,1.,0.));
#964=DIRECTION('',(0.,1.,0.));
#965=DIRECTION('',(0.,0.,1.));
#966=DIRECTION('',(1.,0.,0.));
#967=DIRECTION('',(1.,0.,0.));
#968=DIRECTION('',(0.,1.,0.));
#969=DIRECTION('',(0.707106781186547,0.,-0.707106781186548));
#970=DIRECTION('',(-0.707106781186548,0.,-0.707106781186547));
#971=DIRECTION('',(-0.707106781186548,0.,-0.707106781186547));
#972=DIRECTION('',(0.,1.,0.));
#973=DIRECTION('',(1.,0.,0.));
#974=DIRECTION('',(0.,0.,-1.));
#975=DIRECTION('',(0.,0.,-1.));
#976=DIRECTION('',(0.,1.,0.));
#977=DIRECTION('',(0.707106781186546,0.,0.70710678118655));
#978=DIRECTION('',(0.70710678118655,0.,-0.707106781186546));
#979=DIRECTION('',(0.70710678118655,0.,-0.707106781186546));
#980=DIRECTION('',(0.,1.,0.));
#981=DIRECTION('',(0.,0.,1.));
#982=DIRECTION('',(1.,0.,0.));
#983=DIRECTION('',(1.,0.,0.));
#984=DIRECTION('',(0.,1.,0.));
#985=DIRECTION('',(0.778157753790438,0.,-0.628068873783617));
#986=DIRECTION('',(-0.628068873783617,0.,-0.778157753790438));
#987=DIRECTION('',(-0.628068873783617,0.,-0.778157753790438));
#988=DIRECTION('',(0.,1.,0.));
#989=DIRECTION('',(0.,0.,-1.));
#990=DIRECTION('',(-1.,0.,0.));
#991=DIRECTION('',(-1.,0.,0.));
#992=DIRECTION('',(0.,1.,0.));
#993=DIRECTION('',(1.,0.,0.));
#994=DIRECTION('',(0.,1.,0.));
#995=DIRECTION('',(0.,1.,0.));
#996=DIRECTION('',(1.,0.,0.));
#997=DIRECTION('',(0.,0.,-1.));
#998=DIRECTION('',(0.,1.,0.));
#999=DIRECTION('',(0.,1.,0.));
#1000=DIRECTION('',(0.,0.,1.));
#1001=DIRECTION('',(0.,1.,0.));
#1002=DIRECTION('',(0.,0.,-1.));
#1003=DIRECTION('',(0.,1.,0.));
#1004=DIRECTION('',(0.,0.,1.));
#1005=DIRECTION('',(0.,-1.,0.));
#1006=DIRECTION('',(0.,0.,-1.));
#1007=DIRECTION('',(0.,1.,0.));
#1008=DIRECTION('',(0.,0.,1.));
#1009=DIRECTION('',(0.,-1.,0.));
#1010=DIRECTION('',(0.,0.,-1.));
#1011=DIRECTION('',(0.,0.,-1.));
#1012=DIRECTION('',(-1.,0.,0.));
#1013=DIRECTION('',(0.,1.,0.));
#1014=DIRECTION('',(1.,0.,0.));
#1015=DIRECTION('',(0.,1.,0.));
#1016=DIRECTION('',(-1.,0.,0.));
#1017=DIRECTION('',(-1.,0.,0.));
#1018=DIRECTION('',(0.,1.,0.));
#1019=DIRECTION('',(0.,0.,1.));
#1020=DIRECTION('',(0.,1.,0.));
#1021=DIRECTION('',(0.,0.,-1.));
#1022=DIRECTION('',(0.,1.,0.));
#1023=DIRECTION('',(0.,0.,1.));
#1024=DIRECTION('',(0.,-1.,0.));
#1025=DIRECTION('',(0.,0.,-1.));
#1026=DIRECTION('',(0.,-1.,0.));
#1027=DIRECTION('',(1.,0.,0.));
#1028=DIRECTION('',(0.,-1.,0.));
#1029=DIRECTION('',(0.,0.,-1.));
#1030=DIRECTION('',(1.,0.,0.));
#1031=DIRECTION('',(0.,0.,-1.));
#1032=DIRECTION('',(0.,0.,-1.));
#1033=DIRECTION('',(0.,1.,0.));
#1034=DIRECTION('',(0.,0.,1.));
#1035=DIRECTION('',(0.,-1.,0.));
#1036=DIRECTION('',(0.,0.,-1.));
#1037=DIRECTION('',(0.,-1.,0.));
#1038=DIRECTION('',(1.,0.,0.));
#1039=DIRECTION('',(0.,-0.773162337303828,-0.634208167855698));
#1040=DIRECTION('',(0.,0.634208167855698,-0.773162337303828));
#1041=DIRECTION('',(0.,0.634208167855698,-0.773162337303828));
#1042=DIRECTION('',(1.,0.,0.));
#1043=DIRECTION('',(0.,0.634208167855698,-0.773162337303828));
#1044=DIRECTION('',(0.,0.,-1.));
#1045=DIRECTION('',(-1.,0.,0.));
#1046=DIRECTION('',(0.,1.,0.));
#1047=DIRECTION('',(0.,1.,0.));
#1048=DIRECTION('',(1.,0.,0.));
#1049=DIRECTION('',(0.,-1.,0.));
#1050=DIRECTION('',(0.,0.,-1.));
#1051=DIRECTION('',(0.,0.,-1.));
#1052=DIRECTION('',(0.,0.,-1.));
#1053=DIRECTION('',(0.,-0.773162337303828,0.634208167855698));
#1054=DIRECTION('',(0.,-0.634208167855698,-0.773162337303828));
#1055=DIRECTION('',(0.,-0.634208167855698,-0.773162337303828));
#1056=DIRECTION('',(0.,-0.634208167855698,-0.773162337303828));
#1057=DIRECTION('',(1.,0.,0.));
#1058=DIRECTION('',(0.,0.,-1.));
#1059=DIRECTION('',(-1.,0.,0.));
#1060=DIRECTION('',(0.,1.,0.));
#1061=DIRECTION('',(0.,1.,0.));
#1062=DIRECTION('',(1.,0.,0.));
#1063=DIRECTION('',(0.,1.,0.));
#1064=DIRECTION('',(1.,0.,0.));
#1065=DIRECTION('',(0.,1.,0.));
#1066=DIRECTION('',(1.,0.,0.));
#1067=DIRECTION('',(0.,1.,0.));
#1068=DIRECTION('',(0.,1.,-2.73184799366426E-16));
#1069=DIRECTION('',(0.,2.73184799366426E-16,1.));
#1070=DIRECTION('',(0.,1.,-2.73184799366426E-16));
#1071=DIRECTION('',(0.,2.73184799366426E-16,1.));
#1072=DIRECTION('',(0.,1.,-2.73184799366426E-16));
#1073=DIRECTION('',(-1.,0.,0.));
#1074=DIRECTION('',(0.,1.,-2.73184799366426E-16));
#1075=DIRECTION('',(0.,2.73184799366426E-16,1.));
#1076=DIRECTION('',(0.,1.,-2.73184799366426E-16));
#1077=DIRECTION('',(0.,2.73184799366426E-16,1.));
#1078=DIRECTION('',(0.,1.,-2.73184799366426E-16));
#1079=DIRECTION('',(-1.,0.,0.));
#1080=DIRECTION('',(0.,-1.,0.));
#1081=DIRECTION('',(0.,0.,-1.));
#1082=DIRECTION('',(0.,1.,0.));
#1083=DIRECTION('',(0.,0.,1.));
#1084=DIRECTION('',(0.,-1.,0.));
#1085=DIRECTION('',(1.,0.,0.));
#1086=DIRECTION('',(0.,-1.,0.));
#1087=DIRECTION('',(0.,0.,-1.));
#1088=DIRECTION('',(0.,1.,0.));
#1089=DIRECTION('',(0.,0.,1.));
#1090=DIRECTION('',(0.,-1.,0.));
#1091=DIRECTION('',(1.,0.,0.));
#1092=DIRECTION('',(0.,-1.,0.));
#1093=DIRECTION('',(0.,0.,-1.));
#1094=DIRECTION('',(0.,1.,0.));
#1095=DIRECTION('',(0.,0.,1.));
#1096=DIRECTION('',(0.,-1.,0.));
#1097=DIRECTION('',(1.,0.,0.));
#1098=DIRECTION('',(0.,-1.,0.));
#1099=DIRECTION('',(0.,0.,-1.));
#1100=DIRECTION('',(0.,1.,0.));
#1101=DIRECTION('',(0.,0.,1.));
#1102=DIRECTION('',(0.,-1.,0.));
#1103=DIRECTION('',(1.,0.,0.));
#1104=CARTESIAN_POINT('',(0.,0.,0.));
#1105=CARTESIAN_POINT('',(0.0381811596598709,0.0126661881804466,0.0939495638012886));
#1106=CARTESIAN_POINT('',(0.0381811596598709,0.0126661881804466,0.0939495638012886));
#1107=CARTESIAN_POINT('',(0.0381811596598709,0.0126661881804466,0.0924255638012886));
#1108=CARTESIAN_POINT('',(0.0381811596598709,0.0101261881804466,0.0939495638012886));
#1109=CARTESIAN_POINT('',(0.0381811596598709,0.0101261881804466,0.0924255638012886));
#1110=CARTESIAN_POINT('',(0.00568135594949126,0.0126661881804466,0.0939495638012886));
#1111=CARTESIAN_POINT('',(0.00568135594949126,0.0126661881804466,0.0939495638012886));
#1112=CARTESIAN_POINT('',(0.00568135594949126,0.0126661881804466,0.0924255638012886));
#1113=CARTESIAN_POINT('',(0.00568135594949126,0.0101261881804466,0.0939495638012886));
#1114=CARTESIAN_POINT('',(0.00568135594949126,0.0101261881804466,0.0924255638012886));
#1115=CARTESIAN_POINT('',(0.00568135594949126,0.0126661881804466,0.0784703940153122));
#1116=CARTESIAN_POINT('',(0.00568135594949126,0.0126661881804466,0.0784703940153122));
#1117=CARTESIAN_POINT('',(0.00568135594949126,0.0126661881804466,0.0769463940153122));
#1118=CARTESIAN_POINT('',(0.00568135594949126,0.0101261881804466,0.0784703940153122));
#1119=CARTESIAN_POINT('',(0.00568135594949126,0.0101261881804466,0.0769463940153122));
#1120=CARTESIAN_POINT('',(0.0381811596598709,0.0126661881804466,0.0784703940153122));
#1121=CARTESIAN_POINT('',(0.0381811596598709,0.0126661881804466,0.0784703940153122));
#1122=CARTESIAN_POINT('',(0.0381811596598709,0.0126661881804466,0.0769463940153122));
#1123=CARTESIAN_POINT('',(0.0381811596598709,0.0101261881804466,0.0784703940153122));
#1124=CARTESIAN_POINT('',(0.0381811596598709,0.0101261881804466,0.0769463940153122));
#1125=CARTESIAN_POINT('',(0.212746797976494,0.00284058560180664,0.0827265752863884));
#1126=CARTESIAN_POINT('',(0.212746797976494,0.00885618818044662,0.0827265752863884));
#1127=CARTESIAN_POINT('',(0.212746797976494,0.00885618818044662,0.0810755752863884));
#1128=CARTESIAN_POINT('',(0.212746797976494,0.0107145856018066,0.0827265752863884));
#1129=CARTESIAN_POINT('',(0.212746797976494,0.0107145856018066,0.0843775752863884));
#1130=CARTESIAN_POINT('',(0.212746797976494,0.00284058560180664,0.0899934247136116));
#1131=CARTESIAN_POINT('',(0.212746797976494,0.00885618818044662,0.0899934247136116));
#1132=CARTESIAN_POINT('',(0.212746797976494,0.00885618818044662,0.0883424247136116));
#1133=CARTESIAN_POINT('',(0.212746797976494,0.0107145856018066,0.0899934247136116));
#1134=CARTESIAN_POINT('',(0.212746797976494,0.0107145856018066,0.0916444247136116));
#1135=CARTESIAN_POINT('',(0.0815927642659992,0.00885618818044662,0.08636));
#1136=CARTESIAN_POINT('',(0.00568135594949126,0.00885618818044662,0.0784703940153122));
#1137=CARTESIAN_POINT('',(0.00568135594949126,0.00885618818044662,0.0807563940153122));
#1138=CARTESIAN_POINT('',(0.0381811596598709,0.00885618818044662,0.0784703940153122));
#1139=CARTESIAN_POINT('',(0.0381811596598709,0.00885618818044662,0.0807563940153122));
#1140=CARTESIAN_POINT('',(0.0381811596598709,0.00885618818044662,0.0939495638012886));
#1141=CARTESIAN_POINT('',(0.0381811596598709,0.00885618818044662,0.0962355638012886));
#1142=CARTESIAN_POINT('',(0.00568135594949126,0.00885618818044662,0.0939495638012886));
#1143=CARTESIAN_POINT('',(0.00568135594949126,0.00885618818044662,0.0962355638012886));
#1144=CARTESIAN_POINT('',(-0.0456242694444955,0.00885618818044662,0.070993));
#1145=CARTESIAN_POINT('',(-0.0456242694444955,0.00885618818044662,0.069469));
#1146=CARTESIAN_POINT('',(-0.0114425569101423,0.00885618818044662,0.104390109190629));
#1147=CARTESIAN_POINT('',(-0.0071405041962862,0.00885618818044662,0.09906));
#1148=CARTESIAN_POINT('',(-0.0147258443757892,0.00885618818044662,0.108458));
#1149=CARTESIAN_POINT('',(-0.0378772694444954,0.00885618818044662,0.108458));
#1150=CARTESIAN_POINT('',(-0.0456242694444955,0.00885618818044662,0.108458));
#1151=CARTESIAN_POINT('',(-0.0488627694444955,0.00885618818044662,0.1052195));
#1152=CARTESIAN_POINT('',(-0.0521012694444955,0.00885618818044662,0.101981));
#1153=CARTESIAN_POINT('',(-0.0521012694444955,0.00885618818044662,0.086487));
#1154=CARTESIAN_POINT('',(-0.0521012694444955,0.00885618818044662,0.070993));
#1155=CARTESIAN_POINT('',(-0.0488627694444954,0.00885618818044662,0.0677545));
#1156=CARTESIAN_POINT('',(-0.0456242694444954,0.00885618818044662,0.064516));
#1157=CARTESIAN_POINT('',(-0.0378772694444955,0.00885618818044662,0.064516));
#1158=CARTESIAN_POINT('',(-0.0145208351817486,0.00885618818044662,0.064516));
#1159=CARTESIAN_POINT('',(-0.00764988682039084,0.00885618818044662,0.0730288908093705));
#1160=CARTESIAN_POINT('',(-0.00714050419628619,0.00885618818044662,0.07366));
#1161=CARTESIAN_POINT('',(-0.00351305514777777,0.00885618818044662,0.07366));
#1162=CARTESIAN_POINT('',(0.215286797976494,0.00885618818044662,0.07366));
#1163=CARTESIAN_POINT('',(0.215286797976494,0.00885618818044662,0.08636));
#1164=CARTESIAN_POINT('',(0.215286797976494,0.00885618818044662,0.09906));
#1165=CARTESIAN_POINT('',(-0.00351305514777777,0.00885618818044662,0.09906));
#1166=CARTESIAN_POINT('',(-0.0456242694444955,0.00885618818044662,0.101981));
#1167=CARTESIAN_POINT('',(-0.0456242694444955,0.00885618818044662,0.100457));
#1168=CARTESIAN_POINT('',(-0.0146362694444955,0.00885618818044662,0.101981));
#1169=CARTESIAN_POINT('',(-0.0146362694444955,0.00885618818044662,0.100457));
#1170=CARTESIAN_POINT('',(-0.0146362694444955,0.00885618818044662,0.070993));
#1171=CARTESIAN_POINT('',(-0.0146362694444955,0.00885618818044662,0.069469));
#1172=CARTESIAN_POINT('',(-0.0301302694444954,0.00885618818044662,0.086487));
#1173=CARTESIAN_POINT('',(-0.0301302694444954,0.00885618818044662,0.083947));
#1174=CARTESIAN_POINT('',(0.0506947979764939,0.0226525856018066,0.08636));
#1175=CARTESIAN_POINT('',(0.212746797976494,0.0226525856018066,0.0899934247136116));
#1176=CARTESIAN_POINT('',(0.212746797976494,0.0226525856018066,0.0924064247136116));
#1177=CARTESIAN_POINT('',(0.212746797976494,0.0226525856018066,0.0827265752863884));
#1178=CARTESIAN_POINT('',(0.212746797976494,0.0226525856018066,0.0851395752863884));
#1179=CARTESIAN_POINT('',(0.215286797976494,0.0226525856018066,0.08636));
#1180=CARTESIAN_POINT('',(0.215286797976494,0.0226525856018066,0.09906));
#1181=CARTESIAN_POINT('',(0.215286797976494,0.0226525856018066,0.07366));
#1182=CARTESIAN_POINT('',(0.0506947979764939,0.0226525856018066,0.07366));
#1183=CARTESIAN_POINT('',(0.0506947979764939,0.0226525856018066,0.07366));
#1184=CARTESIAN_POINT('',(0.0506947979764939,0.0226525856018066,0.08636));
#1185=CARTESIAN_POINT('',(0.0506947979764939,0.0226525856018066,0.09906));
#1186=CARTESIAN_POINT('',(0.0506947979764939,0.0226525856018066,0.09906));
#1187=CARTESIAN_POINT('',(-0.0114425569101423,0.00885618818044662,0.104390109190629));
#1188=CARTESIAN_POINT('',(-0.0114425569101423,0.0126661881804466,0.104390109190629));
#1189=CARTESIAN_POINT('',(-0.0071405041962862,0.0126661881804466,0.09906));
#1190=CARTESIAN_POINT('',(-0.0147258443757892,0.0126661881804466,0.108458));
#1191=CARTESIAN_POINT('',(-0.0147258443757892,0.00885618818044662,0.108458));
#1192=CARTESIAN_POINT('',(-0.0071405041962862,0.00885618818044662,0.09906));
#1193=CARTESIAN_POINT('',(-0.0378772694444954,0.00885618818044662,0.108458));
#1194=CARTESIAN_POINT('',(-0.0378772694444954,0.0126661881804466,0.108458));
#1195=CARTESIAN_POINT('',(-0.0456242694444955,0.0126661881804466,0.108458));
#1196=CARTESIAN_POINT('',(-0.0456242694444955,0.00885618818044662,0.108458));
#1197=CARTESIAN_POINT('',(-0.0488627694444955,0.00885618818044662,0.1052195));
#1198=CARTESIAN_POINT('',(-0.0488627694444955,0.0126661881804466,0.1052195));
#1199=CARTESIAN_POINT('',(-0.0521012694444955,0.0126661881804466,0.101981));
#1200=CARTESIAN_POINT('',(-0.0521012694444955,0.00885618818044662,0.101981));
#1201=CARTESIAN_POINT('',(-0.0521012694444955,0.00885618818044662,0.086487));
#1202=CARTESIAN_POINT('',(-0.0521012694444955,0.0126661881804466,0.086487));
#1203=CARTESIAN_POINT('',(-0.0521012694444955,0.0126661881804466,0.070993));
#1204=CARTESIAN_POINT('',(-0.0521012694444955,0.00885618818044662,0.070993));
#1205=CARTESIAN_POINT('',(-0.0488627694444954,0.00885618818044662,0.0677545));
#1206=CARTESIAN_POINT('',(-0.0488627694444954,0.0126661881804466,0.0677545));
#1207=CARTESIAN_POINT('',(-0.0456242694444954,0.0126661881804466,0.064516));
#1208=CARTESIAN_POINT('',(-0.0456242694444954,0.00885618818044662,0.064516));
#1209=CARTESIAN_POINT('',(-0.0378772694444955,0.00885618818044662,0.064516));
#1210=CARTESIAN_POINT('',(-0.0378772694444955,0.0126661881804466,0.064516));
#1211=CARTESIAN_POINT('',(-0.0145208351817486,0.0126661881804466,0.064516));
#1212=CARTESIAN_POINT('',(-0.0145208351817486,0.00885618818044662,0.064516));
#1213=CARTESIAN_POINT('',(-0.00764988682039084,0.00885618818044662,0.0730288908093705));
#1214=CARTESIAN_POINT('',(-0.00764988682039084,0.0126661881804466,0.0730288908093705));
#1215=CARTESIAN_POINT('',(-0.00714050419628619,0.0126661881804466,0.07366));
#1216=CARTESIAN_POINT('',(-0.00714050419628619,0.00885618818044662,0.07366));
#1217=CARTESIAN_POINT('',(-0.00351305514777777,0.00885618818044662,0.07366));
#1218=CARTESIAN_POINT('',(-0.00351305514777777,0.0126661881804466,0.07366));
#1219=CARTESIAN_POINT('',(0.210206797976494,0.0126661881804466,0.07366));
#1220=CARTESIAN_POINT('',(0.210206797976494,0.0157543868911267,0.07366));
#1221=CARTESIAN_POINT('',(0.210206797976494,0.0188425856018066,0.07366));
#1222=CARTESIAN_POINT('',(0.0506947979764939,0.0188425856018066,0.07366));
#1223=CARTESIAN_POINT('',(0.0506947979764939,0.0188425856018066,0.07366));
#1224=CARTESIAN_POINT('',(0.0506947979764939,0.0207475856018066,0.07366));
#1225=CARTESIAN_POINT('',(0.215286797976494,0.00885618818044662,0.07366));
#1226=CARTESIAN_POINT('',(0.215286797976494,0.00885618818044662,0.08636));
#1227=CARTESIAN_POINT('',(0.215286797976494,0.00885618818044662,0.09906));
#1228=CARTESIAN_POINT('',(-0.0146362694444955,0.00885618818044662,0.070993));
#1229=CARTESIAN_POINT('',(-0.0146362694444955,0.0126661881804466,0.070993));
#1230=CARTESIAN_POINT('',(-0.0146362694444955,0.0126661881804466,0.069469));
#1231=CARTESIAN_POINT('',(-0.0146362694444955,0.00885618818044662,0.101981));
#1232=CARTESIAN_POINT('',(-0.0146362694444955,0.0126661881804466,0.101981));
#1233=CARTESIAN_POINT('',(-0.0146362694444955,0.0126661881804466,0.100457));
#1234=CARTESIAN_POINT('',(-0.0456242694444955,0.00885618818044662,0.101981));
#1235=CARTESIAN_POINT('',(-0.0456242694444955,0.0126661881804466,0.101981));
#1236=CARTESIAN_POINT('',(-0.0456242694444955,0.0126661881804466,0.100457));
#1237=CARTESIAN_POINT('',(-0.00351305514777777,0.00885618818044662,0.09906));
#1238=CARTESIAN_POINT('',(0.0506947979764939,0.0207475856018066,0.09906));
#1239=CARTESIAN_POINT('',(0.0506947979764939,0.0188425856018066,0.09906));
#1240=CARTESIAN_POINT('',(0.0506947979764939,0.0188425856018066,0.09906));
#1241=CARTESIAN_POINT('',(0.210206797976494,0.0188425856018066,0.09906));
#1242=CARTESIAN_POINT('',(0.210206797976494,0.0157543868911267,0.09906));
#1243=CARTESIAN_POINT('',(0.210206797976494,0.0126661881804466,0.09906));
#1244=CARTESIAN_POINT('',(-0.00351305514777777,0.0126661881804466,0.09906));
#1245=CARTESIAN_POINT('',(0.0506947979764939,0.0126661881804466,0.09906));
#1246=CARTESIAN_POINT('',(-0.00351305514777777,0.0126661881804466,0.09906));
#1247=CARTESIAN_POINT('',(-0.0456242694444955,0.00885618818044662,0.070993));
#1248=CARTESIAN_POINT('',(-0.0456242694444955,0.0126661881804466,0.070993));
#1249=CARTESIAN_POINT('',(-0.0456242694444955,0.0126661881804466,0.069469));
#1250=CARTESIAN_POINT('',(-0.0301302694444954,0.00885618818044662,0.086487));
#1251=CARTESIAN_POINT('',(-0.0301302694444954,0.0101261881804466,0.086487));
#1252=CARTESIAN_POINT('',(-0.0301302694444954,0.0101261881804466,0.083947));
#1253=CARTESIAN_POINT('',(0.0815927642659992,0.0126661881804466,0.08636));
#1254=CARTESIAN_POINT('',(-0.0301736873277723,0.0126661881804466,0.086487));
#1255=CARTESIAN_POINT('',(-0.0301736873277723,0.0126661881804466,0.073787));
#1256=CARTESIAN_POINT('',(0.0506947979764939,0.0126661881804466,0.0758765636396408));
#1257=CARTESIAN_POINT('',(0.0506947979764939,0.0126661881804466,0.0758765636396408));
#1258=CARTESIAN_POINT('',(0.210206797976494,0.0126661881804466,0.0758765636396408));
#1259=CARTESIAN_POINT('',(0.210206797976494,0.0126661881804466,0.08636));
#1260=CARTESIAN_POINT('',(0.0506947979764939,0.0126661881804466,0.08636));
#1261=CARTESIAN_POINT('',(-0.0301736873277723,0.0101261881804466,0.086487));
#1262=CARTESIAN_POINT('',(-0.0301736873277723,0.0101261881804466,0.086487));
#1263=CARTESIAN_POINT('',(-0.0301736873277723,0.0101261881804466,0.073787));
#1264=CARTESIAN_POINT('',(0.0815927642659992,0.0101261881804466,0.08636));
#1265=CARTESIAN_POINT('',(0.0506947979764939,0.0135752875357866,0.0979517181801796));
#1266=CARTESIAN_POINT('',(0.210206797976494,0.0135752875357866,0.0979517181801796));
#1267=CARTESIAN_POINT('',(0.210206797976494,0.0144843868911266,0.0968434363603592));
#1268=CARTESIAN_POINT('',(0.0506947979764939,0.0144843868911266,0.0968434363603592));
#1269=CARTESIAN_POINT('',(0.0506947979764939,0.0144843868911266,0.0968434363603592));
#1270=CARTESIAN_POINT('',(0.0506947979764939,0.0135752875357866,0.0979517181801796));
#1271=CARTESIAN_POINT('',(0.0506947979764939,0.0135752875357866,0.0758765636396408));
#1272=CARTESIAN_POINT('',(0.210206797976494,0.0135752875357866,0.0758765636396408));
#1273=CARTESIAN_POINT('',(0.210206797976494,0.0188425856018066,0.0758765636396408));
#1274=CARTESIAN_POINT('',(0.0506947979764939,0.0135752875357866,0.0758765636396408));
#1275=CARTESIAN_POINT('',(0.0506947979764939,0.0188425856018066,0.0758765636396408));
#1276=CARTESIAN_POINT('',(0.0506947979764939,0.0188425856018066,0.0758765636396408));
#1277=CARTESIAN_POINT('',(0.0506947979764939,0.0188425856018066,0.0747682818198204));
#1278=CARTESIAN_POINT('',(0.210206797976494,0.0188425856018066,0.0747682818198204));
#1279=CARTESIAN_POINT('',(0.0506947979764939,0.0188425856018066,0.0747682818198204));
#1280=CARTESIAN_POINT('',(0.0506947979764939,0.0179334862464667,0.0979517181801796));
#1281=CARTESIAN_POINT('',(0.210206797976494,0.0179334862464667,0.0979517181801796));
#1282=CARTESIAN_POINT('',(0.210206797976494,0.0170243868911267,0.0968434363603592));
#1283=CARTESIAN_POINT('',(0.0506947979764939,0.0179334862464667,0.0979517181801796));
#1284=CARTESIAN_POINT('',(0.0506947979764939,0.0170243868911267,0.0968434363603592));
#1285=CARTESIAN_POINT('',(0.0506947979764939,0.0170243868911267,0.0968434363603592));
#1286=CARTESIAN_POINT('',(0.0506947979764939,0.0151193868911267,0.0968434363603592));
#1287=CARTESIAN_POINT('',(0.210206797976494,0.0151193868911267,0.0968434363603592));
#1288=CARTESIAN_POINT('',(0.0506947979764939,0.0151193868911267,0.0968434363603592));
#1289=CARTESIAN_POINT('',(0.0506947979764939,0.0157543868911267,0.08636));
#1290=CARTESIAN_POINT('',(0.210206797976494,0.0157543868911267,0.08636));
#1291=CARTESIAN_POINT('',(0.210206797976494,0.0157543868911267,0.08636));
#1292=CARTESIAN_POINT('',(0.212746797976494,0.0107145856018066,0.0899934247136116));
#1293=CARTESIAN_POINT('',(0.212746797976494,0.0107145856018066,0.0899934247136116));
#1294=CARTESIAN_POINT('',(0.212746797976494,0.0107145856018066,0.0924064247136116));
#1295=CARTESIAN_POINT('',(0.132990797976494,0.0107145856018066,0.08636));
#1296=CARTESIAN_POINT('',(0.212746797976494,0.0107145856018066,0.0827265752863884));
#1297=CARTESIAN_POINT('',(0.212746797976494,0.0107145856018066,0.0827265752863884));
#1298=CARTESIAN_POINT('',(0.212746797976494,0.0107145856018066,0.0851395752863884));
#1299=CARTESIAN_POINT('',(0.132990797976494,0.0107145856018066,0.08636));
#1300=CARTESIAN_POINT('',(0.0381811596598709,0.0101261881804466,0.0784703940153122));
#1301=CARTESIAN_POINT('',(0.0381811596598709,0.0101261881804466,0.0784703940153122));
#1302=CARTESIAN_POINT('',(0.0381811596598709,0.0101261881804466,0.0807563940153122));
#1303=CARTESIAN_POINT('',(0.0815927642659992,0.0101261881804466,0.086487));
#1304=CARTESIAN_POINT('',(0.00568135594949126,0.0101261881804466,0.0784703940153122));
#1305=CARTESIAN_POINT('',(0.00568135594949126,0.0101261881804466,0.0784703940153122));
#1306=CARTESIAN_POINT('',(0.00568135594949126,0.0101261881804466,0.0807563940153122));
#1307=CARTESIAN_POINT('',(0.0815927642659992,0.0101261881804466,0.086487));
#1308=CARTESIAN_POINT('',(0.00568135594949126,0.0101261881804466,0.0939495638012886));
#1309=CARTESIAN_POINT('',(0.00568135594949126,0.0101261881804466,0.0939495638012886));
#1310=CARTESIAN_POINT('',(0.00568135594949126,0.0101261881804466,0.0962355638012886));
#1311=CARTESIAN_POINT('',(0.0815927642659992,0.0101261881804466,0.086487));
#1312=CARTESIAN_POINT('',(0.0381811596598709,0.0101261881804466,0.0939495638012886));
#1313=CARTESIAN_POINT('',(0.0381811596598709,0.0101261881804466,0.0939495638012886));
#1314=CARTESIAN_POINT('',(0.0381811596598709,0.0101261881804466,0.0962355638012886));
#1315=CARTESIAN_POINT('',(0.0815927642659992,0.0101261881804466,0.086487));
#1316=MECHANICAL_DESIGN_GEOMETRIC_PRESENTATION_REPRESENTATION('',(#788),
#1317);
#1317=(
GEOMETRIC_REPRESENTATION_CONTEXT(3)
GLOBAL_UNCERTAINTY_ASSIGNED_CONTEXT((#1318))
GLOBAL_UNIT_ASSIGNED_CONTEXT((#1321,#1320,#1319))
REPRESENTATION_CONTEXT('Part 3','TOP_LEVEL_ASSEMBLY_PART')
);
#1318=UNCERTAINTY_MEASURE_WITH_UNIT(LENGTH_MEASURE(1.E-8),#1321,
'DISTANCE_ACCURACY_VALUE','Maximum Tolerance applied to model');
#1319=(
NAMED_UNIT(*)
SI_UNIT($,.STERADIAN.)
SOLID_ANGLE_UNIT()
);
#1320=(
NAMED_UNIT(*)
PLANE_ANGLE_UNIT()
SI_UNIT($,.RADIAN.)
);
#1321=(
LENGTH_UNIT()
NAMED_UNIT(*)
SI_UNIT($,.METRE.)
);
#1322=PRODUCT_DEFINITION_SHAPE('','',#1323);
#1323=PRODUCT_DEFINITION('','',#1325,#1324);
#1324=PRODUCT_DEFINITION_CONTEXT('',#1331,'design');
#1325=PRODUCT_DEFINITION_FORMATION_WITH_SPECIFIED_SOURCE('','',#1327,
 .NOT_KNOWN.);
#1326=PRODUCT_RELATED_PRODUCT_CATEGORY('','',(#1327));
#1327=PRODUCT('Part 3','Part 3','Part 3',(#1329));
#1328=PRODUCT_CATEGORY('','');
#1329=PRODUCT_CONTEXT('',#1331,'mechanical');
#1330=APPLICATION_PROTOCOL_DEFINITION('international standard',
'ap242_managed_model_based_3d_engineering',2020,#1331);
#1331=APPLICATION_CONTEXT('managed model based 3d engineering');
ENDSEC;
END-ISO-10303-21;
