ISO-10303-21;
HEADER;
/* Generated by software containing ST-Developer
 * from STEP Tools, Inc. (www.steptools.com) 
 */
/* OPTION: using custom renumber hook */

FILE_DESCRIPTION(
/* description */ ('STEP AP242 Edition 2',
'CAx-IF Rec.Pracs.---Representation and Presentation of Product Manufa
cturing Information (PMI)---4.0---2014-10-13',
'CAx-IF Rec.Pracs.---3D Tessellated Geometry---0.4---2014-09-14','2;1',
'CAx-IF Rec.Pracs.---User Defined Attributes---1.5---2016-08-15'),
/* implementation_level */ '2;1');

FILE_NAME(
/* name */ 'V2 - Part 7',
/* time_stamp */ '2026-05-14T03:08:55Z',
/* author */ (''),
/* organization */ (''),
/* preprocessor_version */ 'ST-DEVELOPER v20',
/* originating_system */ 'ONSHAPE BY PTC INC, 1.214',
/* authorisation */ '  ');

FILE_SCHEMA (('AP242_MANAGED_MODEL_BASED_3D_ENGINEERING_MIM_LF { 1 0 10303 442 3 1 4 }'));
ENDSEC;

DATA;
#10=SHAPE_REPRESENTATION_RELATIONSHIP('','',#510,#11);
#11=ADVANCED_BREP_SHAPE_REPRESENTATION('',(#508),#808);
#12=CYLINDRICAL_SURFACE('',#527,0.001524);
#13=CYLINDRICAL_SURFACE('',#528,0.001524);
#14=CYLINDRICAL_SURFACE('',#529,0.001524);
#15=CYLINDRICAL_SURFACE('',#530,0.001524);
#16=LINE('',#676,#73);
#17=LINE('',#679,#74);
#18=LINE('',#681,#75);
#19=LINE('',#683,#76);
#20=LINE('',#689,#77);
#21=LINE('',#692,#78);
#22=LINE('',#694,#79);
#23=LINE('',#696,#80);
#24=LINE('',#698,#81);
#25=LINE('',#700,#82);
#26=LINE('',#702,#83);
#27=LINE('',#704,#84);
#28=LINE('',#706,#85);
#29=LINE('',#708,#86);
#30=LINE('',#710,#87);
#31=LINE('',#712,#88);
#32=LINE('',#718,#89);
#33=LINE('',#721,#90);
#34=LINE('',#723,#91);
#35=LINE('',#725,#92);
#36=LINE('',#731,#93);
#37=LINE('',#732,#94);
#38=LINE('',#734,#95);
#39=LINE('',#736,#96);
#40=LINE('',#738,#97);
#41=LINE('',#740,#98);
#42=LINE('',#741,#99);
#43=LINE('',#743,#100);
#44=LINE('',#745,#101);
#45=LINE('',#747,#102);
#46=LINE('',#748,#103);
#47=LINE('',#750,#104);
#48=LINE('',#752,#105);
#49=LINE('',#754,#106);
#50=LINE('',#756,#107);
#51=LINE('',#758,#108);
#52=LINE('',#759,#109);
#53=LINE('',#761,#110);
#54=LINE('',#763,#111);
#55=LINE('',#765,#112);
#56=LINE('',#771,#113);
#57=LINE('',#773,#114);
#58=LINE('',#775,#115);
#59=LINE('',#777,#116);
#60=LINE('',#779,#117);
#61=LINE('',#781,#118);
#62=LINE('',#782,#119);
#63=LINE('',#785,#120);
#64=LINE('',#787,#121);
#65=LINE('',#789,#122);
#66=LINE('',#791,#123);
#67=LINE('',#793,#124);
#68=LINE('',#795,#125);
#69=LINE('',#796,#126);
#70=LINE('',#799,#127);
#71=LINE('',#801,#128);
#72=LINE('',#802,#129);
#73=VECTOR('',#553,1.);
#74=VECTOR('',#554,1.);
#75=VECTOR('',#555,1.);
#76=VECTOR('',#556,1.);
#77=VECTOR('',#563,1.);
#78=VECTOR('',#564,1.);
#79=VECTOR('',#565,1.);
#80=VECTOR('',#566,1.);
#81=VECTOR('',#567,1.);
#82=VECTOR('',#568,1.);
#83=VECTOR('',#569,1.);
#84=VECTOR('',#570,1.);
#85=VECTOR('',#571,1.);
#86=VECTOR('',#572,1.);
#87=VECTOR('',#573,1.);
#88=VECTOR('',#574,1.);
#89=VECTOR('',#581,1.);
#90=VECTOR('',#582,1.);
#91=VECTOR('',#583,1.);
#92=VECTOR('',#584,1.);
#93=VECTOR('',#591,1.);
#94=VECTOR('',#592,1.);
#95=VECTOR('',#595,1.);
#96=VECTOR('',#596,1.);
#97=VECTOR('',#597,1.);
#98=VECTOR('',#598,1.);
#99=VECTOR('',#599,1.);
#100=VECTOR('',#600,1.);
#101=VECTOR('',#601,1.);
#102=VECTOR('',#602,1.);
#103=VECTOR('',#603,1.);
#104=VECTOR('',#606,1.);
#105=VECTOR('',#609,1.);
#106=VECTOR('',#610,1.);
#107=VECTOR('',#611,1.);
#108=VECTOR('',#612,1.);
#109=VECTOR('',#613,1.);
#110=VECTOR('',#614,1.);
#111=VECTOR('',#615,1.);
#112=VECTOR('',#616,1.);
#113=VECTOR('',#627,1.);
#114=VECTOR('',#628,1.);
#115=VECTOR('',#631,1.);
#116=VECTOR('',#632,1.);
#117=VECTOR('',#633,1.);
#118=VECTOR('',#636,1.);
#119=VECTOR('',#637,1.);
#120=VECTOR('',#642,1.);
#121=VECTOR('',#643,1.);
#122=VECTOR('',#646,1.);
#123=VECTOR('',#647,1.);
#124=VECTOR('',#648,1.);
#125=VECTOR('',#651,1.);
#126=VECTOR('',#652,1.);
#127=VECTOR('',#657,1.);
#128=VECTOR('',#660,1.);
#129=VECTOR('',#661,1.);
#130=ORIENTED_EDGE('',*,*,#260,.T.);
#131=ORIENTED_EDGE('',*,*,#261,.F.);
#132=ORIENTED_EDGE('',*,*,#262,.F.);
#133=ORIENTED_EDGE('',*,*,#263,.T.);
#134=ORIENTED_EDGE('',*,*,#264,.T.);
#135=ORIENTED_EDGE('',*,*,#265,.F.);
#136=ORIENTED_EDGE('',*,*,#266,.T.);
#137=ORIENTED_EDGE('',*,*,#267,.F.);
#138=ORIENTED_EDGE('',*,*,#268,.T.);
#139=ORIENTED_EDGE('',*,*,#269,.T.);
#140=ORIENTED_EDGE('',*,*,#270,.F.);
#141=ORIENTED_EDGE('',*,*,#271,.T.);
#142=ORIENTED_EDGE('',*,*,#272,.T.);
#143=ORIENTED_EDGE('',*,*,#273,.T.);
#144=ORIENTED_EDGE('',*,*,#274,.F.);
#145=ORIENTED_EDGE('',*,*,#275,.F.);
#146=ORIENTED_EDGE('',*,*,#276,.T.);
#147=ORIENTED_EDGE('',*,*,#277,.T.);
#148=ORIENTED_EDGE('',*,*,#278,.F.);
#149=ORIENTED_EDGE('',*,*,#279,.T.);
#150=ORIENTED_EDGE('',*,*,#280,.T.);
#151=ORIENTED_EDGE('',*,*,#281,.T.);
#152=ORIENTED_EDGE('',*,*,#282,.F.);
#153=ORIENTED_EDGE('',*,*,#283,.T.);
#154=ORIENTED_EDGE('',*,*,#284,.T.);
#155=ORIENTED_EDGE('',*,*,#285,.F.);
#156=ORIENTED_EDGE('',*,*,#286,.F.);
#157=ORIENTED_EDGE('',*,*,#287,.F.);
#158=ORIENTED_EDGE('',*,*,#271,.F.);
#159=ORIENTED_EDGE('',*,*,#288,.F.);
#160=ORIENTED_EDGE('',*,*,#282,.T.);
#161=ORIENTED_EDGE('',*,*,#289,.T.);
#162=ORIENTED_EDGE('',*,*,#270,.T.);
#163=ORIENTED_EDGE('',*,*,#290,.T.);
#164=ORIENTED_EDGE('',*,*,#291,.F.);
#165=ORIENTED_EDGE('',*,*,#292,.T.);
#166=ORIENTED_EDGE('',*,*,#293,.T.);
#167=ORIENTED_EDGE('',*,*,#278,.T.);
#168=ORIENTED_EDGE('',*,*,#294,.F.);
#169=ORIENTED_EDGE('',*,*,#295,.T.);
#170=ORIENTED_EDGE('',*,*,#296,.T.);
#171=ORIENTED_EDGE('',*,*,#297,.T.);
#172=ORIENTED_EDGE('',*,*,#262,.T.);
#173=ORIENTED_EDGE('',*,*,#298,.F.);
#174=ORIENTED_EDGE('',*,*,#283,.F.);
#175=ORIENTED_EDGE('',*,*,#288,.T.);
#176=ORIENTED_EDGE('',*,*,#265,.T.);
#177=ORIENTED_EDGE('',*,*,#299,.F.);
#178=ORIENTED_EDGE('',*,*,#284,.F.);
#179=ORIENTED_EDGE('',*,*,#298,.T.);
#180=ORIENTED_EDGE('',*,*,#272,.F.);
#181=ORIENTED_EDGE('',*,*,#289,.F.);
#182=ORIENTED_EDGE('',*,*,#285,.T.);
#183=ORIENTED_EDGE('',*,*,#299,.T.);
#184=ORIENTED_EDGE('',*,*,#264,.F.);
#185=ORIENTED_EDGE('',*,*,#300,.T.);
#186=ORIENTED_EDGE('',*,*,#301,.F.);
#187=ORIENTED_EDGE('',*,*,#302,.F.);
#188=ORIENTED_EDGE('',*,*,#303,.T.);
#189=ORIENTED_EDGE('',*,*,#276,.F.);
#190=ORIENTED_EDGE('',*,*,#304,.F.);
#191=ORIENTED_EDGE('',*,*,#305,.F.);
#192=ORIENTED_EDGE('',*,*,#306,.T.);
#193=ORIENTED_EDGE('',*,*,#307,.T.);
#194=ORIENTED_EDGE('',*,*,#281,.F.);
#195=ORIENTED_EDGE('',*,*,#266,.F.);
#196=ORIENTED_EDGE('',*,*,#286,.T.);
#197=ORIENTED_EDGE('',*,*,#267,.T.);
#198=ORIENTED_EDGE('',*,*,#280,.F.);
#199=ORIENTED_EDGE('',*,*,#260,.F.);
#200=ORIENTED_EDGE('',*,*,#287,.T.);
#201=ORIENTED_EDGE('',*,*,#261,.T.);
#202=ORIENTED_EDGE('',*,*,#279,.F.);
#203=ORIENTED_EDGE('',*,*,#293,.F.);
#204=ORIENTED_EDGE('',*,*,#308,.T.);
#205=ORIENTED_EDGE('',*,*,#309,.T.);
#206=ORIENTED_EDGE('',*,*,#291,.T.);
#207=ORIENTED_EDGE('',*,*,#310,.T.);
#208=ORIENTED_EDGE('',*,*,#311,.F.);
#209=ORIENTED_EDGE('',*,*,#312,.F.);
#210=ORIENTED_EDGE('',*,*,#268,.F.);
#211=ORIENTED_EDGE('',*,*,#309,.F.);
#212=ORIENTED_EDGE('',*,*,#313,.T.);
#213=ORIENTED_EDGE('',*,*,#311,.T.);
#214=ORIENTED_EDGE('',*,*,#314,.T.);
#215=ORIENTED_EDGE('',*,*,#308,.F.);
#216=ORIENTED_EDGE('',*,*,#292,.F.);
#217=ORIENTED_EDGE('',*,*,#312,.T.);
#218=ORIENTED_EDGE('',*,*,#313,.F.);
#219=ORIENTED_EDGE('',*,*,#275,.T.);
#220=ORIENTED_EDGE('',*,*,#315,.F.);
#221=ORIENTED_EDGE('',*,*,#316,.F.);
#222=ORIENTED_EDGE('',*,*,#304,.T.);
#223=ORIENTED_EDGE('',*,*,#274,.T.);
#224=ORIENTED_EDGE('',*,*,#317,.T.);
#225=ORIENTED_EDGE('',*,*,#318,.F.);
#226=ORIENTED_EDGE('',*,*,#319,.F.);
#227=ORIENTED_EDGE('',*,*,#315,.T.);
#228=ORIENTED_EDGE('',*,*,#318,.T.);
#229=ORIENTED_EDGE('',*,*,#320,.T.);
#230=ORIENTED_EDGE('',*,*,#306,.F.);
#231=ORIENTED_EDGE('',*,*,#321,.T.);
#232=ORIENTED_EDGE('',*,*,#316,.T.);
#233=ORIENTED_EDGE('',*,*,#319,.T.);
#234=ORIENTED_EDGE('',*,*,#321,.F.);
#235=ORIENTED_EDGE('',*,*,#305,.T.);
#236=ORIENTED_EDGE('',*,*,#277,.F.);
#237=ORIENTED_EDGE('',*,*,#303,.F.);
#238=ORIENTED_EDGE('',*,*,#322,.T.);
#239=ORIENTED_EDGE('',*,*,#294,.T.);
#240=ORIENTED_EDGE('',*,*,#301,.T.);
#241=ORIENTED_EDGE('',*,*,#323,.T.);
#242=ORIENTED_EDGE('',*,*,#296,.F.);
#243=ORIENTED_EDGE('',*,*,#324,.F.);
#244=ORIENTED_EDGE('',*,*,#322,.F.);
#245=ORIENTED_EDGE('',*,*,#302,.T.);
#246=ORIENTED_EDGE('',*,*,#324,.T.);
#247=ORIENTED_EDGE('',*,*,#295,.F.);
#248=ORIENTED_EDGE('',*,*,#290,.F.);
#249=ORIENTED_EDGE('',*,*,#269,.F.);
#250=ORIENTED_EDGE('',*,*,#314,.F.);
#251=ORIENTED_EDGE('',*,*,#310,.F.);
#252=ORIENTED_EDGE('',*,*,#307,.F.);
#253=ORIENTED_EDGE('',*,*,#320,.F.);
#254=ORIENTED_EDGE('',*,*,#317,.F.);
#255=ORIENTED_EDGE('',*,*,#273,.F.);
#256=ORIENTED_EDGE('',*,*,#300,.F.);
#257=ORIENTED_EDGE('',*,*,#263,.F.);
#258=ORIENTED_EDGE('',*,*,#297,.F.);
#259=ORIENTED_EDGE('',*,*,#323,.F.);
#260=EDGE_CURVE('',#325,#325,#371,.T.);
#261=EDGE_CURVE('',#326,#326,#372,.T.);
#262=EDGE_CURVE('',#327,#328,#16,.T.);
#263=EDGE_CURVE('',#327,#329,#17,.T.);
#264=EDGE_CURVE('',#329,#330,#18,.T.);
#265=EDGE_CURVE('',#328,#330,#19,.T.);
#266=EDGE_CURVE('',#331,#331,#373,.T.);
#267=EDGE_CURVE('',#332,#332,#374,.T.);
#268=EDGE_CURVE('',#333,#334,#20,.T.);
#269=EDGE_CURVE('',#334,#335,#21,.T.);
#270=EDGE_CURVE('',#336,#335,#22,.T.);
#271=EDGE_CURVE('',#336,#337,#23,.T.);
#272=EDGE_CURVE('',#337,#338,#24,.T.);
#273=EDGE_CURVE('',#338,#339,#25,.T.);
#274=EDGE_CURVE('',#340,#339,#26,.T.);
#275=EDGE_CURVE('',#341,#340,#27,.T.);
#276=EDGE_CURVE('',#341,#342,#28,.T.);
#277=EDGE_CURVE('',#342,#343,#29,.T.);
#278=EDGE_CURVE('',#344,#343,#30,.T.);
#279=EDGE_CURVE('',#344,#333,#31,.T.);
#280=EDGE_CURVE('',#345,#345,#375,.F.);
#281=EDGE_CURVE('',#346,#346,#376,.F.);
#282=EDGE_CURVE('',#347,#348,#32,.T.);
#283=EDGE_CURVE('',#347,#349,#33,.T.);
#284=EDGE_CURVE('',#349,#350,#34,.T.);
#285=EDGE_CURVE('',#348,#350,#35,.T.);
#286=EDGE_CURVE('',#351,#351,#377,.T.);
#287=EDGE_CURVE('',#352,#352,#378,.T.);
#288=EDGE_CURVE('',#347,#336,#36,.T.);
#289=EDGE_CURVE('',#348,#337,#37,.T.);
#290=EDGE_CURVE('',#335,#353,#38,.F.);
#291=EDGE_CURVE('',#354,#353,#39,.T.);
#292=EDGE_CURVE('',#354,#355,#40,.T.);
#293=EDGE_CURVE('',#355,#344,#41,.T.);
#294=EDGE_CURVE('',#356,#343,#42,.T.);
#295=EDGE_CURVE('',#356,#357,#43,.T.);
#296=EDGE_CURVE('',#357,#358,#44,.T.);
#297=EDGE_CURVE('',#358,#327,#45,.F.);
#298=EDGE_CURVE('',#349,#328,#46,.T.);
#299=EDGE_CURVE('',#350,#330,#47,.T.);
#300=EDGE_CURVE('',#329,#359,#48,.F.);
#301=EDGE_CURVE('',#360,#359,#49,.T.);
#302=EDGE_CURVE('',#361,#360,#50,.T.);
#303=EDGE_CURVE('',#361,#342,#51,.T.);
#304=EDGE_CURVE('',#362,#341,#52,.T.);
#305=EDGE_CURVE('',#363,#362,#53,.T.);
#306=EDGE_CURVE('',#363,#364,#54,.T.);
#307=EDGE_CURVE('',#364,#338,#55,.T.);
#308=EDGE_CURVE('',#355,#365,#56,.T.);
#309=EDGE_CURVE('',#365,#333,#57,.T.);
#310=EDGE_CURVE('',#353,#366,#58,.T.);
#311=EDGE_CURVE('',#367,#366,#59,.T.);
#312=EDGE_CURVE('',#354,#367,#60,.T.);
#313=EDGE_CURVE('',#365,#367,#61,.T.);
#314=EDGE_CURVE('',#366,#334,#62,.F.);
#315=EDGE_CURVE('',#368,#340,#63,.T.);
#316=EDGE_CURVE('',#362,#368,#64,.T.);
#317=EDGE_CURVE('',#339,#369,#65,.T.);
#318=EDGE_CURVE('',#370,#369,#66,.T.);
#319=EDGE_CURVE('',#368,#370,#67,.T.);
#320=EDGE_CURVE('',#369,#364,#68,.T.);
#321=EDGE_CURVE('',#363,#370,#69,.T.);
#322=EDGE_CURVE('',#361,#356,#70,.T.);
#323=EDGE_CURVE('',#359,#358,#71,.T.);
#324=EDGE_CURVE('',#360,#357,#72,.T.);
#325=VERTEX_POINT('',#673);
#326=VERTEX_POINT('',#675);
#327=VERTEX_POINT('',#677);
#328=VERTEX_POINT('',#678);
#329=VERTEX_POINT('',#680);
#330=VERTEX_POINT('',#682);
#331=VERTEX_POINT('',#686);
#332=VERTEX_POINT('',#688);
#333=VERTEX_POINT('',#690);
#334=VERTEX_POINT('',#691);
#335=VERTEX_POINT('',#693);
#336=VERTEX_POINT('',#695);
#337=VERTEX_POINT('',#697);
#338=VERTEX_POINT('',#699);
#339=VERTEX_POINT('',#701);
#340=VERTEX_POINT('',#703);
#341=VERTEX_POINT('',#705);
#342=VERTEX_POINT('',#707);
#343=VERTEX_POINT('',#709);
#344=VERTEX_POINT('',#711);
#345=VERTEX_POINT('',#715);
#346=VERTEX_POINT('',#717);
#347=VERTEX_POINT('',#719);
#348=VERTEX_POINT('',#720);
#349=VERTEX_POINT('',#722);
#350=VERTEX_POINT('',#724);
#351=VERTEX_POINT('',#727);
#352=VERTEX_POINT('',#729);
#353=VERTEX_POINT('',#735);
#354=VERTEX_POINT('',#737);
#355=VERTEX_POINT('',#739);
#356=VERTEX_POINT('',#742);
#357=VERTEX_POINT('',#744);
#358=VERTEX_POINT('',#746);
#359=VERTEX_POINT('',#753);
#360=VERTEX_POINT('',#755);
#361=VERTEX_POINT('',#757);
#362=VERTEX_POINT('',#760);
#363=VERTEX_POINT('',#762);
#364=VERTEX_POINT('',#764);
#365=VERTEX_POINT('',#772);
#366=VERTEX_POINT('',#776);
#367=VERTEX_POINT('',#778);
#368=VERTEX_POINT('',#786);
#369=VERTEX_POINT('',#790);
#370=VERTEX_POINT('',#792);
#371=CIRCLE('',#513,0.001524);
#372=CIRCLE('',#514,0.001524);
#373=CIRCLE('',#516,0.001524);
#374=CIRCLE('',#517,0.001524);
#375=CIRCLE('',#519,0.001524);
#376=CIRCLE('',#520,0.001524);
#377=CIRCLE('',#521,0.001524);
#378=CIRCLE('',#522,0.001524);
#379=EDGE_LOOP('',(#130));
#380=EDGE_LOOP('',(#131));
#381=EDGE_LOOP('',(#132,#133,#134,#135));
#382=EDGE_LOOP('',(#136));
#383=EDGE_LOOP('',(#137));
#384=EDGE_LOOP('',(#138,#139,#140,#141,#142,#143,#144,#145,#146,#147,#148,
#149));
#385=EDGE_LOOP('',(#150));
#386=EDGE_LOOP('',(#151));
#387=EDGE_LOOP('',(#152,#153,#154,#155));
#388=EDGE_LOOP('',(#156));
#389=EDGE_LOOP('',(#157));
#390=EDGE_LOOP('',(#158,#159,#160,#161));
#391=EDGE_LOOP('',(#162,#163,#164,#165,#166,#167,#168,#169,#170,#171,#172,
#173,#174,#175));
#392=EDGE_LOOP('',(#176,#177,#178,#179));
#393=EDGE_LOOP('',(#180,#181,#182,#183,#184,#185,#186,#187,#188,#189,#190,
#191,#192,#193));
#394=EDGE_LOOP('',(#194));
#395=EDGE_LOOP('',(#195));
#396=EDGE_LOOP('',(#196));
#397=EDGE_LOOP('',(#197));
#398=EDGE_LOOP('',(#198));
#399=EDGE_LOOP('',(#199));
#400=EDGE_LOOP('',(#200));
#401=EDGE_LOOP('',(#201));
#402=EDGE_LOOP('',(#202,#203,#204,#205));
#403=EDGE_LOOP('',(#206,#207,#208,#209));
#404=EDGE_LOOP('',(#210,#211,#212,#213,#214));
#405=EDGE_LOOP('',(#215,#216,#217,#218));
#406=EDGE_LOOP('',(#219,#220,#221,#222));
#407=EDGE_LOOP('',(#223,#224,#225,#226,#227));
#408=EDGE_LOOP('',(#228,#229,#230,#231));
#409=EDGE_LOOP('',(#232,#233,#234,#235));
#410=EDGE_LOOP('',(#236,#237,#238,#239));
#411=EDGE_LOOP('',(#240,#241,#242,#243));
#412=EDGE_LOOP('',(#244,#245,#246,#247));
#413=EDGE_LOOP('',(#248,#249,#250,#251));
#414=EDGE_LOOP('',(#252,#253,#254,#255));
#415=EDGE_LOOP('',(#256,#257,#258,#259));
#416=FACE_BOUND('',#379,.T.);
#417=FACE_BOUND('',#380,.T.);
#418=FACE_BOUND('',#381,.T.);
#419=FACE_BOUND('',#382,.T.);
#420=FACE_BOUND('',#383,.T.);
#421=FACE_BOUND('',#384,.T.);
#422=FACE_BOUND('',#385,.T.);
#423=FACE_BOUND('',#386,.T.);
#424=FACE_BOUND('',#387,.T.);
#425=FACE_BOUND('',#388,.T.);
#426=FACE_BOUND('',#389,.T.);
#427=FACE_BOUND('',#390,.T.);
#428=FACE_BOUND('',#391,.T.);
#429=FACE_BOUND('',#392,.T.);
#430=FACE_BOUND('',#393,.T.);
#431=FACE_BOUND('',#394,.T.);
#432=FACE_BOUND('',#395,.T.);
#433=FACE_BOUND('',#396,.T.);
#434=FACE_BOUND('',#397,.T.);
#435=FACE_BOUND('',#398,.T.);
#436=FACE_BOUND('',#399,.T.);
#437=FACE_BOUND('',#400,.T.);
#438=FACE_BOUND('',#401,.T.);
#439=FACE_BOUND('',#402,.T.);
#440=FACE_BOUND('',#403,.T.);
#441=FACE_BOUND('',#404,.T.);
#442=FACE_BOUND('',#405,.T.);
#443=FACE_BOUND('',#406,.T.);
#444=FACE_BOUND('',#407,.T.);
#445=FACE_BOUND('',#408,.T.);
#446=FACE_BOUND('',#409,.T.);
#447=FACE_BOUND('',#410,.T.);
#448=FACE_BOUND('',#411,.T.);
#449=FACE_BOUND('',#412,.T.);
#450=FACE_BOUND('',#413,.T.);
#451=FACE_BOUND('',#414,.T.);
#452=FACE_BOUND('',#415,.T.);
#453=PLANE('',#512);
#454=PLANE('',#515);
#455=PLANE('',#518);
#456=PLANE('',#523);
#457=PLANE('',#524);
#458=PLANE('',#525);
#459=PLANE('',#526);
#460=PLANE('',#531);
#461=PLANE('',#532);
#462=PLANE('',#533);
#463=PLANE('',#534);
#464=PLANE('',#535);
#465=PLANE('',#536);
#466=PLANE('',#537);
#467=PLANE('',#538);
#468=PLANE('',#539);
#469=PLANE('',#540);
#470=PLANE('',#541);
#471=PLANE('',#542);
#472=PLANE('',#543);
#473=PLANE('',#544);
#474=ADVANCED_FACE('',(#416,#417,#418),#453,.F.);
#475=ADVANCED_FACE('',(#419,#420,#421),#454,.F.);
#476=ADVANCED_FACE('',(#422,#423,#424,#425,#426),#455,.T.);
#477=ADVANCED_FACE('',(#427),#456,.T.);
#478=ADVANCED_FACE('',(#428),#457,.F.);
#479=ADVANCED_FACE('',(#429),#458,.F.);
#480=ADVANCED_FACE('',(#430),#459,.T.);
#481=ADVANCED_FACE('',(#431,#432),#12,.F.);
#482=ADVANCED_FACE('',(#433,#434),#13,.F.);
#483=ADVANCED_FACE('',(#435,#436),#14,.F.);
#484=ADVANCED_FACE('',(#437,#438),#15,.F.);
#485=ADVANCED_FACE('',(#439),#460,.T.);
#486=ADVANCED_FACE('',(#440),#461,.F.);
#487=ADVANCED_FACE('',(#441),#462,.T.);
#488=ADVANCED_FACE('',(#442),#463,.T.);
#489=ADVANCED_FACE('',(#443),#464,.F.);
#490=ADVANCED_FACE('',(#444),#465,.F.);
#491=ADVANCED_FACE('',(#445),#466,.T.);
#492=ADVANCED_FACE('',(#446),#467,.T.);
#493=ADVANCED_FACE('',(#447),#468,.T.);
#494=ADVANCED_FACE('',(#448),#469,.F.);
#495=ADVANCED_FACE('',(#449),#470,.T.);
#496=ADVANCED_FACE('',(#450),#471,.T.);
#497=ADVANCED_FACE('',(#451),#472,.F.);
#498=ADVANCED_FACE('',(#452),#473,.T.);
#499=CLOSED_SHELL('',(#474,#475,#476,#477,#478,#479,#480,#481,#482,#483,
#484,#485,#486,#487,#488,#489,#490,#491,#492,#493,#494,#495,#496,#497,#498));
#500=STYLED_ITEM('',(#501),#508);
#501=PRESENTATION_STYLE_ASSIGNMENT((#502));
#502=SURFACE_STYLE_USAGE(.BOTH.,#503);
#503=SURFACE_SIDE_STYLE('',(#504));
#504=SURFACE_STYLE_FILL_AREA(#505);
#505=FILL_AREA_STYLE('',(#506));
#506=FILL_AREA_STYLE_COLOUR('',#507);
#507=COLOUR_RGB('',0.498039215686275,0.498039215686275,0.498039215686275);
#508=MANIFOLD_SOLID_BREP('Part 7',#499);
#509=SHAPE_DEFINITION_REPRESENTATION(#813,#510);
#510=SHAPE_REPRESENTATION('Part 7',(#511),#808);
#511=AXIS2_PLACEMENT_3D('',#670,#545,#546);
#512=AXIS2_PLACEMENT_3D('',#671,#547,#548);
#513=AXIS2_PLACEMENT_3D('',#672,#549,#550);
#514=AXIS2_PLACEMENT_3D('',#674,#551,#552);
#515=AXIS2_PLACEMENT_3D('',#684,#557,#558);
#516=AXIS2_PLACEMENT_3D('',#685,#559,#560);
#517=AXIS2_PLACEMENT_3D('',#687,#561,#562);
#518=AXIS2_PLACEMENT_3D('',#713,#575,#576);
#519=AXIS2_PLACEMENT_3D('',#714,#577,#578);
#520=AXIS2_PLACEMENT_3D('',#716,#579,#580);
#521=AXIS2_PLACEMENT_3D('',#726,#585,#586);
#522=AXIS2_PLACEMENT_3D('',#728,#587,#588);
#523=AXIS2_PLACEMENT_3D('',#730,#589,#590);
#524=AXIS2_PLACEMENT_3D('',#733,#593,#594);
#525=AXIS2_PLACEMENT_3D('',#749,#604,#605);
#526=AXIS2_PLACEMENT_3D('',#751,#607,#608);
#527=AXIS2_PLACEMENT_3D('',#766,#617,#618);
#528=AXIS2_PLACEMENT_3D('',#767,#619,#620);
#529=AXIS2_PLACEMENT_3D('',#768,#621,#622);
#530=AXIS2_PLACEMENT_3D('',#769,#623,#624);
#531=AXIS2_PLACEMENT_3D('',#770,#625,#626);
#532=AXIS2_PLACEMENT_3D('',#774,#629,#630);
#533=AXIS2_PLACEMENT_3D('',#780,#634,#635);
#534=AXIS2_PLACEMENT_3D('',#783,#638,#639);
#535=AXIS2_PLACEMENT_3D('',#784,#640,#641);
#536=AXIS2_PLACEMENT_3D('',#788,#644,#645);
#537=AXIS2_PLACEMENT_3D('',#794,#649,#650);
#538=AXIS2_PLACEMENT_3D('',#797,#653,#654);
#539=AXIS2_PLACEMENT_3D('',#798,#655,#656);
#540=AXIS2_PLACEMENT_3D('',#800,#658,#659);
#541=AXIS2_PLACEMENT_3D('',#803,#662,#663);
#542=AXIS2_PLACEMENT_3D('',#804,#664,#665);
#543=AXIS2_PLACEMENT_3D('',#805,#666,#667);
#544=AXIS2_PLACEMENT_3D('',#806,#668,#669);
#545=DIRECTION('',(0.,0.,1.));
#546=DIRECTION('',(1.,0.,0.));
#547=DIRECTION('',(0.,1.,-2.73184799366426E-16));
#548=DIRECTION('',(-1.,0.,0.));
#549=DIRECTION('',(0.,1.,-2.73184799366426E-16));
#550=DIRECTION('',(0.,-2.73184799366426E-16,-1.));
#551=DIRECTION('',(0.,-1.,2.73184799366426E-16));
#552=DIRECTION('',(0.,-2.73184799366426E-16,-1.));
#553=DIRECTION('',(0.,-2.73184799366426E-16,-1.));
#554=DIRECTION('',(-1.,0.,0.));
#555=DIRECTION('',(0.,-2.73184799366426E-16,-1.));
#556=DIRECTION('',(-1.,0.,0.));
#557=DIRECTION('',(0.,1.,-2.73184799366426E-16));
#558=DIRECTION('',(-1.,0.,0.));
#559=DIRECTION('',(0.,1.,-2.73184799366426E-16));
#560=DIRECTION('',(0.,-2.73184799366426E-16,-1.));
#561=DIRECTION('',(0.,-1.,2.73184799366426E-16));
#562=DIRECTION('',(0.,-2.73184799366426E-16,-1.));
#563=DIRECTION('',(0.,2.73184799366426E-16,1.));
#564=DIRECTION('',(1.,0.,0.));
#565=DIRECTION('',(0.,-2.73184799366426E-16,-1.));
#566=DIRECTION('',(-1.,0.,0.));
#567=DIRECTION('',(0.,-2.73184799366426E-16,-1.));
#568=DIRECTION('',(1.,0.,0.));
#569=DIRECTION('',(0.,2.73184799366426E-16,1.));
#570=DIRECTION('',(1.,0.,0.));
#571=DIRECTION('',(0.,-2.73184799366426E-16,-1.));
#572=DIRECTION('',(1.,0.,0.));
#573=DIRECTION('',(0.,-2.73184799366426E-16,-1.));
#574=DIRECTION('',(-1.,0.,0.));
#575=DIRECTION('',(0.,1.,-2.73184799366426E-16));
#576=DIRECTION('',(-1.,0.,0.));
#577=DIRECTION('',(0.,1.,-2.73184799366426E-16));
#578=DIRECTION('',(0.,2.73184799366426E-16,1.));
#579=DIRECTION('',(0.,1.,-2.73184799366426E-16));
#580=DIRECTION('',(0.,2.73184799366426E-16,1.));
#581=DIRECTION('',(-1.,0.,0.));
#582=DIRECTION('',(0.,-2.73184799366426E-16,-1.));
#583=DIRECTION('',(-1.,0.,0.));
#584=DIRECTION('',(0.,-2.73184799366426E-16,-1.));
#585=DIRECTION('',(0.,1.,-2.73184799366426E-16));
#586=DIRECTION('',(0.,2.73184799366426E-16,1.));
#587=DIRECTION('',(0.,1.,-2.73184799366426E-16));
#588=DIRECTION('',(0.,2.73184799366426E-16,1.));
#589=DIRECTION('',(0.,2.73184799366426E-16,1.));
#590=DIRECTION('',(0.,-1.,2.73184799366426E-16));
#591=DIRECTION('',(0.,-1.,2.73184799366426E-16));
#592=DIRECTION('',(0.,-1.,2.73184799366426E-16));
#593=DIRECTION('',(-1.,0.,0.));
#594=DIRECTION('',(0.,0.,1.));
#595=DIRECTION('',(0.,0.707106781186548,0.707106781186547));
#596=DIRECTION('',(0.,1.,-2.73184799366426E-16));
#597=DIRECTION('',(0.,-2.73184799366426E-16,-1.));
#598=DIRECTION('',(0.,1.,-2.73184799366426E-16));
#599=DIRECTION('',(0.,1.,-2.73184799366426E-16));
#600=DIRECTION('',(0.,-2.73184799366426E-16,-1.));
#601=DIRECTION('',(0.,1.,-2.73184799366426E-16));
#602=DIRECTION('',(0.,-0.707106781186548,0.707106781186548));
#603=DIRECTION('',(0.,-1.,2.73184799366426E-16));
#604=DIRECTION('',(0.,2.73184799366426E-16,1.));
#605=DIRECTION('',(0.,-1.,2.73184799366426E-16));
#606=DIRECTION('',(0.,-1.,2.73184799366426E-16));
#607=DIRECTION('',(-1.,0.,0.));
#608=DIRECTION('',(0.,0.,1.));
#609=DIRECTION('',(0.,0.707106781186548,-0.707106781186548));
#610=DIRECTION('',(0.,1.,-2.73184799366426E-16));
#611=DIRECTION('',(0.,-2.73184799366426E-16,-1.));
#612=DIRECTION('',(0.,1.,-2.73184799366426E-16));
#613=DIRECTION('',(0.,1.,-2.73184799366426E-16));
#614=DIRECTION('',(0.,-2.73184799366426E-16,-1.));
#615=DIRECTION('',(0.,1.,-2.73184799366426E-16));
#616=DIRECTION('',(0.,0.707106781186548,0.707106781186547));
#617=DIRECTION('',(0.,-1.,2.73184799366426E-16));
#618=DIRECTION('',(0.,-2.73184799366426E-16,-1.));
#619=DIRECTION('',(0.,-1.,2.73184799366426E-16));
#620=DIRECTION('',(0.,-2.73184799366426E-16,-1.));
#621=DIRECTION('',(0.,-1.,2.73184799366426E-16));
#622=DIRECTION('',(0.,-2.73184799366426E-16,-1.));
#623=DIRECTION('',(0.,-1.,2.73184799366426E-16));
#624=DIRECTION('',(0.,-2.73184799366426E-16,-1.));
#625=DIRECTION('',(0.,-2.73184799366426E-16,-1.));
#626=DIRECTION('',(0.,1.,-2.73184799366426E-16));
#627=DIRECTION('',(-1.,0.,0.));
#628=DIRECTION('',(0.,1.,-2.73184799366426E-16));
#629=DIRECTION('',(0.,-2.73184799366426E-16,-1.));
#630=DIRECTION('',(0.,1.,-2.73184799366426E-16));
#631=DIRECTION('',(-1.,0.,0.));
#632=DIRECTION('',(0.,1.,-2.73184799366426E-16));
#633=DIRECTION('',(-1.,0.,0.));
#634=DIRECTION('',(-1.,0.,0.));
#635=DIRECTION('',(0.,0.,1.));
#636=DIRECTION('',(0.,2.73184799366426E-16,1.));
#637=DIRECTION('',(0.,-0.707106781186548,-0.707106781186547));
#638=DIRECTION('',(0.,-1.,2.73184799366426E-16));
#639=DIRECTION('',(1.,0.,0.));
#640=DIRECTION('',(0.,2.73184799366426E-16,1.));
#641=DIRECTION('',(0.,-1.,2.73184799366426E-16));
#642=DIRECTION('',(0.,1.,-2.73184799366426E-16));
#643=DIRECTION('',(1.,0.,0.));
#644=DIRECTION('',(-1.,0.,0.));
#645=DIRECTION('',(0.,0.,1.));
#646=DIRECTION('',(0.,-0.707106781186548,-0.707106781186547));
#647=DIRECTION('',(0.,1.,-2.73184799366426E-16));
#648=DIRECTION('',(0.,2.73184799366426E-16,1.));
#649=DIRECTION('',(0.,2.73184799366426E-16,1.));
#650=DIRECTION('',(0.,-1.,2.73184799366426E-16));
#651=DIRECTION('',(-1.,0.,0.));
#652=DIRECTION('',(1.,0.,0.));
#653=DIRECTION('',(0.,-1.,2.73184799366426E-16));
#654=DIRECTION('',(1.,0.,0.));
#655=DIRECTION('',(0.,2.73184799366426E-16,1.));
#656=DIRECTION('',(0.,-1.,2.73184799366426E-16));
#657=DIRECTION('',(1.,0.,0.));
#658=DIRECTION('',(0.,2.73184799366426E-16,1.));
#659=DIRECTION('',(0.,-1.,2.73184799366426E-16));
#660=DIRECTION('',(1.,0.,0.));
#661=DIRECTION('',(1.,0.,0.));
#662=DIRECTION('',(0.,-1.,2.73184799366426E-16));
#663=DIRECTION('',(1.,0.,0.));
#664=DIRECTION('',(0.,-0.707106781186547,0.707106781186548));
#665=DIRECTION('',(1.,0.,0.));
#666=DIRECTION('',(0.,0.707106781186547,-0.707106781186548));
#667=DIRECTION('',(1.,0.,0.));
#668=DIRECTION('',(0.,-0.707106781186548,-0.707106781186548));
#669=DIRECTION('',(-1.,0.,0.));
#670=CARTESIAN_POINT('',(0.,0.,0.));
#671=CARTESIAN_POINT('',(0.132990797976494,0.00624418560180664,0.08636));
#672=CARTESIAN_POINT('',(0.132507652044296,0.00624418560180664,0.0701707153034211));
#673=CARTESIAN_POINT('',(0.132507652044296,0.00624418560180664,0.0686467153034211));
#674=CARTESIAN_POINT('',(0.144657372746181,0.00624418560180664,0.0701707153034211));
#675=CARTESIAN_POINT('',(0.144657372746181,0.00624418560180664,0.0686467153034211));
#676=CARTESIAN_POINT('',(0.151282512395239,0.00624418560180665,0.0961412973332405));
#677=CARTESIAN_POINT('',(0.151282512395239,0.00624418560180664,0.084809995970726));
#678=CARTESIAN_POINT('',(0.151282512395239,0.00624418560180664,0.066797405333519));
#679=CARTESIAN_POINT('',(0.125882512395238,0.00624418560180664,0.084809995970726));
#680=CARTESIAN_POINT('',(0.125882512395238,0.00624418560180664,0.084809995970726));
#681=CARTESIAN_POINT('',(0.125882512395238,0.00624418560180665,0.0961412973332405));
#682=CARTESIAN_POINT('',(0.125882512395238,0.00624418560180664,0.066797405333519));
#683=CARTESIAN_POINT('',(0.138582512395238,0.00624418560180664,0.066797405333519));
#684=CARTESIAN_POINT('',(0.132990797976494,0.00624418560180664,0.08636));
#685=CARTESIAN_POINT('',(0.144657372746181,0.00624418560180665,0.102549284696579));
#686=CARTESIAN_POINT('',(0.144657372746181,0.00624418560180665,0.101025284696579));
#687=CARTESIAN_POINT('',(0.132507652044296,0.00624418560180665,0.102549284696579));
#688=CARTESIAN_POINT('',(0.132507652044296,0.00624418560180665,0.101025284696579));
#689=CARTESIAN_POINT('',(0.139783858570766,0.00624418560180664,0.0912957359647751));
#690=CARTESIAN_POINT('',(0.139783858570766,0.00624418560180664,0.0905302503299713));
#691=CARTESIAN_POINT('',(0.139783858570766,0.00624418560180665,0.0946012215995789));
#692=CARTESIAN_POINT('',(0.151282512395239,0.00624418560180665,0.0946012215995789));
#693=CARTESIAN_POINT('',(0.151282512395239,0.00624418560180665,0.0946012215995789));
#694=CARTESIAN_POINT('',(0.151282512395239,0.00624418560180665,0.0961412973332405));
#695=CARTESIAN_POINT('',(0.151282512395239,0.00624418560180665,0.105922594666481));
#696=CARTESIAN_POINT('',(0.138582512395238,0.00624418560180665,0.105922594666481));
#697=CARTESIAN_POINT('',(0.125882512395238,0.00624418560180665,0.105922594666481));
#698=CARTESIAN_POINT('',(0.125882512395238,0.00624418560180665,0.0961412973332405));
#699=CARTESIAN_POINT('',(0.125882512395238,0.00624418560180665,0.0946012215995789));
#700=CARTESIAN_POINT('',(0.132990797976494,0.00624418560180665,0.0946012215995789));
#701=CARTESIAN_POINT('',(0.137381166219711,0.00624418560180664,0.0946012215995789));
#702=CARTESIAN_POINT('',(0.137381166219711,0.00624418560180664,0.0909954738414288));
#703=CARTESIAN_POINT('',(0.137381166219711,0.00624418560180664,0.0905302503299713));
#704=CARTESIAN_POINT('',(0.126897077294516,0.00624418560180664,0.0905302503299713));
#705=CARTESIAN_POINT('',(0.125882512395238,0.00624418560180664,0.0905302503299713));
#706=CARTESIAN_POINT('',(0.125882512395238,0.00624418560180665,0.0961412973332405));
#707=CARTESIAN_POINT('',(0.125882512395238,0.00624418560180664,0.0892602503299713));
#708=CARTESIAN_POINT('',(0.144932512395238,0.00624418560180664,0.0892602503299713));
#709=CARTESIAN_POINT('',(0.151282512395239,0.00624418560180664,0.0892602503299713));
#710=CARTESIAN_POINT('',(0.151282512395239,0.00624418560180665,0.0961412973332405));
#711=CARTESIAN_POINT('',(0.151282512395239,0.00624418560180664,0.0905302503299713));
#712=CARTESIAN_POINT('',(0.145533185483002,0.00624418560180664,0.0905302503299713));
#713=CARTESIAN_POINT('',(0.132990797976494,0.00878418560180664,0.08636));
#714=CARTESIAN_POINT('',(0.132507652044296,0.00878418560180664,0.0701707153034211));
#715=CARTESIAN_POINT('',(0.132507652044296,0.00878418560180664,0.0716947153034211));
#716=CARTESIAN_POINT('',(0.144657372746181,0.00878418560180665,0.102549284696579));
#717=CARTESIAN_POINT('',(0.144657372746181,0.00878418560180665,0.104073284696579));
#718=CARTESIAN_POINT('',(0.138582512395238,0.00878418560180665,0.105922594666481));
#719=CARTESIAN_POINT('',(0.151282512395239,0.00878418560180665,0.105922594666481));
#720=CARTESIAN_POINT('',(0.125882512395238,0.00878418560180665,0.105922594666481));
#721=CARTESIAN_POINT('',(0.151282512395239,0.00878418560180665,0.0961412973332405));
#722=CARTESIAN_POINT('',(0.151282512395239,0.00878418560180664,0.066797405333519));
#723=CARTESIAN_POINT('',(0.138582512395238,0.00878418560180664,0.066797405333519));
#724=CARTESIAN_POINT('',(0.125882512395238,0.00878418560180664,0.066797405333519));
#725=CARTESIAN_POINT('',(0.125882512395238,0.00878418560180665,0.0961412973332405));
#726=CARTESIAN_POINT('',(0.132507652044296,0.00878418560180665,0.102549284696579));
#727=CARTESIAN_POINT('',(0.132507652044296,0.00878418560180665,0.104073284696579));
#728=CARTESIAN_POINT('',(0.144657372746181,0.00878418560180664,0.0701707153034211));
#729=CARTESIAN_POINT('',(0.144657372746181,0.00878418560180664,0.0716947153034211));
#730=CARTESIAN_POINT('',(0.138582512395238,0.00878418560180665,0.105922594666481));
#731=CARTESIAN_POINT('',(0.151282512395239,0.00878418560180665,0.105922594666481));
#732=CARTESIAN_POINT('',(0.125882512395238,0.00878418560180665,0.105922594666481));
#733=CARTESIAN_POINT('',(0.151282512395239,0.00878418560180665,0.0961412973332405));
#734=CARTESIAN_POINT('',(0.151282512395239,0.00828422346863748,0.0966412594664097));
#735=CARTESIAN_POINT('',(0.151282512395239,0.00370418560180664,0.0920612215995789));
#736=CARTESIAN_POINT('',(0.151282512395239,-0.000867814398193357,0.0920612215995789));
#737=CARTESIAN_POINT('',(0.151282512395239,-0.000867814398193357,0.0920612215995789));
#738=CARTESIAN_POINT('',(0.151282512395239,-0.000867814398193355,0.0961412973332405));
#739=CARTESIAN_POINT('',(0.151282512395239,-0.000867814398193357,0.0905302503299713));
#740=CARTESIAN_POINT('',(0.151282512395239,-0.000867814398193357,0.0905302503299713));
#741=CARTESIAN_POINT('',(0.151282512395239,-0.000867814398193357,0.0892602503299713));
#742=CARTESIAN_POINT('',(0.151282512395239,-0.000867814398193357,0.0892602503299713));
#743=CARTESIAN_POINT('',(0.151282512395239,-0.000867814398193355,0.0961412973332405));
#744=CARTESIAN_POINT('',(0.151282512395239,-0.000867814398193357,0.087349995970726));
#745=CARTESIAN_POINT('',(0.151282512395239,-0.000867814398193357,0.087349995970726));
#746=CARTESIAN_POINT('',(0.151282512395239,0.00370418560180664,0.087349995970726));
#747=CARTESIAN_POINT('',(0.151282512395239,0.00184853492054938,0.0892056466519833));
#748=CARTESIAN_POINT('',(0.151282512395239,0.00878418560180664,0.066797405333519));
#749=CARTESIAN_POINT('',(0.138582512395238,0.00878418560180664,0.066797405333519));
#750=CARTESIAN_POINT('',(0.125882512395238,0.00878418560180664,0.066797405333519));
#751=CARTESIAN_POINT('',(0.125882512395238,0.00878418560180665,0.0961412973332405));
#752=CARTESIAN_POINT('',(0.125882512395238,0.00370418560180664,0.087349995970726));
#753=CARTESIAN_POINT('',(0.125882512395238,0.00370418560180664,0.087349995970726));
#754=CARTESIAN_POINT('',(0.125882512395238,-0.000867814398193357,0.087349995970726));
#755=CARTESIAN_POINT('',(0.125882512395238,-0.000867814398193357,0.087349995970726));
#756=CARTESIAN_POINT('',(0.125882512395238,-0.000867814398193355,0.0961412973332405));
#757=CARTESIAN_POINT('',(0.125882512395238,-0.000867814398193357,0.0892602503299713));
#758=CARTESIAN_POINT('',(0.125882512395238,-0.000867814398193357,0.0892602503299713));
#759=CARTESIAN_POINT('',(0.125882512395238,-0.000867814398193357,0.0905302503299713));
#760=CARTESIAN_POINT('',(0.125882512395238,-0.000867814398193357,0.0905302503299713));
#761=CARTESIAN_POINT('',(0.125882512395238,-0.000867814398193355,0.0961412973332405));
#762=CARTESIAN_POINT('',(0.125882512395238,-0.000867814398193356,0.0920612215995789));
#763=CARTESIAN_POINT('',(0.125882512395238,-0.000867814398193356,0.0920612215995789));
#764=CARTESIAN_POINT('',(0.125882512395238,0.00370418560180664,0.0920612215995789));
#765=CARTESIAN_POINT('',(0.125882512395238,0.00624418560180665,0.0946012215995789));
#766=CARTESIAN_POINT('',(0.144657372746181,0.0316441856018067,0.102549284696579));
#767=CARTESIAN_POINT('',(0.132507652044296,0.0316441856018067,0.102549284696579));
#768=CARTESIAN_POINT('',(0.132507652044296,0.0316441856018067,0.0701707153034211));
#769=CARTESIAN_POINT('',(0.144657372746181,0.0316441856018067,0.0701707153034211));
#770=CARTESIAN_POINT('',(0.145533185483002,-0.000867814398193357,0.0905302503299713));
#771=CARTESIAN_POINT('',(0.145533185483002,-0.000867814398193357,0.0905302503299713));
#772=CARTESIAN_POINT('',(0.139783858570766,-0.000867814398193357,0.0905302503299713));
#773=CARTESIAN_POINT('',(0.139783858570766,-0.000867814398193357,0.0905302503299713));
#774=CARTESIAN_POINT('',(0.145533185483002,-0.000867814398193357,0.0920612215995789));
#775=CARTESIAN_POINT('',(0.139783858570766,0.00370418560180664,0.0920612215995789));
#776=CARTESIAN_POINT('',(0.139783858570766,0.00370418560180664,0.0920612215995789));
#777=CARTESIAN_POINT('',(0.139783858570766,-0.000867814398193357,0.0920612215995789));
#778=CARTESIAN_POINT('',(0.139783858570766,-0.000867814398193357,0.0920612215995789));
#779=CARTESIAN_POINT('',(0.145533185483002,-0.000867814398193357,0.0920612215995789));
#780=CARTESIAN_POINT('',(0.139783858570766,-0.000867814398193357,0.0912957359647751));
#781=CARTESIAN_POINT('',(0.139783858570766,-0.000867814398193357,0.0912957359647751));
#782=CARTESIAN_POINT('',(0.139783858570766,0.00370418560180664,0.0920612215995789));
#783=CARTESIAN_POINT('',(0.138582512395238,-0.000867814398193358,0.08636));
#784=CARTESIAN_POINT('',(0.126897077294516,-0.000867814398193357,0.0905302503299713));
#785=CARTESIAN_POINT('',(0.137381166219711,-0.000867814398193357,0.0905302503299713));
#786=CARTESIAN_POINT('',(0.137381166219711,-0.000867814398193357,0.0905302503299713));
#787=CARTESIAN_POINT('',(0.126897077294516,-0.000867814398193357,0.0905302503299713));
#788=CARTESIAN_POINT('',(0.137381166219711,-0.000867814398193357,0.0909954738414288));
#789=CARTESIAN_POINT('',(0.137381166219711,0.00088531172273159,0.0892423477205038));
#790=CARTESIAN_POINT('',(0.137381166219711,0.00370418560180664,0.0920612215995789));
#791=CARTESIAN_POINT('',(0.137381166219711,-0.000867814398193357,0.0920612215995789));
#792=CARTESIAN_POINT('',(0.137381166219711,-0.000867814398193357,0.0920612215995789));
#793=CARTESIAN_POINT('',(0.137381166219711,-0.000867814398193357,0.0909954738414288));
#794=CARTESIAN_POINT('',(0.131631839307475,-0.000867814398193357,0.0920612215995789));
#795=CARTESIAN_POINT('',(0.131631839307475,0.00370418560180664,0.0920612215995789));
#796=CARTESIAN_POINT('',(0.131631839307475,-0.000867814398193357,0.0920612215995789));
#797=CARTESIAN_POINT('',(0.138582512395238,-0.000867814398193358,0.08636));
#798=CARTESIAN_POINT('',(0.144932512395238,-0.000867814398193357,0.0892602503299713));
#799=CARTESIAN_POINT('',(0.144932512395238,-0.000867814398193357,0.0892602503299713));
#800=CARTESIAN_POINT('',(0.138582512395238,-0.000867814398193358,0.087349995970726));
#801=CARTESIAN_POINT('',(0.151282512395239,0.00370418560180664,0.087349995970726));
#802=CARTESIAN_POINT('',(0.138582512395238,-0.000867814398193358,0.087349995970726));
#803=CARTESIAN_POINT('',(0.138582512395238,-0.000867814398193358,0.08636));
#804=CARTESIAN_POINT('',(0.145533185483002,0.00370418560180664,0.0920612215995789));
#805=CARTESIAN_POINT('',(0.132990797976494,0.00624418560180665,0.0946012215995789));
#806=CARTESIAN_POINT('',(0.138582512395238,0.00370418560180664,0.087349995970726));
#807=MECHANICAL_DESIGN_GEOMETRIC_PRESENTATION_REPRESENTATION('',(#500),
#808);
#808=(
GEOMETRIC_REPRESENTATION_CONTEXT(3)
GLOBAL_UNCERTAINTY_ASSIGNED_CONTEXT((#809))
GLOBAL_UNIT_ASSIGNED_CONTEXT((#812,#811,#810))
REPRESENTATION_CONTEXT('Part 7','TOP_LEVEL_ASSEMBLY_PART')
);
#809=UNCERTAINTY_MEASURE_WITH_UNIT(LENGTH_MEASURE(1.E-8),#812,
'DISTANCE_ACCURACY_VALUE','Maximum Tolerance applied to model');
#810=(
NAMED_UNIT(*)
SI_UNIT($,.STERADIAN.)
SOLID_ANGLE_UNIT()
);
#811=(
NAMED_UNIT(*)
PLANE_ANGLE_UNIT()
SI_UNIT($,.RADIAN.)
);
#812=(
LENGTH_UNIT()
NAMED_UNIT(*)
SI_UNIT($,.METRE.)
);
#813=PRODUCT_DEFINITION_SHAPE('','',#814);
#814=PRODUCT_DEFINITION('','',#816,#815);
#815=PRODUCT_DEFINITION_CONTEXT('',#822,'design');
#816=PRODUCT_DEFINITION_FORMATION_WITH_SPECIFIED_SOURCE('','',#818,
 .NOT_KNOWN.);
#817=PRODUCT_RELATED_PRODUCT_CATEGORY('','',(#818));
#818=PRODUCT('Part 7','Part 7','Part 7',(#820));
#819=PRODUCT_CATEGORY('','');
#820=PRODUCT_CONTEXT('',#822,'mechanical');
#821=APPLICATION_PROTOCOL_DEFINITION('international standard',
'ap242_managed_model_based_3d_engineering',2020,#822);
#822=APPLICATION_CONTEXT('managed model based 3d engineering');
ENDSEC;
END-ISO-10303-21;
