ISO-10303-21;
HEADER;
/* Generated by software containing ST-Developer
 * from STEP Tools, Inc. (www.steptools.com) 
 */
/* OPTION: using custom renumber hook */

FILE_DESCRIPTION(
/* description */ ('STEP AP242 Edition 2',
'CAx-IF Rec.Pracs.---Representation and Presentation of Product Manufa
cturing Information (PMI)---4.0---2014-10-13',
'CAx-IF Rec.Pracs.---3D Tessellated Geometry---0.4---2014-09-14','2;1',
'CAx-IF Rec.Pracs.---User Defined Attributes---1.5---2016-08-15'),
/* implementation_level */ '2;1');

FILE_NAME(
/* name */ 'V2 - Part 4',
/* time_stamp */ '2026-05-14T03:06:23Z',
/* author */ (''),
/* organization */ (''),
/* preprocessor_version */ 'ST-DEVELOPER v20',
/* originating_system */ 'ONSHAPE BY PTC INC, 1.214',
/* authorisation */ '  ');

FILE_SCHEMA (('AP242_MANAGED_MODEL_BASED_3D_ENGINEERING_MIM_LF { 1 0 10303 442 3 1 4 }'));
ENDSEC;

DATA;
#10=SHAPE_REPRESENTATION_RELATIONSHIP('','',#221,#11);
#11=ADVANCED_BREP_SHAPE_REPRESENTATION('',(#219),#365);
#12=CONICAL_SURFACE('',#245,0.001651,0.785398163397445);
#13=CONICAL_SURFACE('',#246,0.002159,0.785398163397445);
#14=CYLINDRICAL_SURFACE('',#235,0.001524);
#15=CYLINDRICAL_SURFACE('',#236,0.001524);
#16=CYLINDRICAL_SURFACE('',#237,0.001651);
#17=CYLINDRICAL_SURFACE('',#241,0.001651);
#18=LINE('',#315,#30);
#19=LINE('',#318,#31);
#20=LINE('',#320,#32);
#21=LINE('',#322,#33);
#22=LINE('',#324,#34);
#23=LINE('',#326,#35);
#24=LINE('',#328,#36);
#25=LINE('',#336,#37);
#26=LINE('',#338,#38);
#27=LINE('',#340,#39);
#28=LINE('',#344,#40);
#29=LINE('',#346,#41);
#30=VECTOR('',#255,1.);
#31=VECTOR('',#256,1.);
#32=VECTOR('',#257,1.);
#33=VECTOR('',#258,1.);
#34=VECTOR('',#261,1.);
#35=VECTOR('',#262,1.);
#36=VECTOR('',#263,1.);
#37=VECTOR('',#272,1.);
#38=VECTOR('',#273,1.);
#39=VECTOR('',#274,1.);
#40=VECTOR('',#279,1.);
#41=VECTOR('',#282,1.);
#42=ORIENTED_EDGE('',*,*,#86,.T.);
#43=ORIENTED_EDGE('',*,*,#87,.T.);
#44=ORIENTED_EDGE('',*,*,#88,.F.);
#45=ORIENTED_EDGE('',*,*,#89,.T.);
#46=ORIENTED_EDGE('',*,*,#90,.T.);
#47=ORIENTED_EDGE('',*,*,#91,.F.);
#48=ORIENTED_EDGE('',*,*,#91,.T.);
#49=ORIENTED_EDGE('',*,*,#92,.F.);
#50=ORIENTED_EDGE('',*,*,#93,.F.);
#51=ORIENTED_EDGE('',*,*,#94,.T.);
#52=ORIENTED_EDGE('',*,*,#95,.F.);
#53=ORIENTED_EDGE('',*,*,#96,.T.);
#54=ORIENTED_EDGE('',*,*,#97,.T.);
#55=ORIENTED_EDGE('',*,*,#89,.F.);
#56=ORIENTED_EDGE('',*,*,#98,.F.);
#57=ORIENTED_EDGE('',*,*,#99,.T.);
#58=ORIENTED_EDGE('',*,*,#100,.T.);
#59=ORIENTED_EDGE('',*,*,#101,.F.);
#60=ORIENTED_EDGE('',*,*,#88,.T.);
#61=ORIENTED_EDGE('',*,*,#94,.F.);
#62=ORIENTED_EDGE('',*,*,#102,.F.);
#63=ORIENTED_EDGE('',*,*,#98,.T.);
#64=ORIENTED_EDGE('',*,*,#90,.F.);
#65=ORIENTED_EDGE('',*,*,#100,.F.);
#66=ORIENTED_EDGE('',*,*,#103,.T.);
#67=ORIENTED_EDGE('',*,*,#92,.T.);
#68=ORIENTED_EDGE('',*,*,#102,.T.);
#69=ORIENTED_EDGE('',*,*,#93,.T.);
#70=ORIENTED_EDGE('',*,*,#103,.F.);
#71=ORIENTED_EDGE('',*,*,#99,.F.);
#72=ORIENTED_EDGE('',*,*,#97,.F.);
#73=ORIENTED_EDGE('',*,*,#95,.T.);
#74=ORIENTED_EDGE('',*,*,#101,.T.);
#75=ORIENTED_EDGE('',*,*,#96,.F.);
#76=ORIENTED_EDGE('',*,*,#104,.T.);
#77=ORIENTED_EDGE('',*,*,#105,.T.);
#78=ORIENTED_EDGE('',*,*,#105,.F.);
#79=ORIENTED_EDGE('',*,*,#106,.T.);
#80=ORIENTED_EDGE('',*,*,#107,.F.);
#81=ORIENTED_EDGE('',*,*,#107,.T.);
#82=ORIENTED_EDGE('',*,*,#86,.F.);
#83=ORIENTED_EDGE('',*,*,#104,.F.);
#84=ORIENTED_EDGE('',*,*,#106,.F.);
#85=ORIENTED_EDGE('',*,*,#87,.F.);
#86=EDGE_CURVE('',#108,#108,#126,.T.);
#87=EDGE_CURVE('',#109,#109,#127,.T.);
#88=EDGE_CURVE('',#110,#111,#18,.T.);
#89=EDGE_CURVE('',#110,#112,#19,.T.);
#90=EDGE_CURVE('',#112,#113,#20,.T.);
#91=EDGE_CURVE('',#111,#113,#21,.T.);
#92=EDGE_CURVE('',#114,#113,#22,.T.);
#93=EDGE_CURVE('',#115,#114,#23,.T.);
#94=EDGE_CURVE('',#115,#111,#24,.T.);
#95=EDGE_CURVE('',#116,#116,#128,.F.);
#96=EDGE_CURVE('',#117,#117,#129,.T.);
#97=EDGE_CURVE('',#118,#118,#130,.F.);
#98=EDGE_CURVE('',#119,#110,#25,.T.);
#99=EDGE_CURVE('',#119,#120,#26,.T.);
#100=EDGE_CURVE('',#120,#112,#27,.T.);
#101=EDGE_CURVE('',#121,#121,#131,.T.);
#102=EDGE_CURVE('',#119,#115,#28,.T.);
#103=EDGE_CURVE('',#120,#114,#29,.T.);
#104=EDGE_CURVE('',#122,#122,#132,.F.);
#105=EDGE_CURVE('',#123,#123,#133,.T.);
#106=EDGE_CURVE('',#124,#124,#134,.F.);
#107=EDGE_CURVE('',#125,#125,#135,.T.);
#108=VERTEX_POINT('',#312);
#109=VERTEX_POINT('',#314);
#110=VERTEX_POINT('',#316);
#111=VERTEX_POINT('',#317);
#112=VERTEX_POINT('',#319);
#113=VERTEX_POINT('',#321);
#114=VERTEX_POINT('',#325);
#115=VERTEX_POINT('',#327);
#116=VERTEX_POINT('',#330);
#117=VERTEX_POINT('',#332);
#118=VERTEX_POINT('',#335);
#119=VERTEX_POINT('',#337);
#120=VERTEX_POINT('',#339);
#121=VERTEX_POINT('',#342);
#122=VERTEX_POINT('',#352);
#123=VERTEX_POINT('',#354);
#124=VERTEX_POINT('',#358);
#125=VERTEX_POINT('',#360);
#126=CIRCLE('',#224,0.002159);
#127=CIRCLE('',#225,0.002159);
#128=CIRCLE('',#227,0.001524);
#129=CIRCLE('',#228,0.001524);
#130=CIRCLE('',#230,0.001524);
#131=CIRCLE('',#231,0.001524);
#132=CIRCLE('',#238,0.001651);
#133=CIRCLE('',#239,0.001651);
#134=CIRCLE('',#242,0.001651);
#135=CIRCLE('',#243,0.001651);
#136=EDGE_LOOP('',(#42));
#137=EDGE_LOOP('',(#43));
#138=EDGE_LOOP('',(#44,#45,#46,#47));
#139=EDGE_LOOP('',(#48,#49,#50,#51));
#140=EDGE_LOOP('',(#52));
#141=EDGE_LOOP('',(#53));
#142=EDGE_LOOP('',(#54));
#143=EDGE_LOOP('',(#55,#56,#57,#58));
#144=EDGE_LOOP('',(#59));
#145=EDGE_LOOP('',(#60,#61,#62,#63));
#146=EDGE_LOOP('',(#64,#65,#66,#67));
#147=EDGE_LOOP('',(#68,#69,#70,#71));
#148=EDGE_LOOP('',(#72));
#149=EDGE_LOOP('',(#73));
#150=EDGE_LOOP('',(#74));
#151=EDGE_LOOP('',(#75));
#152=EDGE_LOOP('',(#76));
#153=EDGE_LOOP('',(#77));
#154=EDGE_LOOP('',(#78));
#155=EDGE_LOOP('',(#79));
#156=EDGE_LOOP('',(#80));
#157=EDGE_LOOP('',(#81));
#158=EDGE_LOOP('',(#82));
#159=EDGE_LOOP('',(#83));
#160=EDGE_LOOP('',(#84));
#161=EDGE_LOOP('',(#85));
#162=FACE_BOUND('',#136,.T.);
#163=FACE_BOUND('',#137,.T.);
#164=FACE_BOUND('',#138,.T.);
#165=FACE_BOUND('',#139,.T.);
#166=FACE_BOUND('',#140,.T.);
#167=FACE_BOUND('',#141,.T.);
#168=FACE_BOUND('',#142,.T.);
#169=FACE_BOUND('',#143,.T.);
#170=FACE_BOUND('',#144,.T.);
#171=FACE_BOUND('',#145,.T.);
#172=FACE_BOUND('',#146,.T.);
#173=FACE_BOUND('',#147,.T.);
#174=FACE_BOUND('',#148,.T.);
#175=FACE_BOUND('',#149,.T.);
#176=FACE_BOUND('',#150,.T.);
#177=FACE_BOUND('',#151,.T.);
#178=FACE_BOUND('',#152,.T.);
#179=FACE_BOUND('',#153,.T.);
#180=FACE_BOUND('',#154,.T.);
#181=FACE_BOUND('',#155,.T.);
#182=FACE_BOUND('',#156,.T.);
#183=FACE_BOUND('',#157,.T.);
#184=FACE_BOUND('',#158,.T.);
#185=FACE_BOUND('',#159,.T.);
#186=FACE_BOUND('',#160,.T.);
#187=FACE_BOUND('',#161,.T.);
#188=PLANE('',#223);
#189=PLANE('',#226);
#190=PLANE('',#229);
#191=PLANE('',#232);
#192=PLANE('',#233);
#193=PLANE('',#234);
#194=PLANE('',#240);
#195=PLANE('',#244);
#196=ADVANCED_FACE('',(#162,#163,#164),#188,.F.);
#197=ADVANCED_FACE('',(#165,#166,#167),#189,.F.);
#198=ADVANCED_FACE('',(#168,#169,#170),#190,.T.);
#199=ADVANCED_FACE('',(#171),#191,.F.);
#200=ADVANCED_FACE('',(#172),#192,.T.);
#201=ADVANCED_FACE('',(#173),#193,.T.);
#202=ADVANCED_FACE('',(#174,#175),#14,.F.);
#203=ADVANCED_FACE('',(#176,#177),#15,.F.);
#204=ADVANCED_FACE('',(#178,#179),#16,.F.);
#205=ADVANCED_FACE('',(#180),#194,.T.);
#206=ADVANCED_FACE('',(#181,#182),#17,.F.);
#207=ADVANCED_FACE('',(#183),#195,.T.);
#208=ADVANCED_FACE('',(#184,#185),#12,.F.);
#209=ADVANCED_FACE('',(#186,#187),#13,.F.);
#210=CLOSED_SHELL('',(#196,#197,#198,#199,#200,#201,#202,#203,#204,#205,
#206,#207,#208,#209));
#211=STYLED_ITEM('',(#212),#219);
#212=PRESENTATION_STYLE_ASSIGNMENT((#213));
#213=SURFACE_STYLE_USAGE(.BOTH.,#214);
#214=SURFACE_SIDE_STYLE('',(#215));
#215=SURFACE_STYLE_FILL_AREA(#216);
#216=FILL_AREA_STYLE('',(#217));
#217=FILL_AREA_STYLE_COLOUR('',#218);
#218=COLOUR_RGB('',0.768627450980392,0.886274509803922,0.952941176470588);
#219=MANIFOLD_SOLID_BREP('Part 4',#210);
#220=SHAPE_DEFINITION_REPRESENTATION(#370,#221);
#221=SHAPE_REPRESENTATION('Part 4',(#222),#365);
#222=AXIS2_PLACEMENT_3D('',#309,#247,#248);
#223=AXIS2_PLACEMENT_3D('',#310,#249,#250);
#224=AXIS2_PLACEMENT_3D('',#311,#251,#252);
#225=AXIS2_PLACEMENT_3D('',#313,#253,#254);
#226=AXIS2_PLACEMENT_3D('',#323,#259,#260);
#227=AXIS2_PLACEMENT_3D('',#329,#264,#265);
#228=AXIS2_PLACEMENT_3D('',#331,#266,#267);
#229=AXIS2_PLACEMENT_3D('',#333,#268,#269);
#230=AXIS2_PLACEMENT_3D('',#334,#270,#271);
#231=AXIS2_PLACEMENT_3D('',#341,#275,#276);
#232=AXIS2_PLACEMENT_3D('',#343,#277,#278);
#233=AXIS2_PLACEMENT_3D('',#345,#280,#281);
#234=AXIS2_PLACEMENT_3D('',#347,#283,#284);
#235=AXIS2_PLACEMENT_3D('',#348,#285,#286);
#236=AXIS2_PLACEMENT_3D('',#349,#287,#288);
#237=AXIS2_PLACEMENT_3D('',#350,#289,#290);
#238=AXIS2_PLACEMENT_3D('',#351,#291,#292);
#239=AXIS2_PLACEMENT_3D('',#353,#293,#294);
#240=AXIS2_PLACEMENT_3D('',#355,#295,#296);
#241=AXIS2_PLACEMENT_3D('',#356,#297,#298);
#242=AXIS2_PLACEMENT_3D('',#357,#299,#300);
#243=AXIS2_PLACEMENT_3D('',#359,#301,#302);
#244=AXIS2_PLACEMENT_3D('',#361,#303,#304);
#245=AXIS2_PLACEMENT_3D('',#362,#305,#306);
#246=AXIS2_PLACEMENT_3D('',#363,#307,#308);
#247=DIRECTION('',(0.,0.,1.));
#248=DIRECTION('',(1.,0.,0.));
#249=DIRECTION('',(0.,-1.,0.));
#250=DIRECTION('',(1.,0.,0.));
#251=DIRECTION('',(0.,-1.,0.));
#252=DIRECTION('',(0.,0.,-1.));
#253=DIRECTION('',(0.,-1.,0.));
#254=DIRECTION('',(0.,0.,-1.));
#255=DIRECTION('',(-1.,0.,0.));
#256=DIRECTION('',(0.,0.,-1.));
#257=DIRECTION('',(-1.,0.,0.));
#258=DIRECTION('',(0.,0.,-1.));
#259=DIRECTION('',(1.,0.,0.));
#260=DIRECTION('',(0.,0.,-1.));
#261=DIRECTION('',(0.,1.,0.));
#262=DIRECTION('',(0.,0.,-1.));
#263=DIRECTION('',(0.,1.,0.));
#264=DIRECTION('',(1.,0.,0.));
#265=DIRECTION('',(0.,0.,-1.));
#266=DIRECTION('',(1.,0.,0.));
#267=DIRECTION('',(0.,0.,-1.));
#268=DIRECTION('',(1.,0.,0.));
#269=DIRECTION('',(0.,0.,-1.));
#270=DIRECTION('',(1.,0.,0.));
#271=DIRECTION('',(0.,0.,-1.));
#272=DIRECTION('',(0.,1.,0.));
#273=DIRECTION('',(0.,0.,-1.));
#274=DIRECTION('',(0.,1.,0.));
#275=DIRECTION('',(1.,0.,0.));
#276=DIRECTION('',(0.,0.,-1.));
#277=DIRECTION('',(0.,0.,-1.));
#278=DIRECTION('',(-1.,0.,0.));
#279=DIRECTION('',(-1.,0.,0.));
#280=DIRECTION('',(0.,0.,-1.));
#281=DIRECTION('',(-1.,0.,0.));
#282=DIRECTION('',(-1.,0.,0.));
#283=DIRECTION('',(0.,-1.,0.));
#284=DIRECTION('',(1.,0.,0.));
#285=DIRECTION('',(-1.,0.,0.));
#286=DIRECTION('',(0.,0.,1.));
#287=DIRECTION('',(-1.,0.,0.));
#288=DIRECTION('',(0.,0.,1.));
#289=DIRECTION('',(0.,1.,-2.73184799366426E-16));
#290=DIRECTION('',(0.,2.73184799366426E-16,1.));
#291=DIRECTION('',(0.,-1.,0.));
#292=DIRECTION('',(0.,0.,-1.));
#293=DIRECTION('',(0.,-1.,2.73184799366426E-16));
#294=DIRECTION('',(0.,2.73184799366426E-16,1.));
#295=DIRECTION('',(0.,1.,-2.73184799366426E-16));
#296=DIRECTION('',(-1.,0.,0.));
#297=DIRECTION('',(0.,1.,-2.73184799366426E-16));
#298=DIRECTION('',(0.,2.73184799366426E-16,1.));
#299=DIRECTION('',(0.,-1.,0.));
#300=DIRECTION('',(0.,0.,-1.));
#301=DIRECTION('',(0.,1.,-2.73184799366426E-16));
#302=DIRECTION('',(0.,2.73184799366426E-16,1.));
#303=DIRECTION('',(0.,1.,-2.73184799366426E-16));
#304=DIRECTION('',(-1.,0.,0.));
#305=DIRECTION('',(0.,1.,0.));
#306=DIRECTION('',(0.,0.,1.));
#307=DIRECTION('',(0.,1.,0.));
#308=DIRECTION('',(0.,0.,1.));
#309=CARTESIAN_POINT('',(0.,0.,0.));
#310=CARTESIAN_POINT('',(0.0815927642659992,0.00885618818044662,0.086487));
#311=CARTESIAN_POINT('',(0.212746797976494,0.00885618818044662,0.0827265752863884));
#312=CARTESIAN_POINT('',(0.212746797976494,0.00885618818044662,0.0805675752863884));
#313=CARTESIAN_POINT('',(0.212746797976494,0.00885618818044662,0.0899934247136116));
#314=CARTESIAN_POINT('',(0.212746797976494,0.00885618818044662,0.0878344247136116));
#315=CARTESIAN_POINT('',(-0.00351305514777777,0.00885618818044662,0.09906));
#316=CARTESIAN_POINT('',(0.215286797976494,0.00885618818044662,0.09906));
#317=CARTESIAN_POINT('',(0.210206797976494,0.00885618818044662,0.09906));
#318=CARTESIAN_POINT('',(0.215286797976494,0.00885618818044662,0.08636));
#319=CARTESIAN_POINT('',(0.215286797976494,0.00885618818044662,0.07366));
#320=CARTESIAN_POINT('',(-0.00351305514777777,0.00885618818044662,0.07366));
#321=CARTESIAN_POINT('',(0.210206797976494,0.00885618818044662,0.07366));
#322=CARTESIAN_POINT('',(0.210206797976494,0.00885618818044662,0.08636));
#323=CARTESIAN_POINT('',(0.210206797976494,-0.00384381181955338,0.08636));
#324=CARTESIAN_POINT('',(0.210206797976494,-0.00384381181955338,0.07366));
#325=CARTESIAN_POINT('',(0.210206797976494,-0.00384381181955338,0.07366));
#326=CARTESIAN_POINT('',(0.210206797976494,-0.00384381181955338,0.08636));
#327=CARTESIAN_POINT('',(0.210206797976494,-0.00384381181955338,0.09906));
#328=CARTESIAN_POINT('',(0.210206797976494,-0.00384381181955338,0.09906));
#329=CARTESIAN_POINT('',(0.210206797976494,0.00240458818044663,0.0794641746592522));
#330=CARTESIAN_POINT('',(0.210206797976494,0.00240458818044663,0.0779401746592522));
#331=CARTESIAN_POINT('',(0.210206797976494,0.00240458818044663,0.0932558253407478));
#332=CARTESIAN_POINT('',(0.210206797976494,0.00240458818044663,0.0917318253407478));
#333=CARTESIAN_POINT('',(0.215286797976494,-0.00384381181955338,0.08636));
#334=CARTESIAN_POINT('',(0.215286797976494,0.00240458818044663,0.0794641746592522));
#335=CARTESIAN_POINT('',(0.215286797976494,0.00240458818044663,0.0779401746592522));
#336=CARTESIAN_POINT('',(0.215286797976494,-0.00384381181955338,0.09906));
#337=CARTESIAN_POINT('',(0.215286797976494,-0.00384381181955338,0.09906));
#338=CARTESIAN_POINT('',(0.215286797976494,-0.00384381181955338,0.08636));
#339=CARTESIAN_POINT('',(0.215286797976494,-0.00384381181955338,0.07366));
#340=CARTESIAN_POINT('',(0.215286797976494,-0.00384381181955338,0.07366));
#341=CARTESIAN_POINT('',(0.215286797976494,0.00240458818044663,0.0932558253407478));
#342=CARTESIAN_POINT('',(0.215286797976494,0.00240458818044663,0.0917318253407478));
#343=CARTESIAN_POINT('',(-0.00351305514777777,-0.00384381181955338,0.09906));
#344=CARTESIAN_POINT('',(-0.00351305514777777,-0.00384381181955338,0.09906));
#345=CARTESIAN_POINT('',(-0.00351305514777777,-0.00384381181955338,0.07366));
#346=CARTESIAN_POINT('',(-0.00351305514777777,-0.00384381181955338,0.07366));
#347=CARTESIAN_POINT('',(0.0815927642659992,-0.00384381181955338,0.086487));
#348=CARTESIAN_POINT('',(0.230892347478866,0.00240458818044663,0.0794641746592522));
#349=CARTESIAN_POINT('',(0.230892347478866,0.00240458818044663,0.0932558253407478));
#350=CARTESIAN_POINT('',(0.212746797976494,0.00284058560180664,0.0827265752863884));
#351=CARTESIAN_POINT('',(0.212746797976494,0.00834818818044663,0.0827265752863884));
#352=CARTESIAN_POINT('',(0.212746797976494,0.00834818818044663,0.0810755752863884));
#353=CARTESIAN_POINT('',(0.212746797976494,0.00284058560180664,0.0827265752863884));
#354=CARTESIAN_POINT('',(0.212746797976494,0.00284058560180665,0.0843775752863884));
#355=CARTESIAN_POINT('',(0.132990797976494,0.00284058560180664,0.08636));
#356=CARTESIAN_POINT('',(0.212746797976494,0.00284058560180664,0.0899934247136116));
#357=CARTESIAN_POINT('',(0.212746797976494,0.00834818818044663,0.0899934247136116));
#358=CARTESIAN_POINT('',(0.212746797976494,0.00834818818044663,0.0883424247136116));
#359=CARTESIAN_POINT('',(0.212746797976494,0.00284058560180664,0.0899934247136116));
#360=CARTESIAN_POINT('',(0.212746797976494,0.00284058560180665,0.0916444247136116));
#361=CARTESIAN_POINT('',(0.132990797976494,0.00284058560180664,0.08636));
#362=CARTESIAN_POINT('',(0.212746797976494,0.00834818818044662,0.0827265752863884));
#363=CARTESIAN_POINT('',(0.212746797976494,0.00885618818044662,0.0899934247136116));
#364=MECHANICAL_DESIGN_GEOMETRIC_PRESENTATION_REPRESENTATION('',(#211),
#365);
#365=(
GEOMETRIC_REPRESENTATION_CONTEXT(3)
GLOBAL_UNCERTAINTY_ASSIGNED_CONTEXT((#366))
GLOBAL_UNIT_ASSIGNED_CONTEXT((#369,#368,#367))
REPRESENTATION_CONTEXT('Part 4','TOP_LEVEL_ASSEMBLY_PART')
);
#366=UNCERTAINTY_MEASURE_WITH_UNIT(LENGTH_MEASURE(1.E-8),#369,
'DISTANCE_ACCURACY_VALUE','Maximum Tolerance applied to model');
#367=(
NAMED_UNIT(*)
SI_UNIT($,.STERADIAN.)
SOLID_ANGLE_UNIT()
);
#368=(
NAMED_UNIT(*)
PLANE_ANGLE_UNIT()
SI_UNIT($,.RADIAN.)
);
#369=(
LENGTH_UNIT()
NAMED_UNIT(*)
SI_UNIT($,.METRE.)
);
#370=PRODUCT_DEFINITION_SHAPE('','',#371);
#371=PRODUCT_DEFINITION('','',#373,#372);
#372=PRODUCT_DEFINITION_CONTEXT('',#379,'design');
#373=PRODUCT_DEFINITION_FORMATION_WITH_SPECIFIED_SOURCE('','',#375,
 .NOT_KNOWN.);
#374=PRODUCT_RELATED_PRODUCT_CATEGORY('','',(#375));
#375=PRODUCT('Part 4','Part 4','Part 4',(#377));
#376=PRODUCT_CATEGORY('','');
#377=PRODUCT_CONTEXT('',#379,'mechanical');
#378=APPLICATION_PROTOCOL_DEFINITION('international standard',
'ap242_managed_model_based_3d_engineering',2020,#379);
#379=APPLICATION_CONTEXT('managed model based 3d engineering');
ENDSEC;
END-ISO-10303-21;
