ISO-10303-21;
HEADER;
/* Generated by software containing ST-Developer
 * from STEP Tools, Inc. (www.steptools.com) 
 */
/* OPTION: using custom renumber hook */

FILE_DESCRIPTION(
/* description */ ('STEP AP242 Edition 2',
'CAx-IF Rec.Pracs.---Representation and Presentation of Product Manufa
cturing Information (PMI)---4.0---2014-10-13',
'CAx-IF Rec.Pracs.---3D Tessellated Geometry---0.4---2014-09-14','2;1',
'CAx-IF Rec.Pracs.---User Defined Attributes---1.5---2016-08-15'),
/* implementation_level */ '2;1');

FILE_NAME(
/* name */ 'V2 - Part 1',
/* time_stamp */ '2026-05-14T03:04:44Z',
/* author */ (''),
/* organization */ (''),
/* preprocessor_version */ 'ST-DEVELOPER v20',
/* originating_system */ 'ONSHAPE BY PTC INC, 1.214',
/* authorisation */ '  ');

FILE_SCHEMA (('AP242_MANAGED_MODEL_BASED_3D_ENGINEERING_MIM_LF { 1 0 10303 442 3 1 4 }'));
ENDSEC;

DATA;
#10=SHAPE_REPRESENTATION_RELATIONSHIP('','',#1088,#11);
#11=ADVANCED_BREP_SHAPE_REPRESENTATION('',(#1086),#1784);
#12=CONICAL_SURFACE('',#1179,0.001778,0.785398163397439);
#13=CONICAL_SURFACE('',#1180,0.00254,0.785398163397441);
#14=CONICAL_SURFACE('',#1181,0.00254,0.785398163397439);
#15=CONICAL_SURFACE('',#1182,0.001778,0.785398163397441);
#16=CYLINDRICAL_SURFACE('',#1102,0.001524);
#17=CYLINDRICAL_SURFACE('',#1105,0.001524);
#18=CYLINDRICAL_SURFACE('',#1108,0.001524);
#19=CYLINDRICAL_SURFACE('',#1111,0.001524);
#20=CYLINDRICAL_SURFACE('',#1114,0.0127);
#21=CYLINDRICAL_SURFACE('',#1127,0.00254);
#22=CYLINDRICAL_SURFACE('',#1130,0.003175);
#23=CYLINDRICAL_SURFACE('',#1133,0.003175);
#24=CYLINDRICAL_SURFACE('',#1136,0.003175);
#25=CYLINDRICAL_SURFACE('',#1139,0.003175);
#26=CYLINDRICAL_SURFACE('',#1163,0.001778);
#27=CYLINDRICAL_SURFACE('',#1167,0.001778);
#28=CYLINDRICAL_SURFACE('',#1171,0.001778);
#29=CYLINDRICAL_SURFACE('',#1175,0.001778);
#30=CYLINDRICAL_SURFACE('',#1183,0.001524);
#31=CIRCLE('',#1092,0.00254);
#32=CIRCLE('',#1093,0.00254);
#33=CIRCLE('',#1094,0.00254);
#34=CIRCLE('',#1095,0.00254);
#35=CIRCLE('',#1097,0.003175);
#36=CIRCLE('',#1098,0.003175);
#37=CIRCLE('',#1099,0.003175);
#38=CIRCLE('',#1100,0.003175);
#39=CIRCLE('',#1101,0.00254);
#40=CIRCLE('',#1103,0.001524);
#41=CIRCLE('',#1104,0.001524);
#42=CIRCLE('',#1106,0.001524);
#43=CIRCLE('',#1107,0.001524);
#44=CIRCLE('',#1109,0.001524);
#45=CIRCLE('',#1110,0.001524);
#46=CIRCLE('',#1112,0.001524);
#47=CIRCLE('',#1113,0.001524);
#48=CIRCLE('',#1115,0.0127);
#49=CIRCLE('',#1116,0.0127);
#50=CIRCLE('',#1122,0.001524);
#51=CIRCLE('',#1128,0.00254);
#52=CIRCLE('',#1131,0.003175);
#53=CIRCLE('',#1134,0.003175);
#54=CIRCLE('',#1137,0.003175);
#55=CIRCLE('',#1140,0.003175);
#56=CIRCLE('',#1164,0.001778);
#57=CIRCLE('',#1165,0.001778);
#58=CIRCLE('',#1168,0.001778);
#59=CIRCLE('',#1169,0.001778);
#60=CIRCLE('',#1172,0.001778);
#61=CIRCLE('',#1173,0.001778);
#62=CIRCLE('',#1176,0.001778);
#63=CIRCLE('',#1177,0.001778);
#64=CIRCLE('',#1184,0.001524);
#65=ORIENTED_EDGE('',*,*,#331,.F.);
#66=ORIENTED_EDGE('',*,*,#332,.T.);
#67=ORIENTED_EDGE('',*,*,#333,.F.);
#68=ORIENTED_EDGE('',*,*,#334,.F.);
#69=ORIENTED_EDGE('',*,*,#335,.T.);
#70=ORIENTED_EDGE('',*,*,#336,.F.);
#71=ORIENTED_EDGE('',*,*,#337,.T.);
#72=ORIENTED_EDGE('',*,*,#338,.T.);
#73=ORIENTED_EDGE('',*,*,#339,.T.);
#74=ORIENTED_EDGE('',*,*,#340,.T.);
#75=ORIENTED_EDGE('',*,*,#341,.T.);
#76=ORIENTED_EDGE('',*,*,#342,.T.);
#77=ORIENTED_EDGE('',*,*,#343,.T.);
#78=ORIENTED_EDGE('',*,*,#344,.T.);
#79=ORIENTED_EDGE('',*,*,#345,.F.);
#80=ORIENTED_EDGE('',*,*,#346,.T.);
#81=ORIENTED_EDGE('',*,*,#347,.F.);
#82=ORIENTED_EDGE('',*,*,#348,.T.);
#83=ORIENTED_EDGE('',*,*,#349,.F.);
#84=ORIENTED_EDGE('',*,*,#350,.F.);
#85=ORIENTED_EDGE('',*,*,#351,.F.);
#86=ORIENTED_EDGE('',*,*,#352,.F.);
#87=ORIENTED_EDGE('',*,*,#353,.T.);
#88=ORIENTED_EDGE('',*,*,#354,.T.);
#89=ORIENTED_EDGE('',*,*,#355,.F.);
#90=ORIENTED_EDGE('',*,*,#356,.F.);
#91=ORIENTED_EDGE('',*,*,#357,.F.);
#92=ORIENTED_EDGE('',*,*,#358,.T.);
#93=ORIENTED_EDGE('',*,*,#359,.T.);
#94=ORIENTED_EDGE('',*,*,#360,.F.);
#95=ORIENTED_EDGE('',*,*,#361,.F.);
#96=ORIENTED_EDGE('',*,*,#362,.F.);
#97=ORIENTED_EDGE('',*,*,#363,.T.);
#98=ORIENTED_EDGE('',*,*,#364,.T.);
#99=ORIENTED_EDGE('',*,*,#365,.F.);
#100=ORIENTED_EDGE('',*,*,#366,.F.);
#101=ORIENTED_EDGE('',*,*,#367,.F.);
#102=ORIENTED_EDGE('',*,*,#368,.F.);
#103=ORIENTED_EDGE('',*,*,#369,.F.);
#104=ORIENTED_EDGE('',*,*,#333,.T.);
#105=ORIENTED_EDGE('',*,*,#370,.T.);
#106=ORIENTED_EDGE('',*,*,#371,.T.);
#107=ORIENTED_EDGE('',*,*,#372,.T.);
#108=ORIENTED_EDGE('',*,*,#373,.F.);
#109=ORIENTED_EDGE('',*,*,#374,.F.);
#110=ORIENTED_EDGE('',*,*,#375,.T.);
#111=ORIENTED_EDGE('',*,*,#376,.T.);
#112=ORIENTED_EDGE('',*,*,#377,.T.);
#113=ORIENTED_EDGE('',*,*,#378,.F.);
#114=ORIENTED_EDGE('',*,*,#379,.F.);
#115=ORIENTED_EDGE('',*,*,#380,.T.);
#116=ORIENTED_EDGE('',*,*,#381,.T.);
#117=ORIENTED_EDGE('',*,*,#382,.T.);
#118=ORIENTED_EDGE('',*,*,#383,.T.);
#119=ORIENTED_EDGE('',*,*,#384,.F.);
#120=ORIENTED_EDGE('',*,*,#385,.T.);
#121=ORIENTED_EDGE('',*,*,#386,.F.);
#122=ORIENTED_EDGE('',*,*,#387,.F.);
#123=ORIENTED_EDGE('',*,*,#388,.T.);
#124=ORIENTED_EDGE('',*,*,#389,.T.);
#125=ORIENTED_EDGE('',*,*,#390,.F.);
#126=ORIENTED_EDGE('',*,*,#391,.F.);
#127=ORIENTED_EDGE('',*,*,#392,.T.);
#128=ORIENTED_EDGE('',*,*,#393,.F.);
#129=ORIENTED_EDGE('',*,*,#394,.T.);
#130=ORIENTED_EDGE('',*,*,#395,.T.);
#131=ORIENTED_EDGE('',*,*,#396,.F.);
#132=ORIENTED_EDGE('',*,*,#397,.F.);
#133=ORIENTED_EDGE('',*,*,#398,.F.);
#134=ORIENTED_EDGE('',*,*,#399,.F.);
#135=ORIENTED_EDGE('',*,*,#400,.F.);
#136=ORIENTED_EDGE('',*,*,#401,.T.);
#137=ORIENTED_EDGE('',*,*,#402,.T.);
#138=ORIENTED_EDGE('',*,*,#403,.F.);
#139=ORIENTED_EDGE('',*,*,#404,.T.);
#140=ORIENTED_EDGE('',*,*,#363,.F.);
#141=ORIENTED_EDGE('',*,*,#405,.T.);
#142=ORIENTED_EDGE('',*,*,#406,.F.);
#143=ORIENTED_EDGE('',*,*,#340,.F.);
#144=ORIENTED_EDGE('',*,*,#407,.T.);
#145=ORIENTED_EDGE('',*,*,#408,.T.);
#146=ORIENTED_EDGE('',*,*,#364,.F.);
#147=ORIENTED_EDGE('',*,*,#404,.F.);
#148=ORIENTED_EDGE('',*,*,#409,.F.);
#149=ORIENTED_EDGE('',*,*,#387,.T.);
#150=ORIENTED_EDGE('',*,*,#410,.F.);
#151=ORIENTED_EDGE('',*,*,#345,.T.);
#152=ORIENTED_EDGE('',*,*,#408,.F.);
#153=ORIENTED_EDGE('',*,*,#411,.F.);
#154=ORIENTED_EDGE('',*,*,#412,.T.);
#155=ORIENTED_EDGE('',*,*,#413,.F.);
#156=ORIENTED_EDGE('',*,*,#388,.F.);
#157=ORIENTED_EDGE('',*,*,#412,.F.);
#158=ORIENTED_EDGE('',*,*,#414,.T.);
#159=ORIENTED_EDGE('',*,*,#415,.T.);
#160=ORIENTED_EDGE('',*,*,#416,.T.);
#161=ORIENTED_EDGE('',*,*,#402,.F.);
#162=ORIENTED_EDGE('',*,*,#417,.T.);
#163=ORIENTED_EDGE('',*,*,#334,.T.);
#164=ORIENTED_EDGE('',*,*,#418,.T.);
#165=ORIENTED_EDGE('',*,*,#419,.T.);
#166=ORIENTED_EDGE('',*,*,#415,.F.);
#167=ORIENTED_EDGE('',*,*,#420,.F.);
#168=ORIENTED_EDGE('',*,*,#421,.F.);
#169=ORIENTED_EDGE('',*,*,#418,.F.);
#170=ORIENTED_EDGE('',*,*,#422,.T.);
#171=ORIENTED_EDGE('',*,*,#400,.T.);
#172=ORIENTED_EDGE('',*,*,#401,.F.);
#173=ORIENTED_EDGE('',*,*,#422,.F.);
#174=ORIENTED_EDGE('',*,*,#420,.T.);
#175=ORIENTED_EDGE('',*,*,#414,.F.);
#176=ORIENTED_EDGE('',*,*,#411,.T.);
#177=ORIENTED_EDGE('',*,*,#407,.F.);
#178=ORIENTED_EDGE('',*,*,#339,.F.);
#179=ORIENTED_EDGE('',*,*,#423,.T.);
#180=ORIENTED_EDGE('',*,*,#424,.T.);
#181=ORIENTED_EDGE('',*,*,#425,.F.);
#182=ORIENTED_EDGE('',*,*,#335,.F.);
#183=ORIENTED_EDGE('',*,*,#417,.F.);
#184=ORIENTED_EDGE('',*,*,#395,.F.);
#185=ORIENTED_EDGE('',*,*,#399,.T.);
#186=ORIENTED_EDGE('',*,*,#416,.F.);
#187=ORIENTED_EDGE('',*,*,#419,.F.);
#188=ORIENTED_EDGE('',*,*,#421,.T.);
#189=ORIENTED_EDGE('',*,*,#393,.T.);
#190=ORIENTED_EDGE('',*,*,#391,.T.);
#191=ORIENTED_EDGE('',*,*,#389,.F.);
#192=ORIENTED_EDGE('',*,*,#397,.T.);
#193=ORIENTED_EDGE('',*,*,#426,.F.);
#194=ORIENTED_EDGE('',*,*,#369,.T.);
#195=ORIENTED_EDGE('',*,*,#426,.T.);
#196=ORIENTED_EDGE('',*,*,#398,.T.);
#197=ORIENTED_EDGE('',*,*,#427,.F.);
#198=ORIENTED_EDGE('',*,*,#365,.T.);
#199=ORIENTED_EDGE('',*,*,#396,.T.);
#200=ORIENTED_EDGE('',*,*,#427,.T.);
#201=ORIENTED_EDGE('',*,*,#428,.F.);
#202=ORIENTED_EDGE('',*,*,#366,.T.);
#203=ORIENTED_EDGE('',*,*,#394,.F.);
#204=ORIENTED_EDGE('',*,*,#428,.T.);
#205=ORIENTED_EDGE('',*,*,#429,.F.);
#206=ORIENTED_EDGE('',*,*,#367,.T.);
#207=ORIENTED_EDGE('',*,*,#392,.F.);
#208=ORIENTED_EDGE('',*,*,#429,.T.);
#209=ORIENTED_EDGE('',*,*,#430,.F.);
#210=ORIENTED_EDGE('',*,*,#368,.T.);
#211=ORIENTED_EDGE('',*,*,#390,.T.);
#212=ORIENTED_EDGE('',*,*,#430,.T.);
#213=ORIENTED_EDGE('',*,*,#386,.T.);
#214=ORIENTED_EDGE('',*,*,#431,.F.);
#215=ORIENTED_EDGE('',*,*,#346,.F.);
#216=ORIENTED_EDGE('',*,*,#410,.T.);
#217=ORIENTED_EDGE('',*,*,#385,.F.);
#218=ORIENTED_EDGE('',*,*,#432,.F.);
#219=ORIENTED_EDGE('',*,*,#347,.T.);
#220=ORIENTED_EDGE('',*,*,#431,.T.);
#221=ORIENTED_EDGE('',*,*,#384,.T.);
#222=ORIENTED_EDGE('',*,*,#433,.F.);
#223=ORIENTED_EDGE('',*,*,#348,.F.);
#224=ORIENTED_EDGE('',*,*,#432,.T.);
#225=ORIENTED_EDGE('',*,*,#383,.F.);
#226=ORIENTED_EDGE('',*,*,#434,.F.);
#227=ORIENTED_EDGE('',*,*,#349,.T.);
#228=ORIENTED_EDGE('',*,*,#433,.T.);
#229=ORIENTED_EDGE('',*,*,#382,.F.);
#230=ORIENTED_EDGE('',*,*,#435,.F.);
#231=ORIENTED_EDGE('',*,*,#350,.T.);
#232=ORIENTED_EDGE('',*,*,#434,.T.);
#233=ORIENTED_EDGE('',*,*,#381,.F.);
#234=ORIENTED_EDGE('',*,*,#436,.F.);
#235=ORIENTED_EDGE('',*,*,#351,.T.);
#236=ORIENTED_EDGE('',*,*,#435,.T.);
#237=ORIENTED_EDGE('',*,*,#380,.F.);
#238=ORIENTED_EDGE('',*,*,#437,.F.);
#239=ORIENTED_EDGE('',*,*,#352,.T.);
#240=ORIENTED_EDGE('',*,*,#436,.T.);
#241=ORIENTED_EDGE('',*,*,#379,.T.);
#242=ORIENTED_EDGE('',*,*,#438,.F.);
#243=ORIENTED_EDGE('',*,*,#353,.F.);
#244=ORIENTED_EDGE('',*,*,#437,.T.);
#245=ORIENTED_EDGE('',*,*,#378,.T.);
#246=ORIENTED_EDGE('',*,*,#439,.F.);
#247=ORIENTED_EDGE('',*,*,#354,.F.);
#248=ORIENTED_EDGE('',*,*,#438,.T.);
#249=ORIENTED_EDGE('',*,*,#377,.F.);
#250=ORIENTED_EDGE('',*,*,#440,.F.);
#251=ORIENTED_EDGE('',*,*,#355,.T.);
#252=ORIENTED_EDGE('',*,*,#439,.T.);
#253=ORIENTED_EDGE('',*,*,#376,.F.);
#254=ORIENTED_EDGE('',*,*,#441,.F.);
#255=ORIENTED_EDGE('',*,*,#356,.T.);
#256=ORIENTED_EDGE('',*,*,#440,.T.);
#257=ORIENTED_EDGE('',*,*,#375,.F.);
#258=ORIENTED_EDGE('',*,*,#442,.F.);
#259=ORIENTED_EDGE('',*,*,#357,.T.);
#260=ORIENTED_EDGE('',*,*,#441,.T.);
#261=ORIENTED_EDGE('',*,*,#374,.T.);
#262=ORIENTED_EDGE('',*,*,#443,.F.);
#263=ORIENTED_EDGE('',*,*,#358,.F.);
#264=ORIENTED_EDGE('',*,*,#442,.T.);
#265=ORIENTED_EDGE('',*,*,#373,.T.);
#266=ORIENTED_EDGE('',*,*,#444,.F.);
#267=ORIENTED_EDGE('',*,*,#359,.F.);
#268=ORIENTED_EDGE('',*,*,#443,.T.);
#269=ORIENTED_EDGE('',*,*,#372,.F.);
#270=ORIENTED_EDGE('',*,*,#445,.F.);
#271=ORIENTED_EDGE('',*,*,#360,.T.);
#272=ORIENTED_EDGE('',*,*,#444,.T.);
#273=ORIENTED_EDGE('',*,*,#371,.F.);
#274=ORIENTED_EDGE('',*,*,#446,.F.);
#275=ORIENTED_EDGE('',*,*,#361,.T.);
#276=ORIENTED_EDGE('',*,*,#445,.T.);
#277=ORIENTED_EDGE('',*,*,#447,.F.);
#278=ORIENTED_EDGE('',*,*,#448,.F.);
#279=ORIENTED_EDGE('',*,*,#405,.F.);
#280=ORIENTED_EDGE('',*,*,#362,.T.);
#281=ORIENTED_EDGE('',*,*,#446,.T.);
#282=ORIENTED_EDGE('',*,*,#370,.F.);
#283=ORIENTED_EDGE('',*,*,#332,.F.);
#284=ORIENTED_EDGE('',*,*,#425,.T.);
#285=ORIENTED_EDGE('',*,*,#449,.F.);
#286=ORIENTED_EDGE('',*,*,#450,.F.);
#287=ORIENTED_EDGE('',*,*,#336,.T.);
#288=ORIENTED_EDGE('',*,*,#423,.F.);
#289=ORIENTED_EDGE('',*,*,#338,.F.);
#290=ORIENTED_EDGE('',*,*,#451,.T.);
#291=ORIENTED_EDGE('',*,*,#452,.T.);
#292=ORIENTED_EDGE('',*,*,#424,.F.);
#293=ORIENTED_EDGE('',*,*,#452,.F.);
#294=ORIENTED_EDGE('',*,*,#453,.T.);
#295=ORIENTED_EDGE('',*,*,#449,.T.);
#296=ORIENTED_EDGE('',*,*,#450,.T.);
#297=ORIENTED_EDGE('',*,*,#453,.F.);
#298=ORIENTED_EDGE('',*,*,#451,.F.);
#299=ORIENTED_EDGE('',*,*,#337,.F.);
#300=ORIENTED_EDGE('',*,*,#454,.T.);
#301=ORIENTED_EDGE('',*,*,#455,.F.);
#302=ORIENTED_EDGE('',*,*,#455,.T.);
#303=ORIENTED_EDGE('',*,*,#456,.T.);
#304=ORIENTED_EDGE('',*,*,#457,.F.);
#305=ORIENTED_EDGE('',*,*,#457,.T.);
#306=ORIENTED_EDGE('',*,*,#458,.T.);
#307=ORIENTED_EDGE('',*,*,#459,.T.);
#308=ORIENTED_EDGE('',*,*,#459,.F.);
#309=ORIENTED_EDGE('',*,*,#460,.T.);
#310=ORIENTED_EDGE('',*,*,#461,.T.);
#311=ORIENTED_EDGE('',*,*,#461,.F.);
#312=ORIENTED_EDGE('',*,*,#341,.F.);
#313=ORIENTED_EDGE('',*,*,#456,.F.);
#314=ORIENTED_EDGE('',*,*,#460,.F.);
#315=ORIENTED_EDGE('',*,*,#342,.F.);
#316=ORIENTED_EDGE('',*,*,#458,.F.);
#317=ORIENTED_EDGE('',*,*,#343,.F.);
#318=ORIENTED_EDGE('',*,*,#344,.F.);
#319=ORIENTED_EDGE('',*,*,#454,.F.);
#320=ORIENTED_EDGE('',*,*,#413,.T.);
#321=ORIENTED_EDGE('',*,*,#462,.F.);
#322=ORIENTED_EDGE('',*,*,#462,.T.);
#323=ORIENTED_EDGE('',*,*,#406,.T.);
#324=ORIENTED_EDGE('',*,*,#463,.T.);
#325=ORIENTED_EDGE('',*,*,#447,.T.);
#326=ORIENTED_EDGE('',*,*,#331,.T.);
#327=ORIENTED_EDGE('',*,*,#409,.T.);
#328=ORIENTED_EDGE('',*,*,#403,.T.);
#329=ORIENTED_EDGE('',*,*,#448,.T.);
#330=ORIENTED_EDGE('',*,*,#463,.F.);
#331=EDGE_CURVE('',#464,#465,#564,.T.);
#332=EDGE_CURVE('',#464,#466,#565,.T.);
#333=EDGE_CURVE('',#467,#466,#566,.T.);
#334=EDGE_CURVE('',#468,#467,#567,.T.);
#335=EDGE_CURVE('',#468,#469,#568,.T.);
#336=EDGE_CURVE('',#470,#469,#569,.T.);
#337=EDGE_CURVE('',#470,#471,#570,.T.);
#338=EDGE_CURVE('',#471,#472,#571,.T.);
#339=EDGE_CURVE('',#472,#473,#572,.T.);
#340=EDGE_CURVE('',#473,#465,#573,.T.);
#341=EDGE_CURVE('',#474,#474,#31,.F.);
#342=EDGE_CURVE('',#475,#475,#32,.F.);
#343=EDGE_CURVE('',#476,#476,#33,.F.);
#344=EDGE_CURVE('',#477,#477,#34,.F.);
#345=EDGE_CURVE('',#478,#479,#574,.T.);
#346=EDGE_CURVE('',#478,#480,#575,.T.);
#347=EDGE_CURVE('',#481,#480,#576,.T.);
#348=EDGE_CURVE('',#481,#482,#577,.T.);
#349=EDGE_CURVE('',#483,#482,#578,.T.);
#350=EDGE_CURVE('',#484,#483,#579,.T.);
#351=EDGE_CURVE('',#485,#484,#580,.T.);
#352=EDGE_CURVE('',#486,#485,#581,.T.);
#353=EDGE_CURVE('',#486,#487,#582,.T.);
#354=EDGE_CURVE('',#487,#488,#583,.T.);
#355=EDGE_CURVE('',#489,#488,#584,.T.);
#356=EDGE_CURVE('',#490,#489,#585,.T.);
#357=EDGE_CURVE('',#491,#490,#586,.T.);
#358=EDGE_CURVE('',#491,#492,#587,.T.);
#359=EDGE_CURVE('',#492,#493,#588,.T.);
#360=EDGE_CURVE('',#494,#493,#589,.T.);
#361=EDGE_CURVE('',#495,#494,#590,.T.);
#362=EDGE_CURVE('',#496,#495,#591,.T.);
#363=EDGE_CURVE('',#496,#497,#592,.T.);
#364=EDGE_CURVE('',#497,#479,#593,.T.);
#365=EDGE_CURVE('',#498,#498,#35,.T.);
#366=EDGE_CURVE('',#499,#499,#36,.T.);
#367=EDGE_CURVE('',#500,#500,#37,.T.);
#368=EDGE_CURVE('',#501,#501,#38,.T.);
#369=EDGE_CURVE('',#502,#502,#39,.T.);
#370=EDGE_CURVE('',#466,#503,#594,.T.);
#371=EDGE_CURVE('',#503,#504,#595,.T.);
#372=EDGE_CURVE('',#504,#505,#596,.T.);
#373=EDGE_CURVE('',#506,#505,#597,.T.);
#374=EDGE_CURVE('',#507,#506,#598,.T.);
#375=EDGE_CURVE('',#507,#508,#599,.T.);
#376=EDGE_CURVE('',#508,#509,#600,.T.);
#377=EDGE_CURVE('',#509,#510,#601,.T.);
#378=EDGE_CURVE('',#511,#510,#602,.T.);
#379=EDGE_CURVE('',#512,#511,#603,.T.);
#380=EDGE_CURVE('',#512,#513,#604,.T.);
#381=EDGE_CURVE('',#513,#514,#605,.T.);
#382=EDGE_CURVE('',#514,#515,#606,.T.);
#383=EDGE_CURVE('',#515,#516,#607,.T.);
#384=EDGE_CURVE('',#517,#516,#608,.T.);
#385=EDGE_CURVE('',#517,#518,#609,.T.);
#386=EDGE_CURVE('',#519,#518,#610,.T.);
#387=EDGE_CURVE('',#520,#519,#611,.T.);
#388=EDGE_CURVE('',#520,#467,#612,.T.);
#389=EDGE_CURVE('',#521,#521,#40,.T.);
#390=EDGE_CURVE('',#522,#522,#41,.T.);
#391=EDGE_CURVE('',#523,#523,#42,.T.);
#392=EDGE_CURVE('',#524,#524,#43,.T.);
#393=EDGE_CURVE('',#525,#525,#44,.T.);
#394=EDGE_CURVE('',#526,#526,#45,.T.);
#395=EDGE_CURVE('',#527,#527,#46,.T.);
#396=EDGE_CURVE('',#528,#528,#47,.T.);
#397=EDGE_CURVE('',#529,#529,#48,.T.);
#398=EDGE_CURVE('',#530,#530,#49,.F.);
#399=EDGE_CURVE('',#531,#532,#613,.T.);
#400=EDGE_CURVE('',#533,#531,#614,.T.);
#401=EDGE_CURVE('',#533,#534,#615,.T.);
#402=EDGE_CURVE('',#534,#532,#616,.T.);
#403=EDGE_CURVE('',#535,#536,#617,.F.);
#404=EDGE_CURVE('',#535,#497,#618,.T.);
#405=EDGE_CURVE('',#496,#536,#619,.T.);
#406=EDGE_CURVE('',#465,#537,#620,.T.);
#407=EDGE_CURVE('',#473,#538,#621,.T.);
#408=EDGE_CURVE('',#538,#479,#622,.T.);
#409=EDGE_CURVE('',#537,#535,#623,.F.);
#410=EDGE_CURVE('',#478,#519,#624,.T.);
#411=EDGE_CURVE('',#539,#538,#625,.T.);
#412=EDGE_CURVE('',#539,#520,#626,.T.);
#413=EDGE_CURVE('',#540,#540,#50,.T.);
#414=EDGE_CURVE('',#539,#541,#627,.T.);
#415=EDGE_CURVE('',#541,#542,#628,.T.);
#416=EDGE_CURVE('',#542,#532,#629,.T.);
#417=EDGE_CURVE('',#534,#468,#630,.T.);
#418=EDGE_CURVE('',#543,#544,#631,.T.);
#419=EDGE_CURVE('',#544,#542,#632,.T.);
#420=EDGE_CURVE('',#543,#541,#633,.T.);
#421=EDGE_CURVE('',#544,#531,#634,.T.);
#422=EDGE_CURVE('',#543,#533,#635,.T.);
#423=EDGE_CURVE('',#472,#545,#636,.T.);
#424=EDGE_CURVE('',#545,#546,#637,.T.);
#425=EDGE_CURVE('',#469,#546,#638,.T.);
#426=EDGE_CURVE('',#547,#547,#51,.T.);
#427=EDGE_CURVE('',#548,#548,#52,.T.);
#428=EDGE_CURVE('',#549,#549,#53,.T.);
#429=EDGE_CURVE('',#550,#550,#54,.T.);
#430=EDGE_CURVE('',#551,#551,#55,.T.);
#431=EDGE_CURVE('',#480,#518,#639,.T.);
#432=EDGE_CURVE('',#481,#517,#640,.T.);
#433=EDGE_CURVE('',#482,#516,#641,.T.);
#434=EDGE_CURVE('',#483,#515,#642,.T.);
#435=EDGE_CURVE('',#484,#514,#643,.T.);
#436=EDGE_CURVE('',#485,#513,#644,.T.);
#437=EDGE_CURVE('',#486,#512,#645,.T.);
#438=EDGE_CURVE('',#487,#511,#646,.T.);
#439=EDGE_CURVE('',#488,#510,#647,.T.);
#440=EDGE_CURVE('',#489,#509,#648,.T.);
#441=EDGE_CURVE('',#490,#508,#649,.T.);
#442=EDGE_CURVE('',#491,#507,#650,.T.);
#443=EDGE_CURVE('',#492,#506,#651,.T.);
#444=EDGE_CURVE('',#493,#505,#652,.T.);
#445=EDGE_CURVE('',#494,#504,#653,.T.);
#446=EDGE_CURVE('',#495,#503,#654,.T.);
#447=EDGE_CURVE('',#552,#464,#655,.T.);
#448=EDGE_CURVE('',#536,#552,#656,.F.);
#449=EDGE_CURVE('',#553,#546,#657,.T.);
#450=EDGE_CURVE('',#470,#553,#658,.T.);
#451=EDGE_CURVE('',#471,#554,#659,.T.);
#452=EDGE_CURVE('',#554,#545,#660,.T.);
#453=EDGE_CURVE('',#554,#553,#661,.T.);
#454=EDGE_CURVE('',#555,#555,#56,.T.);
#455=EDGE_CURVE('',#556,#556,#57,.T.);
#456=EDGE_CURVE('',#557,#557,#58,.T.);
#457=EDGE_CURVE('',#558,#558,#59,.T.);
#458=EDGE_CURVE('',#559,#559,#60,.T.);
#459=EDGE_CURVE('',#560,#560,#61,.T.);
#460=EDGE_CURVE('',#561,#561,#62,.T.);
#461=EDGE_CURVE('',#562,#562,#63,.T.);
#462=EDGE_CURVE('',#563,#563,#64,.T.);
#463=EDGE_CURVE('',#537,#552,#662,.T.);
#464=VERTEX_POINT('',#1488);
#465=VERTEX_POINT('',#1489);
#466=VERTEX_POINT('',#1491);
#467=VERTEX_POINT('',#1493);
#468=VERTEX_POINT('',#1495);
#469=VERTEX_POINT('',#1497);
#470=VERTEX_POINT('',#1499);
#471=VERTEX_POINT('',#1501);
#472=VERTEX_POINT('',#1503);
#473=VERTEX_POINT('',#1505);
#474=VERTEX_POINT('',#1509);
#475=VERTEX_POINT('',#1511);
#476=VERTEX_POINT('',#1513);
#477=VERTEX_POINT('',#1515);
#478=VERTEX_POINT('',#1517);
#479=VERTEX_POINT('',#1518);
#480=VERTEX_POINT('',#1520);
#481=VERTEX_POINT('',#1522);
#482=VERTEX_POINT('',#1524);
#483=VERTEX_POINT('',#1526);
#484=VERTEX_POINT('',#1528);
#485=VERTEX_POINT('',#1530);
#486=VERTEX_POINT('',#1532);
#487=VERTEX_POINT('',#1534);
#488=VERTEX_POINT('',#1536);
#489=VERTEX_POINT('',#1538);
#490=VERTEX_POINT('',#1540);
#491=VERTEX_POINT('',#1542);
#492=VERTEX_POINT('',#1544);
#493=VERTEX_POINT('',#1546);
#494=VERTEX_POINT('',#1548);
#495=VERTEX_POINT('',#1550);
#496=VERTEX_POINT('',#1552);
#497=VERTEX_POINT('',#1554);
#498=VERTEX_POINT('',#1558);
#499=VERTEX_POINT('',#1560);
#500=VERTEX_POINT('',#1562);
#501=VERTEX_POINT('',#1564);
#502=VERTEX_POINT('',#1566);
#503=VERTEX_POINT('',#1568);
#504=VERTEX_POINT('',#1570);
#505=VERTEX_POINT('',#1572);
#506=VERTEX_POINT('',#1574);
#507=VERTEX_POINT('',#1576);
#508=VERTEX_POINT('',#1578);
#509=VERTEX_POINT('',#1580);
#510=VERTEX_POINT('',#1582);
#511=VERTEX_POINT('',#1584);
#512=VERTEX_POINT('',#1586);
#513=VERTEX_POINT('',#1588);
#514=VERTEX_POINT('',#1590);
#515=VERTEX_POINT('',#1592);
#516=VERTEX_POINT('',#1594);
#517=VERTEX_POINT('',#1596);
#518=VERTEX_POINT('',#1598);
#519=VERTEX_POINT('',#1600);
#520=VERTEX_POINT('',#1602);
#521=VERTEX_POINT('',#1606);
#522=VERTEX_POINT('',#1608);
#523=VERTEX_POINT('',#1611);
#524=VERTEX_POINT('',#1613);
#525=VERTEX_POINT('',#1616);
#526=VERTEX_POINT('',#1618);
#527=VERTEX_POINT('',#1621);
#528=VERTEX_POINT('',#1623);
#529=VERTEX_POINT('',#1626);
#530=VERTEX_POINT('',#1628);
#531=VERTEX_POINT('',#1631);
#532=VERTEX_POINT('',#1632);
#533=VERTEX_POINT('',#1634);
#534=VERTEX_POINT('',#1636);
#535=VERTEX_POINT('',#1640);
#536=VERTEX_POINT('',#1641);
#537=VERTEX_POINT('',#1646);
#538=VERTEX_POINT('',#1648);
#539=VERTEX_POINT('',#1654);
#540=VERTEX_POINT('',#1658);
#541=VERTEX_POINT('',#1660);
#542=VERTEX_POINT('',#1662);
#543=VERTEX_POINT('',#1667);
#544=VERTEX_POINT('',#1668);
#545=VERTEX_POINT('',#1676);
#546=VERTEX_POINT('',#1678);
#547=VERTEX_POINT('',#1683);
#548=VERTEX_POINT('',#1687);
#549=VERTEX_POINT('',#1691);
#550=VERTEX_POINT('',#1695);
#551=VERTEX_POINT('',#1699);
#552=VERTEX_POINT('',#1735);
#553=VERTEX_POINT('',#1739);
#554=VERTEX_POINT('',#1743);
#555=VERTEX_POINT('',#1750);
#556=VERTEX_POINT('',#1752);
#557=VERTEX_POINT('',#1756);
#558=VERTEX_POINT('',#1758);
#559=VERTEX_POINT('',#1762);
#560=VERTEX_POINT('',#1764);
#561=VERTEX_POINT('',#1768);
#562=VERTEX_POINT('',#1770);
#563=VERTEX_POINT('',#1778);
#564=LINE('',#1487,#663);
#565=LINE('',#1490,#664);
#566=LINE('',#1492,#665);
#567=LINE('',#1494,#666);
#568=LINE('',#1496,#667);
#569=LINE('',#1498,#668);
#570=LINE('',#1500,#669);
#571=LINE('',#1502,#670);
#572=LINE('',#1504,#671);
#573=LINE('',#1506,#672);
#574=LINE('',#1516,#673);
#575=LINE('',#1519,#674);
#576=LINE('',#1521,#675);
#577=LINE('',#1523,#676);
#578=LINE('',#1525,#677);
#579=LINE('',#1527,#678);
#580=LINE('',#1529,#679);
#581=LINE('',#1531,#680);
#582=LINE('',#1533,#681);
#583=LINE('',#1535,#682);
#584=LINE('',#1537,#683);
#585=LINE('',#1539,#684);
#586=LINE('',#1541,#685);
#587=LINE('',#1543,#686);
#588=LINE('',#1545,#687);
#589=LINE('',#1547,#688);
#590=LINE('',#1549,#689);
#591=LINE('',#1551,#690);
#592=LINE('',#1553,#691);
#593=LINE('',#1555,#692);
#594=LINE('',#1567,#693);
#595=LINE('',#1569,#694);
#596=LINE('',#1571,#695);
#597=LINE('',#1573,#696);
#598=LINE('',#1575,#697);
#599=LINE('',#1577,#698);
#600=LINE('',#1579,#699);
#601=LINE('',#1581,#700);
#602=LINE('',#1583,#701);
#603=LINE('',#1585,#702);
#604=LINE('',#1587,#703);
#605=LINE('',#1589,#704);
#606=LINE('',#1591,#705);
#607=LINE('',#1593,#706);
#608=LINE('',#1595,#707);
#609=LINE('',#1597,#708);
#610=LINE('',#1599,#709);
#611=LINE('',#1601,#710);
#612=LINE('',#1603,#711);
#613=LINE('',#1630,#712);
#614=LINE('',#1633,#713);
#615=LINE('',#1635,#714);
#616=LINE('',#1637,#715);
#617=LINE('',#1639,#716);
#618=LINE('',#1642,#717);
#619=LINE('',#1643,#718);
#620=LINE('',#1645,#719);
#621=LINE('',#1647,#720);
#622=LINE('',#1649,#721);
#623=LINE('',#1650,#722);
#624=LINE('',#1652,#723);
#625=LINE('',#1653,#724);
#626=LINE('',#1655,#725);
#627=LINE('',#1659,#726);
#628=LINE('',#1661,#727);
#629=LINE('',#1663,#728);
#630=LINE('',#1664,#729);
#631=LINE('',#1666,#730);
#632=LINE('',#1669,#731);
#633=LINE('',#1670,#732);
#634=LINE('',#1672,#733);
#635=LINE('',#1673,#734);
#636=LINE('',#1675,#735);
#637=LINE('',#1677,#736);
#638=LINE('',#1679,#737);
#639=LINE('',#1702,#738);
#640=LINE('',#1704,#739);
#641=LINE('',#1706,#740);
#642=LINE('',#1708,#741);
#643=LINE('',#1710,#742);
#644=LINE('',#1712,#743);
#645=LINE('',#1714,#744);
#646=LINE('',#1716,#745);
#647=LINE('',#1718,#746);
#648=LINE('',#1720,#747);
#649=LINE('',#1722,#748);
#650=LINE('',#1724,#749);
#651=LINE('',#1726,#750);
#652=LINE('',#1728,#751);
#653=LINE('',#1730,#752);
#654=LINE('',#1732,#753);
#655=LINE('',#1734,#754);
#656=LINE('',#1736,#755);
#657=LINE('',#1738,#756);
#658=LINE('',#1740,#757);
#659=LINE('',#1742,#758);
#660=LINE('',#1744,#759);
#661=LINE('',#1746,#760);
#662=LINE('',#1781,#761);
#663=VECTOR('',#1192,1.);
#664=VECTOR('',#1193,1.);
#665=VECTOR('',#1194,1.);
#666=VECTOR('',#1195,1.);
#667=VECTOR('',#1196,1.);
#668=VECTOR('',#1197,1.);
#669=VECTOR('',#1198,1.);
#670=VECTOR('',#1199,1.);
#671=VECTOR('',#1200,1.);
#672=VECTOR('',#1201,1.);
#673=VECTOR('',#1212,1.);
#674=VECTOR('',#1213,1.);
#675=VECTOR('',#1214,1.);
#676=VECTOR('',#1215,1.);
#677=VECTOR('',#1216,1.);
#678=VECTOR('',#1217,1.);
#679=VECTOR('',#1218,1.);
#680=VECTOR('',#1219,1.);
#681=VECTOR('',#1220,1.);
#682=VECTOR('',#1221,1.);
#683=VECTOR('',#1222,1.);
#684=VECTOR('',#1223,1.);
#685=VECTOR('',#1224,1.);
#686=VECTOR('',#1225,1.);
#687=VECTOR('',#1226,1.);
#688=VECTOR('',#1227,1.);
#689=VECTOR('',#1228,1.);
#690=VECTOR('',#1229,1.);
#691=VECTOR('',#1230,1.);
#692=VECTOR('',#1231,1.);
#693=VECTOR('',#1244,1.);
#694=VECTOR('',#1245,1.);
#695=VECTOR('',#1246,1.);
#696=VECTOR('',#1247,1.);
#697=VECTOR('',#1248,1.);
#698=VECTOR('',#1249,1.);
#699=VECTOR('',#1250,1.);
#700=VECTOR('',#1251,1.);
#701=VECTOR('',#1252,1.);
#702=VECTOR('',#1253,1.);
#703=VECTOR('',#1254,1.);
#704=VECTOR('',#1255,1.);
#705=VECTOR('',#1256,1.);
#706=VECTOR('',#1257,1.);
#707=VECTOR('',#1258,1.);
#708=VECTOR('',#1259,1.);
#709=VECTOR('',#1260,1.);
#710=VECTOR('',#1261,1.);
#711=VECTOR('',#1262,1.);
#712=VECTOR('',#1295,1.);
#713=VECTOR('',#1296,1.);
#714=VECTOR('',#1297,1.);
#715=VECTOR('',#1298,1.);
#716=VECTOR('',#1301,1.);
#717=VECTOR('',#1302,1.);
#718=VECTOR('',#1303,1.);
#719=VECTOR('',#1306,1.);
#720=VECTOR('',#1307,1.);
#721=VECTOR('',#1308,1.);
#722=VECTOR('',#1309,1.);
#723=VECTOR('',#1312,1.);
#724=VECTOR('',#1313,1.);
#725=VECTOR('',#1314,1.);
#726=VECTOR('',#1319,1.);
#727=VECTOR('',#1320,1.);
#728=VECTOR('',#1321,1.);
#729=VECTOR('',#1322,1.);
#730=VECTOR('',#1325,1.);
#731=VECTOR('',#1326,1.);
#732=VECTOR('',#1327,1.);
#733=VECTOR('',#1330,1.);
#734=VECTOR('',#1331,1.);
#735=VECTOR('',#1334,1.);
#736=VECTOR('',#1335,1.);
#737=VECTOR('',#1336,1.);
#738=VECTOR('',#1371,1.);
#739=VECTOR('',#1374,1.);
#740=VECTOR('',#1377,1.);
#741=VECTOR('',#1380,1.);
#742=VECTOR('',#1383,1.);
#743=VECTOR('',#1386,1.);
#744=VECTOR('',#1389,1.);
#745=VECTOR('',#1392,1.);
#746=VECTOR('',#1395,1.);
#747=VECTOR('',#1398,1.);
#748=VECTOR('',#1401,1.);
#749=VECTOR('',#1404,1.);
#750=VECTOR('',#1407,1.);
#751=VECTOR('',#1410,1.);
#752=VECTOR('',#1413,1.);
#753=VECTOR('',#1416,1.);
#754=VECTOR('',#1419,1.);
#755=VECTOR('',#1420,1.);
#756=VECTOR('',#1423,1.);
#757=VECTOR('',#1424,1.);
#758=VECTOR('',#1427,1.);
#759=VECTOR('',#1428,1.);
#760=VECTOR('',#1431,1.);
#761=VECTOR('',#1482,1.);
#762=EDGE_LOOP('',(#65,#66,#67,#68,#69,#70,#71,#72,#73,#74));
#763=EDGE_LOOP('',(#75));
#764=EDGE_LOOP('',(#76));
#765=EDGE_LOOP('',(#77));
#766=EDGE_LOOP('',(#78));
#767=EDGE_LOOP('',(#79,#80,#81,#82,#83,#84,#85,#86,#87,#88,#89,#90,#91,
#92,#93,#94,#95,#96,#97,#98));
#768=EDGE_LOOP('',(#99));
#769=EDGE_LOOP('',(#100));
#770=EDGE_LOOP('',(#101));
#771=EDGE_LOOP('',(#102));
#772=EDGE_LOOP('',(#103));
#773=EDGE_LOOP('',(#104,#105,#106,#107,#108,#109,#110,#111,#112,#113,#114,
#115,#116,#117,#118,#119,#120,#121,#122,#123));
#774=EDGE_LOOP('',(#124));
#775=EDGE_LOOP('',(#125));
#776=EDGE_LOOP('',(#126));
#777=EDGE_LOOP('',(#127));
#778=EDGE_LOOP('',(#128));
#779=EDGE_LOOP('',(#129));
#780=EDGE_LOOP('',(#130));
#781=EDGE_LOOP('',(#131));
#782=EDGE_LOOP('',(#132));
#783=EDGE_LOOP('',(#133));
#784=EDGE_LOOP('',(#134,#135,#136,#137));
#785=EDGE_LOOP('',(#138,#139,#140,#141));
#786=EDGE_LOOP('',(#142,#143,#144,#145,#146,#147,#148));
#787=EDGE_LOOP('',(#149,#150,#151,#152,#153,#154));
#788=EDGE_LOOP('',(#155));
#789=EDGE_LOOP('',(#156,#157,#158,#159,#160,#161,#162,#163));
#790=EDGE_LOOP('',(#164,#165,#166,#167));
#791=EDGE_LOOP('',(#168,#169,#170,#171));
#792=EDGE_LOOP('',(#172,#173,#174,#175,#176,#177,#178,#179,#180,#181,#182,
#183));
#793=EDGE_LOOP('',(#184));
#794=EDGE_LOOP('',(#185,#186,#187,#188));
#795=EDGE_LOOP('',(#189));
#796=EDGE_LOOP('',(#190));
#797=EDGE_LOOP('',(#191));
#798=EDGE_LOOP('',(#192));
#799=EDGE_LOOP('',(#193));
#800=EDGE_LOOP('',(#194));
#801=EDGE_LOOP('',(#195));
#802=EDGE_LOOP('',(#196));
#803=EDGE_LOOP('',(#197));
#804=EDGE_LOOP('',(#198));
#805=EDGE_LOOP('',(#199));
#806=EDGE_LOOP('',(#200));
#807=EDGE_LOOP('',(#201));
#808=EDGE_LOOP('',(#202));
#809=EDGE_LOOP('',(#203));
#810=EDGE_LOOP('',(#204));
#811=EDGE_LOOP('',(#205));
#812=EDGE_LOOP('',(#206));
#813=EDGE_LOOP('',(#207));
#814=EDGE_LOOP('',(#208));
#815=EDGE_LOOP('',(#209));
#816=EDGE_LOOP('',(#210));
#817=EDGE_LOOP('',(#211));
#818=EDGE_LOOP('',(#212));
#819=EDGE_LOOP('',(#213,#214,#215,#216));
#820=EDGE_LOOP('',(#217,#218,#219,#220));
#821=EDGE_LOOP('',(#221,#222,#223,#224));
#822=EDGE_LOOP('',(#225,#226,#227,#228));
#823=EDGE_LOOP('',(#229,#230,#231,#232));
#824=EDGE_LOOP('',(#233,#234,#235,#236));
#825=EDGE_LOOP('',(#237,#238,#239,#240));
#826=EDGE_LOOP('',(#241,#242,#243,#244));
#827=EDGE_LOOP('',(#245,#246,#247,#248));
#828=EDGE_LOOP('',(#249,#250,#251,#252));
#829=EDGE_LOOP('',(#253,#254,#255,#256));
#830=EDGE_LOOP('',(#257,#258,#259,#260));
#831=EDGE_LOOP('',(#261,#262,#263,#264));
#832=EDGE_LOOP('',(#265,#266,#267,#268));
#833=EDGE_LOOP('',(#269,#270,#271,#272));
#834=EDGE_LOOP('',(#273,#274,#275,#276));
#835=EDGE_LOOP('',(#277,#278,#279,#280,#281,#282,#283));
#836=EDGE_LOOP('',(#284,#285,#286,#287));
#837=EDGE_LOOP('',(#288,#289,#290,#291));
#838=EDGE_LOOP('',(#292,#293,#294,#295));
#839=EDGE_LOOP('',(#296,#297,#298,#299));
#840=EDGE_LOOP('',(#300));
#841=EDGE_LOOP('',(#301));
#842=EDGE_LOOP('',(#302));
#843=EDGE_LOOP('',(#303));
#844=EDGE_LOOP('',(#304));
#845=EDGE_LOOP('',(#305));
#846=EDGE_LOOP('',(#306));
#847=EDGE_LOOP('',(#307));
#848=EDGE_LOOP('',(#308));
#849=EDGE_LOOP('',(#309));
#850=EDGE_LOOP('',(#310));
#851=EDGE_LOOP('',(#311));
#852=EDGE_LOOP('',(#312));
#853=EDGE_LOOP('',(#313));
#854=EDGE_LOOP('',(#314));
#855=EDGE_LOOP('',(#315));
#856=EDGE_LOOP('',(#316));
#857=EDGE_LOOP('',(#317));
#858=EDGE_LOOP('',(#318));
#859=EDGE_LOOP('',(#319));
#860=EDGE_LOOP('',(#320));
#861=EDGE_LOOP('',(#321));
#862=EDGE_LOOP('',(#322));
#863=EDGE_LOOP('',(#323,#324,#325,#326));
#864=EDGE_LOOP('',(#327,#328,#329,#330));
#865=FACE_BOUND('',#762,.T.);
#866=FACE_BOUND('',#763,.T.);
#867=FACE_BOUND('',#764,.T.);
#868=FACE_BOUND('',#765,.T.);
#869=FACE_BOUND('',#766,.T.);
#870=FACE_BOUND('',#767,.T.);
#871=FACE_BOUND('',#768,.T.);
#872=FACE_BOUND('',#769,.T.);
#873=FACE_BOUND('',#770,.T.);
#874=FACE_BOUND('',#771,.T.);
#875=FACE_BOUND('',#772,.T.);
#876=FACE_BOUND('',#773,.T.);
#877=FACE_BOUND('',#774,.T.);
#878=FACE_BOUND('',#775,.T.);
#879=FACE_BOUND('',#776,.T.);
#880=FACE_BOUND('',#777,.T.);
#881=FACE_BOUND('',#778,.T.);
#882=FACE_BOUND('',#779,.T.);
#883=FACE_BOUND('',#780,.T.);
#884=FACE_BOUND('',#781,.T.);
#885=FACE_BOUND('',#782,.T.);
#886=FACE_BOUND('',#783,.T.);
#887=FACE_BOUND('',#784,.T.);
#888=FACE_BOUND('',#785,.T.);
#889=FACE_BOUND('',#786,.T.);
#890=FACE_BOUND('',#787,.T.);
#891=FACE_BOUND('',#788,.T.);
#892=FACE_BOUND('',#789,.T.);
#893=FACE_BOUND('',#790,.T.);
#894=FACE_BOUND('',#791,.T.);
#895=FACE_BOUND('',#792,.T.);
#896=FACE_BOUND('',#793,.T.);
#897=FACE_BOUND('',#794,.T.);
#898=FACE_BOUND('',#795,.T.);
#899=FACE_BOUND('',#796,.T.);
#900=FACE_BOUND('',#797,.T.);
#901=FACE_BOUND('',#798,.T.);
#902=FACE_BOUND('',#799,.T.);
#903=FACE_BOUND('',#800,.T.);
#904=FACE_BOUND('',#801,.T.);
#905=FACE_BOUND('',#802,.T.);
#906=FACE_BOUND('',#803,.T.);
#907=FACE_BOUND('',#804,.T.);
#908=FACE_BOUND('',#805,.T.);
#909=FACE_BOUND('',#806,.T.);
#910=FACE_BOUND('',#807,.T.);
#911=FACE_BOUND('',#808,.T.);
#912=FACE_BOUND('',#809,.T.);
#913=FACE_BOUND('',#810,.T.);
#914=FACE_BOUND('',#811,.T.);
#915=FACE_BOUND('',#812,.T.);
#916=FACE_BOUND('',#813,.T.);
#917=FACE_BOUND('',#814,.T.);
#918=FACE_BOUND('',#815,.T.);
#919=FACE_BOUND('',#816,.T.);
#920=FACE_BOUND('',#817,.T.);
#921=FACE_BOUND('',#818,.T.);
#922=FACE_BOUND('',#819,.T.);
#923=FACE_BOUND('',#820,.T.);
#924=FACE_BOUND('',#821,.T.);
#925=FACE_BOUND('',#822,.T.);
#926=FACE_BOUND('',#823,.T.);
#927=FACE_BOUND('',#824,.T.);
#928=FACE_BOUND('',#825,.T.);
#929=FACE_BOUND('',#826,.T.);
#930=FACE_BOUND('',#827,.T.);
#931=FACE_BOUND('',#828,.T.);
#932=FACE_BOUND('',#829,.T.);
#933=FACE_BOUND('',#830,.T.);
#934=FACE_BOUND('',#831,.T.);
#935=FACE_BOUND('',#832,.T.);
#936=FACE_BOUND('',#833,.T.);
#937=FACE_BOUND('',#834,.T.);
#938=FACE_BOUND('',#835,.T.);
#939=FACE_BOUND('',#836,.T.);
#940=FACE_BOUND('',#837,.T.);
#941=FACE_BOUND('',#838,.T.);
#942=FACE_BOUND('',#839,.T.);
#943=FACE_BOUND('',#840,.T.);
#944=FACE_BOUND('',#841,.T.);
#945=FACE_BOUND('',#842,.T.);
#946=FACE_BOUND('',#843,.T.);
#947=FACE_BOUND('',#844,.T.);
#948=FACE_BOUND('',#845,.T.);
#949=FACE_BOUND('',#846,.T.);
#950=FACE_BOUND('',#847,.T.);
#951=FACE_BOUND('',#848,.T.);
#952=FACE_BOUND('',#849,.T.);
#953=FACE_BOUND('',#850,.T.);
#954=FACE_BOUND('',#851,.T.);
#955=FACE_BOUND('',#852,.T.);
#956=FACE_BOUND('',#853,.T.);
#957=FACE_BOUND('',#854,.T.);
#958=FACE_BOUND('',#855,.T.);
#959=FACE_BOUND('',#856,.T.);
#960=FACE_BOUND('',#857,.T.);
#961=FACE_BOUND('',#858,.T.);
#962=FACE_BOUND('',#859,.T.);
#963=FACE_BOUND('',#860,.T.);
#964=FACE_BOUND('',#861,.T.);
#965=FACE_BOUND('',#862,.T.);
#966=FACE_BOUND('',#863,.T.);
#967=FACE_BOUND('',#864,.T.);
#968=PLANE('',#1090);
#969=PLANE('',#1091);
#970=PLANE('',#1096);
#971=PLANE('',#1117);
#972=PLANE('',#1118);
#973=PLANE('',#1119);
#974=PLANE('',#1120);
#975=PLANE('',#1121);
#976=PLANE('',#1123);
#977=PLANE('',#1124);
#978=PLANE('',#1125);
#979=PLANE('',#1126);
#980=PLANE('',#1129);
#981=PLANE('',#1132);
#982=PLANE('',#1135);
#983=PLANE('',#1138);
#984=PLANE('',#1141);
#985=PLANE('',#1142);
#986=PLANE('',#1143);
#987=PLANE('',#1144);
#988=PLANE('',#1145);
#989=PLANE('',#1146);
#990=PLANE('',#1147);
#991=PLANE('',#1148);
#992=PLANE('',#1149);
#993=PLANE('',#1150);
#994=PLANE('',#1151);
#995=PLANE('',#1152);
#996=PLANE('',#1153);
#997=PLANE('',#1154);
#998=PLANE('',#1155);
#999=PLANE('',#1156);
#1000=PLANE('',#1157);
#1001=PLANE('',#1158);
#1002=PLANE('',#1159);
#1003=PLANE('',#1160);
#1004=PLANE('',#1161);
#1005=PLANE('',#1162);
#1006=PLANE('',#1166);
#1007=PLANE('',#1170);
#1008=PLANE('',#1174);
#1009=PLANE('',#1178);
#1010=PLANE('',#1185);
#1011=PLANE('',#1186);
#1012=PLANE('',#1187);
#1013=ADVANCED_FACE('',(#865),#968,.T.);
#1014=ADVANCED_FACE('',(#866,#867,#868,#869,#870),#969,.T.);
#1015=ADVANCED_FACE('',(#871,#872,#873,#874,#875,#876),#970,.T.);
#1016=ADVANCED_FACE('',(#877,#878),#16,.F.);
#1017=ADVANCED_FACE('',(#879,#880),#17,.F.);
#1018=ADVANCED_FACE('',(#881,#882),#18,.F.);
#1019=ADVANCED_FACE('',(#883,#884),#19,.F.);
#1020=ADVANCED_FACE('',(#885,#886),#20,.F.);
#1021=ADVANCED_FACE('',(#887),#971,.T.);
#1022=ADVANCED_FACE('',(#888),#972,.T.);
#1023=ADVANCED_FACE('',(#889),#973,.T.);
#1024=ADVANCED_FACE('',(#890),#974,.F.);
#1025=ADVANCED_FACE('',(#891,#892),#975,.T.);
#1026=ADVANCED_FACE('',(#893),#976,.F.);
#1027=ADVANCED_FACE('',(#894),#977,.T.);
#1028=ADVANCED_FACE('',(#895),#978,.F.);
#1029=ADVANCED_FACE('',(#896,#897,#898,#899,#900,#901),#979,.F.);
#1030=ADVANCED_FACE('',(#902,#903),#21,.F.);
#1031=ADVANCED_FACE('',(#904,#905),#980,.F.);
#1032=ADVANCED_FACE('',(#906,#907),#22,.F.);
#1033=ADVANCED_FACE('',(#908,#909),#981,.T.);
#1034=ADVANCED_FACE('',(#910,#911),#23,.F.);
#1035=ADVANCED_FACE('',(#912,#913),#982,.T.);
#1036=ADVANCED_FACE('',(#914,#915),#24,.F.);
#1037=ADVANCED_FACE('',(#916,#917),#983,.T.);
#1038=ADVANCED_FACE('',(#918,#919),#25,.F.);
#1039=ADVANCED_FACE('',(#920,#921),#984,.T.);
#1040=ADVANCED_FACE('',(#922),#985,.F.);
#1041=ADVANCED_FACE('',(#923),#986,.T.);
#1042=ADVANCED_FACE('',(#924),#987,.F.);
#1043=ADVANCED_FACE('',(#925),#988,.T.);
#1044=ADVANCED_FACE('',(#926),#989,.T.);
#1045=ADVANCED_FACE('',(#927),#990,.T.);
#1046=ADVANCED_FACE('',(#928),#991,.T.);
#1047=ADVANCED_FACE('',(#929),#992,.F.);
#1048=ADVANCED_FACE('',(#930),#993,.F.);
#1049=ADVANCED_FACE('',(#931),#994,.T.);
#1050=ADVANCED_FACE('',(#932),#995,.T.);
#1051=ADVANCED_FACE('',(#933),#996,.T.);
#1052=ADVANCED_FACE('',(#934),#997,.F.);
#1053=ADVANCED_FACE('',(#935),#998,.F.);
#1054=ADVANCED_FACE('',(#936),#999,.T.);
#1055=ADVANCED_FACE('',(#937),#1000,.T.);
#1056=ADVANCED_FACE('',(#938),#1001,.T.);
#1057=ADVANCED_FACE('',(#939),#1002,.F.);
#1058=ADVANCED_FACE('',(#940),#1003,.T.);
#1059=ADVANCED_FACE('',(#941),#1004,.T.);
#1060=ADVANCED_FACE('',(#942),#1005,.F.);
#1061=ADVANCED_FACE('',(#943,#944),#26,.F.);
#1062=ADVANCED_FACE('',(#945),#1006,.T.);
#1063=ADVANCED_FACE('',(#946,#947),#27,.F.);
#1064=ADVANCED_FACE('',(#948),#1007,.T.);
#1065=ADVANCED_FACE('',(#949,#950),#28,.F.);
#1066=ADVANCED_FACE('',(#951),#1008,.T.);
#1067=ADVANCED_FACE('',(#952,#953),#29,.F.);
#1068=ADVANCED_FACE('',(#954),#1009,.T.);
#1069=ADVANCED_FACE('',(#955,#956),#12,.F.);
#1070=ADVANCED_FACE('',(#957,#958),#13,.F.);
#1071=ADVANCED_FACE('',(#959,#960),#14,.F.);
#1072=ADVANCED_FACE('',(#961,#962),#15,.F.);
#1073=ADVANCED_FACE('',(#963,#964),#30,.F.);
#1074=ADVANCED_FACE('',(#965),#1010,.T.);
#1075=ADVANCED_FACE('',(#966),#1011,.F.);
#1076=ADVANCED_FACE('',(#967),#1012,.T.);
#1077=CLOSED_SHELL('',(#1013,#1014,#1015,#1016,#1017,#1018,#1019,#1020,
#1021,#1022,#1023,#1024,#1025,#1026,#1027,#1028,#1029,#1030,#1031,#1032,
#1033,#1034,#1035,#1036,#1037,#1038,#1039,#1040,#1041,#1042,#1043,#1044,
#1045,#1046,#1047,#1048,#1049,#1050,#1051,#1052,#1053,#1054,#1055,#1056,
#1057,#1058,#1059,#1060,#1061,#1062,#1063,#1064,#1065,#1066,#1067,#1068,
#1069,#1070,#1071,#1072,#1073,#1074,#1075,#1076));
#1078=STYLED_ITEM('',(#1079),#1086);
#1079=PRESENTATION_STYLE_ASSIGNMENT((#1080));
#1080=SURFACE_STYLE_USAGE(.BOTH.,#1081);
#1081=SURFACE_SIDE_STYLE('',(#1082));
#1082=SURFACE_STYLE_FILL_AREA(#1083);
#1083=FILL_AREA_STYLE('',(#1084));
#1084=FILL_AREA_STYLE_COLOUR('',#1085);
#1085=COLOUR_RGB('',0.615686274509804,0.811764705882353,0.929411764705882);
#1086=MANIFOLD_SOLID_BREP('Part 1',#1077);
#1087=SHAPE_DEFINITION_REPRESENTATION(#1789,#1088);
#1088=SHAPE_REPRESENTATION('Part 1',(#1089),#1784);
#1089=AXIS2_PLACEMENT_3D('',#1485,#1188,#1189);
#1090=AXIS2_PLACEMENT_3D('',#1486,#1190,#1191);
#1091=AXIS2_PLACEMENT_3D('',#1507,#1202,#1203);
#1092=AXIS2_PLACEMENT_3D('',#1508,#1204,#1205);
#1093=AXIS2_PLACEMENT_3D('',#1510,#1206,#1207);
#1094=AXIS2_PLACEMENT_3D('',#1512,#1208,#1209);
#1095=AXIS2_PLACEMENT_3D('',#1514,#1210,#1211);
#1096=AXIS2_PLACEMENT_3D('',#1556,#1232,#1233);
#1097=AXIS2_PLACEMENT_3D('',#1557,#1234,#1235);
#1098=AXIS2_PLACEMENT_3D('',#1559,#1236,#1237);
#1099=AXIS2_PLACEMENT_3D('',#1561,#1238,#1239);
#1100=AXIS2_PLACEMENT_3D('',#1563,#1240,#1241);
#1101=AXIS2_PLACEMENT_3D('',#1565,#1242,#1243);
#1102=AXIS2_PLACEMENT_3D('',#1604,#1263,#1264);
#1103=AXIS2_PLACEMENT_3D('',#1605,#1265,#1266);
#1104=AXIS2_PLACEMENT_3D('',#1607,#1267,#1268);
#1105=AXIS2_PLACEMENT_3D('',#1609,#1269,#1270);
#1106=AXIS2_PLACEMENT_3D('',#1610,#1271,#1272);
#1107=AXIS2_PLACEMENT_3D('',#1612,#1273,#1274);
#1108=AXIS2_PLACEMENT_3D('',#1614,#1275,#1276);
#1109=AXIS2_PLACEMENT_3D('',#1615,#1277,#1278);
#1110=AXIS2_PLACEMENT_3D('',#1617,#1279,#1280);
#1111=AXIS2_PLACEMENT_3D('',#1619,#1281,#1282);
#1112=AXIS2_PLACEMENT_3D('',#1620,#1283,#1284);
#1113=AXIS2_PLACEMENT_3D('',#1622,#1285,#1286);
#1114=AXIS2_PLACEMENT_3D('',#1624,#1287,#1288);
#1115=AXIS2_PLACEMENT_3D('',#1625,#1289,#1290);
#1116=AXIS2_PLACEMENT_3D('',#1627,#1291,#1292);
#1117=AXIS2_PLACEMENT_3D('',#1629,#1293,#1294);
#1118=AXIS2_PLACEMENT_3D('',#1638,#1299,#1300);
#1119=AXIS2_PLACEMENT_3D('',#1644,#1304,#1305);
#1120=AXIS2_PLACEMENT_3D('',#1651,#1310,#1311);
#1121=AXIS2_PLACEMENT_3D('',#1656,#1315,#1316);
#1122=AXIS2_PLACEMENT_3D('',#1657,#1317,#1318);
#1123=AXIS2_PLACEMENT_3D('',#1665,#1323,#1324);
#1124=AXIS2_PLACEMENT_3D('',#1671,#1328,#1329);
#1125=AXIS2_PLACEMENT_3D('',#1674,#1332,#1333);
#1126=AXIS2_PLACEMENT_3D('',#1680,#1337,#1338);
#1127=AXIS2_PLACEMENT_3D('',#1681,#1339,#1340);
#1128=AXIS2_PLACEMENT_3D('',#1682,#1341,#1342);
#1129=AXIS2_PLACEMENT_3D('',#1684,#1343,#1344);
#1130=AXIS2_PLACEMENT_3D('',#1685,#1345,#1346);
#1131=AXIS2_PLACEMENT_3D('',#1686,#1347,#1348);
#1132=AXIS2_PLACEMENT_3D('',#1688,#1349,#1350);
#1133=AXIS2_PLACEMENT_3D('',#1689,#1351,#1352);
#1134=AXIS2_PLACEMENT_3D('',#1690,#1353,#1354);
#1135=AXIS2_PLACEMENT_3D('',#1692,#1355,#1356);
#1136=AXIS2_PLACEMENT_3D('',#1693,#1357,#1358);
#1137=AXIS2_PLACEMENT_3D('',#1694,#1359,#1360);
#1138=AXIS2_PLACEMENT_3D('',#1696,#1361,#1362);
#1139=AXIS2_PLACEMENT_3D('',#1697,#1363,#1364);
#1140=AXIS2_PLACEMENT_3D('',#1698,#1365,#1366);
#1141=AXIS2_PLACEMENT_3D('',#1700,#1367,#1368);
#1142=AXIS2_PLACEMENT_3D('',#1701,#1369,#1370);
#1143=AXIS2_PLACEMENT_3D('',#1703,#1372,#1373);
#1144=AXIS2_PLACEMENT_3D('',#1705,#1375,#1376);
#1145=AXIS2_PLACEMENT_3D('',#1707,#1378,#1379);
#1146=AXIS2_PLACEMENT_3D('',#1709,#1381,#1382);
#1147=AXIS2_PLACEMENT_3D('',#1711,#1384,#1385);
#1148=AXIS2_PLACEMENT_3D('',#1713,#1387,#1388);
#1149=AXIS2_PLACEMENT_3D('',#1715,#1390,#1391);
#1150=AXIS2_PLACEMENT_3D('',#1717,#1393,#1394);
#1151=AXIS2_PLACEMENT_3D('',#1719,#1396,#1397);
#1152=AXIS2_PLACEMENT_3D('',#1721,#1399,#1400);
#1153=AXIS2_PLACEMENT_3D('',#1723,#1402,#1403);
#1154=AXIS2_PLACEMENT_3D('',#1725,#1405,#1406);
#1155=AXIS2_PLACEMENT_3D('',#1727,#1408,#1409);
#1156=AXIS2_PLACEMENT_3D('',#1729,#1411,#1412);
#1157=AXIS2_PLACEMENT_3D('',#1731,#1414,#1415);
#1158=AXIS2_PLACEMENT_3D('',#1733,#1417,#1418);
#1159=AXIS2_PLACEMENT_3D('',#1737,#1421,#1422);
#1160=AXIS2_PLACEMENT_3D('',#1741,#1425,#1426);
#1161=AXIS2_PLACEMENT_3D('',#1745,#1429,#1430);
#1162=AXIS2_PLACEMENT_3D('',#1747,#1432,#1433);
#1163=AXIS2_PLACEMENT_3D('',#1748,#1434,#1435);
#1164=AXIS2_PLACEMENT_3D('',#1749,#1436,#1437);
#1165=AXIS2_PLACEMENT_3D('',#1751,#1438,#1439);
#1166=AXIS2_PLACEMENT_3D('',#1753,#1440,#1441);
#1167=AXIS2_PLACEMENT_3D('',#1754,#1442,#1443);
#1168=AXIS2_PLACEMENT_3D('',#1755,#1444,#1445);
#1169=AXIS2_PLACEMENT_3D('',#1757,#1446,#1447);
#1170=AXIS2_PLACEMENT_3D('',#1759,#1448,#1449);
#1171=AXIS2_PLACEMENT_3D('',#1760,#1450,#1451);
#1172=AXIS2_PLACEMENT_3D('',#1761,#1452,#1453);
#1173=AXIS2_PLACEMENT_3D('',#1763,#1454,#1455);
#1174=AXIS2_PLACEMENT_3D('',#1765,#1456,#1457);
#1175=AXIS2_PLACEMENT_3D('',#1766,#1458,#1459);
#1176=AXIS2_PLACEMENT_3D('',#1767,#1460,#1461);
#1177=AXIS2_PLACEMENT_3D('',#1769,#1462,#1463);
#1178=AXIS2_PLACEMENT_3D('',#1771,#1464,#1465);
#1179=AXIS2_PLACEMENT_3D('',#1772,#1466,#1467);
#1180=AXIS2_PLACEMENT_3D('',#1773,#1468,#1469);
#1181=AXIS2_PLACEMENT_3D('',#1774,#1470,#1471);
#1182=AXIS2_PLACEMENT_3D('',#1775,#1472,#1473);
#1183=AXIS2_PLACEMENT_3D('',#1776,#1474,#1475);
#1184=AXIS2_PLACEMENT_3D('',#1777,#1476,#1477);
#1185=AXIS2_PLACEMENT_3D('',#1779,#1478,#1479);
#1186=AXIS2_PLACEMENT_3D('',#1780,#1480,#1481);
#1187=AXIS2_PLACEMENT_3D('',#1782,#1483,#1484);
#1188=DIRECTION('',(0.,0.,1.));
#1189=DIRECTION('',(1.,0.,0.));
#1190=DIRECTION('',(1.,0.,0.));
#1191=DIRECTION('',(0.,0.,-1.));
#1192=DIRECTION('',(0.,1.,0.));
#1193=DIRECTION('',(0.,0.,-1.));
#1194=DIRECTION('',(0.,1.,0.));
#1195=DIRECTION('',(0.,0.,1.));
#1196=DIRECTION('',(0.,1.,0.));
#1197=DIRECTION('',(0.,0.,-1.));
#1198=DIRECTION('',(0.,1.,0.));
#1199=DIRECTION('',(0.,0.,-1.));
#1200=DIRECTION('',(0.,1.,0.));
#1201=DIRECTION('',(0.,0.,1.));
#1202=DIRECTION('',(0.,0.,1.));
#1203=DIRECTION('',(1.,0.,0.));
#1204=DIRECTION('',(0.,0.,1.));
#1205=DIRECTION('',(1.,0.,0.));
#1206=DIRECTION('',(0.,0.,1.));
#1207=DIRECTION('',(1.,0.,0.));
#1208=DIRECTION('',(0.,0.,1.));
#1209=DIRECTION('',(1.,0.,0.));
#1210=DIRECTION('',(0.,0.,1.));
#1211=DIRECTION('',(1.,0.,0.));
#1212=DIRECTION('',(-3.44930302230336E-17,1.,0.));
#1213=DIRECTION('',(1.,0.,0.));
#1214=DIRECTION('',(0.,-1.,0.));
#1215=DIRECTION('',(-1.,0.,0.));
#1216=DIRECTION('',(0.,-1.,0.));
#1217=DIRECTION('',(-1.,0.,0.));
#1218=DIRECTION('',(0.,-1.,0.));
#1219=DIRECTION('',(-1.,0.,0.));
#1220=DIRECTION('',(0.,1.,0.));
#1221=DIRECTION('',(1.,0.,0.));
#1222=DIRECTION('',(0.,1.,0.));
#1223=DIRECTION('',(-1.,0.,0.));
#1224=DIRECTION('',(0.,1.,0.));
#1225=DIRECTION('',(1.,0.,0.));
#1226=DIRECTION('',(0.,-1.,0.));
#1227=DIRECTION('',(1.,0.,0.));
#1228=DIRECTION('',(0.,1.,0.));
#1229=DIRECTION('',(-1.,0.,0.));
#1230=DIRECTION('',(0.,1.,0.));
#1231=DIRECTION('',(-1.,0.,0.));
#1232=DIRECTION('',(0.,0.,1.));
#1233=DIRECTION('',(1.,0.,0.));
#1234=DIRECTION('',(0.,0.,1.));
#1235=DIRECTION('',(1.,0.,0.));
#1236=DIRECTION('',(0.,0.,1.));
#1237=DIRECTION('',(1.,0.,0.));
#1238=DIRECTION('',(0.,0.,1.));
#1239=DIRECTION('',(1.,0.,0.));
#1240=DIRECTION('',(0.,0.,1.));
#1241=DIRECTION('',(1.,0.,0.));
#1242=DIRECTION('',(0.,0.,1.));
#1243=DIRECTION('',(1.,0.,0.));
#1244=DIRECTION('',(-1.,0.,0.));
#1245=DIRECTION('',(0.,1.,0.));
#1246=DIRECTION('',(1.,0.,0.));
#1247=DIRECTION('',(0.,-1.,0.));
#1248=DIRECTION('',(1.,0.,0.));
#1249=DIRECTION('',(0.,1.,0.));
#1250=DIRECTION('',(-1.,0.,0.));
#1251=DIRECTION('',(0.,1.,0.));
#1252=DIRECTION('',(1.,0.,0.));
#1253=DIRECTION('',(0.,1.,0.));
#1254=DIRECTION('',(-1.,0.,0.));
#1255=DIRECTION('',(0.,-1.,0.));
#1256=DIRECTION('',(-1.,0.,0.));
#1257=DIRECTION('',(0.,-1.,0.));
#1258=DIRECTION('',(-1.,0.,0.));
#1259=DIRECTION('',(0.,-1.,0.));
#1260=DIRECTION('',(1.,0.,0.));
#1261=DIRECTION('',(-3.44930302230336E-17,1.,0.));
#1262=DIRECTION('',(1.,0.,0.));
#1263=DIRECTION('',(0.,0.,1.));
#1264=DIRECTION('',(1.,0.,0.));
#1265=DIRECTION('',(0.,0.,-1.));
#1266=DIRECTION('',(1.,0.,0.));
#1267=DIRECTION('',(0.,0.,-1.));
#1268=DIRECTION('',(1.,0.,0.));
#1269=DIRECTION('',(0.,0.,1.));
#1270=DIRECTION('',(1.,0.,0.));
#1271=DIRECTION('',(0.,0.,1.));
#1272=DIRECTION('',(1.,0.,0.));
#1273=DIRECTION('',(0.,0.,1.));
#1274=DIRECTION('',(1.,0.,0.));
#1275=DIRECTION('',(0.,0.,1.));
#1276=DIRECTION('',(1.,0.,0.));
#1277=DIRECTION('',(0.,0.,1.));
#1278=DIRECTION('',(1.,0.,0.));
#1279=DIRECTION('',(0.,0.,1.));
#1280=DIRECTION('',(1.,0.,0.));
#1281=DIRECTION('',(0.,0.,1.));
#1282=DIRECTION('',(1.,0.,0.));
#1283=DIRECTION('',(0.,0.,-1.));
#1284=DIRECTION('',(1.,0.,0.));
#1285=DIRECTION('',(0.,0.,-1.));
#1286=DIRECTION('',(1.,0.,0.));
#1287=DIRECTION('',(0.,0.,1.));
#1288=DIRECTION('',(1.,0.,0.));
#1289=DIRECTION('',(0.,0.,1.));
#1290=DIRECTION('',(1.,0.,0.));
#1291=DIRECTION('',(0.,0.,1.));
#1292=DIRECTION('',(1.,0.,0.));
#1293=DIRECTION('',(-1.,0.,0.));
#1294=DIRECTION('',(0.,0.,1.));
#1295=DIRECTION('',(0.,-1.,0.));
#1296=DIRECTION('',(0.,0.,1.));
#1297=DIRECTION('',(0.,-1.,0.));
#1298=DIRECTION('',(0.,0.,1.));
#1299=DIRECTION('',(1.,0.,0.));
#1300=DIRECTION('',(0.,0.,-1.));
#1301=DIRECTION('',(0.,1.,0.));
#1302=DIRECTION('',(0.,0.,1.));
#1303=DIRECTION('',(0.,0.,-1.));
#1304=DIRECTION('',(0.,1.,0.));
#1305=DIRECTION('',(0.,0.,1.));
#1306=DIRECTION('',(-0.707106781186546,0.,0.70710678118655));
#1307=DIRECTION('',(-1.,0.,0.));
#1308=DIRECTION('',(0.,0.,1.));
#1309=DIRECTION('',(-0.707106781186546,0.,-0.70710678118655));
#1310=DIRECTION('',(1.,3.44930302230336E-17,0.));
#1311=DIRECTION('',(-3.44930302230336E-17,1.,0.));
#1312=DIRECTION('',(0.,0.,-1.));
#1313=DIRECTION('',(-3.44930302230336E-17,1.,0.));
#1314=DIRECTION('',(0.,0.,1.));
#1315=DIRECTION('',(0.,-1.,0.));
#1316=DIRECTION('',(0.,0.,-1.));
#1317=DIRECTION('',(0.,-1.,0.));
#1318=DIRECTION('',(0.,0.,-1.));
#1319=DIRECTION('',(1.,0.,0.));
#1320=DIRECTION('',(0.,0.,1.));
#1321=DIRECTION('',(1.,0.,0.));
#1322=DIRECTION('',(1.,0.,0.));
#1323=DIRECTION('',(-1.,0.,0.));
#1324=DIRECTION('',(0.,0.,1.));
#1325=DIRECTION('',(0.,0.,1.));
#1326=DIRECTION('',(0.,-1.,0.));
#1327=DIRECTION('',(0.,-1.,0.));
#1328=DIRECTION('',(0.,-1.,0.));
#1329=DIRECTION('',(0.,0.,-1.));
#1330=DIRECTION('',(1.,0.,0.));
#1331=DIRECTION('',(1.,0.,0.));
#1332=DIRECTION('',(0.,0.,1.));
#1333=DIRECTION('',(1.,0.,0.));
#1334=DIRECTION('',(0.643285760997022,0.765626168373627,0.));
#1335=DIRECTION('',(0.,-1.,0.));
#1336=DIRECTION('',(0.643285760997022,-0.765626168373627,0.));
#1337=DIRECTION('',(0.,0.,1.));
#1338=DIRECTION('',(1.,0.,0.));
#1339=DIRECTION('',(0.,0.,1.));
#1340=DIRECTION('',(1.,0.,0.));
#1341=DIRECTION('',(0.,0.,1.));
#1342=DIRECTION('',(1.,0.,0.));
#1343=DIRECTION('',(0.,0.,1.));
#1344=DIRECTION('',(1.,0.,0.));
#1345=DIRECTION('',(0.,0.,1.));
#1346=DIRECTION('',(1.,0.,0.));
#1347=DIRECTION('',(0.,0.,1.));
#1348=DIRECTION('',(1.,0.,0.));
#1349=DIRECTION('',(0.,0.,1.));
#1350=DIRECTION('',(1.,0.,0.));
#1351=DIRECTION('',(0.,0.,1.));
#1352=DIRECTION('',(1.,0.,0.));
#1353=DIRECTION('',(0.,0.,1.));
#1354=DIRECTION('',(1.,0.,0.));
#1355=DIRECTION('',(0.,0.,1.));
#1356=DIRECTION('',(1.,0.,0.));
#1357=DIRECTION('',(0.,0.,1.));
#1358=DIRECTION('',(1.,0.,0.));
#1359=DIRECTION('',(0.,0.,1.));
#1360=DIRECTION('',(1.,0.,0.));
#1361=DIRECTION('',(0.,0.,1.));
#1362=DIRECTION('',(1.,0.,0.));
#1363=DIRECTION('',(0.,0.,1.));
#1364=DIRECTION('',(1.,0.,0.));
#1365=DIRECTION('',(0.,0.,1.));
#1366=DIRECTION('',(1.,0.,0.));
#1367=DIRECTION('',(0.,0.,1.));
#1368=DIRECTION('',(1.,0.,0.));
#1369=DIRECTION('',(0.,1.,0.));
#1370=DIRECTION('',(0.,0.,1.));
#1371=DIRECTION('',(0.,0.,-1.));
#1372=DIRECTION('',(1.,0.,0.));
#1373=DIRECTION('',(0.,0.,-1.));
#1374=DIRECTION('',(0.,0.,-1.));
#1375=DIRECTION('',(0.,-1.,0.));
#1376=DIRECTION('',(0.,0.,-1.));
#1377=DIRECTION('',(0.,0.,-1.));
#1378=DIRECTION('',(1.,0.,0.));
#1379=DIRECTION('',(0.,0.,-1.));
#1380=DIRECTION('',(0.,0.,-1.));
#1381=DIRECTION('',(0.,-1.,0.));
#1382=DIRECTION('',(0.,0.,-1.));
#1383=DIRECTION('',(0.,0.,-1.));
#1384=DIRECTION('',(1.,0.,0.));
#1385=DIRECTION('',(0.,0.,-1.));
#1386=DIRECTION('',(0.,0.,-1.));
#1387=DIRECTION('',(0.,-1.,0.));
#1388=DIRECTION('',(0.,0.,-1.));
#1389=DIRECTION('',(0.,0.,-1.));
#1390=DIRECTION('',(-1.,0.,0.));
#1391=DIRECTION('',(0.,0.,1.));
#1392=DIRECTION('',(0.,0.,-1.));
#1393=DIRECTION('',(0.,1.,0.));
#1394=DIRECTION('',(0.,0.,1.));
#1395=DIRECTION('',(0.,0.,-1.));
#1396=DIRECTION('',(-1.,0.,0.));
#1397=DIRECTION('',(0.,0.,1.));
#1398=DIRECTION('',(0.,0.,-1.));
#1399=DIRECTION('',(0.,-1.,0.));
#1400=DIRECTION('',(0.,0.,-1.));
#1401=DIRECTION('',(0.,0.,-1.));
#1402=DIRECTION('',(-1.,0.,0.));
#1403=DIRECTION('',(0.,0.,1.));
#1404=DIRECTION('',(0.,0.,-1.));
#1405=DIRECTION('',(0.,1.,0.));
#1406=DIRECTION('',(0.,0.,1.));
#1407=DIRECTION('',(0.,0.,-1.));
#1408=DIRECTION('',(1.,0.,0.));
#1409=DIRECTION('',(0.,0.,-1.));
#1410=DIRECTION('',(0.,0.,-1.));
#1411=DIRECTION('',(0.,1.,0.));
#1412=DIRECTION('',(0.,0.,1.));
#1413=DIRECTION('',(0.,0.,-1.));
#1414=DIRECTION('',(-1.,0.,0.));
#1415=DIRECTION('',(0.,0.,1.));
#1416=DIRECTION('',(0.,0.,-1.));
#1417=DIRECTION('',(0.,-1.,0.));
#1418=DIRECTION('',(0.,0.,-1.));
#1419=DIRECTION('',(0.707106781186546,0.,-0.70710678118655));
#1420=DIRECTION('',(0.707106781186546,0.,0.70710678118655));
#1421=DIRECTION('',(0.765626168373627,0.643285760997022,0.));
#1422=DIRECTION('',(-0.643285760997022,0.765626168373627,0.));
#1423=DIRECTION('',(0.,0.,-1.));
#1424=DIRECTION('',(0.643285760997022,-0.765626168373627,0.));
#1425=DIRECTION('',(-0.765626168373627,0.643285760997022,0.));
#1426=DIRECTION('',(-0.643285760997022,-0.765626168373627,0.));
#1427=DIRECTION('',(0.643285760997022,0.765626168373627,0.));
#1428=DIRECTION('',(0.,0.,-1.));
#1429=DIRECTION('',(1.,0.,0.));
#1430=DIRECTION('',(0.,0.,-1.));
#1431=DIRECTION('',(0.,-1.,0.));
#1432=DIRECTION('',(0.,0.,-1.));
#1433=DIRECTION('',(1.,0.,0.));
#1434=DIRECTION('',(0.,0.,1.));
#1435=DIRECTION('',(1.,0.,0.));
#1436=DIRECTION('',(0.,0.,1.));
#1437=DIRECTION('',(1.,0.,0.));
#1438=DIRECTION('',(0.,0.,1.));
#1439=DIRECTION('',(1.,0.,0.));
#1440=DIRECTION('',(0.,0.,1.));
#1441=DIRECTION('',(1.,0.,0.));
#1442=DIRECTION('',(0.,0.,1.));
#1443=DIRECTION('',(1.,0.,0.));
#1444=DIRECTION('',(0.,0.,1.));
#1445=DIRECTION('',(1.,0.,0.));
#1446=DIRECTION('',(0.,0.,1.));
#1447=DIRECTION('',(1.,0.,0.));
#1448=DIRECTION('',(0.,0.,1.));
#1449=DIRECTION('',(1.,0.,0.));
#1450=DIRECTION('',(0.,0.,1.));
#1451=DIRECTION('',(1.,0.,0.));
#1452=DIRECTION('',(0.,0.,1.));
#1453=DIRECTION('',(1.,0.,0.));
#1454=DIRECTION('',(0.,0.,-1.));
#1455=DIRECTION('',(1.,0.,0.));
#1456=DIRECTION('',(0.,0.,1.));
#1457=DIRECTION('',(1.,0.,0.));
#1458=DIRECTION('',(0.,0.,1.));
#1459=DIRECTION('',(1.,0.,0.));
#1460=DIRECTION('',(0.,0.,1.));
#1461=DIRECTION('',(1.,0.,0.));
#1462=DIRECTION('',(0.,0.,-1.));
#1463=DIRECTION('',(1.,0.,0.));
#1464=DIRECTION('',(0.,0.,1.));
#1465=DIRECTION('',(1.,0.,0.));
#1466=DIRECTION('',(0.,0.,1.));
#1467=DIRECTION('',(1.,0.,0.));
#1468=DIRECTION('',(0.,0.,1.));
#1469=DIRECTION('',(1.,0.,0.));
#1470=DIRECTION('',(0.,0.,1.));
#1471=DIRECTION('',(1.,0.,0.));
#1472=DIRECTION('',(0.,0.,1.));
#1473=DIRECTION('',(1.,0.,0.));
#1474=DIRECTION('',(0.,-1.,0.));
#1475=DIRECTION('',(0.,0.,-1.));
#1476=DIRECTION('',(0.,-1.,0.));
#1477=DIRECTION('',(0.,0.,-1.));
#1478=DIRECTION('',(0.,-1.,0.));
#1479=DIRECTION('',(1.,0.,0.));
#1480=DIRECTION('',(-0.70710678118655,0.,-0.707106781186546));
#1481=DIRECTION('',(0.,1.,0.));
#1482=DIRECTION('',(0.,-1.,0.));
#1483=DIRECTION('',(0.70710678118655,0.,-0.707106781186546));
#1484=DIRECTION('',(0.,-1.,0.));
#1485=CARTESIAN_POINT('',(0.,0.,0.));
#1486=CARTESIAN_POINT('',(0.050292,0.025146,-0.0508));
#1487=CARTESIAN_POINT('',(0.050292,0.025146,0.0178511775740695));
#1488=CARTESIAN_POINT('',(0.050292,0.0126710338518023,0.0178511775740695));
#1489=CARTESIAN_POINT('',(0.050292,0.050292,0.0178511775740695));
#1490=CARTESIAN_POINT('',(0.050292,0.0126710338518023,0.1778));
#1491=CARTESIAN_POINT('',(0.050292,0.0126710338518023,0.));
#1492=CARTESIAN_POINT('',(0.050292,0.025146,0.));
#1493=CARTESIAN_POINT('',(0.050292,0.,0.));
#1494=CARTESIAN_POINT('',(0.050292,0.,-0.0508));
#1495=CARTESIAN_POINT('',(0.050292,0.,-0.0508));
#1496=CARTESIAN_POINT('',(0.050292,0.025146,-0.0508));
#1497=CARTESIAN_POINT('',(0.050292,0.0155091341584921,-0.0508));
#1498=CARTESIAN_POINT('',(0.050292,0.0155091341584921,-0.0254));
#1499=CARTESIAN_POINT('',(0.050292,0.0155091341584921,-0.0254));
#1500=CARTESIAN_POINT('',(0.050292,0.025146,-0.0254));
#1501=CARTESIAN_POINT('',(0.050292,0.0347828658415079,-0.0254));
#1502=CARTESIAN_POINT('',(0.050292,0.0347828658415079,-0.0254));
#1503=CARTESIAN_POINT('',(0.050292,0.0347828658415079,-0.0508));
#1504=CARTESIAN_POINT('',(0.050292,0.025146,-0.0508));
#1505=CARTESIAN_POINT('',(0.050292,0.050292,-0.0508));
#1506=CARTESIAN_POINT('',(0.050292,0.050292,-0.0508));
#1507=CARTESIAN_POINT('',(0.021971,0.025146,0.1778));
#1508=CARTESIAN_POINT('',(0.0470140070935786,0.0159266766278147,0.1778));
#1509=CARTESIAN_POINT('',(0.0495540070935786,0.0159266766278147,0.1778));
#1510=CARTESIAN_POINT('',(-0.00307200709357857,0.0159266766278147,0.1778));
#1511=CARTESIAN_POINT('',(-0.000532007093578575,0.0159266766278147,0.1778));
#1512=CARTESIAN_POINT('',(0.0470140070935786,0.0470363572239876,0.1778));
#1513=CARTESIAN_POINT('',(0.0495540070935786,0.0470363572239876,0.1778));
#1514=CARTESIAN_POINT('',(-0.00307200709357857,0.0470363572239876,0.1778));
#1515=CARTESIAN_POINT('',(-0.000532007093578575,0.0470363572239876,0.1778));
#1516=CARTESIAN_POINT('',(-0.00635,0.025146,0.1778));
#1517=CARTESIAN_POINT('',(-0.00635,0.0126710338518023,0.1778));
#1518=CARTESIAN_POINT('',(-0.00635,0.050292,0.1778));
#1519=CARTESIAN_POINT('',(-0.003175,0.0126710338518023,0.1778));
#1520=CARTESIAN_POINT('',(0.,0.0126710338518023,0.1778));
#1521=CARTESIAN_POINT('',(0.,0.0189085169259012,0.1778));
#1522=CARTESIAN_POINT('',(0.,0.025146,0.1778));
#1523=CARTESIAN_POINT('',(-0.00232615601271391,0.025146,0.1778));
#1524=CARTESIAN_POINT('',(-0.00465231202542782,0.025146,0.1778));
#1525=CARTESIAN_POINT('',(-0.00465231202542782,0.0267262584629506,0.1778));
#1526=CARTESIAN_POINT('',(-0.00465231202542782,0.0283065169259011,0.1778));
#1527=CARTESIAN_POINT('',(-0.00232615601271391,0.0283065169259011,0.1778));
#1528=CARTESIAN_POINT('',(0.,0.0283065169259011,0.1778));
#1529=CARTESIAN_POINT('',(0.,0.0361242584629506,0.1778));
#1530=CARTESIAN_POINT('',(0.,0.043942,0.1778));
#1531=CARTESIAN_POINT('',(0.0097618717700243,0.043942,0.1778));
#1532=CARTESIAN_POINT('',(0.020429535983324,0.043942,0.1778));
#1533=CARTESIAN_POINT('',(0.020429535983324,0.0457951329789162,0.1778));
#1534=CARTESIAN_POINT('',(0.020429535983324,0.0476482659578323,0.1778));
#1535=CARTESIAN_POINT('',(0.021200267991662,0.0476482659578323,0.1778));
#1536=CARTESIAN_POINT('',(0.0235124640166759,0.0476482659578323,0.1778));
#1537=CARTESIAN_POINT('',(0.0235124640166759,0.0457951329789162,0.1778));
#1538=CARTESIAN_POINT('',(0.0235124640166759,0.043942,0.1778));
#1539=CARTESIAN_POINT('',(0.033727232008338,0.043942,0.1778));
#1540=CARTESIAN_POINT('',(0.043942,0.043942,0.1778));
#1541=CARTESIAN_POINT('',(0.043942,0.0361242584629506,0.1778));
#1542=CARTESIAN_POINT('',(0.043942,0.0283065169259011,0.1778));
#1543=CARTESIAN_POINT('',(0.0462681560127139,0.0283065169259011,0.1778));
#1544=CARTESIAN_POINT('',(0.0485943120254278,0.0283065169259011,0.1778));
#1545=CARTESIAN_POINT('',(0.0485943120254278,0.0267262584629506,0.1778));
#1546=CARTESIAN_POINT('',(0.0485943120254278,0.025146,0.1778));
#1547=CARTESIAN_POINT('',(0.0462681560127139,0.025146,0.1778));
#1548=CARTESIAN_POINT('',(0.043942,0.025146,0.1778));
#1549=CARTESIAN_POINT('',(0.043942,0.0189085169259012,0.1778));
#1550=CARTESIAN_POINT('',(0.043942,0.0126710338518023,0.1778));
#1551=CARTESIAN_POINT('',(0.047117,0.0126710338518023,0.1778));
#1552=CARTESIAN_POINT('',(0.050292,0.0126710338518023,0.1778));
#1553=CARTESIAN_POINT('',(0.050292,0.025146,0.1778));
#1554=CARTESIAN_POINT('',(0.050292,0.050292,0.1778));
#1555=CARTESIAN_POINT('',(0.0361315,0.050292,0.1778));
#1556=CARTESIAN_POINT('',(0.021124815946728,0.025146,0.));
#1557=CARTESIAN_POINT('',(0.006477,0.006477,0.));
#1558=CARTESIAN_POINT('',(0.009652,0.006477,0.));
#1559=CARTESIAN_POINT('',(0.006477,0.037465,0.));
#1560=CARTESIAN_POINT('',(0.009652,0.037465,0.));
#1561=CARTESIAN_POINT('',(0.037465,0.037465,0.));
#1562=CARTESIAN_POINT('',(0.04064,0.037465,0.));
#1563=CARTESIAN_POINT('',(0.037465,0.006477,0.));
#1564=CARTESIAN_POINT('',(0.04064,0.006477,0.));
#1565=CARTESIAN_POINT('',(0.021971,0.021971,0.));
#1566=CARTESIAN_POINT('',(0.024511,0.021971,0.));
#1567=CARTESIAN_POINT('',(0.047117,0.0126710338518023,0.));
#1568=CARTESIAN_POINT('',(0.043942,0.0126710338518023,0.));
#1569=CARTESIAN_POINT('',(0.043942,0.0189085169259012,0.));
#1570=CARTESIAN_POINT('',(0.043942,0.025146,0.));
#1571=CARTESIAN_POINT('',(0.0462681560127139,0.025146,0.));
#1572=CARTESIAN_POINT('',(0.0485943120254278,0.025146,0.));
#1573=CARTESIAN_POINT('',(0.0485943120254278,0.0267262584629506,0.));
#1574=CARTESIAN_POINT('',(0.0485943120254278,0.0283065169259011,0.));
#1575=CARTESIAN_POINT('',(0.0462681560127139,0.0283065169259011,0.));
#1576=CARTESIAN_POINT('',(0.043942,0.0283065169259011,0.));
#1577=CARTESIAN_POINT('',(0.043942,0.0361242584629506,0.));
#1578=CARTESIAN_POINT('',(0.043942,0.043942,0.));
#1579=CARTESIAN_POINT('',(0.033727232008338,0.043942,0.));
#1580=CARTESIAN_POINT('',(0.0235124640166759,0.043942,0.));
#1581=CARTESIAN_POINT('',(0.0235124640166759,0.0457951329789162,0.));
#1582=CARTESIAN_POINT('',(0.0235124640166759,0.0476482659578323,0.));
#1583=CARTESIAN_POINT('',(0.021200267991662,0.0476482659578323,0.));
#1584=CARTESIAN_POINT('',(0.020429535983324,0.0476482659578323,0.));
#1585=CARTESIAN_POINT('',(0.020429535983324,0.0457951329789162,0.));
#1586=CARTESIAN_POINT('',(0.020429535983324,0.043942,0.));
#1587=CARTESIAN_POINT('',(0.0097618717700243,0.043942,0.));
#1588=CARTESIAN_POINT('',(0.,0.043942,0.));
#1589=CARTESIAN_POINT('',(0.,0.0361242584629506,0.));
#1590=CARTESIAN_POINT('',(0.,0.0283065169259011,0.));
#1591=CARTESIAN_POINT('',(-0.00232615601271391,0.0283065169259011,0.));
#1592=CARTESIAN_POINT('',(-0.00465231202542782,0.0283065169259011,0.));
#1593=CARTESIAN_POINT('',(-0.00465231202542782,0.0267262584629506,0.));
#1594=CARTESIAN_POINT('',(-0.00465231202542782,0.025146,0.));
#1595=CARTESIAN_POINT('',(-0.00232615601271391,0.025146,0.));
#1596=CARTESIAN_POINT('',(0.,0.025146,0.));
#1597=CARTESIAN_POINT('',(0.,0.0189085169259012,0.));
#1598=CARTESIAN_POINT('',(0.,0.0126710338518023,0.));
#1599=CARTESIAN_POINT('',(-0.003175,0.0126710338518023,0.));
#1600=CARTESIAN_POINT('',(-0.00635,0.0126710338518023,0.));
#1601=CARTESIAN_POINT('',(-0.00635,0.025146,0.));
#1602=CARTESIAN_POINT('',(-0.00635,0.,0.));
#1603=CARTESIAN_POINT('',(-0.003175,0.,0.));
#1604=CARTESIAN_POINT('',(0.037465,0.006477,-0.00381));
#1605=CARTESIAN_POINT('',(0.037465,0.006477,-0.00381));
#1606=CARTESIAN_POINT('',(0.038989,0.006477,-0.00381));
#1607=CARTESIAN_POINT('',(0.037465,0.006477,-0.002286));
#1608=CARTESIAN_POINT('',(0.038989,0.006477,-0.002286));
#1609=CARTESIAN_POINT('',(0.037465,0.037465,-0.00381));
#1610=CARTESIAN_POINT('',(0.037465,0.037465,-0.00381));
#1611=CARTESIAN_POINT('',(0.038989,0.037465,-0.00381));
#1612=CARTESIAN_POINT('',(0.037465,0.037465,-0.002286));
#1613=CARTESIAN_POINT('',(0.038989,0.037465,-0.002286));
#1614=CARTESIAN_POINT('',(0.006477,0.037465,-0.00381));
#1615=CARTESIAN_POINT('',(0.006477,0.037465,-0.00381));
#1616=CARTESIAN_POINT('',(0.008001,0.037465,-0.00381));
#1617=CARTESIAN_POINT('',(0.006477,0.037465,-0.002286));
#1618=CARTESIAN_POINT('',(0.008001,0.037465,-0.002286));
#1619=CARTESIAN_POINT('',(0.006477,0.006477,-0.00381));
#1620=CARTESIAN_POINT('',(0.006477,0.006477,-0.00381));
#1621=CARTESIAN_POINT('',(0.008001,0.006477,-0.00381));
#1622=CARTESIAN_POINT('',(0.006477,0.006477,-0.002286));
#1623=CARTESIAN_POINT('',(0.008001,0.006477,-0.002286));
#1624=CARTESIAN_POINT('',(0.0219275821167233,0.021971,-0.00381));
#1625=CARTESIAN_POINT('',(0.0219275821167233,0.021971,-0.00381));
#1626=CARTESIAN_POINT('',(0.0346275821167232,0.021971,-0.00381));
#1627=CARTESIAN_POINT('',(0.0219275821167233,0.021971,-0.00127));
#1628=CARTESIAN_POINT('',(0.0346275821167232,0.021971,-0.00127));
#1629=CARTESIAN_POINT('',(0.043942,0.0329565,-0.0508));
#1630=CARTESIAN_POINT('',(0.043942,0.0329565,-0.00381));
#1631=CARTESIAN_POINT('',(0.043942,0.043942,-0.00381));
#1632=CARTESIAN_POINT('',(0.043942,0.,-0.00381));
#1633=CARTESIAN_POINT('',(0.043942,0.043942,-0.0508));
#1634=CARTESIAN_POINT('',(0.043942,0.043942,-0.0508));
#1635=CARTESIAN_POINT('',(0.043942,0.0329565,-0.0508));
#1636=CARTESIAN_POINT('',(0.043942,0.,-0.0508));
#1637=CARTESIAN_POINT('',(0.043942,0.,-0.0508));
#1638=CARTESIAN_POINT('',(0.050292,0.025146,-0.0508));
#1639=CARTESIAN_POINT('',(0.050292,0.025146,0.0202488224259306));
#1640=CARTESIAN_POINT('',(0.050292,0.050292,0.0202488224259306));
#1641=CARTESIAN_POINT('',(0.050292,0.0126710338518023,0.0202488224259305));
#1642=CARTESIAN_POINT('',(0.050292,0.050292,-0.0508));
#1643=CARTESIAN_POINT('',(0.050292,0.0126710338518023,0.1778));
#1644=CARTESIAN_POINT('',(0.0361315,0.050292,-0.0508));
#1645=CARTESIAN_POINT('',(0.0775373387870348,0.050292,-0.00939416121296546));
#1646=CARTESIAN_POINT('',(0.0490931775740695,0.050292,0.01905));
#1647=CARTESIAN_POINT('',(0.0361315,0.050292,-0.0508));
#1648=CARTESIAN_POINT('',(-0.00635,0.050292,-0.0508));
#1649=CARTESIAN_POINT('',(-0.00635,0.050292,-0.0508));
#1650=CARTESIAN_POINT('',(0.00768733878703478,0.050292,-0.0223558387870349));
#1651=CARTESIAN_POINT('',(-0.00635,0.025146,-0.0508));
#1652=CARTESIAN_POINT('',(-0.00635,0.0126710338518023,0.1778));
#1653=CARTESIAN_POINT('',(-0.00635,0.025146,-0.0508));
#1654=CARTESIAN_POINT('',(-0.00635,0.,-0.0508));
#1655=CARTESIAN_POINT('',(-0.00635,0.,-0.0508));
#1656=CARTESIAN_POINT('',(-0.003175,0.,-0.0508));
#1657=CARTESIAN_POINT('',(0.0470528299188488,0.,-0.04191));
#1658=CARTESIAN_POINT('',(0.0470528299188488,0.,-0.043434));
#1659=CARTESIAN_POINT('',(-0.003175,0.,-0.0508));
#1660=CARTESIAN_POINT('',(0.,0.,-0.0508));
#1661=CARTESIAN_POINT('',(0.,0.,-0.0508));
#1662=CARTESIAN_POINT('',(0.,0.,-0.00381));
#1663=CARTESIAN_POINT('',(0.0109855,0.,-0.00381));
#1664=CARTESIAN_POINT('',(0.047117,0.,-0.0508));
#1665=CARTESIAN_POINT('',(0.,0.021971,-0.0508));
#1666=CARTESIAN_POINT('',(0.,0.043942,-0.0508));
#1667=CARTESIAN_POINT('',(0.,0.043942,-0.0508));
#1668=CARTESIAN_POINT('',(0.,0.043942,-0.00381));
#1669=CARTESIAN_POINT('',(0.,0.021971,-0.00381));
#1670=CARTESIAN_POINT('',(0.,0.021971,-0.0508));
#1671=CARTESIAN_POINT('',(0.0109855,0.043942,-0.0508));
#1672=CARTESIAN_POINT('',(0.0109855,0.043942,-0.00381));
#1673=CARTESIAN_POINT('',(0.0109855,0.043942,-0.0508));
#1674=CARTESIAN_POINT('',(0.021124815946728,0.025146,-0.0508));
#1675=CARTESIAN_POINT('',(0.0533217134944201,0.038388771761775,-0.0508));
#1676=CARTESIAN_POINT('',(0.0563514269888401,0.0419946776820421,-0.0508));
#1677=CARTESIAN_POINT('',(0.0563514269888401,0.033570338841021,-0.0508));
#1678=CARTESIAN_POINT('',(0.0563514269888401,0.00829732231795788,-0.0508));
#1679=CARTESIAN_POINT('',(0.0533217134944201,0.011903228238225,-0.0508));
#1680=CARTESIAN_POINT('',(0.021124815946728,0.025146,-0.00381));
#1681=CARTESIAN_POINT('',(0.021971,0.021971,-0.00127));
#1682=CARTESIAN_POINT('',(0.021971,0.021971,-0.00127));
#1683=CARTESIAN_POINT('',(0.024511,0.021971,-0.00127));
#1684=CARTESIAN_POINT('',(0.021124815946728,0.025146,-0.00127));
#1685=CARTESIAN_POINT('',(0.006477,0.006477,-0.002286));
#1686=CARTESIAN_POINT('',(0.006477,0.006477,-0.002286));
#1687=CARTESIAN_POINT('',(0.009652,0.006477,-0.002286));
#1688=CARTESIAN_POINT('',(0.021971,0.025146,-0.002286));
#1689=CARTESIAN_POINT('',(0.006477,0.037465,-0.002286));
#1690=CARTESIAN_POINT('',(0.006477,0.037465,-0.002286));
#1691=CARTESIAN_POINT('',(0.009652,0.037465,-0.002286));
#1692=CARTESIAN_POINT('',(0.021971,0.025146,-0.002286));
#1693=CARTESIAN_POINT('',(0.037465,0.037465,-0.002286));
#1694=CARTESIAN_POINT('',(0.037465,0.037465,-0.002286));
#1695=CARTESIAN_POINT('',(0.04064,0.037465,-0.002286));
#1696=CARTESIAN_POINT('',(0.021971,0.025146,-0.002286));
#1697=CARTESIAN_POINT('',(0.037465,0.006477,-0.002286));
#1698=CARTESIAN_POINT('',(0.037465,0.006477,-0.002286));
#1699=CARTESIAN_POINT('',(0.04064,0.006477,-0.002286));
#1700=CARTESIAN_POINT('',(0.021971,0.025146,-0.002286));
#1701=CARTESIAN_POINT('',(-0.003175,0.0126710338518023,0.1778));
#1702=CARTESIAN_POINT('',(0.,0.0126710338518023,0.1778));
#1703=CARTESIAN_POINT('',(0.,0.0189085169259012,0.1778));
#1704=CARTESIAN_POINT('',(0.,0.025146,0.1778));
#1705=CARTESIAN_POINT('',(-0.00232615601271391,0.025146,0.1778));
#1706=CARTESIAN_POINT('',(-0.00465231202542782,0.025146,0.1778));
#1707=CARTESIAN_POINT('',(-0.00465231202542782,0.0267262584629506,0.1778));
#1708=CARTESIAN_POINT('',(-0.00465231202542782,0.0283065169259011,0.1778));
#1709=CARTESIAN_POINT('',(-0.00232615601271391,0.0283065169259011,0.1778));
#1710=CARTESIAN_POINT('',(0.,0.0283065169259011,0.1778));
#1711=CARTESIAN_POINT('',(0.,0.0361242584629506,0.1778));
#1712=CARTESIAN_POINT('',(0.,0.043942,0.1778));
#1713=CARTESIAN_POINT('',(0.0097618717700243,0.043942,0.1778));
#1714=CARTESIAN_POINT('',(0.020429535983324,0.043942,0.1778));
#1715=CARTESIAN_POINT('',(0.020429535983324,0.0457951329789162,0.1778));
#1716=CARTESIAN_POINT('',(0.020429535983324,0.0476482659578323,0.1778));
#1717=CARTESIAN_POINT('',(0.021200267991662,0.0476482659578323,0.1778));
#1718=CARTESIAN_POINT('',(0.0235124640166759,0.0476482659578323,0.1778));
#1719=CARTESIAN_POINT('',(0.0235124640166759,0.0457951329789162,0.1778));
#1720=CARTESIAN_POINT('',(0.0235124640166759,0.043942,0.1778));
#1721=CARTESIAN_POINT('',(0.033727232008338,0.043942,0.1778));
#1722=CARTESIAN_POINT('',(0.043942,0.043942,0.1778));
#1723=CARTESIAN_POINT('',(0.043942,0.0361242584629506,0.1778));
#1724=CARTESIAN_POINT('',(0.043942,0.0283065169259011,0.1778));
#1725=CARTESIAN_POINT('',(0.0462681560127139,0.0283065169259011,0.1778));
#1726=CARTESIAN_POINT('',(0.0485943120254278,0.0283065169259011,0.1778));
#1727=CARTESIAN_POINT('',(0.0485943120254278,0.0267262584629506,0.1778));
#1728=CARTESIAN_POINT('',(0.0485943120254278,0.025146,0.1778));
#1729=CARTESIAN_POINT('',(0.0462681560127139,0.025146,0.1778));
#1730=CARTESIAN_POINT('',(0.043942,0.025146,0.1778));
#1731=CARTESIAN_POINT('',(0.043942,0.0189085169259012,0.1778));
#1732=CARTESIAN_POINT('',(0.043942,0.0126710338518023,0.1778));
#1733=CARTESIAN_POINT('',(0.047117,0.0126710338518023,0.1778));
#1734=CARTESIAN_POINT('',(-0.0312699112129652,0.0126710338518023,0.0994130887870352));
#1735=CARTESIAN_POINT('',(0.0490931775740695,0.0126710338518023,0.01905));
#1736=CARTESIAN_POINT('',(0.127480088787035,0.0126710338518023,0.0974369112129657));
#1737=CARTESIAN_POINT('',(0.0533217134944201,0.011903228238225,-0.0254));
#1738=CARTESIAN_POINT('',(0.0563514269888401,0.00829732231795788,-0.0254));
#1739=CARTESIAN_POINT('',(0.0563514269888401,0.00829732231795788,-0.0254));
#1740=CARTESIAN_POINT('',(0.0533217134944201,0.011903228238225,-0.0254));
#1741=CARTESIAN_POINT('',(0.0533217134944201,0.038388771761775,-0.0254));
#1742=CARTESIAN_POINT('',(0.0533217134944201,0.038388771761775,-0.0254));
#1743=CARTESIAN_POINT('',(0.0563514269888401,0.0419946776820421,-0.0254));
#1744=CARTESIAN_POINT('',(0.0563514269888401,0.0419946776820421,-0.0254));
#1745=CARTESIAN_POINT('',(0.0563514269888401,0.033570338841021,-0.0254));
#1746=CARTESIAN_POINT('',(0.0563514269888401,0.033570338841021,-0.0254));
#1747=CARTESIAN_POINT('',(0.0250007134944201,0.025146,-0.0254));
#1748=CARTESIAN_POINT('',(-0.00307200709357857,0.0470363572239876,0.17145));
#1749=CARTESIAN_POINT('',(-0.00307200709357857,0.0470363572239876,0.177038));
#1750=CARTESIAN_POINT('',(-0.00129400709357857,0.0470363572239876,0.177038));
#1751=CARTESIAN_POINT('',(-0.00307200709357857,0.0470363572239876,0.17145));
#1752=CARTESIAN_POINT('',(-0.00129400709357857,0.0470363572239876,0.17145));
#1753=CARTESIAN_POINT('',(0.021971,0.0314815169259012,0.17145));
#1754=CARTESIAN_POINT('',(0.0470140070935786,0.0159266766278147,0.17145));
#1755=CARTESIAN_POINT('',(0.0470140070935786,0.0159266766278147,0.177038));
#1756=CARTESIAN_POINT('',(0.0487920070935786,0.0159266766278147,0.177038));
#1757=CARTESIAN_POINT('',(0.0470140070935786,0.0159266766278147,0.17145));
#1758=CARTESIAN_POINT('',(0.0487920070935786,0.0159266766278147,0.17145));
#1759=CARTESIAN_POINT('',(0.021971,0.0314815169259012,0.17145));
#1760=CARTESIAN_POINT('',(0.0470140070935786,0.0470363572239876,0.17145));
#1761=CARTESIAN_POINT('',(0.0470140070935786,0.0470363572239876,0.177038));
#1762=CARTESIAN_POINT('',(0.0487920070935786,0.0470363572239876,0.177038));
#1763=CARTESIAN_POINT('',(0.0470140070935786,0.0470363572239876,0.17145));
#1764=CARTESIAN_POINT('',(0.0487920070935786,0.0470363572239876,0.17145));
#1765=CARTESIAN_POINT('',(0.021971,0.0314815169259012,0.17145));
#1766=CARTESIAN_POINT('',(-0.00307200709357857,0.0159266766278147,0.17145));
#1767=CARTESIAN_POINT('',(-0.00307200709357857,0.0159266766278147,0.177038));
#1768=CARTESIAN_POINT('',(-0.00129400709357857,0.0159266766278147,0.177038));
#1769=CARTESIAN_POINT('',(-0.00307200709357857,0.0159266766278147,0.17145));
#1770=CARTESIAN_POINT('',(-0.00129400709357857,0.0159266766278147,0.17145));
#1771=CARTESIAN_POINT('',(0.021971,0.0314815169259012,0.17145));
#1772=CARTESIAN_POINT('',(0.0470140070935786,0.0159266766278147,0.177038));
#1773=CARTESIAN_POINT('',(-0.00307200709357857,0.0159266766278147,0.1778));
#1774=CARTESIAN_POINT('',(0.0470140070935786,0.0470363572239876,0.1778));
#1775=CARTESIAN_POINT('',(-0.00307200709357857,0.0470363572239876,0.177038));
#1776=CARTESIAN_POINT('',(0.0470528299188488,0.00775723244039098,-0.04191));
#1777=CARTESIAN_POINT('',(0.0470528299188488,0.00775723244039098,-0.04191));
#1778=CARTESIAN_POINT('',(0.0470528299188488,0.00775723244039098,-0.043434));
#1779=CARTESIAN_POINT('',(0.0524616994775299,0.00775723244039098,-0.04191));
#1780=CARTESIAN_POINT('',(0.0490931775740695,0.0487175984308124,0.01905));
#1781=CARTESIAN_POINT('',(0.0490931775740695,-0.0305577404797077,0.01905));
#1782=CARTESIAN_POINT('',(0.0503631775740695,0.101843553727573,0.02032));
#1783=MECHANICAL_DESIGN_GEOMETRIC_PRESENTATION_REPRESENTATION('',(#1078),
#1784);
#1784=(
GEOMETRIC_REPRESENTATION_CONTEXT(3)
GLOBAL_UNCERTAINTY_ASSIGNED_CONTEXT((#1785))
GLOBAL_UNIT_ASSIGNED_CONTEXT((#1788,#1787,#1786))
REPRESENTATION_CONTEXT('Part 1','TOP_LEVEL_ASSEMBLY_PART')
);
#1785=UNCERTAINTY_MEASURE_WITH_UNIT(LENGTH_MEASURE(1.E-8),#1788,
'DISTANCE_ACCURACY_VALUE','Maximum Tolerance applied to model');
#1786=(
NAMED_UNIT(*)
SI_UNIT($,.STERADIAN.)
SOLID_ANGLE_UNIT()
);
#1787=(
NAMED_UNIT(*)
PLANE_ANGLE_UNIT()
SI_UNIT($,.RADIAN.)
);
#1788=(
LENGTH_UNIT()
NAMED_UNIT(*)
SI_UNIT($,.METRE.)
);
#1789=PRODUCT_DEFINITION_SHAPE('','',#1790);
#1790=PRODUCT_DEFINITION('','',#1792,#1791);
#1791=PRODUCT_DEFINITION_CONTEXT('',#1798,'design');
#1792=PRODUCT_DEFINITION_FORMATION_WITH_SPECIFIED_SOURCE('','',#1794,
 .NOT_KNOWN.);
#1793=PRODUCT_RELATED_PRODUCT_CATEGORY('','',(#1794));
#1794=PRODUCT('Part 1','Part 1','Part 1',(#1796));
#1795=PRODUCT_CATEGORY('','');
#1796=PRODUCT_CONTEXT('',#1798,'mechanical');
#1797=APPLICATION_PROTOCOL_DEFINITION('international standard',
'ap242_managed_model_based_3d_engineering',2020,#1798);
#1798=APPLICATION_CONTEXT('managed model based 3d engineering');
ENDSEC;
END-ISO-10303-21;
