ISO-10303-21;
HEADER;
/* Generated by software containing ST-Developer
 * from STEP Tools, Inc. (www.steptools.com) 
 */
/* OPTION: using custom renumber hook */

FILE_DESCRIPTION(
/* description */ ('STEP AP242 Edition 2',
'CAx-IF Rec.Pracs.---Representation and Presentation of Product Manufa
cturing Information (PMI)---4.0---2014-10-13',
'CAx-IF Rec.Pracs.---3D Tessellated Geometry---0.4---2014-09-14','2;1',
'CAx-IF Rec.Pracs.---User Defined Attributes---1.5---2016-08-15'),
/* implementation_level */ '2;1');

FILE_NAME(
/* name */ 'V2 - Part 9',
/* time_stamp */ '2026-05-14T03:09:37Z',
/* author */ (''),
/* organization */ (''),
/* preprocessor_version */ 'ST-DEVELOPER v20',
/* originating_system */ 'ONSHAPE BY PTC INC, 1.214',
/* authorisation */ '  ');

FILE_SCHEMA (('AP242_MANAGED_MODEL_BASED_3D_ENGINEERING_MIM_LF { 1 0 10303 442 3 1 4 }'));
ENDSEC;

DATA;
#10=SHAPE_REPRESENTATION_RELATIONSHIP('','',#551,#11);
#11=ADVANCED_BREP_SHAPE_REPRESENTATION('',(#549),#915);
#12=LINE('',#798,#42);
#13=LINE('',#801,#43);
#14=LINE('',#803,#44);
#15=LINE('',#805,#45);
#16=LINE('',#807,#46);
#17=LINE('',#809,#47);
#18=LINE('',#811,#48);
#19=LINE('',#813,#49);
#20=LINE('',#815,#50);
#21=LINE('',#817,#51);
#22=LINE('',#832,#52);
#23=LINE('',#835,#53);
#24=LINE('',#837,#54);
#25=LINE('',#839,#55);
#26=LINE('',#840,#56);
#27=LINE('',#842,#57);
#28=LINE('',#844,#58);
#29=LINE('',#856,#59);
#30=LINE('',#859,#60);
#31=LINE('',#861,#61);
#32=LINE('',#863,#62);
#33=LINE('',#865,#63);
#34=LINE('',#867,#64);
#35=LINE('',#868,#65);
#36=LINE('',#894,#66);
#37=LINE('',#895,#67);
#38=LINE('',#897,#68);
#39=LINE('',#898,#69);
#40=LINE('',#900,#70);
#41=LINE('',#901,#71);
#42=VECTOR('',#649,1.);
#43=VECTOR('',#650,1.);
#44=VECTOR('',#651,1.);
#45=VECTOR('',#652,1.);
#46=VECTOR('',#655,1.);
#47=VECTOR('',#656,1.);
#48=VECTOR('',#657,1.);
#49=VECTOR('',#660,1.);
#50=VECTOR('',#661,1.);
#51=VECTOR('',#662,1.);
#52=VECTOR('',#679,1.);
#53=VECTOR('',#680,1.);
#54=VECTOR('',#681,1.);
#55=VECTOR('',#682,1.);
#56=VECTOR('',#683,1.);
#57=VECTOR('',#684,1.);
#58=VECTOR('',#685,1.);
#59=VECTOR('',#698,1.);
#60=VECTOR('',#699,1.);
#61=VECTOR('',#700,1.);
#62=VECTOR('',#701,1.);
#63=VECTOR('',#702,1.);
#64=VECTOR('',#703,1.);
#65=VECTOR('',#704,1.);
#66=VECTOR('',#739,1.);
#67=VECTOR('',#740,1.);
#68=VECTOR('',#743,1.);
#69=VECTOR('',#744,1.);
#70=VECTOR('',#747,1.);
#71=VECTOR('',#748,1.);
#72=PLANE('',#568);
#73=PLANE('',#569);
#74=PLANE('',#570);
#75=PLANE('',#574);
#76=PLANE('',#583);
#77=PLANE('',#591);
#78=PLANE('',#594);
#79=PLANE('',#597);
#80=PLANE('',#600);
#81=PLANE('',#601);
#82=PLANE('',#602);
#83=PLANE('',#603);
#84=PLANE('',#604);
#85=PLANE('',#608);
#86=PLANE('',#612);
#87=PLANE('',#613);
#88=PLANE('',#614);
#89=ORIENTED_EDGE('',*,*,#209,.T.);
#90=ORIENTED_EDGE('',*,*,#210,.F.);
#91=ORIENTED_EDGE('',*,*,#211,.F.);
#92=ORIENTED_EDGE('',*,*,#212,.T.);
#93=ORIENTED_EDGE('',*,*,#213,.F.);
#94=ORIENTED_EDGE('',*,*,#214,.T.);
#95=ORIENTED_EDGE('',*,*,#215,.F.);
#96=ORIENTED_EDGE('',*,*,#216,.T.);
#97=ORIENTED_EDGE('',*,*,#217,.F.);
#98=ORIENTED_EDGE('',*,*,#218,.T.);
#99=ORIENTED_EDGE('',*,*,#219,.T.);
#100=ORIENTED_EDGE('',*,*,#220,.F.);
#101=ORIENTED_EDGE('',*,*,#221,.F.);
#102=ORIENTED_EDGE('',*,*,#222,.T.);
#103=ORIENTED_EDGE('',*,*,#223,.T.);
#104=ORIENTED_EDGE('',*,*,#224,.F.);
#105=ORIENTED_EDGE('',*,*,#225,.F.);
#106=ORIENTED_EDGE('',*,*,#220,.T.);
#107=ORIENTED_EDGE('',*,*,#226,.F.);
#108=ORIENTED_EDGE('',*,*,#222,.F.);
#109=ORIENTED_EDGE('',*,*,#227,.T.);
#110=ORIENTED_EDGE('',*,*,#228,.T.);
#111=ORIENTED_EDGE('',*,*,#229,.T.);
#112=ORIENTED_EDGE('',*,*,#230,.F.);
#113=ORIENTED_EDGE('',*,*,#231,.T.);
#114=ORIENTED_EDGE('',*,*,#232,.T.);
#115=ORIENTED_EDGE('',*,*,#233,.T.);
#116=ORIENTED_EDGE('',*,*,#234,.T.);
#117=ORIENTED_EDGE('',*,*,#235,.F.);
#118=ORIENTED_EDGE('',*,*,#236,.T.);
#119=ORIENTED_EDGE('',*,*,#237,.T.);
#120=ORIENTED_EDGE('',*,*,#238,.F.);
#121=ORIENTED_EDGE('',*,*,#227,.F.);
#122=ORIENTED_EDGE('',*,*,#221,.T.);
#123=ORIENTED_EDGE('',*,*,#225,.T.);
#124=ORIENTED_EDGE('',*,*,#239,.F.);
#125=ORIENTED_EDGE('',*,*,#240,.F.);
#126=ORIENTED_EDGE('',*,*,#241,.T.);
#127=ORIENTED_EDGE('',*,*,#229,.F.);
#128=ORIENTED_EDGE('',*,*,#209,.F.);
#129=ORIENTED_EDGE('',*,*,#242,.F.);
#130=ORIENTED_EDGE('',*,*,#243,.T.);
#131=ORIENTED_EDGE('',*,*,#244,.F.);
#132=ORIENTED_EDGE('',*,*,#245,.T.);
#133=ORIENTED_EDGE('',*,*,#246,.F.);
#134=ORIENTED_EDGE('',*,*,#247,.F.);
#135=ORIENTED_EDGE('',*,*,#248,.T.);
#136=ORIENTED_EDGE('',*,*,#249,.T.);
#137=ORIENTED_EDGE('',*,*,#250,.T.);
#138=ORIENTED_EDGE('',*,*,#251,.T.);
#139=ORIENTED_EDGE('',*,*,#252,.T.);
#140=ORIENTED_EDGE('',*,*,#223,.F.);
#141=ORIENTED_EDGE('',*,*,#219,.F.);
#142=ORIENTED_EDGE('',*,*,#226,.T.);
#143=ORIENTED_EDGE('',*,*,#253,.T.);
#144=ORIENTED_EDGE('',*,*,#230,.T.);
#145=ORIENTED_EDGE('',*,*,#215,.T.);
#146=ORIENTED_EDGE('',*,*,#213,.T.);
#147=ORIENTED_EDGE('',*,*,#217,.T.);
#148=ORIENTED_EDGE('',*,*,#211,.T.);
#149=ORIENTED_EDGE('',*,*,#254,.T.);
#150=ORIENTED_EDGE('',*,*,#255,.F.);
#151=ORIENTED_EDGE('',*,*,#256,.T.);
#152=ORIENTED_EDGE('',*,*,#257,.F.);
#153=ORIENTED_EDGE('',*,*,#258,.T.);
#154=ORIENTED_EDGE('',*,*,#233,.F.);
#155=ORIENTED_EDGE('',*,*,#218,.F.);
#156=ORIENTED_EDGE('',*,*,#258,.F.);
#157=ORIENTED_EDGE('',*,*,#259,.T.);
#158=ORIENTED_EDGE('',*,*,#234,.F.);
#159=ORIENTED_EDGE('',*,*,#216,.F.);
#160=ORIENTED_EDGE('',*,*,#259,.F.);
#161=ORIENTED_EDGE('',*,*,#260,.T.);
#162=ORIENTED_EDGE('',*,*,#231,.F.);
#163=ORIENTED_EDGE('',*,*,#214,.F.);
#164=ORIENTED_EDGE('',*,*,#260,.F.);
#165=ORIENTED_EDGE('',*,*,#261,.T.);
#166=ORIENTED_EDGE('',*,*,#232,.F.);
#167=ORIENTED_EDGE('',*,*,#212,.F.);
#168=ORIENTED_EDGE('',*,*,#261,.F.);
#169=ORIENTED_EDGE('',*,*,#251,.F.);
#170=ORIENTED_EDGE('',*,*,#262,.T.);
#171=ORIENTED_EDGE('',*,*,#240,.T.);
#172=ORIENTED_EDGE('',*,*,#263,.F.);
#173=ORIENTED_EDGE('',*,*,#249,.F.);
#174=ORIENTED_EDGE('',*,*,#264,.T.);
#175=ORIENTED_EDGE('',*,*,#235,.T.);
#176=ORIENTED_EDGE('',*,*,#265,.T.);
#177=ORIENTED_EDGE('',*,*,#237,.F.);
#178=ORIENTED_EDGE('',*,*,#266,.T.);
#179=ORIENTED_EDGE('',*,*,#247,.T.);
#180=ORIENTED_EDGE('',*,*,#267,.T.);
#181=ORIENTED_EDGE('',*,*,#238,.T.);
#182=ORIENTED_EDGE('',*,*,#267,.F.);
#183=ORIENTED_EDGE('',*,*,#253,.F.);
#184=ORIENTED_EDGE('',*,*,#228,.F.);
#185=ORIENTED_EDGE('',*,*,#254,.F.);
#186=ORIENTED_EDGE('',*,*,#242,.T.);
#187=ORIENTED_EDGE('',*,*,#255,.T.);
#188=ORIENTED_EDGE('',*,*,#243,.F.);
#189=ORIENTED_EDGE('',*,*,#256,.F.);
#190=ORIENTED_EDGE('',*,*,#244,.T.);
#191=ORIENTED_EDGE('',*,*,#239,.T.);
#192=ORIENTED_EDGE('',*,*,#224,.T.);
#193=ORIENTED_EDGE('',*,*,#252,.F.);
#194=ORIENTED_EDGE('',*,*,#263,.T.);
#195=ORIENTED_EDGE('',*,*,#257,.T.);
#196=ORIENTED_EDGE('',*,*,#245,.F.);
#197=ORIENTED_EDGE('',*,*,#268,.F.);
#198=ORIENTED_EDGE('',*,*,#246,.T.);
#199=ORIENTED_EDGE('',*,*,#210,.T.);
#200=ORIENTED_EDGE('',*,*,#268,.T.);
#201=ORIENTED_EDGE('',*,*,#248,.F.);
#202=ORIENTED_EDGE('',*,*,#266,.F.);
#203=ORIENTED_EDGE('',*,*,#236,.F.);
#204=ORIENTED_EDGE('',*,*,#264,.F.);
#205=ORIENTED_EDGE('',*,*,#250,.F.);
#206=ORIENTED_EDGE('',*,*,#265,.F.);
#207=ORIENTED_EDGE('',*,*,#241,.F.);
#208=ORIENTED_EDGE('',*,*,#262,.F.);
#209=EDGE_CURVE('',#269,#269,#319,.T.);
#210=EDGE_CURVE('',#270,#270,#320,.T.);
#211=EDGE_CURVE('',#271,#271,#321,.T.);
#212=EDGE_CURVE('',#272,#272,#322,.T.);
#213=EDGE_CURVE('',#273,#273,#323,.T.);
#214=EDGE_CURVE('',#274,#274,#324,.T.);
#215=EDGE_CURVE('',#275,#275,#325,.T.);
#216=EDGE_CURVE('',#276,#276,#326,.T.);
#217=EDGE_CURVE('',#277,#277,#327,.T.);
#218=EDGE_CURVE('',#278,#278,#328,.T.);
#219=EDGE_CURVE('',#279,#280,#12,.T.);
#220=EDGE_CURVE('',#281,#280,#13,.T.);
#221=EDGE_CURVE('',#282,#281,#14,.T.);
#222=EDGE_CURVE('',#282,#279,#15,.T.);
#223=EDGE_CURVE('',#280,#283,#16,.T.);
#224=EDGE_CURVE('',#284,#283,#17,.T.);
#225=EDGE_CURVE('',#281,#284,#18,.T.);
#226=EDGE_CURVE('',#279,#285,#19,.T.);
#227=EDGE_CURVE('',#282,#286,#20,.T.);
#228=EDGE_CURVE('',#286,#285,#21,.T.);
#229=EDGE_CURVE('',#287,#287,#329,.T.);
#230=EDGE_CURVE('',#288,#288,#330,.T.);
#231=EDGE_CURVE('',#289,#289,#331,.F.);
#232=EDGE_CURVE('',#290,#290,#332,.F.);
#233=EDGE_CURVE('',#291,#291,#333,.F.);
#234=EDGE_CURVE('',#292,#292,#334,.F.);
#235=EDGE_CURVE('',#293,#294,#22,.T.);
#236=EDGE_CURVE('',#293,#295,#23,.T.);
#237=EDGE_CURVE('',#295,#296,#24,.T.);
#238=EDGE_CURVE('',#286,#296,#25,.T.);
#239=EDGE_CURVE('',#297,#284,#26,.T.);
#240=EDGE_CURVE('',#298,#297,#27,.T.);
#241=EDGE_CURVE('',#298,#294,#28,.F.);
#242=EDGE_CURVE('',#299,#299,#335,.T.);
#243=EDGE_CURVE('',#300,#300,#336,.T.);
#244=EDGE_CURVE('',#301,#301,#337,.T.);
#245=EDGE_CURVE('',#302,#302,#338,.T.);
#246=EDGE_CURVE('',#303,#303,#339,.T.);
#247=EDGE_CURVE('',#304,#305,#29,.T.);
#248=EDGE_CURVE('',#304,#306,#30,.T.);
#249=EDGE_CURVE('',#306,#307,#31,.T.);
#250=EDGE_CURVE('',#307,#308,#32,.F.);
#251=EDGE_CURVE('',#308,#309,#33,.T.);
#252=EDGE_CURVE('',#309,#283,#34,.T.);
#253=EDGE_CURVE('',#285,#305,#35,.T.);
#254=EDGE_CURVE('',#310,#310,#340,.T.);
#255=EDGE_CURVE('',#311,#311,#341,.T.);
#256=EDGE_CURVE('',#312,#312,#342,.T.);
#257=EDGE_CURVE('',#313,#313,#343,.T.);
#258=EDGE_CURVE('',#314,#314,#344,.F.);
#259=EDGE_CURVE('',#315,#315,#345,.F.);
#260=EDGE_CURVE('',#316,#316,#346,.F.);
#261=EDGE_CURVE('',#317,#317,#347,.F.);
#262=EDGE_CURVE('',#308,#298,#36,.T.);
#263=EDGE_CURVE('',#309,#297,#37,.T.);
#264=EDGE_CURVE('',#306,#293,#38,.T.);
#265=EDGE_CURVE('',#294,#307,#39,.T.);
#266=EDGE_CURVE('',#295,#304,#40,.T.);
#267=EDGE_CURVE('',#305,#296,#41,.T.);
#268=EDGE_CURVE('',#318,#318,#348,.T.);
#269=VERTEX_POINT('',#774);
#270=VERTEX_POINT('',#776);
#271=VERTEX_POINT('',#779);
#272=VERTEX_POINT('',#781);
#273=VERTEX_POINT('',#784);
#274=VERTEX_POINT('',#786);
#275=VERTEX_POINT('',#789);
#276=VERTEX_POINT('',#791);
#277=VERTEX_POINT('',#794);
#278=VERTEX_POINT('',#796);
#279=VERTEX_POINT('',#799);
#280=VERTEX_POINT('',#800);
#281=VERTEX_POINT('',#802);
#282=VERTEX_POINT('',#804);
#283=VERTEX_POINT('',#808);
#284=VERTEX_POINT('',#810);
#285=VERTEX_POINT('',#814);
#286=VERTEX_POINT('',#816);
#287=VERTEX_POINT('',#820);
#288=VERTEX_POINT('',#822);
#289=VERTEX_POINT('',#825);
#290=VERTEX_POINT('',#827);
#291=VERTEX_POINT('',#829);
#292=VERTEX_POINT('',#831);
#293=VERTEX_POINT('',#833);
#294=VERTEX_POINT('',#834);
#295=VERTEX_POINT('',#836);
#296=VERTEX_POINT('',#838);
#297=VERTEX_POINT('',#841);
#298=VERTEX_POINT('',#843);
#299=VERTEX_POINT('',#846);
#300=VERTEX_POINT('',#848);
#301=VERTEX_POINT('',#850);
#302=VERTEX_POINT('',#852);
#303=VERTEX_POINT('',#855);
#304=VERTEX_POINT('',#857);
#305=VERTEX_POINT('',#858);
#306=VERTEX_POINT('',#860);
#307=VERTEX_POINT('',#862);
#308=VERTEX_POINT('',#864);
#309=VERTEX_POINT('',#866);
#310=VERTEX_POINT('',#870);
#311=VERTEX_POINT('',#872);
#312=VERTEX_POINT('',#874);
#313=VERTEX_POINT('',#876);
#314=VERTEX_POINT('',#879);
#315=VERTEX_POINT('',#883);
#316=VERTEX_POINT('',#887);
#317=VERTEX_POINT('',#891);
#318=VERTEX_POINT('',#910);
#319=CIRCLE('',#554,0.00254);
#320=CIRCLE('',#555,0.00254);
#321=CIRCLE('',#557,0.001524);
#322=CIRCLE('',#558,0.001524);
#323=CIRCLE('',#560,0.001524);
#324=CIRCLE('',#561,0.001524);
#325=CIRCLE('',#563,0.001524);
#326=CIRCLE('',#564,0.001524);
#327=CIRCLE('',#566,0.001524);
#328=CIRCLE('',#567,0.001524);
#329=CIRCLE('',#572,0.003937);
#330=CIRCLE('',#573,0.003937);
#331=CIRCLE('',#575,0.00254);
#332=CIRCLE('',#576,0.00254);
#333=CIRCLE('',#577,0.00254);
#334=CIRCLE('',#578,0.00254);
#335=CIRCLE('',#579,0.001651);
#336=CIRCLE('',#580,0.001651);
#337=CIRCLE('',#581,0.001651);
#338=CIRCLE('',#582,0.001651);
#339=CIRCLE('',#584,0.0127);
#340=CIRCLE('',#585,0.001651);
#341=CIRCLE('',#586,0.001651);
#342=CIRCLE('',#587,0.001651);
#343=CIRCLE('',#588,0.001651);
#344=CIRCLE('',#590,0.00254);
#345=CIRCLE('',#593,0.00254);
#346=CIRCLE('',#596,0.00254);
#347=CIRCLE('',#599,0.00254);
#348=CIRCLE('',#611,0.0127);
#349=EDGE_LOOP('',(#89));
#350=EDGE_LOOP('',(#90));
#351=EDGE_LOOP('',(#91));
#352=EDGE_LOOP('',(#92));
#353=EDGE_LOOP('',(#93));
#354=EDGE_LOOP('',(#94));
#355=EDGE_LOOP('',(#95));
#356=EDGE_LOOP('',(#96));
#357=EDGE_LOOP('',(#97));
#358=EDGE_LOOP('',(#98));
#359=EDGE_LOOP('',(#99,#100,#101,#102));
#360=EDGE_LOOP('',(#103,#104,#105,#106));
#361=EDGE_LOOP('',(#107,#108,#109,#110));
#362=EDGE_LOOP('',(#111));
#363=EDGE_LOOP('',(#112));
#364=EDGE_LOOP('',(#113));
#365=EDGE_LOOP('',(#114));
#366=EDGE_LOOP('',(#115));
#367=EDGE_LOOP('',(#116));
#368=EDGE_LOOP('',(#117,#118,#119,#120,#121,#122,#123,#124,#125,#126));
#369=EDGE_LOOP('',(#127));
#370=EDGE_LOOP('',(#128));
#371=EDGE_LOOP('',(#129));
#372=EDGE_LOOP('',(#130));
#373=EDGE_LOOP('',(#131));
#374=EDGE_LOOP('',(#132));
#375=EDGE_LOOP('',(#133));
#376=EDGE_LOOP('',(#134,#135,#136,#137,#138,#139,#140,#141,#142,#143));
#377=EDGE_LOOP('',(#144));
#378=EDGE_LOOP('',(#145));
#379=EDGE_LOOP('',(#146));
#380=EDGE_LOOP('',(#147));
#381=EDGE_LOOP('',(#148));
#382=EDGE_LOOP('',(#149));
#383=EDGE_LOOP('',(#150));
#384=EDGE_LOOP('',(#151));
#385=EDGE_LOOP('',(#152));
#386=EDGE_LOOP('',(#153));
#387=EDGE_LOOP('',(#154));
#388=EDGE_LOOP('',(#155));
#389=EDGE_LOOP('',(#156));
#390=EDGE_LOOP('',(#157));
#391=EDGE_LOOP('',(#158));
#392=EDGE_LOOP('',(#159));
#393=EDGE_LOOP('',(#160));
#394=EDGE_LOOP('',(#161));
#395=EDGE_LOOP('',(#162));
#396=EDGE_LOOP('',(#163));
#397=EDGE_LOOP('',(#164));
#398=EDGE_LOOP('',(#165));
#399=EDGE_LOOP('',(#166));
#400=EDGE_LOOP('',(#167));
#401=EDGE_LOOP('',(#168));
#402=EDGE_LOOP('',(#169,#170,#171,#172));
#403=EDGE_LOOP('',(#173,#174,#175,#176));
#404=EDGE_LOOP('',(#177,#178,#179,#180));
#405=EDGE_LOOP('',(#181,#182,#183,#184));
#406=EDGE_LOOP('',(#185));
#407=EDGE_LOOP('',(#186));
#408=EDGE_LOOP('',(#187));
#409=EDGE_LOOP('',(#188));
#410=EDGE_LOOP('',(#189));
#411=EDGE_LOOP('',(#190));
#412=EDGE_LOOP('',(#191,#192,#193,#194));
#413=EDGE_LOOP('',(#195));
#414=EDGE_LOOP('',(#196));
#415=EDGE_LOOP('',(#197));
#416=EDGE_LOOP('',(#198));
#417=EDGE_LOOP('',(#199));
#418=EDGE_LOOP('',(#200));
#419=EDGE_LOOP('',(#201,#202,#203,#204));
#420=EDGE_LOOP('',(#205,#206,#207,#208));
#421=FACE_BOUND('',#349,.T.);
#422=FACE_BOUND('',#350,.T.);
#423=FACE_BOUND('',#351,.T.);
#424=FACE_BOUND('',#352,.T.);
#425=FACE_BOUND('',#353,.T.);
#426=FACE_BOUND('',#354,.T.);
#427=FACE_BOUND('',#355,.T.);
#428=FACE_BOUND('',#356,.T.);
#429=FACE_BOUND('',#357,.T.);
#430=FACE_BOUND('',#358,.T.);
#431=FACE_BOUND('',#359,.T.);
#432=FACE_BOUND('',#360,.T.);
#433=FACE_BOUND('',#361,.T.);
#434=FACE_BOUND('',#362,.T.);
#435=FACE_BOUND('',#363,.T.);
#436=FACE_BOUND('',#364,.T.);
#437=FACE_BOUND('',#365,.T.);
#438=FACE_BOUND('',#366,.T.);
#439=FACE_BOUND('',#367,.T.);
#440=FACE_BOUND('',#368,.T.);
#441=FACE_BOUND('',#369,.T.);
#442=FACE_BOUND('',#370,.T.);
#443=FACE_BOUND('',#371,.T.);
#444=FACE_BOUND('',#372,.T.);
#445=FACE_BOUND('',#373,.T.);
#446=FACE_BOUND('',#374,.T.);
#447=FACE_BOUND('',#375,.T.);
#448=FACE_BOUND('',#376,.T.);
#449=FACE_BOUND('',#377,.T.);
#450=FACE_BOUND('',#378,.T.);
#451=FACE_BOUND('',#379,.T.);
#452=FACE_BOUND('',#380,.T.);
#453=FACE_BOUND('',#381,.T.);
#454=FACE_BOUND('',#382,.T.);
#455=FACE_BOUND('',#383,.T.);
#456=FACE_BOUND('',#384,.T.);
#457=FACE_BOUND('',#385,.T.);
#458=FACE_BOUND('',#386,.T.);
#459=FACE_BOUND('',#387,.T.);
#460=FACE_BOUND('',#388,.T.);
#461=FACE_BOUND('',#389,.T.);
#462=FACE_BOUND('',#390,.T.);
#463=FACE_BOUND('',#391,.T.);
#464=FACE_BOUND('',#392,.T.);
#465=FACE_BOUND('',#393,.T.);
#466=FACE_BOUND('',#394,.T.);
#467=FACE_BOUND('',#395,.T.);
#468=FACE_BOUND('',#396,.T.);
#469=FACE_BOUND('',#397,.T.);
#470=FACE_BOUND('',#398,.T.);
#471=FACE_BOUND('',#399,.T.);
#472=FACE_BOUND('',#400,.T.);
#473=FACE_BOUND('',#401,.T.);
#474=FACE_BOUND('',#402,.T.);
#475=FACE_BOUND('',#403,.T.);
#476=FACE_BOUND('',#404,.T.);
#477=FACE_BOUND('',#405,.T.);
#478=FACE_BOUND('',#406,.T.);
#479=FACE_BOUND('',#407,.T.);
#480=FACE_BOUND('',#408,.T.);
#481=FACE_BOUND('',#409,.T.);
#482=FACE_BOUND('',#410,.T.);
#483=FACE_BOUND('',#411,.T.);
#484=FACE_BOUND('',#412,.T.);
#485=FACE_BOUND('',#413,.T.);
#486=FACE_BOUND('',#414,.T.);
#487=FACE_BOUND('',#415,.T.);
#488=FACE_BOUND('',#416,.T.);
#489=FACE_BOUND('',#417,.T.);
#490=FACE_BOUND('',#418,.T.);
#491=FACE_BOUND('',#419,.T.);
#492=FACE_BOUND('',#420,.T.);
#493=CYLINDRICAL_SURFACE('',#553,0.00254);
#494=CYLINDRICAL_SURFACE('',#556,0.001524);
#495=CYLINDRICAL_SURFACE('',#559,0.001524);
#496=CYLINDRICAL_SURFACE('',#562,0.001524);
#497=CYLINDRICAL_SURFACE('',#565,0.001524);
#498=CYLINDRICAL_SURFACE('',#571,0.003937);
#499=CYLINDRICAL_SURFACE('',#589,0.00254);
#500=CYLINDRICAL_SURFACE('',#592,0.00254);
#501=CYLINDRICAL_SURFACE('',#595,0.00254);
#502=CYLINDRICAL_SURFACE('',#598,0.00254);
#503=CYLINDRICAL_SURFACE('',#605,0.001651);
#504=CYLINDRICAL_SURFACE('',#606,0.001651);
#505=CYLINDRICAL_SURFACE('',#607,0.001651);
#506=CYLINDRICAL_SURFACE('',#609,0.001651);
#507=CYLINDRICAL_SURFACE('',#610,0.0127);
#508=ADVANCED_FACE('',(#421,#422),#493,.F.);
#509=ADVANCED_FACE('',(#423,#424),#494,.F.);
#510=ADVANCED_FACE('',(#425,#426),#495,.F.);
#511=ADVANCED_FACE('',(#427,#428),#496,.F.);
#512=ADVANCED_FACE('',(#429,#430),#497,.F.);
#513=ADVANCED_FACE('',(#431),#72,.F.);
#514=ADVANCED_FACE('',(#432),#73,.F.);
#515=ADVANCED_FACE('',(#433),#74,.T.);
#516=ADVANCED_FACE('',(#434,#435),#498,.F.);
#517=ADVANCED_FACE('',(#436,#437,#438,#439,#440,#441,#442,#443,#444,#445,
#446),#75,.T.);
#518=ADVANCED_FACE('',(#447,#448,#449,#450,#451,#452,#453,#454,#455,#456,
#457),#76,.F.);
#519=ADVANCED_FACE('',(#458,#459),#499,.F.);
#520=ADVANCED_FACE('',(#460,#461),#77,.T.);
#521=ADVANCED_FACE('',(#462,#463),#500,.F.);
#522=ADVANCED_FACE('',(#464,#465),#78,.T.);
#523=ADVANCED_FACE('',(#466,#467),#501,.F.);
#524=ADVANCED_FACE('',(#468,#469),#79,.T.);
#525=ADVANCED_FACE('',(#470,#471),#502,.F.);
#526=ADVANCED_FACE('',(#472,#473),#80,.T.);
#527=ADVANCED_FACE('',(#474),#81,.F.);
#528=ADVANCED_FACE('',(#475),#82,.F.);
#529=ADVANCED_FACE('',(#476),#83,.T.);
#530=ADVANCED_FACE('',(#477),#84,.F.);
#531=ADVANCED_FACE('',(#478,#479),#503,.F.);
#532=ADVANCED_FACE('',(#480,#481),#504,.F.);
#533=ADVANCED_FACE('',(#482,#483),#505,.F.);
#534=ADVANCED_FACE('',(#484),#85,.F.);
#535=ADVANCED_FACE('',(#485,#486),#506,.F.);
#536=ADVANCED_FACE('',(#487,#488),#507,.F.);
#537=ADVANCED_FACE('',(#489,#490),#86,.T.);
#538=ADVANCED_FACE('',(#491),#87,.T.);
#539=ADVANCED_FACE('',(#492),#88,.F.);
#540=CLOSED_SHELL('',(#508,#509,#510,#511,#512,#513,#514,#515,#516,#517,
#518,#519,#520,#521,#522,#523,#524,#525,#526,#527,#528,#529,#530,#531,#532,
#533,#534,#535,#536,#537,#538,#539));
#541=STYLED_ITEM('',(#542),#549);
#542=PRESENTATION_STYLE_ASSIGNMENT((#543));
#543=SURFACE_STYLE_USAGE(.BOTH.,#544);
#544=SURFACE_SIDE_STYLE('',(#545));
#545=SURFACE_STYLE_FILL_AREA(#546);
#546=FILL_AREA_STYLE('',(#547));
#547=FILL_AREA_STYLE_COLOUR('',#548);
#548=COLOUR_RGB('',0.768627450980392,0.886274509803922,0.952941176470588);
#549=MANIFOLD_SOLID_BREP('Part 9',#540);
#550=SHAPE_DEFINITION_REPRESENTATION(#920,#551);
#551=SHAPE_REPRESENTATION('Part 9',(#552),#915);
#552=AXIS2_PLACEMENT_3D('',#771,#615,#616);
#553=AXIS2_PLACEMENT_3D('',#772,#617,#618);
#554=AXIS2_PLACEMENT_3D('',#773,#619,#620);
#555=AXIS2_PLACEMENT_3D('',#775,#621,#622);
#556=AXIS2_PLACEMENT_3D('',#777,#623,#624);
#557=AXIS2_PLACEMENT_3D('',#778,#625,#626);
#558=AXIS2_PLACEMENT_3D('',#780,#627,#628);
#559=AXIS2_PLACEMENT_3D('',#782,#629,#630);
#560=AXIS2_PLACEMENT_3D('',#783,#631,#632);
#561=AXIS2_PLACEMENT_3D('',#785,#633,#634);
#562=AXIS2_PLACEMENT_3D('',#787,#635,#636);
#563=AXIS2_PLACEMENT_3D('',#788,#637,#638);
#564=AXIS2_PLACEMENT_3D('',#790,#639,#640);
#565=AXIS2_PLACEMENT_3D('',#792,#641,#642);
#566=AXIS2_PLACEMENT_3D('',#793,#643,#644);
#567=AXIS2_PLACEMENT_3D('',#795,#645,#646);
#568=AXIS2_PLACEMENT_3D('',#797,#647,#648);
#569=AXIS2_PLACEMENT_3D('',#806,#653,#654);
#570=AXIS2_PLACEMENT_3D('',#812,#658,#659);
#571=AXIS2_PLACEMENT_3D('',#818,#663,#664);
#572=AXIS2_PLACEMENT_3D('',#819,#665,#666);
#573=AXIS2_PLACEMENT_3D('',#821,#667,#668);
#574=AXIS2_PLACEMENT_3D('',#823,#669,#670);
#575=AXIS2_PLACEMENT_3D('',#824,#671,#672);
#576=AXIS2_PLACEMENT_3D('',#826,#673,#674);
#577=AXIS2_PLACEMENT_3D('',#828,#675,#676);
#578=AXIS2_PLACEMENT_3D('',#830,#677,#678);
#579=AXIS2_PLACEMENT_3D('',#845,#686,#687);
#580=AXIS2_PLACEMENT_3D('',#847,#688,#689);
#581=AXIS2_PLACEMENT_3D('',#849,#690,#691);
#582=AXIS2_PLACEMENT_3D('',#851,#692,#693);
#583=AXIS2_PLACEMENT_3D('',#853,#694,#695);
#584=AXIS2_PLACEMENT_3D('',#854,#696,#697);
#585=AXIS2_PLACEMENT_3D('',#869,#705,#706);
#586=AXIS2_PLACEMENT_3D('',#871,#707,#708);
#587=AXIS2_PLACEMENT_3D('',#873,#709,#710);
#588=AXIS2_PLACEMENT_3D('',#875,#711,#712);
#589=AXIS2_PLACEMENT_3D('',#877,#713,#714);
#590=AXIS2_PLACEMENT_3D('',#878,#715,#716);
#591=AXIS2_PLACEMENT_3D('',#880,#717,#718);
#592=AXIS2_PLACEMENT_3D('',#881,#719,#720);
#593=AXIS2_PLACEMENT_3D('',#882,#721,#722);
#594=AXIS2_PLACEMENT_3D('',#884,#723,#724);
#595=AXIS2_PLACEMENT_3D('',#885,#725,#726);
#596=AXIS2_PLACEMENT_3D('',#886,#727,#728);
#597=AXIS2_PLACEMENT_3D('',#888,#729,#730);
#598=AXIS2_PLACEMENT_3D('',#889,#731,#732);
#599=AXIS2_PLACEMENT_3D('',#890,#733,#734);
#600=AXIS2_PLACEMENT_3D('',#892,#735,#736);
#601=AXIS2_PLACEMENT_3D('',#893,#737,#738);
#602=AXIS2_PLACEMENT_3D('',#896,#741,#742);
#603=AXIS2_PLACEMENT_3D('',#899,#745,#746);
#604=AXIS2_PLACEMENT_3D('',#902,#749,#750);
#605=AXIS2_PLACEMENT_3D('',#903,#751,#752);
#606=AXIS2_PLACEMENT_3D('',#904,#753,#754);
#607=AXIS2_PLACEMENT_3D('',#905,#755,#756);
#608=AXIS2_PLACEMENT_3D('',#906,#757,#758);
#609=AXIS2_PLACEMENT_3D('',#907,#759,#760);
#610=AXIS2_PLACEMENT_3D('',#908,#761,#762);
#611=AXIS2_PLACEMENT_3D('',#909,#763,#764);
#612=AXIS2_PLACEMENT_3D('',#911,#765,#766);
#613=AXIS2_PLACEMENT_3D('',#912,#767,#768);
#614=AXIS2_PLACEMENT_3D('',#913,#769,#770);
#615=DIRECTION('',(0.,0.,1.));
#616=DIRECTION('',(1.,0.,0.));
#617=DIRECTION('',(0.,0.,1.));
#618=DIRECTION('',(1.,0.,0.));
#619=DIRECTION('',(0.,0.,1.));
#620=DIRECTION('',(1.,0.,0.));
#621=DIRECTION('',(0.,0.,1.));
#622=DIRECTION('',(1.,0.,0.));
#623=DIRECTION('',(0.,0.,1.));
#624=DIRECTION('',(1.,0.,0.));
#625=DIRECTION('',(0.,0.,1.));
#626=DIRECTION('',(1.,0.,0.));
#627=DIRECTION('',(0.,0.,1.));
#628=DIRECTION('',(1.,0.,0.));
#629=DIRECTION('',(0.,0.,1.));
#630=DIRECTION('',(1.,0.,0.));
#631=DIRECTION('',(0.,0.,1.));
#632=DIRECTION('',(1.,0.,0.));
#633=DIRECTION('',(0.,0.,1.));
#634=DIRECTION('',(1.,0.,0.));
#635=DIRECTION('',(0.,0.,1.));
#636=DIRECTION('',(1.,0.,0.));
#637=DIRECTION('',(0.,0.,1.));
#638=DIRECTION('',(1.,0.,0.));
#639=DIRECTION('',(0.,0.,1.));
#640=DIRECTION('',(1.,0.,0.));
#641=DIRECTION('',(0.,0.,1.));
#642=DIRECTION('',(1.,0.,0.));
#643=DIRECTION('',(0.,0.,1.));
#644=DIRECTION('',(1.,0.,0.));
#645=DIRECTION('',(0.,0.,1.));
#646=DIRECTION('',(1.,0.,0.));
#647=DIRECTION('',(0.,1.,0.));
#648=DIRECTION('',(0.,0.,1.));
#649=DIRECTION('',(1.,0.,0.));
#650=DIRECTION('',(0.,0.,-1.));
#651=DIRECTION('',(1.,0.,0.));
#652=DIRECTION('',(0.,0.,-1.));
#653=DIRECTION('',(-1.,0.,0.));
#654=DIRECTION('',(0.,0.,1.));
#655=DIRECTION('',(0.,1.,0.));
#656=DIRECTION('',(0.,0.,-1.));
#657=DIRECTION('',(0.,1.,0.));
#658=DIRECTION('',(-1.,-3.44930302230336E-17,0.));
#659=DIRECTION('',(3.44930302230336E-17,-1.,0.));
#660=DIRECTION('',(-3.44930302230336E-17,1.,0.));
#661=DIRECTION('',(-3.44930302230336E-17,1.,0.));
#662=DIRECTION('',(0.,0.,-1.));
#663=DIRECTION('',(0.,0.,-1.));
#664=DIRECTION('',(-1.,0.,0.));
#665=DIRECTION('',(0.,0.,1.));
#666=DIRECTION('',(1.,0.,0.));
#667=DIRECTION('',(0.,0.,1.));
#668=DIRECTION('',(1.,0.,0.));
#669=DIRECTION('',(0.,0.,1.));
#670=DIRECTION('',(1.,0.,0.));
#671=DIRECTION('',(0.,0.,1.));
#672=DIRECTION('',(1.,0.,0.));
#673=DIRECTION('',(0.,0.,1.));
#674=DIRECTION('',(1.,0.,0.));
#675=DIRECTION('',(0.,0.,1.));
#676=DIRECTION('',(1.,0.,0.));
#677=DIRECTION('',(0.,0.,1.));
#678=DIRECTION('',(1.,0.,0.));
#679=DIRECTION('',(1.,0.,0.));
#680=DIRECTION('',(-0.707106781186548,-0.707106781186548,0.));
#681=DIRECTION('',(0.,-1.,0.));
#682=DIRECTION('',(0.571441662069587,0.820642691340847,0.));
#683=DIRECTION('',(0.571441662069585,-0.820642691340848,0.));
#684=DIRECTION('',(0.,-1.,0.));
#685=DIRECTION('',(0.707106781186548,-0.707106781186548,0.));
#686=DIRECTION('',(0.,0.,1.));
#687=DIRECTION('',(1.,0.,0.));
#688=DIRECTION('',(0.,0.,-1.));
#689=DIRECTION('',(1.,0.,0.));
#690=DIRECTION('',(0.,0.,1.));
#691=DIRECTION('',(1.,0.,0.));
#692=DIRECTION('',(0.,0.,-1.));
#693=DIRECTION('',(1.,0.,0.));
#694=DIRECTION('',(0.,0.,1.));
#695=DIRECTION('',(1.,0.,0.));
#696=DIRECTION('',(0.,0.,-1.));
#697=DIRECTION('',(-1.,0.,0.));
#698=DIRECTION('',(0.,-1.,0.));
#699=DIRECTION('',(0.707106781186548,0.707106781186548,0.));
#700=DIRECTION('',(1.,0.,0.));
#701=DIRECTION('',(-0.707106781186548,0.707106781186548,0.));
#702=DIRECTION('',(0.,-1.,0.));
#703=DIRECTION('',(0.571441662069585,-0.820642691340848,0.));
#704=DIRECTION('',(0.571441662069587,0.820642691340847,0.));
#705=DIRECTION('',(0.,0.,1.));
#706=DIRECTION('',(1.,0.,0.));
#707=DIRECTION('',(0.,0.,-1.));
#708=DIRECTION('',(1.,0.,0.));
#709=DIRECTION('',(0.,0.,1.));
#710=DIRECTION('',(1.,0.,0.));
#711=DIRECTION('',(0.,0.,-1.));
#712=DIRECTION('',(1.,0.,0.));
#713=DIRECTION('',(0.,0.,1.));
#714=DIRECTION('',(1.,0.,0.));
#715=DIRECTION('',(0.,0.,1.));
#716=DIRECTION('',(1.,0.,0.));
#717=DIRECTION('',(0.,0.,1.));
#718=DIRECTION('',(1.,0.,0.));
#719=DIRECTION('',(0.,0.,1.));
#720=DIRECTION('',(1.,0.,0.));
#721=DIRECTION('',(0.,0.,1.));
#722=DIRECTION('',(1.,0.,0.));
#723=DIRECTION('',(0.,0.,1.));
#724=DIRECTION('',(1.,0.,0.));
#725=DIRECTION('',(0.,0.,1.));
#726=DIRECTION('',(1.,0.,0.));
#727=DIRECTION('',(0.,0.,1.));
#728=DIRECTION('',(1.,0.,0.));
#729=DIRECTION('',(0.,0.,1.));
#730=DIRECTION('',(1.,0.,0.));
#731=DIRECTION('',(0.,0.,1.));
#732=DIRECTION('',(1.,0.,0.));
#733=DIRECTION('',(0.,0.,1.));
#734=DIRECTION('',(1.,0.,0.));
#735=DIRECTION('',(0.,0.,1.));
#736=DIRECTION('',(1.,0.,0.));
#737=DIRECTION('',(-1.,0.,0.));
#738=DIRECTION('',(0.,0.,1.));
#739=DIRECTION('',(0.,0.,1.));
#740=DIRECTION('',(0.,0.,1.));
#741=DIRECTION('',(0.,-1.,0.));
#742=DIRECTION('',(0.,0.,-1.));
#743=DIRECTION('',(0.,0.,1.));
#744=DIRECTION('',(0.,0.,-1.));
#745=DIRECTION('',(-1.,0.,0.));
#746=DIRECTION('',(0.,0.,1.));
#747=DIRECTION('',(0.,0.,-1.));
#748=DIRECTION('',(0.,0.,1.));
#749=DIRECTION('',(0.820642691340847,-0.571441662069587,0.));
#750=DIRECTION('',(0.571441662069587,0.820642691340847,0.));
#751=DIRECTION('',(0.,0.,1.));
#752=DIRECTION('',(1.,0.,0.));
#753=DIRECTION('',(0.,0.,1.));
#754=DIRECTION('',(1.,0.,0.));
#755=DIRECTION('',(0.,0.,1.));
#756=DIRECTION('',(1.,0.,0.));
#757=DIRECTION('',(-0.820642691340848,-0.571441662069585,0.));
#758=DIRECTION('',(0.571441662069585,-0.820642691340848,0.));
#759=DIRECTION('',(0.,0.,1.));
#760=DIRECTION('',(1.,0.,0.));
#761=DIRECTION('',(0.,0.,-1.));
#762=DIRECTION('',(-1.,0.,0.));
#763=DIRECTION('',(0.,0.,-1.));
#764=DIRECTION('',(-1.,0.,0.));
#765=DIRECTION('',(0.,0.,-1.));
#766=DIRECTION('',(1.,0.,0.));
#767=DIRECTION('',(-0.707106781186548,0.707106781186548,0.));
#768=DIRECTION('',(0.,0.,-1.));
#769=DIRECTION('',(-0.707106781186548,-0.707106781186548,0.));
#770=DIRECTION('',(0.,0.,1.));
#771=CARTESIAN_POINT('',(0.,0.,0.));
#772=CARTESIAN_POINT('',(0.021971,0.072263,0.1778));
#773=CARTESIAN_POINT('',(0.021971,0.072263,0.18161));
#774=CARTESIAN_POINT('',(0.024511,0.072263,0.18161));
#775=CARTESIAN_POINT('',(0.021971,0.072263,0.18034));
#776=CARTESIAN_POINT('',(0.024511,0.072263,0.18034));
#777=CARTESIAN_POINT('',(-0.00307200709357857,0.0159266766278147,0.1778));
#778=CARTESIAN_POINT('',(-0.00307200709357857,0.0159266766278147,0.1778));
#779=CARTESIAN_POINT('',(-0.00154800709357857,0.0159266766278147,0.1778));
#780=CARTESIAN_POINT('',(-0.00307200709357857,0.0159266766278147,0.17907));
#781=CARTESIAN_POINT('',(-0.00154800709357857,0.0159266766278147,0.17907));
#782=CARTESIAN_POINT('',(-0.00307200709357857,0.0470363572239876,0.1778));
#783=CARTESIAN_POINT('',(-0.00307200709357857,0.0470363572239876,0.1778));
#784=CARTESIAN_POINT('',(-0.00154800709357857,0.0470363572239876,0.1778));
#785=CARTESIAN_POINT('',(-0.00307200709357857,0.0470363572239876,0.17907));
#786=CARTESIAN_POINT('',(-0.00154800709357857,0.0470363572239876,0.17907));
#787=CARTESIAN_POINT('',(0.0470140070935786,0.0470363572239876,0.1778));
#788=CARTESIAN_POINT('',(0.0470140070935786,0.0470363572239876,0.1778));
#789=CARTESIAN_POINT('',(0.0485380070935786,0.0470363572239876,0.1778));
#790=CARTESIAN_POINT('',(0.0470140070935786,0.0470363572239876,0.17907));
#791=CARTESIAN_POINT('',(0.0485380070935786,0.0470363572239876,0.17907));
#792=CARTESIAN_POINT('',(0.0470140070935786,0.0159266766278147,0.1778));
#793=CARTESIAN_POINT('',(0.0470140070935786,0.0159266766278147,0.1778));
#794=CARTESIAN_POINT('',(0.0485380070935786,0.0159266766278147,0.1778));
#795=CARTESIAN_POINT('',(0.0470140070935786,0.0159266766278147,0.17907));
#796=CARTESIAN_POINT('',(0.0485380070935786,0.0159266766278147,0.17907));
#797=CARTESIAN_POINT('',(-0.003175,0.0126710338518023,0.18161));
#798=CARTESIAN_POINT('',(-0.003175,0.0126710338518023,0.1778));
#799=CARTESIAN_POINT('',(-0.00635,0.0126710338518023,0.1778));
#800=CARTESIAN_POINT('',(0.050292,0.0126710338518023,0.1778));
#801=CARTESIAN_POINT('',(0.050292,0.0126710338518023,0.18161));
#802=CARTESIAN_POINT('',(0.050292,0.0126710338518023,0.18161));
#803=CARTESIAN_POINT('',(-0.003175,0.0126710338518023,0.18161));
#804=CARTESIAN_POINT('',(-0.00635,0.0126710338518023,0.18161));
#805=CARTESIAN_POINT('',(-0.00635,0.0126710338518023,0.18161));
#806=CARTESIAN_POINT('',(0.050292,0.025146,0.18161));
#807=CARTESIAN_POINT('',(0.050292,0.025146,0.1778));
#808=CARTESIAN_POINT('',(0.050292,0.050292,0.1778));
#809=CARTESIAN_POINT('',(0.050292,0.050292,0.18161));
#810=CARTESIAN_POINT('',(0.050292,0.050292,0.18161));
#811=CARTESIAN_POINT('',(0.050292,0.025146,0.18161));
#812=CARTESIAN_POINT('',(-0.00635,0.025146,0.18161));
#813=CARTESIAN_POINT('',(-0.00635,0.025146,0.1778));
#814=CARTESIAN_POINT('',(-0.00635,0.050292,0.1778));
#815=CARTESIAN_POINT('',(-0.00635,0.025146,0.18161));
#816=CARTESIAN_POINT('',(-0.00635,0.050292,0.18161));
#817=CARTESIAN_POINT('',(-0.00635,0.050292,0.18161));
#818=CARTESIAN_POINT('',(0.021971,0.021971,0.18161));
#819=CARTESIAN_POINT('',(0.021971,0.021971,0.18161));
#820=CARTESIAN_POINT('',(0.025908,0.021971,0.18161));
#821=CARTESIAN_POINT('',(0.021971,0.021971,0.1778));
#822=CARTESIAN_POINT('',(0.025908,0.021971,0.1778));
#823=CARTESIAN_POINT('',(0.021971,0.0314815169259012,0.18161));
#824=CARTESIAN_POINT('',(-0.00307200709357857,0.0470363572239876,0.18161));
#825=CARTESIAN_POINT('',(-0.000532007093578575,0.0470363572239876,0.18161));
#826=CARTESIAN_POINT('',(-0.00307200709357857,0.0159266766278147,0.18161));
#827=CARTESIAN_POINT('',(-0.000532007093578575,0.0159266766278147,0.18161));
#828=CARTESIAN_POINT('',(0.0470140070935786,0.0159266766278147,0.18161));
#829=CARTESIAN_POINT('',(0.0495540070935786,0.0159266766278147,0.18161));
#830=CARTESIAN_POINT('',(0.0470140070935786,0.0470363572239876,0.18161));
#831=CARTESIAN_POINT('',(0.0495540070935786,0.0470363572239876,0.18161));
#832=CARTESIAN_POINT('',(0.0109855,0.094234,0.18161));
#833=CARTESIAN_POINT('',(0.00762,0.094234,0.18161));
#834=CARTESIAN_POINT('',(0.036322,0.094234,0.18161));
#835=CARTESIAN_POINT('',(-0.0165807415370494,0.0700332584629506,0.18161));
#836=CARTESIAN_POINT('',(0.,0.086614,0.18161));
#837=CARTESIAN_POINT('',(0.,0.0768225914998055,0.18161));
#838=CARTESIAN_POINT('',(-1.7347234759768E-18,0.0594111829996109,0.18161));
#839=CARTESIAN_POINT('',(-0.003175,0.0548515914998055,0.18161));
#840=CARTESIAN_POINT('',(0.047117,0.0548515914998055,0.18161));
#841=CARTESIAN_POINT('',(0.043942,0.0594111829996109,0.18161));
#842=CARTESIAN_POINT('',(0.043942,0.0832485,0.18161));
#843=CARTESIAN_POINT('',(0.043942,0.086614,0.18161));
#844=CARTESIAN_POINT('',(0.0605227415370494,0.0700332584629506,0.18161));
#845=CARTESIAN_POINT('',(0.037465,0.087757,0.18161));
#846=CARTESIAN_POINT('',(0.039116,0.087757,0.18161));
#847=CARTESIAN_POINT('',(0.037465,0.056769,0.18161));
#848=CARTESIAN_POINT('',(0.039116,0.056769,0.18161));
#849=CARTESIAN_POINT('',(0.006477,0.087757,0.18161));
#850=CARTESIAN_POINT('',(0.008128,0.087757,0.18161));
#851=CARTESIAN_POINT('',(0.006477,0.056769,0.18161));
#852=CARTESIAN_POINT('',(0.008128,0.056769,0.18161));
#853=CARTESIAN_POINT('',(0.021971,0.0314815169259012,0.1778));
#854=CARTESIAN_POINT('',(0.021971,0.072263,0.1778));
#855=CARTESIAN_POINT('',(0.009271,0.072263,0.1778));
#856=CARTESIAN_POINT('',(0.,0.0768225914998055,0.1778));
#857=CARTESIAN_POINT('',(0.,0.086614,0.1778));
#858=CARTESIAN_POINT('',(-1.7347234759768E-18,0.0594111829996109,0.1778));
#859=CARTESIAN_POINT('',(0.00762,0.094234,0.1778));
#860=CARTESIAN_POINT('',(0.00762,0.094234,0.1778));
#861=CARTESIAN_POINT('',(0.0109855,0.094234,0.1778));
#862=CARTESIAN_POINT('',(0.036322,0.094234,0.1778));
#863=CARTESIAN_POINT('',(0.043942,0.086614,0.1778));
#864=CARTESIAN_POINT('',(0.043942,0.086614,0.1778));
#865=CARTESIAN_POINT('',(0.043942,0.0832485,0.1778));
#866=CARTESIAN_POINT('',(0.043942,0.0594111829996109,0.1778));
#867=CARTESIAN_POINT('',(0.047117,0.0548515914998055,0.1778));
#868=CARTESIAN_POINT('',(-0.003175,0.0548515914998055,0.1778));
#869=CARTESIAN_POINT('',(0.037465,0.087757,0.1778));
#870=CARTESIAN_POINT('',(0.039116,0.087757,0.1778));
#871=CARTESIAN_POINT('',(0.037465,0.056769,0.1778));
#872=CARTESIAN_POINT('',(0.039116,0.056769,0.1778));
#873=CARTESIAN_POINT('',(0.006477,0.087757,0.1778));
#874=CARTESIAN_POINT('',(0.008128,0.087757,0.1778));
#875=CARTESIAN_POINT('',(0.006477,0.056769,0.1778));
#876=CARTESIAN_POINT('',(0.008128,0.056769,0.1778));
#877=CARTESIAN_POINT('',(0.0470140070935786,0.0159266766278147,0.17907));
#878=CARTESIAN_POINT('',(0.0470140070935786,0.0159266766278147,0.17907));
#879=CARTESIAN_POINT('',(0.0495540070935786,0.0159266766278147,0.17907));
#880=CARTESIAN_POINT('',(0.021971,0.0314815169259012,0.17907));
#881=CARTESIAN_POINT('',(0.0470140070935786,0.0470363572239876,0.17907));
#882=CARTESIAN_POINT('',(0.0470140070935786,0.0470363572239876,0.17907));
#883=CARTESIAN_POINT('',(0.0495540070935786,0.0470363572239876,0.17907));
#884=CARTESIAN_POINT('',(0.021971,0.0314815169259012,0.17907));
#885=CARTESIAN_POINT('',(-0.00307200709357857,0.0470363572239876,0.17907));
#886=CARTESIAN_POINT('',(-0.00307200709357857,0.0470363572239876,0.17907));
#887=CARTESIAN_POINT('',(-0.000532007093578575,0.0470363572239876,0.17907));
#888=CARTESIAN_POINT('',(0.021971,0.0314815169259012,0.17907));
#889=CARTESIAN_POINT('',(-0.00307200709357857,0.0159266766278147,0.17907));
#890=CARTESIAN_POINT('',(-0.00307200709357857,0.0159266766278147,0.17907));
#891=CARTESIAN_POINT('',(-0.000532007093578575,0.0159266766278147,0.17907));
#892=CARTESIAN_POINT('',(0.021971,0.0314815169259012,0.17907));
#893=CARTESIAN_POINT('',(0.043942,0.0832485,0.1778));
#894=CARTESIAN_POINT('',(0.043942,0.086614,0.1778));
#895=CARTESIAN_POINT('',(0.043942,0.0594111829996109,0.1778));
#896=CARTESIAN_POINT('',(0.0109855,0.094234,0.1778));
#897=CARTESIAN_POINT('',(0.00762,0.094234,0.18161));
#898=CARTESIAN_POINT('',(0.036322,0.094234,0.1778));
#899=CARTESIAN_POINT('',(0.,0.0768225914998055,0.1778));
#900=CARTESIAN_POINT('',(0.,0.086614,0.1778));
#901=CARTESIAN_POINT('',(-1.7347234759768E-18,0.0594111829996109,0.1778));
#902=CARTESIAN_POINT('',(-0.003175,0.0548515914998055,0.1778));
#903=CARTESIAN_POINT('',(0.037465,0.087757,0.1778));
#904=CARTESIAN_POINT('',(0.037465,0.056769,0.1778));
#905=CARTESIAN_POINT('',(0.006477,0.087757,0.1778));
#906=CARTESIAN_POINT('',(0.047117,0.0548515914998055,0.1778));
#907=CARTESIAN_POINT('',(0.006477,0.056769,0.1778));
#908=CARTESIAN_POINT('',(0.021971,0.072263,0.18034));
#909=CARTESIAN_POINT('',(0.021971,0.072263,0.18034));
#910=CARTESIAN_POINT('',(0.009271,0.072263,0.18034));
#911=CARTESIAN_POINT('',(0.021971,0.0534525169259012,0.18034));
#912=CARTESIAN_POINT('',(0.00762,0.094234,0.1778));
#913=CARTESIAN_POINT('',(0.043942,0.086614,0.1778));
#914=MECHANICAL_DESIGN_GEOMETRIC_PRESENTATION_REPRESENTATION('',(#541),
#915);
#915=(
GEOMETRIC_REPRESENTATION_CONTEXT(3)
GLOBAL_UNCERTAINTY_ASSIGNED_CONTEXT((#916))
GLOBAL_UNIT_ASSIGNED_CONTEXT((#919,#918,#917))
REPRESENTATION_CONTEXT('Part 9','TOP_LEVEL_ASSEMBLY_PART')
);
#916=UNCERTAINTY_MEASURE_WITH_UNIT(LENGTH_MEASURE(1.E-8),#919,
'DISTANCE_ACCURACY_VALUE','Maximum Tolerance applied to model');
#917=(
NAMED_UNIT(*)
SI_UNIT($,.STERADIAN.)
SOLID_ANGLE_UNIT()
);
#918=(
NAMED_UNIT(*)
PLANE_ANGLE_UNIT()
SI_UNIT($,.RADIAN.)
);
#919=(
LENGTH_UNIT()
NAMED_UNIT(*)
SI_UNIT($,.METRE.)
);
#920=PRODUCT_DEFINITION_SHAPE('','',#921);
#921=PRODUCT_DEFINITION('','',#923,#922);
#922=PRODUCT_DEFINITION_CONTEXT('',#929,'design');
#923=PRODUCT_DEFINITION_FORMATION_WITH_SPECIFIED_SOURCE('','',#925,
 .NOT_KNOWN.);
#924=PRODUCT_RELATED_PRODUCT_CATEGORY('','',(#925));
#925=PRODUCT('Part 9','Part 9','Part 9',(#927));
#926=PRODUCT_CATEGORY('','');
#927=PRODUCT_CONTEXT('',#929,'mechanical');
#928=APPLICATION_PROTOCOL_DEFINITION('international standard',
'ap242_managed_model_based_3d_engineering',2020,#929);
#929=APPLICATION_CONTEXT('managed model based 3d engineering');
ENDSEC;
END-ISO-10303-21;
