ISO-10303-21;
HEADER;
/* Generated by software containing ST-Developer
 * from STEP Tools, Inc. (www.steptools.com) 
 */
/* OPTION: using custom renumber hook */

FILE_DESCRIPTION(
/* description */ ('STEP AP242 Edition 2',
'CAx-IF Rec.Pracs.---Representation and Presentation of Product Manufa
cturing Information (PMI)---4.0---2014-10-13',
'CAx-IF Rec.Pracs.---3D Tessellated Geometry---0.4---2014-09-14','2;1',
'CAx-IF Rec.Pracs.---User Defined Attributes---1.5---2016-08-15'),
/* implementation_level */ '2;1');

FILE_NAME(
/* name */ 'V2 - Part 5',
/* time_stamp */ '2026-05-14T03:08:19Z',
/* author */ (''),
/* organization */ (''),
/* preprocessor_version */ 'ST-DEVELOPER v20',
/* originating_system */ 'ONSHAPE BY PTC INC, 1.214',
/* authorisation */ '  ');

FILE_SCHEMA (('AP242_MANAGED_MODEL_BASED_3D_ENGINEERING_MIM_LF { 1 0 10303 442 3 1 4 }'));
ENDSEC;

DATA;
#10=SHAPE_REPRESENTATION_RELATIONSHIP('','',#520,#11);
#11=ADVANCED_BREP_SHAPE_REPRESENTATION('',(#518),#855);
#12=CONICAL_SURFACE('',#563,0.002286,0.785398163397445);
#13=CONICAL_SURFACE('',#568,0.002032,0.785398163397432);
#14=CONICAL_SURFACE('',#569,0.001524,0.785398163397432);
#15=CYLINDRICAL_SURFACE('',#531,0.001524);
#16=CYLINDRICAL_SURFACE('',#557,0.00484436093425785);
#17=CYLINDRICAL_SURFACE('',#558,0.00484436093425785);
#18=CYLINDRICAL_SURFACE('',#559,0.00484436093425785);
#19=CYLINDRICAL_SURFACE('',#560,0.00484436093425785);
#20=CYLINDRICAL_SURFACE('',#561,0.001778);
#21=CYLINDRICAL_SURFACE('',#564,0.001524);
#22=CYLINDRICAL_SURFACE('',#566,0.001524);
#23=LINE('',#718,#69);
#24=LINE('',#721,#70);
#25=LINE('',#723,#71);
#26=LINE('',#725,#72);
#27=LINE('',#733,#73);
#28=LINE('',#736,#74);
#29=LINE('',#738,#75);
#30=LINE('',#740,#76);
#31=LINE('',#742,#77);
#32=LINE('',#745,#78);
#33=LINE('',#747,#79);
#34=LINE('',#749,#80);
#35=LINE('',#751,#81);
#36=LINE('',#753,#82);
#37=LINE('',#754,#83);
#38=LINE('',#756,#84);
#39=LINE('',#759,#85);
#40=LINE('',#760,#86);
#41=LINE('',#762,#87);
#42=LINE('',#769,#88);
#43=LINE('',#771,#89);
#44=LINE('',#773,#90);
#45=LINE('',#782,#91);
#46=LINE('',#783,#92);
#47=LINE('',#785,#93);
#48=LINE('',#788,#94);
#49=LINE('',#790,#95);
#50=LINE('',#792,#96);
#51=LINE('',#794,#97);
#52=LINE('',#795,#98);
#53=LINE('',#797,#99);
#54=LINE('',#799,#100);
#55=LINE('',#801,#101);
#56=LINE('',#803,#102);
#57=LINE('',#805,#103);
#58=LINE('',#807,#104);
#59=LINE('',#809,#105);
#60=LINE('',#811,#106);
#61=LINE('',#818,#107);
#62=LINE('',#826,#108);
#63=LINE('',#828,#109);
#64=LINE('',#830,#110);
#65=LINE('',#832,#111);
#66=LINE('',#834,#112);
#67=LINE('',#837,#113);
#68=LINE('',#840,#114);
#69=VECTOR('',#576,1.);
#70=VECTOR('',#577,1.);
#71=VECTOR('',#578,1.);
#72=VECTOR('',#579,1.);
#73=VECTOR('',#588,1.);
#74=VECTOR('',#589,1.);
#75=VECTOR('',#590,1.);
#76=VECTOR('',#591,1.);
#77=VECTOR('',#594,1.);
#78=VECTOR('',#595,1.);
#79=VECTOR('',#596,1.);
#80=VECTOR('',#597,1.);
#81=VECTOR('',#600,1.);
#82=VECTOR('',#601,1.);
#83=VECTOR('',#602,1.);
#84=VECTOR('',#605,1.);
#85=VECTOR('',#606,1.);
#86=VECTOR('',#607,1.);
#87=VECTOR('',#608,1.);
#88=VECTOR('',#617,1.);
#89=VECTOR('',#618,1.);
#90=VECTOR('',#619,1.);
#91=VECTOR('',#632,1.);
#92=VECTOR('',#633,1.);
#93=VECTOR('',#636,1.);
#94=VECTOR('',#637,1.);
#95=VECTOR('',#638,1.);
#96=VECTOR('',#639,1.);
#97=VECTOR('',#642,1.);
#98=VECTOR('',#643,1.);
#99=VECTOR('',#644,1.);
#100=VECTOR('',#647,1.);
#101=VECTOR('',#648,1.);
#102=VECTOR('',#649,1.);
#103=VECTOR('',#650,1.);
#104=VECTOR('',#653,1.);
#105=VECTOR('',#654,1.);
#106=VECTOR('',#655,1.);
#107=VECTOR('',#664,1.);
#108=VECTOR('',#675,1.);
#109=VECTOR('',#676,1.);
#110=VECTOR('',#677,1.);
#111=VECTOR('',#680,1.);
#112=VECTOR('',#683,1.);
#113=VECTOR('',#688,1.);
#114=VECTOR('',#693,1.);
#115=ORIENTED_EDGE('',*,*,#245,.T.);
#116=ORIENTED_EDGE('',*,*,#246,.F.);
#117=ORIENTED_EDGE('',*,*,#247,.F.);
#118=ORIENTED_EDGE('',*,*,#248,.T.);
#119=ORIENTED_EDGE('',*,*,#249,.T.);
#120=ORIENTED_EDGE('',*,*,#250,.F.);
#121=ORIENTED_EDGE('',*,*,#251,.T.);
#122=ORIENTED_EDGE('',*,*,#252,.T.);
#123=ORIENTED_EDGE('',*,*,#253,.T.);
#124=ORIENTED_EDGE('',*,*,#254,.F.);
#125=ORIENTED_EDGE('',*,*,#255,.F.);
#126=ORIENTED_EDGE('',*,*,#256,.T.);
#127=ORIENTED_EDGE('',*,*,#257,.T.);
#128=ORIENTED_EDGE('',*,*,#258,.T.);
#129=ORIENTED_EDGE('',*,*,#259,.F.);
#130=ORIENTED_EDGE('',*,*,#260,.T.);
#131=ORIENTED_EDGE('',*,*,#261,.T.);
#132=ORIENTED_EDGE('',*,*,#260,.F.);
#133=ORIENTED_EDGE('',*,*,#262,.F.);
#134=ORIENTED_EDGE('',*,*,#263,.T.);
#135=ORIENTED_EDGE('',*,*,#264,.F.);
#136=ORIENTED_EDGE('',*,*,#265,.F.);
#137=ORIENTED_EDGE('',*,*,#266,.T.);
#138=ORIENTED_EDGE('',*,*,#267,.T.);
#139=ORIENTED_EDGE('',*,*,#268,.F.);
#140=ORIENTED_EDGE('',*,*,#269,.T.);
#141=ORIENTED_EDGE('',*,*,#270,.T.);
#142=ORIENTED_EDGE('',*,*,#271,.T.);
#143=ORIENTED_EDGE('',*,*,#272,.F.);
#144=ORIENTED_EDGE('',*,*,#267,.F.);
#145=ORIENTED_EDGE('',*,*,#268,.T.);
#146=ORIENTED_EDGE('',*,*,#259,.T.);
#147=ORIENTED_EDGE('',*,*,#273,.T.);
#148=ORIENTED_EDGE('',*,*,#274,.T.);
#149=ORIENTED_EDGE('',*,*,#270,.F.);
#150=ORIENTED_EDGE('',*,*,#266,.F.);
#151=ORIENTED_EDGE('',*,*,#246,.T.);
#152=ORIENTED_EDGE('',*,*,#262,.T.);
#153=ORIENTED_EDGE('',*,*,#269,.F.);
#154=ORIENTED_EDGE('',*,*,#275,.T.);
#155=ORIENTED_EDGE('',*,*,#276,.T.);
#156=ORIENTED_EDGE('',*,*,#257,.F.);
#157=ORIENTED_EDGE('',*,*,#261,.F.);
#158=ORIENTED_EDGE('',*,*,#277,.F.);
#159=ORIENTED_EDGE('',*,*,#253,.F.);
#160=ORIENTED_EDGE('',*,*,#278,.T.);
#161=ORIENTED_EDGE('',*,*,#264,.T.);
#162=ORIENTED_EDGE('',*,*,#272,.T.);
#163=ORIENTED_EDGE('',*,*,#279,.T.);
#164=ORIENTED_EDGE('',*,*,#280,.T.);
#165=ORIENTED_EDGE('',*,*,#281,.F.);
#166=ORIENTED_EDGE('',*,*,#282,.T.);
#167=ORIENTED_EDGE('',*,*,#283,.T.);
#168=ORIENTED_EDGE('',*,*,#282,.F.);
#169=ORIENTED_EDGE('',*,*,#284,.F.);
#170=ORIENTED_EDGE('',*,*,#285,.T.);
#171=ORIENTED_EDGE('',*,*,#286,.F.);
#172=ORIENTED_EDGE('',*,*,#287,.F.);
#173=ORIENTED_EDGE('',*,*,#288,.T.);
#174=ORIENTED_EDGE('',*,*,#289,.T.);
#175=ORIENTED_EDGE('',*,*,#290,.T.);
#176=ORIENTED_EDGE('',*,*,#291,.T.);
#177=ORIENTED_EDGE('',*,*,#292,.F.);
#178=ORIENTED_EDGE('',*,*,#289,.F.);
#179=ORIENTED_EDGE('',*,*,#293,.T.);
#180=ORIENTED_EDGE('',*,*,#281,.T.);
#181=ORIENTED_EDGE('',*,*,#294,.T.);
#182=ORIENTED_EDGE('',*,*,#295,.T.);
#183=ORIENTED_EDGE('',*,*,#290,.F.);
#184=ORIENTED_EDGE('',*,*,#288,.F.);
#185=ORIENTED_EDGE('',*,*,#296,.T.);
#186=ORIENTED_EDGE('',*,*,#284,.T.);
#187=ORIENTED_EDGE('',*,*,#297,.F.);
#188=ORIENTED_EDGE('',*,*,#298,.T.);
#189=ORIENTED_EDGE('',*,*,#299,.T.);
#190=ORIENTED_EDGE('',*,*,#279,.F.);
#191=ORIENTED_EDGE('',*,*,#283,.F.);
#192=ORIENTED_EDGE('',*,*,#248,.F.);
#193=ORIENTED_EDGE('',*,*,#286,.T.);
#194=ORIENTED_EDGE('',*,*,#292,.T.);
#195=ORIENTED_EDGE('',*,*,#296,.F.);
#196=ORIENTED_EDGE('',*,*,#300,.F.);
#197=ORIENTED_EDGE('',*,*,#301,.T.);
#198=ORIENTED_EDGE('',*,*,#302,.T.);
#199=ORIENTED_EDGE('',*,*,#278,.F.);
#200=ORIENTED_EDGE('',*,*,#256,.F.);
#201=ORIENTED_EDGE('',*,*,#303,.T.);
#202=ORIENTED_EDGE('',*,*,#300,.T.);
#203=ORIENTED_EDGE('',*,*,#287,.T.);
#204=ORIENTED_EDGE('',*,*,#247,.T.);
#205=ORIENTED_EDGE('',*,*,#265,.T.);
#206=ORIENTED_EDGE('',*,*,#277,.T.);
#207=ORIENTED_EDGE('',*,*,#263,.F.);
#208=ORIENTED_EDGE('',*,*,#249,.F.);
#209=ORIENTED_EDGE('',*,*,#285,.F.);
#210=ORIENTED_EDGE('',*,*,#302,.F.);
#211=ORIENTED_EDGE('',*,*,#304,.F.);
#212=ORIENTED_EDGE('',*,*,#254,.T.);
#213=ORIENTED_EDGE('',*,*,#255,.T.);
#214=ORIENTED_EDGE('',*,*,#304,.T.);
#215=ORIENTED_EDGE('',*,*,#301,.F.);
#216=ORIENTED_EDGE('',*,*,#303,.F.);
#217=ORIENTED_EDGE('',*,*,#271,.F.);
#218=ORIENTED_EDGE('',*,*,#274,.F.);
#219=ORIENTED_EDGE('',*,*,#305,.F.);
#220=ORIENTED_EDGE('',*,*,#275,.F.);
#221=ORIENTED_EDGE('',*,*,#273,.F.);
#222=ORIENTED_EDGE('',*,*,#258,.F.);
#223=ORIENTED_EDGE('',*,*,#276,.F.);
#224=ORIENTED_EDGE('',*,*,#305,.T.);
#225=ORIENTED_EDGE('',*,*,#291,.F.);
#226=ORIENTED_EDGE('',*,*,#295,.F.);
#227=ORIENTED_EDGE('',*,*,#306,.F.);
#228=ORIENTED_EDGE('',*,*,#298,.F.);
#229=ORIENTED_EDGE('',*,*,#294,.F.);
#230=ORIENTED_EDGE('',*,*,#280,.F.);
#231=ORIENTED_EDGE('',*,*,#299,.F.);
#232=ORIENTED_EDGE('',*,*,#306,.T.);
#233=ORIENTED_EDGE('',*,*,#307,.T.);
#234=ORIENTED_EDGE('',*,*,#297,.T.);
#235=ORIENTED_EDGE('',*,*,#307,.F.);
#236=ORIENTED_EDGE('',*,*,#293,.F.);
#237=ORIENTED_EDGE('',*,*,#308,.T.);
#238=ORIENTED_EDGE('',*,*,#245,.F.);
#239=ORIENTED_EDGE('',*,*,#309,.T.);
#240=ORIENTED_EDGE('',*,*,#250,.T.);
#241=ORIENTED_EDGE('',*,*,#308,.F.);
#242=ORIENTED_EDGE('',*,*,#251,.F.);
#243=ORIENTED_EDGE('',*,*,#252,.F.);
#244=ORIENTED_EDGE('',*,*,#309,.F.);
#245=EDGE_CURVE('',#310,#310,#355,.F.);
#246=EDGE_CURVE('',#311,#312,#23,.T.);
#247=EDGE_CURVE('',#313,#311,#24,.T.);
#248=EDGE_CURVE('',#313,#314,#25,.T.);
#249=EDGE_CURVE('',#314,#312,#26,.T.);
#250=EDGE_CURVE('',#315,#315,#356,.T.);
#251=EDGE_CURVE('',#316,#316,#357,.T.);
#252=EDGE_CURVE('',#317,#317,#358,.T.);
#253=EDGE_CURVE('',#318,#319,#27,.T.);
#254=EDGE_CURVE('',#320,#319,#28,.T.);
#255=EDGE_CURVE('',#321,#320,#29,.T.);
#256=EDGE_CURVE('',#321,#318,#30,.T.);
#257=EDGE_CURVE('',#322,#323,#31,.T.);
#258=EDGE_CURVE('',#323,#324,#32,.F.);
#259=EDGE_CURVE('',#325,#324,#33,.T.);
#260=EDGE_CURVE('',#325,#322,#34,.T.);
#261=EDGE_CURVE('',#326,#322,#35,.T.);
#262=EDGE_CURVE('',#312,#325,#36,.T.);
#263=EDGE_CURVE('',#312,#326,#37,.T.);
#264=EDGE_CURVE('',#327,#328,#38,.T.);
#265=EDGE_CURVE('',#311,#327,#39,.T.);
#266=EDGE_CURVE('',#311,#329,#40,.T.);
#267=EDGE_CURVE('',#329,#328,#41,.T.);
#268=EDGE_CURVE('',#330,#330,#359,.T.);
#269=EDGE_CURVE('',#331,#331,#360,.T.);
#270=EDGE_CURVE('',#329,#332,#42,.T.);
#271=EDGE_CURVE('',#332,#333,#43,.T.);
#272=EDGE_CURVE('',#328,#333,#44,.T.);
#273=EDGE_CURVE('',#324,#334,#361,.F.);
#274=EDGE_CURVE('',#334,#332,#362,.F.);
#275=EDGE_CURVE('',#333,#335,#363,.T.);
#276=EDGE_CURVE('',#335,#323,#364,.T.);
#277=EDGE_CURVE('',#319,#326,#45,.T.);
#278=EDGE_CURVE('',#318,#327,#46,.T.);
#279=EDGE_CURVE('',#336,#337,#47,.T.);
#280=EDGE_CURVE('',#337,#338,#48,.F.);
#281=EDGE_CURVE('',#339,#338,#49,.T.);
#282=EDGE_CURVE('',#339,#336,#50,.T.);
#283=EDGE_CURVE('',#314,#336,#51,.T.);
#284=EDGE_CURVE('',#340,#339,#52,.T.);
#285=EDGE_CURVE('',#340,#314,#53,.T.);
#286=EDGE_CURVE('',#313,#341,#54,.T.);
#287=EDGE_CURVE('',#342,#313,#55,.T.);
#288=EDGE_CURVE('',#342,#343,#56,.T.);
#289=EDGE_CURVE('',#343,#341,#57,.T.);
#290=EDGE_CURVE('',#343,#344,#58,.T.);
#291=EDGE_CURVE('',#344,#345,#59,.T.);
#292=EDGE_CURVE('',#341,#345,#60,.T.);
#293=EDGE_CURVE('',#346,#346,#365,.T.);
#294=EDGE_CURVE('',#338,#347,#366,.F.);
#295=EDGE_CURVE('',#347,#344,#367,.F.);
#296=EDGE_CURVE('',#342,#340,#61,.T.);
#297=EDGE_CURVE('',#348,#348,#368,.T.);
#298=EDGE_CURVE('',#345,#349,#369,.T.);
#299=EDGE_CURVE('',#349,#337,#370,.T.);
#300=EDGE_CURVE('',#350,#342,#62,.T.);
#301=EDGE_CURVE('',#350,#351,#63,.T.);
#302=EDGE_CURVE('',#351,#340,#64,.T.);
#303=EDGE_CURVE('',#321,#350,#65,.T.);
#304=EDGE_CURVE('',#320,#351,#66,.T.);
#305=EDGE_CURVE('',#335,#334,#67,.T.);
#306=EDGE_CURVE('',#349,#347,#68,.T.);
#307=EDGE_CURVE('',#352,#352,#371,.F.);
#308=EDGE_CURVE('',#353,#353,#372,.F.);
#309=EDGE_CURVE('',#354,#354,#373,.F.);
#310=VERTEX_POINT('',#717);
#311=VERTEX_POINT('',#719);
#312=VERTEX_POINT('',#720);
#313=VERTEX_POINT('',#722);
#314=VERTEX_POINT('',#724);
#315=VERTEX_POINT('',#727);
#316=VERTEX_POINT('',#730);
#317=VERTEX_POINT('',#732);
#318=VERTEX_POINT('',#734);
#319=VERTEX_POINT('',#735);
#320=VERTEX_POINT('',#737);
#321=VERTEX_POINT('',#739);
#322=VERTEX_POINT('',#743);
#323=VERTEX_POINT('',#744);
#324=VERTEX_POINT('',#746);
#325=VERTEX_POINT('',#748);
#326=VERTEX_POINT('',#752);
#327=VERTEX_POINT('',#757);
#328=VERTEX_POINT('',#758);
#329=VERTEX_POINT('',#761);
#330=VERTEX_POINT('',#765);
#331=VERTEX_POINT('',#767);
#332=VERTEX_POINT('',#770);
#333=VERTEX_POINT('',#772);
#334=VERTEX_POINT('',#776);
#335=VERTEX_POINT('',#780);
#336=VERTEX_POINT('',#786);
#337=VERTEX_POINT('',#787);
#338=VERTEX_POINT('',#789);
#339=VERTEX_POINT('',#791);
#340=VERTEX_POINT('',#796);
#341=VERTEX_POINT('',#800);
#342=VERTEX_POINT('',#802);
#343=VERTEX_POINT('',#804);
#344=VERTEX_POINT('',#808);
#345=VERTEX_POINT('',#810);
#346=VERTEX_POINT('',#814);
#347=VERTEX_POINT('',#816);
#348=VERTEX_POINT('',#821);
#349=VERTEX_POINT('',#823);
#350=VERTEX_POINT('',#827);
#351=VERTEX_POINT('',#829);
#352=VERTEX_POINT('',#844);
#353=VERTEX_POINT('',#848);
#354=VERTEX_POINT('',#851);
#355=CIRCLE('',#523,0.001524);
#356=CIRCLE('',#524,0.001524);
#357=CIRCLE('',#526,0.002032);
#358=CIRCLE('',#527,0.002032);
#359=CIRCLE('',#532,0.001524);
#360=CIRCLE('',#533,0.001524);
#361=CIRCLE('',#536,0.00484436093425785);
#362=CIRCLE('',#537,0.00484436093425785);
#363=CIRCLE('',#539,0.00484436093425785);
#364=CIRCLE('',#540,0.00484436093425785);
#365=CIRCLE('',#546,0.002286);
#366=CIRCLE('',#547,0.00484436093425785);
#367=CIRCLE('',#548,0.00484436093425785);
#368=CIRCLE('',#550,0.001778);
#369=CIRCLE('',#551,0.00484436093425785);
#370=CIRCLE('',#552,0.00484436093425785);
#371=CIRCLE('',#562,0.001778);
#372=CIRCLE('',#565,0.001524);
#373=CIRCLE('',#567,0.001524);
#374=EDGE_LOOP('',(#115));
#375=EDGE_LOOP('',(#116,#117,#118,#119));
#376=EDGE_LOOP('',(#120));
#377=EDGE_LOOP('',(#121));
#378=EDGE_LOOP('',(#122));
#379=EDGE_LOOP('',(#123,#124,#125,#126));
#380=EDGE_LOOP('',(#127,#128,#129,#130));
#381=EDGE_LOOP('',(#131,#132,#133,#134));
#382=EDGE_LOOP('',(#135,#136,#137,#138));
#383=EDGE_LOOP('',(#139));
#384=EDGE_LOOP('',(#140));
#385=EDGE_LOOP('',(#141,#142,#143,#144));
#386=EDGE_LOOP('',(#145));
#387=EDGE_LOOP('',(#146,#147,#148,#149,#150,#151,#152));
#388=EDGE_LOOP('',(#153));
#389=EDGE_LOOP('',(#154,#155,#156,#157,#158,#159,#160,#161,#162));
#390=EDGE_LOOP('',(#163,#164,#165,#166));
#391=EDGE_LOOP('',(#167,#168,#169,#170));
#392=EDGE_LOOP('',(#171,#172,#173,#174));
#393=EDGE_LOOP('',(#175,#176,#177,#178));
#394=EDGE_LOOP('',(#179));
#395=EDGE_LOOP('',(#180,#181,#182,#183,#184,#185,#186));
#396=EDGE_LOOP('',(#187));
#397=EDGE_LOOP('',(#188,#189,#190,#191,#192,#193,#194));
#398=EDGE_LOOP('',(#195,#196,#197,#198));
#399=EDGE_LOOP('',(#199,#200,#201,#202,#203,#204,#205));
#400=EDGE_LOOP('',(#206,#207,#208,#209,#210,#211,#212));
#401=EDGE_LOOP('',(#213,#214,#215,#216));
#402=EDGE_LOOP('',(#217,#218,#219,#220));
#403=EDGE_LOOP('',(#221,#222,#223,#224));
#404=EDGE_LOOP('',(#225,#226,#227,#228));
#405=EDGE_LOOP('',(#229,#230,#231,#232));
#406=EDGE_LOOP('',(#233));
#407=EDGE_LOOP('',(#234));
#408=EDGE_LOOP('',(#235));
#409=EDGE_LOOP('',(#236));
#410=EDGE_LOOP('',(#237));
#411=EDGE_LOOP('',(#238));
#412=EDGE_LOOP('',(#239));
#413=EDGE_LOOP('',(#240));
#414=EDGE_LOOP('',(#241));
#415=EDGE_LOOP('',(#242));
#416=EDGE_LOOP('',(#243));
#417=EDGE_LOOP('',(#244));
#418=FACE_BOUND('',#374,.T.);
#419=FACE_BOUND('',#375,.T.);
#420=FACE_BOUND('',#376,.T.);
#421=FACE_BOUND('',#377,.T.);
#422=FACE_BOUND('',#378,.T.);
#423=FACE_BOUND('',#379,.T.);
#424=FACE_BOUND('',#380,.T.);
#425=FACE_BOUND('',#381,.T.);
#426=FACE_BOUND('',#382,.T.);
#427=FACE_BOUND('',#383,.T.);
#428=FACE_BOUND('',#384,.T.);
#429=FACE_BOUND('',#385,.T.);
#430=FACE_BOUND('',#386,.T.);
#431=FACE_BOUND('',#387,.T.);
#432=FACE_BOUND('',#388,.T.);
#433=FACE_BOUND('',#389,.T.);
#434=FACE_BOUND('',#390,.T.);
#435=FACE_BOUND('',#391,.T.);
#436=FACE_BOUND('',#392,.T.);
#437=FACE_BOUND('',#393,.T.);
#438=FACE_BOUND('',#394,.T.);
#439=FACE_BOUND('',#395,.T.);
#440=FACE_BOUND('',#396,.T.);
#441=FACE_BOUND('',#397,.T.);
#442=FACE_BOUND('',#398,.T.);
#443=FACE_BOUND('',#399,.T.);
#444=FACE_BOUND('',#400,.T.);
#445=FACE_BOUND('',#401,.T.);
#446=FACE_BOUND('',#402,.T.);
#447=FACE_BOUND('',#403,.T.);
#448=FACE_BOUND('',#404,.T.);
#449=FACE_BOUND('',#405,.T.);
#450=FACE_BOUND('',#406,.T.);
#451=FACE_BOUND('',#407,.T.);
#452=FACE_BOUND('',#408,.T.);
#453=FACE_BOUND('',#409,.T.);
#454=FACE_BOUND('',#410,.T.);
#455=FACE_BOUND('',#411,.T.);
#456=FACE_BOUND('',#412,.T.);
#457=FACE_BOUND('',#413,.T.);
#458=FACE_BOUND('',#414,.T.);
#459=FACE_BOUND('',#415,.T.);
#460=FACE_BOUND('',#416,.T.);
#461=FACE_BOUND('',#417,.T.);
#462=PLANE('',#522);
#463=PLANE('',#525);
#464=PLANE('',#528);
#465=PLANE('',#529);
#466=PLANE('',#530);
#467=PLANE('',#534);
#468=PLANE('',#535);
#469=PLANE('',#538);
#470=PLANE('',#541);
#471=PLANE('',#542);
#472=PLANE('',#543);
#473=PLANE('',#544);
#474=PLANE('',#545);
#475=PLANE('',#549);
#476=PLANE('',#553);
#477=PLANE('',#554);
#478=PLANE('',#555);
#479=PLANE('',#556);
#480=ADVANCED_FACE('',(#418,#419,#420),#462,.T.);
#481=ADVANCED_FACE('',(#421,#422,#423),#463,.F.);
#482=ADVANCED_FACE('',(#424),#464,.F.);
#483=ADVANCED_FACE('',(#425),#465,.F.);
#484=ADVANCED_FACE('',(#426),#466,.T.);
#485=ADVANCED_FACE('',(#427,#428),#15,.F.);
#486=ADVANCED_FACE('',(#429),#467,.T.);
#487=ADVANCED_FACE('',(#430,#431),#468,.F.);
#488=ADVANCED_FACE('',(#432,#433),#469,.T.);
#489=ADVANCED_FACE('',(#434),#470,.F.);
#490=ADVANCED_FACE('',(#435),#471,.F.);
#491=ADVANCED_FACE('',(#436),#472,.T.);
#492=ADVANCED_FACE('',(#437),#473,.T.);
#493=ADVANCED_FACE('',(#438,#439),#474,.F.);
#494=ADVANCED_FACE('',(#440,#441),#475,.T.);
#495=ADVANCED_FACE('',(#442),#476,.T.);
#496=ADVANCED_FACE('',(#443),#477,.T.);
#497=ADVANCED_FACE('',(#444),#478,.F.);
#498=ADVANCED_FACE('',(#445),#479,.F.);
#499=ADVANCED_FACE('',(#446),#16,.T.);
#500=ADVANCED_FACE('',(#447),#17,.T.);
#501=ADVANCED_FACE('',(#448),#18,.T.);
#502=ADVANCED_FACE('',(#449),#19,.T.);
#503=ADVANCED_FACE('',(#450,#451),#20,.F.);
#504=ADVANCED_FACE('',(#452,#453),#12,.F.);
#505=ADVANCED_FACE('',(#454,#455),#21,.F.);
#506=ADVANCED_FACE('',(#456,#457),#22,.F.);
#507=ADVANCED_FACE('',(#458,#459),#13,.F.);
#508=ADVANCED_FACE('',(#460,#461),#14,.F.);
#509=CLOSED_SHELL('',(#480,#481,#482,#483,#484,#485,#486,#487,#488,#489,
#490,#491,#492,#493,#494,#495,#496,#497,#498,#499,#500,#501,#502,#503,#504,
#505,#506,#507,#508));
#510=STYLED_ITEM('',(#511),#518);
#511=PRESENTATION_STYLE_ASSIGNMENT((#512));
#512=SURFACE_STYLE_USAGE(.BOTH.,#513);
#513=SURFACE_SIDE_STYLE('',(#514));
#514=SURFACE_STYLE_FILL_AREA(#515);
#515=FILL_AREA_STYLE('',(#516));
#516=FILL_AREA_STYLE_COLOUR('',#517);
#517=COLOUR_RGB('',0.972549019607843,0.529411764705882,0.00392156862745098);
#518=MANIFOLD_SOLID_BREP('Part 5',#509);
#519=SHAPE_DEFINITION_REPRESENTATION(#860,#520);
#520=SHAPE_REPRESENTATION('Part 5',(#521),#855);
#521=AXIS2_PLACEMENT_3D('',#714,#570,#571);
#522=AXIS2_PLACEMENT_3D('',#715,#572,#573);
#523=AXIS2_PLACEMENT_3D('',#716,#574,#575);
#524=AXIS2_PLACEMENT_3D('',#726,#580,#581);
#525=AXIS2_PLACEMENT_3D('',#728,#582,#583);
#526=AXIS2_PLACEMENT_3D('',#729,#584,#585);
#527=AXIS2_PLACEMENT_3D('',#731,#586,#587);
#528=AXIS2_PLACEMENT_3D('',#741,#592,#593);
#529=AXIS2_PLACEMENT_3D('',#750,#598,#599);
#530=AXIS2_PLACEMENT_3D('',#755,#603,#604);
#531=AXIS2_PLACEMENT_3D('',#763,#609,#610);
#532=AXIS2_PLACEMENT_3D('',#764,#611,#612);
#533=AXIS2_PLACEMENT_3D('',#766,#613,#614);
#534=AXIS2_PLACEMENT_3D('',#768,#615,#616);
#535=AXIS2_PLACEMENT_3D('',#774,#620,#621);
#536=AXIS2_PLACEMENT_3D('',#775,#622,#623);
#537=AXIS2_PLACEMENT_3D('',#777,#624,#625);
#538=AXIS2_PLACEMENT_3D('',#778,#626,#627);
#539=AXIS2_PLACEMENT_3D('',#779,#628,#629);
#540=AXIS2_PLACEMENT_3D('',#781,#630,#631);
#541=AXIS2_PLACEMENT_3D('',#784,#634,#635);
#542=AXIS2_PLACEMENT_3D('',#793,#640,#641);
#543=AXIS2_PLACEMENT_3D('',#798,#645,#646);
#544=AXIS2_PLACEMENT_3D('',#806,#651,#652);
#545=AXIS2_PLACEMENT_3D('',#812,#656,#657);
#546=AXIS2_PLACEMENT_3D('',#813,#658,#659);
#547=AXIS2_PLACEMENT_3D('',#815,#660,#661);
#548=AXIS2_PLACEMENT_3D('',#817,#662,#663);
#549=AXIS2_PLACEMENT_3D('',#819,#665,#666);
#550=AXIS2_PLACEMENT_3D('',#820,#667,#668);
#551=AXIS2_PLACEMENT_3D('',#822,#669,#670);
#552=AXIS2_PLACEMENT_3D('',#824,#671,#672);
#553=AXIS2_PLACEMENT_3D('',#825,#673,#674);
#554=AXIS2_PLACEMENT_3D('',#831,#678,#679);
#555=AXIS2_PLACEMENT_3D('',#833,#681,#682);
#556=AXIS2_PLACEMENT_3D('',#835,#684,#685);
#557=AXIS2_PLACEMENT_3D('',#836,#686,#687);
#558=AXIS2_PLACEMENT_3D('',#838,#689,#690);
#559=AXIS2_PLACEMENT_3D('',#839,#691,#692);
#560=AXIS2_PLACEMENT_3D('',#841,#694,#695);
#561=AXIS2_PLACEMENT_3D('',#842,#696,#697);
#562=AXIS2_PLACEMENT_3D('',#843,#698,#699);
#563=AXIS2_PLACEMENT_3D('',#845,#700,#701);
#564=AXIS2_PLACEMENT_3D('',#846,#702,#703);
#565=AXIS2_PLACEMENT_3D('',#847,#704,#705);
#566=AXIS2_PLACEMENT_3D('',#849,#706,#707);
#567=AXIS2_PLACEMENT_3D('',#850,#708,#709);
#568=AXIS2_PLACEMENT_3D('',#852,#710,#711);
#569=AXIS2_PLACEMENT_3D('',#853,#712,#713);
#570=DIRECTION('',(0.,0.,1.));
#571=DIRECTION('',(1.,0.,0.));
#572=DIRECTION('',(-1.,0.,0.));
#573=DIRECTION('',(0.,0.,1.));
#574=DIRECTION('',(-1.,0.,0.));
#575=DIRECTION('',(0.,0.,1.));
#576=DIRECTION('',(0.,0.,-1.));
#577=DIRECTION('',(0.,-1.,0.));
#578=DIRECTION('',(0.,0.,-1.));
#579=DIRECTION('',(0.,-1.,0.));
#580=DIRECTION('',(-1.,0.,0.));
#581=DIRECTION('',(0.,0.,1.));
#582=DIRECTION('',(-1.,0.,0.));
#583=DIRECTION('',(0.,0.,1.));
#584=DIRECTION('',(-1.,0.,0.));
#585=DIRECTION('',(0.,0.,1.));
#586=DIRECTION('',(-1.,0.,0.));
#587=DIRECTION('',(0.,0.,1.));
#588=DIRECTION('',(0.,0.,-1.));
#589=DIRECTION('',(0.,-1.,0.));
#590=DIRECTION('',(0.,0.,-1.));
#591=DIRECTION('',(0.,-1.,0.));
#592=DIRECTION('',(0.,0.,1.));
#593=DIRECTION('',(1.,0.,0.));
#594=DIRECTION('',(-1.,0.,0.));
#595=DIRECTION('',(0.,-1.,0.));
#596=DIRECTION('',(-1.,0.,0.));
#597=DIRECTION('',(0.,-1.,0.));
#598=DIRECTION('',(0.681481591244461,0.,0.731835255228195));
#599=DIRECTION('',(0.731835255228196,0.,-0.681481591244461));
#600=DIRECTION('',(-0.731835255228196,0.,0.681481591244461));
#601=DIRECTION('',(-0.731835255228196,0.,0.681481591244461));
#602=DIRECTION('',(0.,-1.,0.));
#603=DIRECTION('',(-0.681481591244461,0.,0.731835255228195));
#604=DIRECTION('',(0.731835255228196,0.,0.681481591244461));
#605=DIRECTION('',(-0.731835255228196,0.,-0.681481591244461));
#606=DIRECTION('',(0.,-1.,0.));
#607=DIRECTION('',(-0.731835255228196,0.,-0.681481591244461));
#608=DIRECTION('',(0.,-1.,0.));
#609=DIRECTION('',(0.,-1.,0.));
#610=DIRECTION('',(0.,0.,-1.));
#611=DIRECTION('',(0.,-1.,0.));
#612=DIRECTION('',(0.,0.,-1.));
#613=DIRECTION('',(0.,-1.,0.));
#614=DIRECTION('',(0.,0.,-1.));
#615=DIRECTION('',(0.,0.,1.));
#616=DIRECTION('',(1.,0.,0.));
#617=DIRECTION('',(-1.,0.,0.));
#618=DIRECTION('',(0.,-1.,0.));
#619=DIRECTION('',(-1.,0.,0.));
#620=DIRECTION('',(0.,-1.,0.));
#621=DIRECTION('',(1.,0.,0.));
#622=DIRECTION('',(0.,-1.,0.));
#623=DIRECTION('',(0.,0.,-1.));
#624=DIRECTION('',(0.,-1.,0.));
#625=DIRECTION('',(0.,0.,-1.));
#626=DIRECTION('',(0.,-1.,0.));
#627=DIRECTION('',(1.,0.,0.));
#628=DIRECTION('',(0.,-1.,0.));
#629=DIRECTION('',(0.,0.,-1.));
#630=DIRECTION('',(0.,-1.,0.));
#631=DIRECTION('',(0.,0.,-1.));
#632=DIRECTION('',(-1.,0.,0.));
#633=DIRECTION('',(-1.,0.,0.));
#634=DIRECTION('',(0.,0.,1.));
#635=DIRECTION('',(1.,0.,0.));
#636=DIRECTION('',(-1.,0.,0.));
#637=DIRECTION('',(0.,-1.,0.));
#638=DIRECTION('',(-1.,0.,0.));
#639=DIRECTION('',(0.,-1.,0.));
#640=DIRECTION('',(0.681481591244461,0.,0.731835255228195));
#641=DIRECTION('',(0.731835255228196,0.,-0.681481591244461));
#642=DIRECTION('',(-0.731835255228196,0.,0.681481591244461));
#643=DIRECTION('',(-0.731835255228196,0.,0.681481591244461));
#644=DIRECTION('',(0.,-1.,0.));
#645=DIRECTION('',(-0.681481591244461,0.,0.731835255228195));
#646=DIRECTION('',(0.731835255228196,0.,0.681481591244461));
#647=DIRECTION('',(-0.731835255228196,0.,-0.681481591244461));
#648=DIRECTION('',(0.,-1.,0.));
#649=DIRECTION('',(-0.731835255228196,0.,-0.681481591244461));
#650=DIRECTION('',(0.,-1.,0.));
#651=DIRECTION('',(0.,0.,1.));
#652=DIRECTION('',(1.,0.,0.));
#653=DIRECTION('',(-1.,0.,0.));
#654=DIRECTION('',(0.,-1.,0.));
#655=DIRECTION('',(-1.,0.,0.));
#656=DIRECTION('',(0.,-1.,0.));
#657=DIRECTION('',(1.,0.,0.));
#658=DIRECTION('',(0.,-1.,0.));
#659=DIRECTION('',(0.,0.,-1.));
#660=DIRECTION('',(0.,-1.,0.));
#661=DIRECTION('',(0.,0.,-1.));
#662=DIRECTION('',(0.,-1.,0.));
#663=DIRECTION('',(0.,0.,-1.));
#664=DIRECTION('',(0.,0.,-1.));
#665=DIRECTION('',(0.,-1.,0.));
#666=DIRECTION('',(1.,0.,0.));
#667=DIRECTION('',(0.,-1.,0.));
#668=DIRECTION('',(0.,0.,-1.));
#669=DIRECTION('',(0.,-1.,0.));
#670=DIRECTION('',(0.,0.,-1.));
#671=DIRECTION('',(0.,-1.,0.));
#672=DIRECTION('',(0.,0.,-1.));
#673=DIRECTION('',(-1.,0.,0.));
#674=DIRECTION('',(0.,0.,1.));
#675=DIRECTION('',(0.,-1.,0.));
#676=DIRECTION('',(0.,0.,-1.));
#677=DIRECTION('',(0.,-1.,0.));
#678=DIRECTION('',(0.,0.,1.));
#679=DIRECTION('',(1.,0.,0.));
#680=DIRECTION('',(-1.,0.,0.));
#681=DIRECTION('',(0.,0.,1.));
#682=DIRECTION('',(1.,0.,0.));
#683=DIRECTION('',(-1.,0.,0.));
#684=DIRECTION('',(0.,-1.,0.));
#685=DIRECTION('',(1.,0.,0.));
#686=DIRECTION('',(0.,1.,0.));
#687=DIRECTION('',(0.,0.,1.));
#688=DIRECTION('',(0.,1.,0.));
#689=DIRECTION('',(0.,-1.,0.));
#690=DIRECTION('',(0.,0.,-1.));
#691=DIRECTION('',(0.,1.,0.));
#692=DIRECTION('',(0.,0.,1.));
#693=DIRECTION('',(0.,1.,0.));
#694=DIRECTION('',(0.,-1.,0.));
#695=DIRECTION('',(0.,0.,-1.));
#696=DIRECTION('',(0.,-1.,0.));
#697=DIRECTION('',(0.,0.,-1.));
#698=DIRECTION('',(0.,-1.,0.));
#699=DIRECTION('',(0.,0.,-1.));
#700=DIRECTION('',(0.,1.,0.));
#701=DIRECTION('',(0.,0.,1.));
#702=DIRECTION('',(1.,0.,0.));
#703=DIRECTION('',(0.,0.,-1.));
#704=DIRECTION('',(-1.,0.,0.));
#705=DIRECTION('',(0.,0.,1.));
#706=DIRECTION('',(1.,0.,0.));
#707=DIRECTION('',(0.,0.,-1.));
#708=DIRECTION('',(-1.,0.,0.));
#709=DIRECTION('',(0.,0.,1.));
#710=DIRECTION('',(1.,0.,0.));
#711=DIRECTION('',(0.,0.,-1.));
#712=DIRECTION('',(1.,0.,0.));
#713=DIRECTION('',(0.,0.,-1.));
#714=CARTESIAN_POINT('',(0.,0.,0.));
#715=CARTESIAN_POINT('',(0.205492347478866,0.00865298818044662,0.08636));
#716=CARTESIAN_POINT('',(0.205492347478866,0.00240458818044663,0.0794641746592522));
#717=CARTESIAN_POINT('',(0.205492347478866,0.00240458818044663,0.0809881746592522));
#718=CARTESIAN_POINT('',(0.205492347478866,-0.00130381181955338,0.08636));
#719=CARTESIAN_POINT('',(0.205492347478866,-0.00130381181955338,0.09906));
#720=CARTESIAN_POINT('',(0.205492347478866,-0.00130381181955338,0.07366));
#721=CARTESIAN_POINT('',(0.205492347478866,0.00865298818044662,0.09906));
#722=CARTESIAN_POINT('',(0.205492347478866,0.00606218818044662,0.09906));
#723=CARTESIAN_POINT('',(0.205492347478866,0.00606218818044662,0.08636));
#724=CARTESIAN_POINT('',(0.205492347478866,0.00606218818044662,0.07366));
#725=CARTESIAN_POINT('',(0.205492347478866,0.00865298818044662,0.07366));
#726=CARTESIAN_POINT('',(0.205492347478866,0.00240458818044663,0.0932558253407478));
#727=CARTESIAN_POINT('',(0.205492347478866,0.00240458818044663,0.0947798253407478));
#728=CARTESIAN_POINT('',(0.209070086479187,0.00865298818044662,0.08636));
#729=CARTESIAN_POINT('',(0.209070086479187,0.00240458818044663,0.0794641746592522));
#730=CARTESIAN_POINT('',(0.209070086479187,0.00240458818044663,0.0814961746592522));
#731=CARTESIAN_POINT('',(0.209070086479187,0.00240458818044663,0.0932558253407478));
#732=CARTESIAN_POINT('',(0.209070086479187,0.00240458818044663,0.0952878253407478));
#733=CARTESIAN_POINT('',(0.209070086479187,-0.00384381181955338,0.08636));
#734=CARTESIAN_POINT('',(0.209070086479187,-0.00384381181955338,0.09906));
#735=CARTESIAN_POINT('',(0.209070086479187,-0.00384381181955338,0.07366));
#736=CARTESIAN_POINT('',(0.209070086479187,0.00865298818044662,0.07366));
#737=CARTESIAN_POINT('',(0.209070086479187,0.00865298818044662,0.07366));
#738=CARTESIAN_POINT('',(0.209070086479187,0.00865298818044662,0.08636));
#739=CARTESIAN_POINT('',(0.209070086479187,0.00865298818044662,0.09906));
#740=CARTESIAN_POINT('',(0.209070086479187,0.00865298818044662,0.09906));
#741=CARTESIAN_POINT('',(0.19286675847918,-0.00130381181955338,0.0816829575610161));
#742=CARTESIAN_POINT('',(0.19286675847918,-0.00384381181955338,0.0816829575610161));
#743=CARTESIAN_POINT('',(0.196876585483551,-0.00384381181955338,0.0816829575610161));
#744=CARTESIAN_POINT('',(0.193701292409067,-0.00384381181955338,0.0816829575610161));
#745=CARTESIAN_POINT('',(0.193701292409067,-0.00130381181955338,0.0816829575610161));
#746=CARTESIAN_POINT('',(0.193701292409067,-0.00130381181955338,0.0816829575610161));
#747=CARTESIAN_POINT('',(0.19286675847918,-0.00130381181955338,0.0816829575610161));
#748=CARTESIAN_POINT('',(0.196876585483551,-0.00130381181955338,0.0816829575610161));
#749=CARTESIAN_POINT('',(0.196876585483551,-0.00130381181955338,0.0816829575610161));
#750=CARTESIAN_POINT('',(0.201184466481209,-0.00130381181955338,0.0776714787805081));
#751=CARTESIAN_POINT('',(0.201184466481209,-0.00384381181955338,0.0776714787805081));
#752=CARTESIAN_POINT('',(0.205492347478866,-0.00384381181955338,0.07366));
#753=CARTESIAN_POINT('',(0.201184466481209,-0.00130381181955338,0.0776714787805081));
#754=CARTESIAN_POINT('',(0.205492347478866,-0.00130381181955338,0.07366));
#755=CARTESIAN_POINT('',(0.201184466481209,-0.00130381181955338,0.095048521219492));
#756=CARTESIAN_POINT('',(0.201184466481209,-0.00384381181955338,0.095048521219492));
#757=CARTESIAN_POINT('',(0.205492347478866,-0.00384381181955338,0.09906));
#758=CARTESIAN_POINT('',(0.196876585483551,-0.00384381181955338,0.0910370424389839));
#759=CARTESIAN_POINT('',(0.205492347478866,-0.00130381181955338,0.09906));
#760=CARTESIAN_POINT('',(0.201184466481209,-0.00130381181955338,0.095048521219492));
#761=CARTESIAN_POINT('',(0.196876585483551,-0.00130381181955338,0.0910370424389839));
#762=CARTESIAN_POINT('',(0.196876585483551,-0.00130381181955338,0.0910370424389839));
#763=CARTESIAN_POINT('',(0.19359090924263,-0.00130381181955338,0.08636));
#764=CARTESIAN_POINT('',(0.19359090924263,-0.00130381181955338,0.08636));
#765=CARTESIAN_POINT('',(0.19359090924263,-0.00130381181955338,0.084836));
#766=CARTESIAN_POINT('',(0.19359090924263,-0.00384381181955338,0.08636));
#767=CARTESIAN_POINT('',(0.19359090924263,-0.00384381181955338,0.084836));
#768=CARTESIAN_POINT('',(0.19286675847918,-0.00130381181955338,0.0910370424389839));
#769=CARTESIAN_POINT('',(0.19286675847918,-0.00130381181955338,0.0910370424389839));
#770=CARTESIAN_POINT('',(0.193701292409067,-0.00130381181955338,0.0910370424389839));
#771=CARTESIAN_POINT('',(0.193701292409067,-0.00384381181955338,0.0910370424389839));
#772=CARTESIAN_POINT('',(0.193701292409067,-0.00384381181955338,0.0910370424389839));
#773=CARTESIAN_POINT('',(0.19286675847918,-0.00384381181955338,0.0910370424389839));
#774=CARTESIAN_POINT('',(0.202071864725652,-0.00130381181955338,0.08636));
#775=CARTESIAN_POINT('',(0.193701292409067,-0.00130381181955338,0.086527318495274));
#776=CARTESIAN_POINT('',(0.1888598218285,-0.00130381181955338,0.08636));
#777=CARTESIAN_POINT('',(0.193701292409067,-0.00130381181955338,0.0861926815047261));
#778=CARTESIAN_POINT('',(0.202071864725652,-0.00384381181955338,0.08636));
#779=CARTESIAN_POINT('',(0.193701292409067,-0.00384381181955338,0.0861926815047261));
#780=CARTESIAN_POINT('',(0.1888598218285,-0.00384381181955338,0.08636));
#781=CARTESIAN_POINT('',(0.193701292409067,-0.00384381181955338,0.086527318495274));
#782=CARTESIAN_POINT('',(0.207281216979027,-0.00384381181955338,0.07366));
#783=CARTESIAN_POINT('',(0.207281216979027,-0.00384381181955338,0.09906));
#784=CARTESIAN_POINT('',(0.19286675847918,0.00860218818044662,0.0816829575610161));
#785=CARTESIAN_POINT('',(0.19286675847918,0.00606218818044662,0.0816829575610161));
#786=CARTESIAN_POINT('',(0.196876585483551,0.00606218818044662,0.0816829575610161));
#787=CARTESIAN_POINT('',(0.193701292409067,0.00606218818044662,0.0816829575610161));
#788=CARTESIAN_POINT('',(0.193701292409067,0.00860218818044662,0.0816829575610161));
#789=CARTESIAN_POINT('',(0.193701292409067,0.00860218818044662,0.0816829575610161));
#790=CARTESIAN_POINT('',(0.19286675847918,0.00860218818044662,0.0816829575610161));
#791=CARTESIAN_POINT('',(0.196876585483551,0.00860218818044662,0.0816829575610161));
#792=CARTESIAN_POINT('',(0.196876585483551,0.00860218818044662,0.0816829575610161));
#793=CARTESIAN_POINT('',(0.201184466481209,0.00860218818044662,0.0776714787805081));
#794=CARTESIAN_POINT('',(0.201184466481209,0.00606218818044662,0.0776714787805081));
#795=CARTESIAN_POINT('',(0.201184466481209,0.00860218818044662,0.0776714787805081));
#796=CARTESIAN_POINT('',(0.205492347478866,0.00860218818044662,0.07366));
#797=CARTESIAN_POINT('',(0.205492347478866,0.00860218818044662,0.07366));
#798=CARTESIAN_POINT('',(0.201184466481209,0.00860218818044662,0.095048521219492));
#799=CARTESIAN_POINT('',(0.201184466481209,0.00606218818044662,0.095048521219492));
#800=CARTESIAN_POINT('',(0.196876585483551,0.00606218818044662,0.0910370424389839));
#801=CARTESIAN_POINT('',(0.205492347478866,0.00860218818044662,0.09906));
#802=CARTESIAN_POINT('',(0.205492347478866,0.00860218818044662,0.09906));
#803=CARTESIAN_POINT('',(0.201184466481209,0.00860218818044662,0.095048521219492));
#804=CARTESIAN_POINT('',(0.196876585483551,0.00860218818044662,0.0910370424389839));
#805=CARTESIAN_POINT('',(0.196876585483551,0.00860218818044662,0.0910370424389839));
#806=CARTESIAN_POINT('',(0.19286675847918,0.00860218818044662,0.0910370424389839));
#807=CARTESIAN_POINT('',(0.19286675847918,0.00860218818044662,0.0910370424389839));
#808=CARTESIAN_POINT('',(0.193701292409067,0.00860218818044662,0.0910370424389839));
#809=CARTESIAN_POINT('',(0.193701292409067,0.00606218818044662,0.0910370424389839));
#810=CARTESIAN_POINT('',(0.193701292409067,0.00606218818044662,0.0910370424389839));
#811=CARTESIAN_POINT('',(0.19286675847918,0.00606218818044662,0.0910370424389839));
#812=CARTESIAN_POINT('',(0.202071864725652,0.00860218818044662,0.08636));
#813=CARTESIAN_POINT('',(0.19359090924263,0.00860218818044662,0.08636));
#814=CARTESIAN_POINT('',(0.19359090924263,0.00860218818044662,0.084074));
#815=CARTESIAN_POINT('',(0.193701292409067,0.00860218818044662,0.086527318495274));
#816=CARTESIAN_POINT('',(0.1888598218285,0.00860218818044662,0.08636));
#817=CARTESIAN_POINT('',(0.193701292409067,0.00860218818044662,0.0861926815047261));
#818=CARTESIAN_POINT('',(0.205492347478866,0.00860218818044662,0.08636));
#819=CARTESIAN_POINT('',(0.202071864725652,0.00606218818044662,0.08636));
#820=CARTESIAN_POINT('',(0.19359090924263,0.00606218818044662,0.08636));
#821=CARTESIAN_POINT('',(0.19359090924263,0.00606218818044662,0.084582));
#822=CARTESIAN_POINT('',(0.193701292409067,0.00606218818044662,0.0861926815047261));
#823=CARTESIAN_POINT('',(0.1888598218285,0.00606218818044662,0.08636));
#824=CARTESIAN_POINT('',(0.193701292409067,0.00606218818044662,0.086527318495274));
#825=CARTESIAN_POINT('',(0.205492347478866,0.00865298818044662,0.08636));
#826=CARTESIAN_POINT('',(0.205492347478866,0.00865298818044662,0.09906));
#827=CARTESIAN_POINT('',(0.205492347478866,0.00865298818044662,0.09906));
#828=CARTESIAN_POINT('',(0.205492347478866,0.00865298818044662,0.08636));
#829=CARTESIAN_POINT('',(0.205492347478866,0.00865298818044662,0.07366));
#830=CARTESIAN_POINT('',(0.205492347478866,0.00865298818044662,0.07366));
#831=CARTESIAN_POINT('',(0.207281216979027,0.00865298818044662,0.09906));
#832=CARTESIAN_POINT('',(0.207281216979027,0.00865298818044662,0.09906));
#833=CARTESIAN_POINT('',(0.207281216979027,0.00865298818044662,0.07366));
#834=CARTESIAN_POINT('',(0.207281216979027,0.00865298818044662,0.07366));
#835=CARTESIAN_POINT('',(0.202071864725652,0.00865298818044662,0.08636));
#836=CARTESIAN_POINT('',(0.193701292409067,-0.00130381181955338,0.0861926815047261));
#837=CARTESIAN_POINT('',(0.1888598218285,-0.00257381181955337,0.08636));
#838=CARTESIAN_POINT('',(0.193701292409067,-0.00130381181955338,0.086527318495274));
#839=CARTESIAN_POINT('',(0.193701292409067,0.00860218818044662,0.0861926815047261));
#840=CARTESIAN_POINT('',(0.1888598218285,0.00733218818044662,0.08636));
#841=CARTESIAN_POINT('',(0.193701292409067,0.00860218818044662,0.086527318495274));
#842=CARTESIAN_POINT('',(0.19359090924263,0.0314621881804467,0.08636));
#843=CARTESIAN_POINT('',(0.19359090924263,0.00809418818044663,0.08636));
#844=CARTESIAN_POINT('',(0.19359090924263,0.00809418818044663,0.084582));
#845=CARTESIAN_POINT('',(0.19359090924263,0.00860218818044662,0.08636));
#846=CARTESIAN_POINT('',(0.183670086479187,0.00240458818044663,0.0794641746592522));
#847=CARTESIAN_POINT('',(0.208562086479187,0.00240458818044663,0.0794641746592522));
#848=CARTESIAN_POINT('',(0.208562086479187,0.00240458818044663,0.0809881746592522));
#849=CARTESIAN_POINT('',(0.183670086479187,0.00240458818044663,0.0932558253407478));
#850=CARTESIAN_POINT('',(0.208562086479187,0.00240458818044663,0.0932558253407478));
#851=CARTESIAN_POINT('',(0.208562086479187,0.00240458818044663,0.0947798253407478));
#852=CARTESIAN_POINT('',(0.209070086479187,0.00240458818044663,0.0794641746592522));
#853=CARTESIAN_POINT('',(0.208562086479187,0.00240458818044663,0.0932558253407478));
#854=MECHANICAL_DESIGN_GEOMETRIC_PRESENTATION_REPRESENTATION('',(#510),
#855);
#855=(
GEOMETRIC_REPRESENTATION_CONTEXT(3)
GLOBAL_UNCERTAINTY_ASSIGNED_CONTEXT((#856))
GLOBAL_UNIT_ASSIGNED_CONTEXT((#859,#858,#857))
REPRESENTATION_CONTEXT('Part 5','TOP_LEVEL_ASSEMBLY_PART')
);
#856=UNCERTAINTY_MEASURE_WITH_UNIT(LENGTH_MEASURE(1.E-8),#859,
'DISTANCE_ACCURACY_VALUE','Maximum Tolerance applied to model');
#857=(
NAMED_UNIT(*)
SI_UNIT($,.STERADIAN.)
SOLID_ANGLE_UNIT()
);
#858=(
NAMED_UNIT(*)
PLANE_ANGLE_UNIT()
SI_UNIT($,.RADIAN.)
);
#859=(
LENGTH_UNIT()
NAMED_UNIT(*)
SI_UNIT($,.METRE.)
);
#860=PRODUCT_DEFINITION_SHAPE('','',#861);
#861=PRODUCT_DEFINITION('','',#863,#862);
#862=PRODUCT_DEFINITION_CONTEXT('',#869,'design');
#863=PRODUCT_DEFINITION_FORMATION_WITH_SPECIFIED_SOURCE('','',#865,
 .NOT_KNOWN.);
#864=PRODUCT_RELATED_PRODUCT_CATEGORY('','',(#865));
#865=PRODUCT('Part 5','Part 5','Part 5',(#867));
#866=PRODUCT_CATEGORY('','');
#867=PRODUCT_CONTEXT('',#869,'mechanical');
#868=APPLICATION_PROTOCOL_DEFINITION('international standard',
'ap242_managed_model_based_3d_engineering',2020,#869);
#869=APPLICATION_CONTEXT('managed model based 3d engineering');
ENDSEC;
END-ISO-10303-21;
