ISO-10303-21;
HEADER;
/* Generated by software containing ST-Developer
 * from STEP Tools, Inc. (www.steptools.com) 
 */
/* OPTION: using custom renumber hook */

FILE_DESCRIPTION(
/* description */ ('STEP AP242 Edition 2',
'CAx-IF Rec.Pracs.---Representation and Presentation of Product Manufa
cturing Information (PMI)---4.0---2014-10-13',
'CAx-IF Rec.Pracs.---3D Tessellated Geometry---0.4---2014-09-14','2;1',
'CAx-IF Rec.Pracs.---User Defined Attributes---1.5---2016-08-15'),
/* implementation_level */ '2;1');

FILE_NAME(
/* name */ 'V2 - Part 17',
/* time_stamp */ '2026-05-14T03:11:43Z',
/* author */ (''),
/* organization */ (''),
/* preprocessor_version */ 'ST-DEVELOPER v20',
/* originating_system */ 'ONSHAPE BY PTC INC, 1.214',
/* authorisation */ '  ');

FILE_SCHEMA (('AP242_MANAGED_MODEL_BASED_3D_ENGINEERING_MIM_LF { 1 0 10303 442 3 1 4 }'));
ENDSEC;

DATA;
#10=SHAPE_REPRESENTATION_RELATIONSHIP('','',#283,#11);
#11=ADVANCED_BREP_SHAPE_REPRESENTATION('',(#281),#457);
#12=CONICAL_SURFACE('',#305,0.001651,0.78539816339745);
#13=CONICAL_SURFACE('',#306,0.001651,0.78539816339745);
#14=CONICAL_SURFACE('',#307,0.001651,0.785398163397453);
#15=CONICAL_SURFACE('',#308,0.001651,0.785398163397453);
#16=CYLINDRICAL_SURFACE('',#299,0.001651);
#17=CYLINDRICAL_SURFACE('',#302,0.001651);
#18=CIRCLE('',#288,0.00241300000000003);
#19=CIRCLE('',#289,0.00241300000000003);
#20=CIRCLE('',#292,0.002413);
#21=CIRCLE('',#293,0.002413);
#22=CIRCLE('',#300,0.001651);
#23=CIRCLE('',#301,0.001651);
#24=CIRCLE('',#303,0.001651);
#25=CIRCLE('',#304,0.001651);
#26=ORIENTED_EDGE('',*,*,#90,.T.);
#27=ORIENTED_EDGE('',*,*,#91,.F.);
#28=ORIENTED_EDGE('',*,*,#92,.F.);
#29=ORIENTED_EDGE('',*,*,#93,.T.);
#30=ORIENTED_EDGE('',*,*,#94,.T.);
#31=ORIENTED_EDGE('',*,*,#93,.F.);
#32=ORIENTED_EDGE('',*,*,#95,.F.);
#33=ORIENTED_EDGE('',*,*,#96,.T.);
#34=ORIENTED_EDGE('',*,*,#97,.T.);
#35=ORIENTED_EDGE('',*,*,#98,.T.);
#36=ORIENTED_EDGE('',*,*,#99,.F.);
#37=ORIENTED_EDGE('',*,*,#96,.F.);
#38=ORIENTED_EDGE('',*,*,#100,.T.);
#39=ORIENTED_EDGE('',*,*,#101,.T.);
#40=ORIENTED_EDGE('',*,*,#102,.F.);
#41=ORIENTED_EDGE('',*,*,#101,.F.);
#42=ORIENTED_EDGE('',*,*,#103,.T.);
#43=ORIENTED_EDGE('',*,*,#104,.T.);
#44=ORIENTED_EDGE('',*,*,#105,.T.);
#45=ORIENTED_EDGE('',*,*,#106,.T.);
#46=ORIENTED_EDGE('',*,*,#107,.F.);
#47=ORIENTED_EDGE('',*,*,#104,.F.);
#48=ORIENTED_EDGE('',*,*,#108,.T.);
#49=ORIENTED_EDGE('',*,*,#109,.T.);
#50=ORIENTED_EDGE('',*,*,#110,.T.);
#51=ORIENTED_EDGE('',*,*,#109,.F.);
#52=ORIENTED_EDGE('',*,*,#111,.F.);
#53=ORIENTED_EDGE('',*,*,#112,.T.);
#54=ORIENTED_EDGE('',*,*,#113,.F.);
#55=ORIENTED_EDGE('',*,*,#112,.F.);
#56=ORIENTED_EDGE('',*,*,#114,.T.);
#57=ORIENTED_EDGE('',*,*,#115,.T.);
#58=ORIENTED_EDGE('',*,*,#116,.T.);
#59=ORIENTED_EDGE('',*,*,#115,.F.);
#60=ORIENTED_EDGE('',*,*,#117,.F.);
#61=ORIENTED_EDGE('',*,*,#91,.T.);
#62=ORIENTED_EDGE('',*,*,#92,.T.);
#63=ORIENTED_EDGE('',*,*,#117,.T.);
#64=ORIENTED_EDGE('',*,*,#114,.F.);
#65=ORIENTED_EDGE('',*,*,#111,.T.);
#66=ORIENTED_EDGE('',*,*,#108,.F.);
#67=ORIENTED_EDGE('',*,*,#103,.F.);
#68=ORIENTED_EDGE('',*,*,#100,.F.);
#69=ORIENTED_EDGE('',*,*,#95,.T.);
#70=ORIENTED_EDGE('',*,*,#90,.F.);
#71=ORIENTED_EDGE('',*,*,#94,.F.);
#72=ORIENTED_EDGE('',*,*,#99,.T.);
#73=ORIENTED_EDGE('',*,*,#102,.T.);
#74=ORIENTED_EDGE('',*,*,#107,.T.);
#75=ORIENTED_EDGE('',*,*,#110,.F.);
#76=ORIENTED_EDGE('',*,*,#113,.T.);
#77=ORIENTED_EDGE('',*,*,#116,.F.);
#78=ORIENTED_EDGE('',*,*,#118,.T.);
#79=ORIENTED_EDGE('',*,*,#119,.T.);
#80=ORIENTED_EDGE('',*,*,#120,.T.);
#81=ORIENTED_EDGE('',*,*,#121,.T.);
#82=ORIENTED_EDGE('',*,*,#105,.F.);
#83=ORIENTED_EDGE('',*,*,#118,.F.);
#84=ORIENTED_EDGE('',*,*,#106,.F.);
#85=ORIENTED_EDGE('',*,*,#120,.F.);
#86=ORIENTED_EDGE('',*,*,#97,.F.);
#87=ORIENTED_EDGE('',*,*,#119,.F.);
#88=ORIENTED_EDGE('',*,*,#98,.F.);
#89=ORIENTED_EDGE('',*,*,#121,.F.);
#90=EDGE_CURVE('',#122,#123,#146,.T.);
#91=EDGE_CURVE('',#124,#123,#147,.T.);
#92=EDGE_CURVE('',#125,#124,#148,.T.);
#93=EDGE_CURVE('',#125,#122,#149,.T.);
#94=EDGE_CURVE('',#126,#122,#150,.T.);
#95=EDGE_CURVE('',#127,#125,#151,.T.);
#96=EDGE_CURVE('',#127,#126,#152,.T.);
#97=EDGE_CURVE('',#128,#128,#18,.F.);
#98=EDGE_CURVE('',#129,#129,#19,.F.);
#99=EDGE_CURVE('',#126,#130,#153,.T.);
#100=EDGE_CURVE('',#127,#131,#154,.T.);
#101=EDGE_CURVE('',#131,#130,#155,.T.);
#102=EDGE_CURVE('',#130,#132,#156,.T.);
#103=EDGE_CURVE('',#131,#133,#157,.T.);
#104=EDGE_CURVE('',#133,#132,#158,.T.);
#105=EDGE_CURVE('',#134,#134,#20,.F.);
#106=EDGE_CURVE('',#135,#135,#21,.F.);
#107=EDGE_CURVE('',#132,#136,#159,.T.);
#108=EDGE_CURVE('',#133,#137,#160,.T.);
#109=EDGE_CURVE('',#137,#136,#161,.T.);
#110=EDGE_CURVE('',#138,#136,#162,.T.);
#111=EDGE_CURVE('',#139,#137,#163,.T.);
#112=EDGE_CURVE('',#139,#138,#164,.T.);
#113=EDGE_CURVE('',#138,#140,#165,.T.);
#114=EDGE_CURVE('',#139,#141,#166,.T.);
#115=EDGE_CURVE('',#141,#140,#167,.T.);
#116=EDGE_CURVE('',#123,#140,#168,.T.);
#117=EDGE_CURVE('',#124,#141,#169,.T.);
#118=EDGE_CURVE('',#142,#142,#22,.T.);
#119=EDGE_CURVE('',#143,#143,#23,.T.);
#120=EDGE_CURVE('',#144,#144,#24,.T.);
#121=EDGE_CURVE('',#145,#145,#25,.T.);
#122=VERTEX_POINT('',#386);
#123=VERTEX_POINT('',#387);
#124=VERTEX_POINT('',#389);
#125=VERTEX_POINT('',#391);
#126=VERTEX_POINT('',#395);
#127=VERTEX_POINT('',#397);
#128=VERTEX_POINT('',#401);
#129=VERTEX_POINT('',#403);
#130=VERTEX_POINT('',#405);
#131=VERTEX_POINT('',#407);
#132=VERTEX_POINT('',#411);
#133=VERTEX_POINT('',#413);
#134=VERTEX_POINT('',#417);
#135=VERTEX_POINT('',#419);
#136=VERTEX_POINT('',#421);
#137=VERTEX_POINT('',#423);
#138=VERTEX_POINT('',#427);
#139=VERTEX_POINT('',#429);
#140=VERTEX_POINT('',#433);
#141=VERTEX_POINT('',#435);
#142=VERTEX_POINT('',#444);
#143=VERTEX_POINT('',#446);
#144=VERTEX_POINT('',#449);
#145=VERTEX_POINT('',#451);
#146=LINE('',#385,#170);
#147=LINE('',#388,#171);
#148=LINE('',#390,#172);
#149=LINE('',#392,#173);
#150=LINE('',#394,#174);
#151=LINE('',#396,#175);
#152=LINE('',#398,#176);
#153=LINE('',#404,#177);
#154=LINE('',#406,#178);
#155=LINE('',#408,#179);
#156=LINE('',#410,#180);
#157=LINE('',#412,#181);
#158=LINE('',#414,#182);
#159=LINE('',#420,#183);
#160=LINE('',#422,#184);
#161=LINE('',#424,#185);
#162=LINE('',#426,#186);
#163=LINE('',#428,#187);
#164=LINE('',#430,#188);
#165=LINE('',#432,#189);
#166=LINE('',#434,#190);
#167=LINE('',#436,#191);
#168=LINE('',#438,#192);
#169=LINE('',#439,#193);
#170=VECTOR('',#313,1.);
#171=VECTOR('',#314,1.);
#172=VECTOR('',#315,1.);
#173=VECTOR('',#316,1.);
#174=VECTOR('',#319,1.);
#175=VECTOR('',#320,1.);
#176=VECTOR('',#321,1.);
#177=VECTOR('',#328,1.);
#178=VECTOR('',#329,1.);
#179=VECTOR('',#330,1.);
#180=VECTOR('',#333,1.);
#181=VECTOR('',#334,1.);
#182=VECTOR('',#335,1.);
#183=VECTOR('',#342,1.);
#184=VECTOR('',#343,1.);
#185=VECTOR('',#344,1.);
#186=VECTOR('',#347,1.);
#187=VECTOR('',#348,1.);
#188=VECTOR('',#349,1.);
#189=VECTOR('',#352,1.);
#190=VECTOR('',#353,1.);
#191=VECTOR('',#354,1.);
#192=VECTOR('',#357,1.);
#193=VECTOR('',#358,1.);
#194=EDGE_LOOP('',(#26,#27,#28,#29));
#195=EDGE_LOOP('',(#30,#31,#32,#33));
#196=EDGE_LOOP('',(#34));
#197=EDGE_LOOP('',(#35));
#198=EDGE_LOOP('',(#36,#37,#38,#39));
#199=EDGE_LOOP('',(#40,#41,#42,#43));
#200=EDGE_LOOP('',(#44));
#201=EDGE_LOOP('',(#45));
#202=EDGE_LOOP('',(#46,#47,#48,#49));
#203=EDGE_LOOP('',(#50,#51,#52,#53));
#204=EDGE_LOOP('',(#54,#55,#56,#57));
#205=EDGE_LOOP('',(#58,#59,#60,#61));
#206=EDGE_LOOP('',(#62,#63,#64,#65,#66,#67,#68,#69));
#207=EDGE_LOOP('',(#70,#71,#72,#73,#74,#75,#76,#77));
#208=EDGE_LOOP('',(#78));
#209=EDGE_LOOP('',(#79));
#210=EDGE_LOOP('',(#80));
#211=EDGE_LOOP('',(#81));
#212=EDGE_LOOP('',(#82));
#213=EDGE_LOOP('',(#83));
#214=EDGE_LOOP('',(#84));
#215=EDGE_LOOP('',(#85));
#216=EDGE_LOOP('',(#86));
#217=EDGE_LOOP('',(#87));
#218=EDGE_LOOP('',(#88));
#219=EDGE_LOOP('',(#89));
#220=FACE_BOUND('',#194,.T.);
#221=FACE_BOUND('',#195,.T.);
#222=FACE_BOUND('',#196,.T.);
#223=FACE_BOUND('',#197,.T.);
#224=FACE_BOUND('',#198,.T.);
#225=FACE_BOUND('',#199,.T.);
#226=FACE_BOUND('',#200,.T.);
#227=FACE_BOUND('',#201,.T.);
#228=FACE_BOUND('',#202,.T.);
#229=FACE_BOUND('',#203,.T.);
#230=FACE_BOUND('',#204,.T.);
#231=FACE_BOUND('',#205,.T.);
#232=FACE_BOUND('',#206,.T.);
#233=FACE_BOUND('',#207,.T.);
#234=FACE_BOUND('',#208,.T.);
#235=FACE_BOUND('',#209,.T.);
#236=FACE_BOUND('',#210,.T.);
#237=FACE_BOUND('',#211,.T.);
#238=FACE_BOUND('',#212,.T.);
#239=FACE_BOUND('',#213,.T.);
#240=FACE_BOUND('',#214,.T.);
#241=FACE_BOUND('',#215,.T.);
#242=FACE_BOUND('',#216,.T.);
#243=FACE_BOUND('',#217,.T.);
#244=FACE_BOUND('',#218,.T.);
#245=FACE_BOUND('',#219,.T.);
#246=PLANE('',#285);
#247=PLANE('',#286);
#248=PLANE('',#287);
#249=PLANE('',#290);
#250=PLANE('',#291);
#251=PLANE('',#294);
#252=PLANE('',#295);
#253=PLANE('',#296);
#254=PLANE('',#297);
#255=PLANE('',#298);
#256=ADVANCED_FACE('',(#220),#246,.F.);
#257=ADVANCED_FACE('',(#221),#247,.F.);
#258=ADVANCED_FACE('',(#222,#223,#224),#248,.T.);
#259=ADVANCED_FACE('',(#225),#249,.T.);
#260=ADVANCED_FACE('',(#226,#227,#228),#250,.T.);
#261=ADVANCED_FACE('',(#229),#251,.F.);
#262=ADVANCED_FACE('',(#230),#252,.T.);
#263=ADVANCED_FACE('',(#231),#253,.F.);
#264=ADVANCED_FACE('',(#232),#254,.F.);
#265=ADVANCED_FACE('',(#233),#255,.T.);
#266=ADVANCED_FACE('',(#234,#235),#16,.F.);
#267=ADVANCED_FACE('',(#236,#237),#17,.F.);
#268=ADVANCED_FACE('',(#238,#239),#12,.F.);
#269=ADVANCED_FACE('',(#240,#241),#13,.F.);
#270=ADVANCED_FACE('',(#242,#243),#14,.F.);
#271=ADVANCED_FACE('',(#244,#245),#15,.F.);
#272=CLOSED_SHELL('',(#256,#257,#258,#259,#260,#261,#262,#263,#264,#265,
#266,#267,#268,#269,#270,#271));
#273=STYLED_ITEM('',(#274),#281);
#274=PRESENTATION_STYLE_ASSIGNMENT((#275));
#275=SURFACE_STYLE_USAGE(.BOTH.,#276);
#276=SURFACE_SIDE_STYLE('',(#277));
#277=SURFACE_STYLE_FILL_AREA(#278);
#278=FILL_AREA_STYLE('',(#279));
#279=FILL_AREA_STYLE_COLOUR('',#280);
#280=COLOUR_RGB('',0.615686274509804,0.811764705882353,0.929411764705882);
#281=MANIFOLD_SOLID_BREP('Part 17',#272);
#282=SHAPE_DEFINITION_REPRESENTATION(#462,#283);
#283=SHAPE_REPRESENTATION('Part 17',(#284),#457);
#284=AXIS2_PLACEMENT_3D('',#383,#309,#310);
#285=AXIS2_PLACEMENT_3D('',#384,#311,#312);
#286=AXIS2_PLACEMENT_3D('',#393,#317,#318);
#287=AXIS2_PLACEMENT_3D('',#399,#322,#323);
#288=AXIS2_PLACEMENT_3D('',#400,#324,#325);
#289=AXIS2_PLACEMENT_3D('',#402,#326,#327);
#290=AXIS2_PLACEMENT_3D('',#409,#331,#332);
#291=AXIS2_PLACEMENT_3D('',#415,#336,#337);
#292=AXIS2_PLACEMENT_3D('',#416,#338,#339);
#293=AXIS2_PLACEMENT_3D('',#418,#340,#341);
#294=AXIS2_PLACEMENT_3D('',#425,#345,#346);
#295=AXIS2_PLACEMENT_3D('',#431,#350,#351);
#296=AXIS2_PLACEMENT_3D('',#437,#355,#356);
#297=AXIS2_PLACEMENT_3D('',#440,#359,#360);
#298=AXIS2_PLACEMENT_3D('',#441,#361,#362);
#299=AXIS2_PLACEMENT_3D('',#442,#363,#364);
#300=AXIS2_PLACEMENT_3D('',#443,#365,#366);
#301=AXIS2_PLACEMENT_3D('',#445,#367,#368);
#302=AXIS2_PLACEMENT_3D('',#447,#369,#370);
#303=AXIS2_PLACEMENT_3D('',#448,#371,#372);
#304=AXIS2_PLACEMENT_3D('',#450,#373,#374);
#305=AXIS2_PLACEMENT_3D('',#452,#375,#376);
#306=AXIS2_PLACEMENT_3D('',#453,#377,#378);
#307=AXIS2_PLACEMENT_3D('',#454,#379,#380);
#308=AXIS2_PLACEMENT_3D('',#455,#381,#382);
#309=DIRECTION('',(0.,0.,1.));
#310=DIRECTION('',(1.,0.,0.));
#311=DIRECTION('',(0.,1.,0.));
#312=DIRECTION('',(0.,0.,1.));
#313=DIRECTION('',(0.,0.,1.));
#314=DIRECTION('',(1.,0.,0.));
#315=DIRECTION('',(0.,0.,1.));
#316=DIRECTION('',(1.,0.,0.));
#317=DIRECTION('',(0.,0.,-1.));
#318=DIRECTION('',(-1.,0.,0.));
#319=DIRECTION('',(0.,1.,0.));
#320=DIRECTION('',(0.,1.,0.));
#321=DIRECTION('',(1.,0.,0.));
#322=DIRECTION('',(0.,-1.,2.73184799366426E-16));
#323=DIRECTION('',(0.,-2.73184799366426E-16,-1.));
#324=DIRECTION('',(0.,-1.,2.73184799366426E-16));
#325=DIRECTION('',(0.,-2.73184799366426E-16,-1.));
#326=DIRECTION('',(0.,-1.,2.73184799366426E-16));
#327=DIRECTION('',(0.,-2.73184799366426E-16,-1.));
#328=DIRECTION('',(0.,-2.73184799366426E-16,-1.));
#329=DIRECTION('',(0.,-2.73184799366426E-16,-1.));
#330=DIRECTION('',(1.,0.,0.));
#331=DIRECTION('',(0.,0.,-1.));
#332=DIRECTION('',(-1.,0.,0.));
#333=DIRECTION('',(0.,1.,0.));
#334=DIRECTION('',(0.,1.,0.));
#335=DIRECTION('',(1.,0.,0.));
#336=DIRECTION('',(0.,1.,0.));
#337=DIRECTION('',(0.,0.,1.));
#338=DIRECTION('',(0.,1.,0.));
#339=DIRECTION('',(0.,0.,1.));
#340=DIRECTION('',(0.,1.,0.));
#341=DIRECTION('',(0.,0.,1.));
#342=DIRECTION('',(0.,0.,1.));
#343=DIRECTION('',(0.,0.,1.));
#344=DIRECTION('',(1.,0.,0.));
#345=DIRECTION('',(0.,0.,-1.));
#346=DIRECTION('',(-1.,0.,0.));
#347=DIRECTION('',(0.,1.,0.));
#348=DIRECTION('',(0.,1.,0.));
#349=DIRECTION('',(1.,0.,0.));
#350=DIRECTION('',(0.,1.,0.));
#351=DIRECTION('',(0.,0.,1.));
#352=DIRECTION('',(0.,0.,1.));
#353=DIRECTION('',(0.,0.,1.));
#354=DIRECTION('',(1.,0.,0.));
#355=DIRECTION('',(0.,0.,-1.));
#356=DIRECTION('',(-1.,0.,0.));
#357=DIRECTION('',(0.,1.,0.));
#358=DIRECTION('',(0.,1.,0.));
#359=DIRECTION('',(1.,0.,0.));
#360=DIRECTION('',(0.,1.,0.));
#361=DIRECTION('',(1.,0.,0.));
#362=DIRECTION('',(0.,1.,0.));
#363=DIRECTION('',(0.,-1.,2.73184799366426E-16));
#364=DIRECTION('',(0.,-2.73184799366426E-16,-1.));
#365=DIRECTION('',(0.,1.,0.));
#366=DIRECTION('',(0.,0.,1.));
#367=DIRECTION('',(0.,-1.,0.));
#368=DIRECTION('',(0.,0.,-1.));
#369=DIRECTION('',(0.,-1.,2.73184799366426E-16));
#370=DIRECTION('',(0.,-2.73184799366426E-16,-1.));
#371=DIRECTION('',(0.,1.,0.));
#372=DIRECTION('',(0.,0.,1.));
#373=DIRECTION('',(0.,-1.,0.));
#374=DIRECTION('',(0.,0.,-1.));
#375=DIRECTION('',(0.,1.,0.));
#376=DIRECTION('',(0.,0.,1.));
#377=DIRECTION('',(0.,1.,0.));
#378=DIRECTION('',(0.,0.,1.));
#379=DIRECTION('',(0.,-1.,0.));
#380=DIRECTION('',(0.,0.,-1.));
#381=DIRECTION('',(0.,-1.,0.));
#382=DIRECTION('',(0.,0.,-1.));
#383=CARTESIAN_POINT('',(0.,0.,0.));
#384=CARTESIAN_POINT('',(0.125882512395238,0.0127006499096753,0.0747297704219818));
#385=CARTESIAN_POINT('',(0.151282512395239,0.0127006499096753,0.0747297704219818));
#386=CARTESIAN_POINT('',(0.151282512395239,0.0127006499096753,0.0736156031489372));
#387=CARTESIAN_POINT('',(0.151282512395239,0.0127006499096753,0.0758439376950264));
#388=CARTESIAN_POINT('',(0.125882512395238,0.0127006499096753,0.0758439376950264));
#389=CARTESIAN_POINT('',(0.125882512395238,0.0127006499096753,0.0758439376950264));
#390=CARTESIAN_POINT('',(0.125882512395238,0.0127006499096753,0.0747297704219818));
#391=CARTESIAN_POINT('',(0.125882512395238,0.0127006499096753,0.0736156031489372));
#392=CARTESIAN_POINT('',(0.125882512395238,0.0127006499096753,0.0736156031489372));
#393=CARTESIAN_POINT('',(0.125882512395238,0.010742417755741,0.0736156031489372));
#394=CARTESIAN_POINT('',(0.151282512395239,0.010742417755741,0.0736156031489372));
#395=CARTESIAN_POINT('',(0.151282512395239,0.00878418560180664,0.0736156031489372));
#396=CARTESIAN_POINT('',(0.125882512395238,0.010742417755741,0.0736156031489372));
#397=CARTESIAN_POINT('',(0.125882512395238,0.00878418560180664,0.0736156031489372));
#398=CARTESIAN_POINT('',(0.125882512395238,0.00878418560180664,0.0736156031489372));
#399=CARTESIAN_POINT('',(0.125882512395238,0.00878418560180665,0.0961412973332405));
#400=CARTESIAN_POINT('',(0.144657372746181,0.00878418560180664,0.0701707153034211));
#401=CARTESIAN_POINT('',(0.144657372746181,0.00878418560180664,0.0677577153034211));
#402=CARTESIAN_POINT('',(0.132507652044296,0.00878418560180664,0.0701707153034211));
#403=CARTESIAN_POINT('',(0.132507652044296,0.00878418560180664,0.0677577153034211));
#404=CARTESIAN_POINT('',(0.151282512395239,0.00878418560180665,0.0961412973332405));
#405=CARTESIAN_POINT('',(0.151282512395239,0.00878418560180664,0.066797405333519));
#406=CARTESIAN_POINT('',(0.125882512395238,0.00878418560180665,0.0961412973332405));
#407=CARTESIAN_POINT('',(0.125882512395238,0.00878418560180664,0.066797405333519));
#408=CARTESIAN_POINT('',(0.125882512395238,0.00878418560180664,0.066797405333519));
#409=CARTESIAN_POINT('',(0.125882512395238,0.0157183856018066,0.066797405333519));
#410=CARTESIAN_POINT('',(0.151282512395239,0.0157183856018066,0.066797405333519));
#411=CARTESIAN_POINT('',(0.151282512395239,0.0226525856018066,0.066797405333519));
#412=CARTESIAN_POINT('',(0.125882512395238,0.0157183856018066,0.066797405333519));
#413=CARTESIAN_POINT('',(0.125882512395238,0.0226525856018066,0.066797405333519));
#414=CARTESIAN_POINT('',(0.125882512395238,0.0226525856018066,0.066797405333519));
#415=CARTESIAN_POINT('',(0.125882512395238,0.0226525856018066,0.0702065042412281));
#416=CARTESIAN_POINT('',(0.144657372746181,0.0226525856018066,0.0701707153034211));
#417=CARTESIAN_POINT('',(0.144657372746181,0.0226525856018066,0.0725837153034211));
#418=CARTESIAN_POINT('',(0.132507652044296,0.0226525856018066,0.0701707153034211));
#419=CARTESIAN_POINT('',(0.132507652044296,0.0226525856018066,0.0725837153034211));
#420=CARTESIAN_POINT('',(0.151282512395239,0.0226525856018066,0.0702065042412281));
#421=CARTESIAN_POINT('',(0.151282512395239,0.0226525856018066,0.0736156031489372));
#422=CARTESIAN_POINT('',(0.125882512395238,0.0226525856018066,0.0702065042412281));
#423=CARTESIAN_POINT('',(0.125882512395238,0.0226525856018066,0.0736156031489372));
#424=CARTESIAN_POINT('',(0.125882512395238,0.0226525856018066,0.0736156031489372));
#425=CARTESIAN_POINT('',(0.125882512395238,0.020736792396009,0.0736156031489372));
#426=CARTESIAN_POINT('',(0.151282512395239,0.020736792396009,0.0736156031489372));
#427=CARTESIAN_POINT('',(0.151282512395239,0.0188209991902113,0.0736156031489372));
#428=CARTESIAN_POINT('',(0.125882512395238,0.020736792396009,0.0736156031489372));
#429=CARTESIAN_POINT('',(0.125882512395238,0.0188209991902113,0.0736156031489372));
#430=CARTESIAN_POINT('',(0.125882512395238,0.0188209991902113,0.0736156031489372));
#431=CARTESIAN_POINT('',(0.125882512395238,0.0188209991902113,0.0747297704219818));
#432=CARTESIAN_POINT('',(0.151282512395239,0.0188209991902113,0.0747297704219818));
#433=CARTESIAN_POINT('',(0.151282512395239,0.0188209991902113,0.0758439376950264));
#434=CARTESIAN_POINT('',(0.125882512395238,0.0188209991902113,0.0747297704219818));
#435=CARTESIAN_POINT('',(0.125882512395238,0.0188209991902113,0.0758439376950264));
#436=CARTESIAN_POINT('',(0.125882512395238,0.0188209991902113,0.0758439376950264));
#437=CARTESIAN_POINT('',(0.125882512395238,0.0157608245499433,0.0758439376950264));
#438=CARTESIAN_POINT('',(0.151282512395239,0.0157608245499433,0.0758439376950264));
#439=CARTESIAN_POINT('',(0.125882512395238,0.0157608245499433,0.0758439376950264));
#440=CARTESIAN_POINT('',(0.125882512395238,0.0108923856018066,0.08636));
#441=CARTESIAN_POINT('',(0.151282512395239,0.0108923856018066,0.08636));
#442=CARTESIAN_POINT('',(0.144657372746181,0.0341841856018067,0.0701707153034211));
#443=CARTESIAN_POINT('',(0.144657372746181,0.0218905856018067,0.0701707153034211));
#444=CARTESIAN_POINT('',(0.144657372746181,0.0218905856018067,0.0718217153034211));
#445=CARTESIAN_POINT('',(0.144657372746181,0.00954618560180664,0.0701707153034211));
#446=CARTESIAN_POINT('',(0.144657372746181,0.00954618560180664,0.0685197153034211));
#447=CARTESIAN_POINT('',(0.132507652044296,0.0341841856018067,0.0701707153034211));
#448=CARTESIAN_POINT('',(0.132507652044296,0.0218905856018067,0.0701707153034211));
#449=CARTESIAN_POINT('',(0.132507652044296,0.0218905856018067,0.0718217153034211));
#450=CARTESIAN_POINT('',(0.132507652044296,0.00954618560180664,0.0701707153034211));
#451=CARTESIAN_POINT('',(0.132507652044296,0.00954618560180664,0.0685197153034211));
#452=CARTESIAN_POINT('',(0.144657372746181,0.0218905856018067,0.0701707153034211));
#453=CARTESIAN_POINT('',(0.132507652044296,0.0218905856018067,0.0701707153034211));
#454=CARTESIAN_POINT('',(0.144657372746181,0.00954618560180664,0.0701707153034211));
#455=CARTESIAN_POINT('',(0.132507652044296,0.00954618560180664,0.0701707153034211));
#456=MECHANICAL_DESIGN_GEOMETRIC_PRESENTATION_REPRESENTATION('',(#273),
#457);
#457=(
GEOMETRIC_REPRESENTATION_CONTEXT(3)
GLOBAL_UNCERTAINTY_ASSIGNED_CONTEXT((#458))
GLOBAL_UNIT_ASSIGNED_CONTEXT((#461,#460,#459))
REPRESENTATION_CONTEXT('Part 17','TOP_LEVEL_ASSEMBLY_PART')
);
#458=UNCERTAINTY_MEASURE_WITH_UNIT(LENGTH_MEASURE(1.E-8),#461,
'DISTANCE_ACCURACY_VALUE','Maximum Tolerance applied to model');
#459=(
NAMED_UNIT(*)
SI_UNIT($,.STERADIAN.)
SOLID_ANGLE_UNIT()
);
#460=(
NAMED_UNIT(*)
PLANE_ANGLE_UNIT()
SI_UNIT($,.RADIAN.)
);
#461=(
LENGTH_UNIT()
NAMED_UNIT(*)
SI_UNIT($,.METRE.)
);
#462=PRODUCT_DEFINITION_SHAPE('','',#463);
#463=PRODUCT_DEFINITION('','',#465,#464);
#464=PRODUCT_DEFINITION_CONTEXT('',#471,'design');
#465=PRODUCT_DEFINITION_FORMATION_WITH_SPECIFIED_SOURCE('','',#467,
 .NOT_KNOWN.);
#466=PRODUCT_RELATED_PRODUCT_CATEGORY('','',(#467));
#467=PRODUCT('Part 17','Part 17','Part 17',(#469));
#468=PRODUCT_CATEGORY('','');
#469=PRODUCT_CONTEXT('',#471,'mechanical');
#470=APPLICATION_PROTOCOL_DEFINITION('international standard',
'ap242_managed_model_based_3d_engineering',2020,#471);
#471=APPLICATION_CONTEXT('managed model based 3d engineering');
ENDSEC;
END-ISO-10303-21;
