ISO-10303-21;
HEADER;
/* Generated by software containing ST-Developer
 * from STEP Tools, Inc. (www.steptools.com) 
 */
/* OPTION: using custom renumber hook */

FILE_DESCRIPTION(
/* description */ ('STEP AP242 Edition 2',
'CAx-IF Rec.Pracs.---Representation and Presentation of Product Manufa
cturing Information (PMI)---4.0---2014-10-13',
'CAx-IF Rec.Pracs.---3D Tessellated Geometry---0.4---2014-09-14','2;1',
'CAx-IF Rec.Pracs.---User Defined Attributes---1.5---2016-08-15'),
/* implementation_level */ '2;1');

FILE_NAME(
/* name */ 'V2 - Part 11',
/* time_stamp */ '2026-05-14T03:09:55Z',
/* author */ (''),
/* organization */ (''),
/* preprocessor_version */ 'ST-DEVELOPER v20',
/* originating_system */ 'ONSHAPE BY PTC INC, 1.214',
/* authorisation */ '  ');

FILE_SCHEMA (('AP242_MANAGED_MODEL_BASED_3D_ENGINEERING_MIM_LF { 1 0 10303 442 3 1 4 }'));
ENDSEC;

DATA;
#10=SHAPE_REPRESENTATION_RELATIONSHIP('','',#802,#11);
#11=ADVANCED_BREP_SHAPE_REPRESENTATION('',(#800),#1305);
#12=LINE('',#1111,#86);
#13=LINE('',#1114,#87);
#14=LINE('',#1116,#88);
#15=LINE('',#1118,#89);
#16=LINE('',#1120,#90);
#17=LINE('',#1122,#91);
#18=LINE('',#1124,#92);
#19=LINE('',#1126,#93);
#20=LINE('',#1128,#94);
#21=LINE('',#1130,#95);
#22=LINE('',#1132,#96);
#23=LINE('',#1134,#97);
#24=LINE('',#1136,#98);
#25=LINE('',#1138,#99);
#26=LINE('',#1141,#100);
#27=LINE('',#1143,#101);
#28=LINE('',#1145,#102);
#29=LINE('',#1147,#103);
#30=LINE('',#1148,#104);
#31=LINE('',#1152,#105);
#32=LINE('',#1154,#106);
#33=LINE('',#1156,#107);
#34=LINE('',#1157,#108);
#35=LINE('',#1159,#109);
#36=LINE('',#1161,#110);
#37=LINE('',#1163,#111);
#38=LINE('',#1165,#112);
#39=LINE('',#1167,#113);
#40=LINE('',#1169,#114);
#41=LINE('',#1171,#115);
#42=LINE('',#1174,#116);
#43=LINE('',#1176,#117);
#44=LINE('',#1177,#118);
#45=LINE('',#1179,#119);
#46=LINE('',#1183,#120);
#47=LINE('',#1185,#121);
#48=LINE('',#1186,#122);
#49=LINE('',#1187,#123);
#50=LINE('',#1189,#124);
#51=LINE('',#1191,#125);
#52=LINE('',#1192,#126);
#53=LINE('',#1194,#127);
#54=LINE('',#1206,#128);
#55=LINE('',#1208,#129);
#56=LINE('',#1210,#130);
#57=LINE('',#1212,#131);
#58=LINE('',#1214,#132);
#59=LINE('',#1216,#133);
#60=LINE('',#1218,#134);
#61=LINE('',#1222,#135);
#62=LINE('',#1223,#136);
#63=LINE('',#1225,#137);
#64=LINE('',#1227,#138);
#65=LINE('',#1229,#139);
#66=LINE('',#1231,#140);
#67=LINE('',#1234,#141);
#68=LINE('',#1235,#142);
#69=LINE('',#1237,#143);
#70=LINE('',#1239,#144);
#71=LINE('',#1241,#145);
#72=LINE('',#1243,#146);
#73=LINE('',#1245,#147);
#74=LINE('',#1250,#148);
#75=LINE('',#1252,#149);
#76=LINE('',#1254,#150);
#77=LINE('',#1256,#151);
#78=LINE('',#1258,#152);
#79=LINE('',#1260,#153);
#80=LINE('',#1262,#154);
#81=LINE('',#1264,#155);
#82=LINE('',#1266,#156);
#83=LINE('',#1272,#157);
#84=LINE('',#1274,#158);
#85=LINE('',#1281,#159);
#86=VECTOR('',#903,1.);
#87=VECTOR('',#904,1.);
#88=VECTOR('',#905,1.);
#89=VECTOR('',#906,1.);
#90=VECTOR('',#907,1.);
#91=VECTOR('',#908,1.);
#92=VECTOR('',#909,1.);
#93=VECTOR('',#910,1.);
#94=VECTOR('',#911,1.);
#95=VECTOR('',#912,1.);
#96=VECTOR('',#913,1.);
#97=VECTOR('',#914,1.);
#98=VECTOR('',#915,1.);
#99=VECTOR('',#918,1.);
#100=VECTOR('',#919,1.);
#101=VECTOR('',#920,1.);
#102=VECTOR('',#921,1.);
#103=VECTOR('',#922,1.);
#104=VECTOR('',#923,1.);
#105=VECTOR('',#928,1.);
#106=VECTOR('',#929,1.);
#107=VECTOR('',#930,1.);
#108=VECTOR('',#931,1.);
#109=VECTOR('',#932,1.);
#110=VECTOR('',#933,1.);
#111=VECTOR('',#934,1.);
#112=VECTOR('',#935,1.);
#113=VECTOR('',#936,1.);
#114=VECTOR('',#937,1.);
#115=VECTOR('',#940,1.);
#116=VECTOR('',#941,1.);
#117=VECTOR('',#942,1.);
#118=VECTOR('',#943,1.);
#119=VECTOR('',#944,1.);
#120=VECTOR('',#949,1.);
#121=VECTOR('',#950,1.);
#122=VECTOR('',#951,1.);
#123=VECTOR('',#952,1.);
#124=VECTOR('',#953,1.);
#125=VECTOR('',#956,1.);
#126=VECTOR('',#957,1.);
#127=VECTOR('',#958,1.);
#128=VECTOR('',#971,1.);
#129=VECTOR('',#972,1.);
#130=VECTOR('',#973,1.);
#131=VECTOR('',#976,1.);
#132=VECTOR('',#977,1.);
#133=VECTOR('',#978,1.);
#134=VECTOR('',#979,1.);
#135=VECTOR('',#984,1.);
#136=VECTOR('',#985,1.);
#137=VECTOR('',#986,1.);
#138=VECTOR('',#987,1.);
#139=VECTOR('',#988,1.);
#140=VECTOR('',#991,1.);
#141=VECTOR('',#992,1.);
#142=VECTOR('',#993,1.);
#143=VECTOR('',#996,1.);
#144=VECTOR('',#997,1.);
#145=VECTOR('',#1000,1.);
#146=VECTOR('',#1001,1.);
#147=VECTOR('',#1004,1.);
#148=VECTOR('',#1013,1.);
#149=VECTOR('',#1014,1.);
#150=VECTOR('',#1017,1.);
#151=VECTOR('',#1018,1.);
#152=VECTOR('',#1021,1.);
#153=VECTOR('',#1022,1.);
#154=VECTOR('',#1025,1.);
#155=VECTOR('',#1026,1.);
#156=VECTOR('',#1029,1.);
#157=VECTOR('',#1038,1.);
#158=VECTOR('',#1041,1.);
#159=VECTOR('',#1052,1.);
#160=PLANE('',#816);
#161=PLANE('',#818);
#162=PLANE('',#820);
#163=PLANE('',#821);
#164=PLANE('',#822);
#165=PLANE('',#824);
#166=PLANE('',#825);
#167=PLANE('',#831);
#168=PLANE('',#832);
#169=PLANE('',#834);
#170=PLANE('',#835);
#171=PLANE('',#836);
#172=PLANE('',#837);
#173=PLANE('',#838);
#174=PLANE('',#839);
#175=PLANE('',#840);
#176=PLANE('',#841);
#177=PLANE('',#842);
#178=PLANE('',#843);
#179=PLANE('',#844);
#180=PLANE('',#845);
#181=PLANE('',#846);
#182=PLANE('',#849);
#183=PLANE('',#850);
#184=PLANE('',#853);
#185=PLANE('',#854);
#186=PLANE('',#855);
#187=PLANE('',#856);
#188=PLANE('',#860);
#189=PLANE('',#863);
#190=PLANE('',#866);
#191=PLANE('',#869);
#192=PLANE('',#872);
#193=ORIENTED_EDGE('',*,*,#389,.T.);
#194=ORIENTED_EDGE('',*,*,#390,.T.);
#195=ORIENTED_EDGE('',*,*,#391,.T.);
#196=ORIENTED_EDGE('',*,*,#392,.T.);
#197=ORIENTED_EDGE('',*,*,#393,.F.);
#198=ORIENTED_EDGE('',*,*,#394,.F.);
#199=ORIENTED_EDGE('',*,*,#395,.F.);
#200=ORIENTED_EDGE('',*,*,#396,.F.);
#201=ORIENTED_EDGE('',*,*,#397,.F.);
#202=ORIENTED_EDGE('',*,*,#398,.T.);
#203=ORIENTED_EDGE('',*,*,#399,.T.);
#204=ORIENTED_EDGE('',*,*,#400,.T.);
#205=ORIENTED_EDGE('',*,*,#401,.F.);
#206=ORIENTED_EDGE('',*,*,#402,.T.);
#207=ORIENTED_EDGE('',*,*,#403,.T.);
#208=ORIENTED_EDGE('',*,*,#404,.T.);
#209=ORIENTED_EDGE('',*,*,#405,.T.);
#210=ORIENTED_EDGE('',*,*,#406,.F.);
#211=ORIENTED_EDGE('',*,*,#407,.F.);
#212=ORIENTED_EDGE('',*,*,#408,.F.);
#213=ORIENTED_EDGE('',*,*,#409,.T.);
#214=ORIENTED_EDGE('',*,*,#410,.F.);
#215=ORIENTED_EDGE('',*,*,#411,.F.);
#216=ORIENTED_EDGE('',*,*,#412,.T.);
#217=ORIENTED_EDGE('',*,*,#413,.T.);
#218=ORIENTED_EDGE('',*,*,#414,.F.);
#219=ORIENTED_EDGE('',*,*,#415,.T.);
#220=ORIENTED_EDGE('',*,*,#400,.F.);
#221=ORIENTED_EDGE('',*,*,#416,.F.);
#222=ORIENTED_EDGE('',*,*,#389,.F.);
#223=ORIENTED_EDGE('',*,*,#393,.T.);
#224=ORIENTED_EDGE('',*,*,#395,.T.);
#225=ORIENTED_EDGE('',*,*,#391,.F.);
#226=ORIENTED_EDGE('',*,*,#417,.F.);
#227=ORIENTED_EDGE('',*,*,#404,.F.);
#228=ORIENTED_EDGE('',*,*,#418,.T.);
#229=ORIENTED_EDGE('',*,*,#419,.F.);
#230=ORIENTED_EDGE('',*,*,#420,.F.);
#231=ORIENTED_EDGE('',*,*,#409,.F.);
#232=ORIENTED_EDGE('',*,*,#421,.F.);
#233=ORIENTED_EDGE('',*,*,#422,.T.);
#234=ORIENTED_EDGE('',*,*,#423,.F.);
#235=ORIENTED_EDGE('',*,*,#424,.F.);
#236=ORIENTED_EDGE('',*,*,#425,.T.);
#237=ORIENTED_EDGE('',*,*,#426,.T.);
#238=ORIENTED_EDGE('',*,*,#427,.F.);
#239=ORIENTED_EDGE('',*,*,#428,.F.);
#240=ORIENTED_EDGE('',*,*,#429,.T.);
#241=ORIENTED_EDGE('',*,*,#430,.T.);
#242=ORIENTED_EDGE('',*,*,#398,.F.);
#243=ORIENTED_EDGE('',*,*,#431,.T.);
#244=ORIENTED_EDGE('',*,*,#432,.T.);
#245=ORIENTED_EDGE('',*,*,#433,.T.);
#246=ORIENTED_EDGE('',*,*,#434,.F.);
#247=ORIENTED_EDGE('',*,*,#413,.F.);
#248=ORIENTED_EDGE('',*,*,#435,.T.);
#249=ORIENTED_EDGE('',*,*,#432,.F.);
#250=ORIENTED_EDGE('',*,*,#436,.T.);
#251=ORIENTED_EDGE('',*,*,#419,.T.);
#252=ORIENTED_EDGE('',*,*,#437,.F.);
#253=ORIENTED_EDGE('',*,*,#438,.F.);
#254=ORIENTED_EDGE('',*,*,#439,.F.);
#255=ORIENTED_EDGE('',*,*,#402,.F.);
#256=ORIENTED_EDGE('',*,*,#440,.F.);
#257=ORIENTED_EDGE('',*,*,#441,.T.);
#258=ORIENTED_EDGE('',*,*,#438,.T.);
#259=ORIENTED_EDGE('',*,*,#442,.F.);
#260=ORIENTED_EDGE('',*,*,#443,.F.);
#261=ORIENTED_EDGE('',*,*,#444,.F.);
#262=ORIENTED_EDGE('',*,*,#445,.F.);
#263=ORIENTED_EDGE('',*,*,#446,.F.);
#264=ORIENTED_EDGE('',*,*,#407,.T.);
#265=ORIENTED_EDGE('',*,*,#447,.T.);
#266=ORIENTED_EDGE('',*,*,#448,.F.);
#267=ORIENTED_EDGE('',*,*,#449,.T.);
#268=ORIENTED_EDGE('',*,*,#450,.T.);
#269=ORIENTED_EDGE('',*,*,#451,.F.);
#270=ORIENTED_EDGE('',*,*,#452,.F.);
#271=ORIENTED_EDGE('',*,*,#453,.T.);
#272=ORIENTED_EDGE('',*,*,#405,.F.);
#273=ORIENTED_EDGE('',*,*,#427,.T.);
#274=ORIENTED_EDGE('',*,*,#454,.F.);
#275=ORIENTED_EDGE('',*,*,#455,.T.);
#276=ORIENTED_EDGE('',*,*,#448,.T.);
#277=ORIENTED_EDGE('',*,*,#456,.T.);
#278=ORIENTED_EDGE('',*,*,#457,.T.);
#279=ORIENTED_EDGE('',*,*,#458,.F.);
#280=ORIENTED_EDGE('',*,*,#459,.F.);
#281=ORIENTED_EDGE('',*,*,#450,.F.);
#282=ORIENTED_EDGE('',*,*,#426,.F.);
#283=ORIENTED_EDGE('',*,*,#460,.F.);
#284=ORIENTED_EDGE('',*,*,#461,.F.);
#285=ORIENTED_EDGE('',*,*,#424,.T.);
#286=ORIENTED_EDGE('',*,*,#462,.T.);
#287=ORIENTED_EDGE('',*,*,#463,.F.);
#288=ORIENTED_EDGE('',*,*,#462,.F.);
#289=ORIENTED_EDGE('',*,*,#423,.T.);
#290=ORIENTED_EDGE('',*,*,#464,.T.);
#291=ORIENTED_EDGE('',*,*,#465,.T.);
#292=ORIENTED_EDGE('',*,*,#464,.F.);
#293=ORIENTED_EDGE('',*,*,#422,.F.);
#294=ORIENTED_EDGE('',*,*,#466,.T.);
#295=ORIENTED_EDGE('',*,*,#408,.T.);
#296=ORIENTED_EDGE('',*,*,#449,.F.);
#297=ORIENTED_EDGE('',*,*,#455,.F.);
#298=ORIENTED_EDGE('',*,*,#425,.F.);
#299=ORIENTED_EDGE('',*,*,#461,.T.);
#300=ORIENTED_EDGE('',*,*,#467,.T.);
#301=ORIENTED_EDGE('',*,*,#466,.F.);
#302=ORIENTED_EDGE('',*,*,#421,.T.);
#303=ORIENTED_EDGE('',*,*,#467,.F.);
#304=ORIENTED_EDGE('',*,*,#460,.T.);
#305=ORIENTED_EDGE('',*,*,#463,.T.);
#306=ORIENTED_EDGE('',*,*,#465,.F.);
#307=ORIENTED_EDGE('',*,*,#431,.F.);
#308=ORIENTED_EDGE('',*,*,#410,.T.);
#309=ORIENTED_EDGE('',*,*,#420,.T.);
#310=ORIENTED_EDGE('',*,*,#436,.F.);
#311=ORIENTED_EDGE('',*,*,#403,.F.);
#312=ORIENTED_EDGE('',*,*,#439,.T.);
#313=ORIENTED_EDGE('',*,*,#437,.T.);
#314=ORIENTED_EDGE('',*,*,#418,.F.);
#315=ORIENTED_EDGE('',*,*,#468,.T.);
#316=ORIENTED_EDGE('',*,*,#406,.T.);
#317=ORIENTED_EDGE('',*,*,#453,.F.);
#318=ORIENTED_EDGE('',*,*,#469,.F.);
#319=ORIENTED_EDGE('',*,*,#456,.F.);
#320=ORIENTED_EDGE('',*,*,#447,.F.);
#321=ORIENTED_EDGE('',*,*,#468,.F.);
#322=ORIENTED_EDGE('',*,*,#470,.T.);
#323=ORIENTED_EDGE('',*,*,#471,.T.);
#324=ORIENTED_EDGE('',*,*,#457,.F.);
#325=ORIENTED_EDGE('',*,*,#471,.F.);
#326=ORIENTED_EDGE('',*,*,#472,.T.);
#327=ORIENTED_EDGE('',*,*,#473,.T.);
#328=ORIENTED_EDGE('',*,*,#458,.T.);
#329=ORIENTED_EDGE('',*,*,#473,.F.);
#330=ORIENTED_EDGE('',*,*,#474,.F.);
#331=ORIENTED_EDGE('',*,*,#475,.T.);
#332=ORIENTED_EDGE('',*,*,#459,.T.);
#333=ORIENTED_EDGE('',*,*,#475,.F.);
#334=ORIENTED_EDGE('',*,*,#476,.F.);
#335=ORIENTED_EDGE('',*,*,#451,.T.);
#336=ORIENTED_EDGE('',*,*,#452,.T.);
#337=ORIENTED_EDGE('',*,*,#476,.T.);
#338=ORIENTED_EDGE('',*,*,#474,.T.);
#339=ORIENTED_EDGE('',*,*,#472,.F.);
#340=ORIENTED_EDGE('',*,*,#470,.F.);
#341=ORIENTED_EDGE('',*,*,#469,.T.);
#342=ORIENTED_EDGE('',*,*,#446,.T.);
#343=ORIENTED_EDGE('',*,*,#477,.T.);
#344=ORIENTED_EDGE('',*,*,#441,.F.);
#345=ORIENTED_EDGE('',*,*,#478,.F.);
#346=ORIENTED_EDGE('',*,*,#414,.T.);
#347=ORIENTED_EDGE('',*,*,#434,.T.);
#348=ORIENTED_EDGE('',*,*,#428,.T.);
#349=ORIENTED_EDGE('',*,*,#435,.F.);
#350=ORIENTED_EDGE('',*,*,#412,.F.);
#351=ORIENTED_EDGE('',*,*,#479,.T.);
#352=ORIENTED_EDGE('',*,*,#480,.F.);
#353=ORIENTED_EDGE('',*,*,#417,.T.);
#354=ORIENTED_EDGE('',*,*,#477,.F.);
#355=ORIENTED_EDGE('',*,*,#480,.T.);
#356=ORIENTED_EDGE('',*,*,#478,.T.);
#357=ORIENTED_EDGE('',*,*,#440,.T.);
#358=ORIENTED_EDGE('',*,*,#401,.T.);
#359=ORIENTED_EDGE('',*,*,#415,.F.);
#360=ORIENTED_EDGE('',*,*,#411,.T.);
#361=ORIENTED_EDGE('',*,*,#481,.F.);
#362=ORIENTED_EDGE('',*,*,#429,.F.);
#363=ORIENTED_EDGE('',*,*,#479,.F.);
#364=ORIENTED_EDGE('',*,*,#416,.T.);
#365=ORIENTED_EDGE('',*,*,#399,.F.);
#366=ORIENTED_EDGE('',*,*,#430,.F.);
#367=ORIENTED_EDGE('',*,*,#481,.T.);
#368=ORIENTED_EDGE('',*,*,#454,.T.);
#369=ORIENTED_EDGE('',*,*,#433,.F.);
#370=ORIENTED_EDGE('',*,*,#482,.F.);
#371=ORIENTED_EDGE('',*,*,#444,.T.);
#372=ORIENTED_EDGE('',*,*,#396,.T.);
#373=ORIENTED_EDGE('',*,*,#482,.T.);
#374=ORIENTED_EDGE('',*,*,#483,.F.);
#375=ORIENTED_EDGE('',*,*,#443,.T.);
#376=ORIENTED_EDGE('',*,*,#394,.T.);
#377=ORIENTED_EDGE('',*,*,#483,.T.);
#378=ORIENTED_EDGE('',*,*,#484,.F.);
#379=ORIENTED_EDGE('',*,*,#442,.T.);
#380=ORIENTED_EDGE('',*,*,#392,.F.);
#381=ORIENTED_EDGE('',*,*,#484,.T.);
#382=ORIENTED_EDGE('',*,*,#485,.F.);
#383=ORIENTED_EDGE('',*,*,#445,.T.);
#384=ORIENTED_EDGE('',*,*,#390,.F.);
#385=ORIENTED_EDGE('',*,*,#485,.T.);
#386=ORIENTED_EDGE('',*,*,#397,.T.);
#387=ORIENTED_EDGE('',*,*,#486,.F.);
#388=ORIENTED_EDGE('',*,*,#486,.T.);
#389=EDGE_CURVE('',#487,#487,#560,.T.);
#390=EDGE_CURVE('',#488,#488,#561,.T.);
#391=EDGE_CURVE('',#489,#489,#562,.T.);
#392=EDGE_CURVE('',#490,#490,#563,.T.);
#393=EDGE_CURVE('',#491,#491,#564,.T.);
#394=EDGE_CURVE('',#492,#492,#565,.F.);
#395=EDGE_CURVE('',#493,#493,#566,.T.);
#396=EDGE_CURVE('',#494,#494,#567,.F.);
#397=EDGE_CURVE('',#495,#495,#568,.T.);
#398=EDGE_CURVE('',#496,#497,#12,.T.);
#399=EDGE_CURVE('',#497,#498,#13,.T.);
#400=EDGE_CURVE('',#498,#499,#14,.T.);
#401=EDGE_CURVE('',#500,#499,#15,.T.);
#402=EDGE_CURVE('',#500,#501,#16,.T.);
#403=EDGE_CURVE('',#501,#502,#17,.T.);
#404=EDGE_CURVE('',#502,#503,#18,.T.);
#405=EDGE_CURVE('',#503,#504,#19,.T.);
#406=EDGE_CURVE('',#505,#504,#20,.T.);
#407=EDGE_CURVE('',#506,#505,#21,.T.);
#408=EDGE_CURVE('',#507,#506,#22,.T.);
#409=EDGE_CURVE('',#507,#508,#23,.T.);
#410=EDGE_CURVE('',#496,#508,#24,.T.);
#411=EDGE_CURVE('',#509,#510,#25,.T.);
#412=EDGE_CURVE('',#509,#511,#26,.T.);
#413=EDGE_CURVE('',#511,#512,#27,.T.);
#414=EDGE_CURVE('',#513,#512,#28,.T.);
#415=EDGE_CURVE('',#513,#499,#29,.T.);
#416=EDGE_CURVE('',#510,#498,#30,.T.);
#417=EDGE_CURVE('',#514,#514,#569,.T.);
#418=EDGE_CURVE('',#502,#515,#31,.T.);
#419=EDGE_CURVE('',#516,#515,#32,.T.);
#420=EDGE_CURVE('',#508,#516,#33,.T.);
#421=EDGE_CURVE('',#517,#507,#34,.T.);
#422=EDGE_CURVE('',#517,#518,#35,.T.);
#423=EDGE_CURVE('',#519,#518,#36,.T.);
#424=EDGE_CURVE('',#520,#519,#37,.T.);
#425=EDGE_CURVE('',#520,#521,#38,.T.);
#426=EDGE_CURVE('',#521,#522,#39,.T.);
#427=EDGE_CURVE('',#503,#522,#40,.T.);
#428=EDGE_CURVE('',#523,#524,#41,.T.);
#429=EDGE_CURVE('',#523,#525,#42,.T.);
#430=EDGE_CURVE('',#525,#497,#43,.T.);
#431=EDGE_CURVE('',#496,#526,#44,.T.);
#432=EDGE_CURVE('',#526,#524,#45,.T.);
#433=EDGE_CURVE('',#527,#527,#570,.T.);
#434=EDGE_CURVE('',#512,#528,#46,.T.);
#435=EDGE_CURVE('',#511,#524,#47,.T.);
#436=EDGE_CURVE('',#526,#516,#48,.T.);
#437=EDGE_CURVE('',#529,#515,#49,.T.);
#438=EDGE_CURVE('',#528,#529,#50,.T.);
#439=EDGE_CURVE('',#501,#529,#51,.T.);
#440=EDGE_CURVE('',#530,#500,#52,.T.);
#441=EDGE_CURVE('',#530,#528,#53,.T.);
#442=EDGE_CURVE('',#531,#531,#571,.T.);
#443=EDGE_CURVE('',#532,#532,#572,.T.);
#444=EDGE_CURVE('',#533,#533,#573,.T.);
#445=EDGE_CURVE('',#534,#534,#574,.T.);
#446=EDGE_CURVE('',#535,#535,#575,.T.);
#447=EDGE_CURVE('',#505,#536,#54,.T.);
#448=EDGE_CURVE('',#537,#536,#55,.T.);
#449=EDGE_CURVE('',#537,#506,#56,.T.);
#450=EDGE_CURVE('',#522,#538,#57,.T.);
#451=EDGE_CURVE('',#539,#538,#58,.T.);
#452=EDGE_CURVE('',#540,#539,#59,.T.);
#453=EDGE_CURVE('',#540,#504,#60,.T.);
#454=EDGE_CURVE('',#541,#541,#576,.T.);
#455=EDGE_CURVE('',#521,#537,#61,.T.);
#456=EDGE_CURVE('',#536,#542,#62,.T.);
#457=EDGE_CURVE('',#542,#543,#63,.T.);
#458=EDGE_CURVE('',#544,#543,#64,.T.);
#459=EDGE_CURVE('',#538,#544,#65,.T.);
#460=EDGE_CURVE('',#545,#546,#66,.T.);
#461=EDGE_CURVE('',#520,#545,#67,.T.);
#462=EDGE_CURVE('',#519,#546,#68,.T.);
#463=EDGE_CURVE('',#546,#547,#69,.T.);
#464=EDGE_CURVE('',#518,#547,#70,.T.);
#465=EDGE_CURVE('',#548,#547,#71,.T.);
#466=EDGE_CURVE('',#517,#548,#72,.T.);
#467=EDGE_CURVE('',#545,#548,#73,.T.);
#468=EDGE_CURVE('',#549,#505,#74,.T.);
#469=EDGE_CURVE('',#549,#540,#75,.T.);
#470=EDGE_CURVE('',#549,#550,#76,.T.);
#471=EDGE_CURVE('',#550,#542,#77,.T.);
#472=EDGE_CURVE('',#550,#551,#78,.T.);
#473=EDGE_CURVE('',#551,#543,#79,.T.);
#474=EDGE_CURVE('',#552,#551,#80,.T.);
#475=EDGE_CURVE('',#552,#544,#81,.T.);
#476=EDGE_CURVE('',#539,#552,#82,.T.);
#477=EDGE_CURVE('',#553,#553,#577,.T.);
#478=EDGE_CURVE('',#513,#530,#83,.T.);
#479=EDGE_CURVE('',#509,#523,#84,.T.);
#480=EDGE_CURVE('',#554,#554,#578,.T.);
#481=EDGE_CURVE('',#525,#510,#85,.T.);
#482=EDGE_CURVE('',#555,#555,#579,.T.);
#483=EDGE_CURVE('',#556,#556,#580,.T.);
#484=EDGE_CURVE('',#557,#557,#581,.T.);
#485=EDGE_CURVE('',#558,#558,#582,.T.);
#486=EDGE_CURVE('',#559,#559,#583,.T.);
#487=VERTEX_POINT('',#1090);
#488=VERTEX_POINT('',#1092);
#489=VERTEX_POINT('',#1095);
#490=VERTEX_POINT('',#1097);
#491=VERTEX_POINT('',#1100);
#492=VERTEX_POINT('',#1102);
#493=VERTEX_POINT('',#1105);
#494=VERTEX_POINT('',#1107);
#495=VERTEX_POINT('',#1110);
#496=VERTEX_POINT('',#1112);
#497=VERTEX_POINT('',#1113);
#498=VERTEX_POINT('',#1115);
#499=VERTEX_POINT('',#1117);
#500=VERTEX_POINT('',#1119);
#501=VERTEX_POINT('',#1121);
#502=VERTEX_POINT('',#1123);
#503=VERTEX_POINT('',#1125);
#504=VERTEX_POINT('',#1127);
#505=VERTEX_POINT('',#1129);
#506=VERTEX_POINT('',#1131);
#507=VERTEX_POINT('',#1133);
#508=VERTEX_POINT('',#1135);
#509=VERTEX_POINT('',#1139);
#510=VERTEX_POINT('',#1140);
#511=VERTEX_POINT('',#1142);
#512=VERTEX_POINT('',#1144);
#513=VERTEX_POINT('',#1146);
#514=VERTEX_POINT('',#1150);
#515=VERTEX_POINT('',#1153);
#516=VERTEX_POINT('',#1155);
#517=VERTEX_POINT('',#1158);
#518=VERTEX_POINT('',#1160);
#519=VERTEX_POINT('',#1162);
#520=VERTEX_POINT('',#1164);
#521=VERTEX_POINT('',#1166);
#522=VERTEX_POINT('',#1168);
#523=VERTEX_POINT('',#1172);
#524=VERTEX_POINT('',#1173);
#525=VERTEX_POINT('',#1175);
#526=VERTEX_POINT('',#1178);
#527=VERTEX_POINT('',#1182);
#528=VERTEX_POINT('',#1184);
#529=VERTEX_POINT('',#1188);
#530=VERTEX_POINT('',#1193);
#531=VERTEX_POINT('',#1197);
#532=VERTEX_POINT('',#1199);
#533=VERTEX_POINT('',#1201);
#534=VERTEX_POINT('',#1203);
#535=VERTEX_POINT('',#1205);
#536=VERTEX_POINT('',#1207);
#537=VERTEX_POINT('',#1209);
#538=VERTEX_POINT('',#1213);
#539=VERTEX_POINT('',#1215);
#540=VERTEX_POINT('',#1217);
#541=VERTEX_POINT('',#1221);
#542=VERTEX_POINT('',#1224);
#543=VERTEX_POINT('',#1226);
#544=VERTEX_POINT('',#1228);
#545=VERTEX_POINT('',#1232);
#546=VERTEX_POINT('',#1233);
#547=VERTEX_POINT('',#1238);
#548=VERTEX_POINT('',#1242);
#549=VERTEX_POINT('',#1251);
#550=VERTEX_POINT('',#1255);
#551=VERTEX_POINT('',#1259);
#552=VERTEX_POINT('',#1263);
#553=VERTEX_POINT('',#1270);
#554=VERTEX_POINT('',#1277);
#555=VERTEX_POINT('',#1286);
#556=VERTEX_POINT('',#1290);
#557=VERTEX_POINT('',#1294);
#558=VERTEX_POINT('',#1298);
#559=VERTEX_POINT('',#1302);
#560=CIRCLE('',#805,0.001524);
#561=CIRCLE('',#806,0.001524);
#562=CIRCLE('',#808,0.001524);
#563=CIRCLE('',#809,0.001524);
#564=CIRCLE('',#811,0.001524);
#565=CIRCLE('',#812,0.001524);
#566=CIRCLE('',#814,0.001524);
#567=CIRCLE('',#815,0.001524);
#568=CIRCLE('',#817,0.001524);
#569=CIRCLE('',#819,0.0127);
#570=CIRCLE('',#823,0.00889);
#571=CIRCLE('',#826,0.00381);
#572=CIRCLE('',#827,0.00381);
#573=CIRCLE('',#828,0.00381);
#574=CIRCLE('',#829,0.00381);
#575=CIRCLE('',#830,0.00254);
#576=CIRCLE('',#833,0.00889);
#577=CIRCLE('',#848,0.00254);
#578=CIRCLE('',#852,0.0127);
#579=CIRCLE('',#859,0.00381);
#580=CIRCLE('',#862,0.00381);
#581=CIRCLE('',#865,0.00381);
#582=CIRCLE('',#868,0.00381);
#583=CIRCLE('',#871,0.001524);
#584=EDGE_LOOP('',(#193));
#585=EDGE_LOOP('',(#194));
#586=EDGE_LOOP('',(#195));
#587=EDGE_LOOP('',(#196));
#588=EDGE_LOOP('',(#197));
#589=EDGE_LOOP('',(#198));
#590=EDGE_LOOP('',(#199));
#591=EDGE_LOOP('',(#200));
#592=EDGE_LOOP('',(#201));
#593=EDGE_LOOP('',(#202,#203,#204,#205,#206,#207,#208,#209,#210,#211,#212,
#213,#214));
#594=EDGE_LOOP('',(#215,#216,#217,#218,#219,#220,#221));
#595=EDGE_LOOP('',(#222));
#596=EDGE_LOOP('',(#223));
#597=EDGE_LOOP('',(#224));
#598=EDGE_LOOP('',(#225));
#599=EDGE_LOOP('',(#226));
#600=EDGE_LOOP('',(#227,#228,#229,#230,#231,#232,#233,#234,#235,#236,#237,
#238));
#601=EDGE_LOOP('',(#239,#240,#241,#242,#243,#244));
#602=EDGE_LOOP('',(#245));
#603=EDGE_LOOP('',(#246,#247,#248,#249,#250,#251,#252,#253));
#604=EDGE_LOOP('',(#254,#255,#256,#257,#258));
#605=EDGE_LOOP('',(#259));
#606=EDGE_LOOP('',(#260));
#607=EDGE_LOOP('',(#261));
#608=EDGE_LOOP('',(#262));
#609=EDGE_LOOP('',(#263));
#610=EDGE_LOOP('',(#264,#265,#266,#267));
#611=EDGE_LOOP('',(#268,#269,#270,#271,#272,#273));
#612=EDGE_LOOP('',(#274));
#613=EDGE_LOOP('',(#275,#276,#277,#278,#279,#280,#281,#282));
#614=EDGE_LOOP('',(#283,#284,#285,#286));
#615=EDGE_LOOP('',(#287,#288,#289,#290));
#616=EDGE_LOOP('',(#291,#292,#293,#294));
#617=EDGE_LOOP('',(#295,#296,#297,#298,#299,#300,#301,#302));
#618=EDGE_LOOP('',(#303,#304,#305,#306));
#619=EDGE_LOOP('',(#307,#308,#309,#310));
#620=EDGE_LOOP('',(#311,#312,#313,#314));
#621=EDGE_LOOP('',(#315,#316,#317,#318));
#622=EDGE_LOOP('',(#319,#320,#321,#322,#323));
#623=EDGE_LOOP('',(#324,#325,#326,#327));
#624=EDGE_LOOP('',(#328,#329,#330,#331));
#625=EDGE_LOOP('',(#332,#333,#334,#335));
#626=EDGE_LOOP('',(#336,#337,#338,#339,#340,#341));
#627=EDGE_LOOP('',(#342));
#628=EDGE_LOOP('',(#343));
#629=EDGE_LOOP('',(#344,#345,#346,#347));
#630=EDGE_LOOP('',(#348,#349,#350,#351));
#631=EDGE_LOOP('',(#352));
#632=EDGE_LOOP('',(#353));
#633=EDGE_LOOP('',(#354));
#634=EDGE_LOOP('',(#355));
#635=EDGE_LOOP('',(#356,#357,#358,#359));
#636=EDGE_LOOP('',(#360,#361,#362,#363));
#637=EDGE_LOOP('',(#364,#365,#366,#367));
#638=EDGE_LOOP('',(#368));
#639=EDGE_LOOP('',(#369));
#640=EDGE_LOOP('',(#370));
#641=EDGE_LOOP('',(#371));
#642=EDGE_LOOP('',(#372));
#643=EDGE_LOOP('',(#373));
#644=EDGE_LOOP('',(#374));
#645=EDGE_LOOP('',(#375));
#646=EDGE_LOOP('',(#376));
#647=EDGE_LOOP('',(#377));
#648=EDGE_LOOP('',(#378));
#649=EDGE_LOOP('',(#379));
#650=EDGE_LOOP('',(#380));
#651=EDGE_LOOP('',(#381));
#652=EDGE_LOOP('',(#382));
#653=EDGE_LOOP('',(#383));
#654=EDGE_LOOP('',(#384));
#655=EDGE_LOOP('',(#385));
#656=EDGE_LOOP('',(#386));
#657=EDGE_LOOP('',(#387));
#658=EDGE_LOOP('',(#388));
#659=FACE_BOUND('',#584,.T.);
#660=FACE_BOUND('',#585,.T.);
#661=FACE_BOUND('',#586,.T.);
#662=FACE_BOUND('',#587,.T.);
#663=FACE_BOUND('',#588,.T.);
#664=FACE_BOUND('',#589,.T.);
#665=FACE_BOUND('',#590,.T.);
#666=FACE_BOUND('',#591,.T.);
#667=FACE_BOUND('',#592,.T.);
#668=FACE_BOUND('',#593,.T.);
#669=FACE_BOUND('',#594,.T.);
#670=FACE_BOUND('',#595,.T.);
#671=FACE_BOUND('',#596,.T.);
#672=FACE_BOUND('',#597,.T.);
#673=FACE_BOUND('',#598,.T.);
#674=FACE_BOUND('',#599,.T.);
#675=FACE_BOUND('',#600,.T.);
#676=FACE_BOUND('',#601,.T.);
#677=FACE_BOUND('',#602,.T.);
#678=FACE_BOUND('',#603,.T.);
#679=FACE_BOUND('',#604,.T.);
#680=FACE_BOUND('',#605,.T.);
#681=FACE_BOUND('',#606,.T.);
#682=FACE_BOUND('',#607,.T.);
#683=FACE_BOUND('',#608,.T.);
#684=FACE_BOUND('',#609,.T.);
#685=FACE_BOUND('',#610,.T.);
#686=FACE_BOUND('',#611,.T.);
#687=FACE_BOUND('',#612,.T.);
#688=FACE_BOUND('',#613,.T.);
#689=FACE_BOUND('',#614,.T.);
#690=FACE_BOUND('',#615,.T.);
#691=FACE_BOUND('',#616,.T.);
#692=FACE_BOUND('',#617,.T.);
#693=FACE_BOUND('',#618,.T.);
#694=FACE_BOUND('',#619,.T.);
#695=FACE_BOUND('',#620,.T.);
#696=FACE_BOUND('',#621,.T.);
#697=FACE_BOUND('',#622,.T.);
#698=FACE_BOUND('',#623,.T.);
#699=FACE_BOUND('',#624,.T.);
#700=FACE_BOUND('',#625,.T.);
#701=FACE_BOUND('',#626,.T.);
#702=FACE_BOUND('',#627,.T.);
#703=FACE_BOUND('',#628,.T.);
#704=FACE_BOUND('',#629,.T.);
#705=FACE_BOUND('',#630,.T.);
#706=FACE_BOUND('',#631,.T.);
#707=FACE_BOUND('',#632,.T.);
#708=FACE_BOUND('',#633,.T.);
#709=FACE_BOUND('',#634,.T.);
#710=FACE_BOUND('',#635,.T.);
#711=FACE_BOUND('',#636,.T.);
#712=FACE_BOUND('',#637,.T.);
#713=FACE_BOUND('',#638,.T.);
#714=FACE_BOUND('',#639,.T.);
#715=FACE_BOUND('',#640,.T.);
#716=FACE_BOUND('',#641,.T.);
#717=FACE_BOUND('',#642,.T.);
#718=FACE_BOUND('',#643,.T.);
#719=FACE_BOUND('',#644,.T.);
#720=FACE_BOUND('',#645,.T.);
#721=FACE_BOUND('',#646,.T.);
#722=FACE_BOUND('',#647,.T.);
#723=FACE_BOUND('',#648,.T.);
#724=FACE_BOUND('',#649,.T.);
#725=FACE_BOUND('',#650,.T.);
#726=FACE_BOUND('',#651,.T.);
#727=FACE_BOUND('',#652,.T.);
#728=FACE_BOUND('',#653,.T.);
#729=FACE_BOUND('',#654,.T.);
#730=FACE_BOUND('',#655,.T.);
#731=FACE_BOUND('',#656,.T.);
#732=FACE_BOUND('',#657,.T.);
#733=FACE_BOUND('',#658,.T.);
#734=CYLINDRICAL_SURFACE('',#804,0.001524);
#735=CYLINDRICAL_SURFACE('',#807,0.001524);
#736=CYLINDRICAL_SURFACE('',#810,0.001524);
#737=CYLINDRICAL_SURFACE('',#813,0.001524);
#738=CYLINDRICAL_SURFACE('',#847,0.00254);
#739=CYLINDRICAL_SURFACE('',#851,0.0127);
#740=CYLINDRICAL_SURFACE('',#857,0.00889);
#741=CYLINDRICAL_SURFACE('',#858,0.00381);
#742=CYLINDRICAL_SURFACE('',#861,0.00381);
#743=CYLINDRICAL_SURFACE('',#864,0.00381);
#744=CYLINDRICAL_SURFACE('',#867,0.00381);
#745=CYLINDRICAL_SURFACE('',#870,0.001524);
#746=ADVANCED_FACE('',(#659,#660),#734,.F.);
#747=ADVANCED_FACE('',(#661,#662),#735,.F.);
#748=ADVANCED_FACE('',(#663,#664),#736,.F.);
#749=ADVANCED_FACE('',(#665,#666),#737,.F.);
#750=ADVANCED_FACE('',(#667,#668),#160,.T.);
#751=ADVANCED_FACE('',(#669,#670,#671,#672,#673,#674),#161,.T.);
#752=ADVANCED_FACE('',(#675),#162,.F.);
#753=ADVANCED_FACE('',(#676),#163,.T.);
#754=ADVANCED_FACE('',(#677,#678),#164,.F.);
#755=ADVANCED_FACE('',(#679),#165,.T.);
#756=ADVANCED_FACE('',(#680,#681,#682,#683,#684,#685),#166,.T.);
#757=ADVANCED_FACE('',(#686),#167,.T.);
#758=ADVANCED_FACE('',(#687,#688),#168,.F.);
#759=ADVANCED_FACE('',(#689),#169,.T.);
#760=ADVANCED_FACE('',(#690),#170,.T.);
#761=ADVANCED_FACE('',(#691),#171,.F.);
#762=ADVANCED_FACE('',(#692),#172,.T.);
#763=ADVANCED_FACE('',(#693),#173,.F.);
#764=ADVANCED_FACE('',(#694),#174,.F.);
#765=ADVANCED_FACE('',(#695),#175,.T.);
#766=ADVANCED_FACE('',(#696),#176,.F.);
#767=ADVANCED_FACE('',(#697),#177,.T.);
#768=ADVANCED_FACE('',(#698),#178,.T.);
#769=ADVANCED_FACE('',(#699),#179,.F.);
#770=ADVANCED_FACE('',(#700),#180,.F.);
#771=ADVANCED_FACE('',(#701),#181,.F.);
#772=ADVANCED_FACE('',(#702,#703),#738,.F.);
#773=ADVANCED_FACE('',(#704),#182,.T.);
#774=ADVANCED_FACE('',(#705),#183,.F.);
#775=ADVANCED_FACE('',(#706,#707),#739,.F.);
#776=ADVANCED_FACE('',(#708,#709),#184,.T.);
#777=ADVANCED_FACE('',(#710),#185,.T.);
#778=ADVANCED_FACE('',(#711),#186,.F.);
#779=ADVANCED_FACE('',(#712),#187,.F.);
#780=ADVANCED_FACE('',(#713,#714),#740,.F.);
#781=ADVANCED_FACE('',(#715,#716),#741,.F.);
#782=ADVANCED_FACE('',(#717,#718),#188,.T.);
#783=ADVANCED_FACE('',(#719,#720),#742,.F.);
#784=ADVANCED_FACE('',(#721,#722),#189,.T.);
#785=ADVANCED_FACE('',(#723,#724),#743,.F.);
#786=ADVANCED_FACE('',(#725,#726),#190,.T.);
#787=ADVANCED_FACE('',(#727,#728),#744,.F.);
#788=ADVANCED_FACE('',(#729,#730),#191,.T.);
#789=ADVANCED_FACE('',(#731,#732),#745,.F.);
#790=ADVANCED_FACE('',(#733),#192,.T.);
#791=CLOSED_SHELL('',(#746,#747,#748,#749,#750,#751,#752,#753,#754,#755,
#756,#757,#758,#759,#760,#761,#762,#763,#764,#765,#766,#767,#768,#769,#770,
#771,#772,#773,#774,#775,#776,#777,#778,#779,#780,#781,#782,#783,#784,#785,
#786,#787,#788,#789,#790));
#792=STYLED_ITEM('',(#793),#800);
#793=PRESENTATION_STYLE_ASSIGNMENT((#794));
#794=SURFACE_STYLE_USAGE(.BOTH.,#795);
#795=SURFACE_SIDE_STYLE('',(#796));
#796=SURFACE_STYLE_FILL_AREA(#797);
#797=FILL_AREA_STYLE('',(#798));
#798=FILL_AREA_STYLE_COLOUR('',#799);
#799=COLOUR_RGB('',0.231372549019608,0.380392156862745,0.705882352941177);
#800=MANIFOLD_SOLID_BREP('Part 11',#791);
#801=SHAPE_DEFINITION_REPRESENTATION(#1310,#802);
#802=SHAPE_REPRESENTATION('Part 11',(#803),#1305);
#803=AXIS2_PLACEMENT_3D('',#1087,#873,#874);
#804=AXIS2_PLACEMENT_3D('',#1088,#875,#876);
#805=AXIS2_PLACEMENT_3D('',#1089,#877,#878);
#806=AXIS2_PLACEMENT_3D('',#1091,#879,#880);
#807=AXIS2_PLACEMENT_3D('',#1093,#881,#882);
#808=AXIS2_PLACEMENT_3D('',#1094,#883,#884);
#809=AXIS2_PLACEMENT_3D('',#1096,#885,#886);
#810=AXIS2_PLACEMENT_3D('',#1098,#887,#888);
#811=AXIS2_PLACEMENT_3D('',#1099,#889,#890);
#812=AXIS2_PLACEMENT_3D('',#1101,#891,#892);
#813=AXIS2_PLACEMENT_3D('',#1103,#893,#894);
#814=AXIS2_PLACEMENT_3D('',#1104,#895,#896);
#815=AXIS2_PLACEMENT_3D('',#1106,#897,#898);
#816=AXIS2_PLACEMENT_3D('',#1108,#899,#900);
#817=AXIS2_PLACEMENT_3D('',#1109,#901,#902);
#818=AXIS2_PLACEMENT_3D('',#1137,#916,#917);
#819=AXIS2_PLACEMENT_3D('',#1149,#924,#925);
#820=AXIS2_PLACEMENT_3D('',#1151,#926,#927);
#821=AXIS2_PLACEMENT_3D('',#1170,#938,#939);
#822=AXIS2_PLACEMENT_3D('',#1180,#945,#946);
#823=AXIS2_PLACEMENT_3D('',#1181,#947,#948);
#824=AXIS2_PLACEMENT_3D('',#1190,#954,#955);
#825=AXIS2_PLACEMENT_3D('',#1195,#959,#960);
#826=AXIS2_PLACEMENT_3D('',#1196,#961,#962);
#827=AXIS2_PLACEMENT_3D('',#1198,#963,#964);
#828=AXIS2_PLACEMENT_3D('',#1200,#965,#966);
#829=AXIS2_PLACEMENT_3D('',#1202,#967,#968);
#830=AXIS2_PLACEMENT_3D('',#1204,#969,#970);
#831=AXIS2_PLACEMENT_3D('',#1211,#974,#975);
#832=AXIS2_PLACEMENT_3D('',#1219,#980,#981);
#833=AXIS2_PLACEMENT_3D('',#1220,#982,#983);
#834=AXIS2_PLACEMENT_3D('',#1230,#989,#990);
#835=AXIS2_PLACEMENT_3D('',#1236,#994,#995);
#836=AXIS2_PLACEMENT_3D('',#1240,#998,#999);
#837=AXIS2_PLACEMENT_3D('',#1244,#1002,#1003);
#838=AXIS2_PLACEMENT_3D('',#1246,#1005,#1006);
#839=AXIS2_PLACEMENT_3D('',#1247,#1007,#1008);
#840=AXIS2_PLACEMENT_3D('',#1248,#1009,#1010);
#841=AXIS2_PLACEMENT_3D('',#1249,#1011,#1012);
#842=AXIS2_PLACEMENT_3D('',#1253,#1015,#1016);
#843=AXIS2_PLACEMENT_3D('',#1257,#1019,#1020);
#844=AXIS2_PLACEMENT_3D('',#1261,#1023,#1024);
#845=AXIS2_PLACEMENT_3D('',#1265,#1027,#1028);
#846=AXIS2_PLACEMENT_3D('',#1267,#1030,#1031);
#847=AXIS2_PLACEMENT_3D('',#1268,#1032,#1033);
#848=AXIS2_PLACEMENT_3D('',#1269,#1034,#1035);
#849=AXIS2_PLACEMENT_3D('',#1271,#1036,#1037);
#850=AXIS2_PLACEMENT_3D('',#1273,#1039,#1040);
#851=AXIS2_PLACEMENT_3D('',#1275,#1042,#1043);
#852=AXIS2_PLACEMENT_3D('',#1276,#1044,#1045);
#853=AXIS2_PLACEMENT_3D('',#1278,#1046,#1047);
#854=AXIS2_PLACEMENT_3D('',#1279,#1048,#1049);
#855=AXIS2_PLACEMENT_3D('',#1280,#1050,#1051);
#856=AXIS2_PLACEMENT_3D('',#1282,#1053,#1054);
#857=AXIS2_PLACEMENT_3D('',#1283,#1055,#1056);
#858=AXIS2_PLACEMENT_3D('',#1284,#1057,#1058);
#859=AXIS2_PLACEMENT_3D('',#1285,#1059,#1060);
#860=AXIS2_PLACEMENT_3D('',#1287,#1061,#1062);
#861=AXIS2_PLACEMENT_3D('',#1288,#1063,#1064);
#862=AXIS2_PLACEMENT_3D('',#1289,#1065,#1066);
#863=AXIS2_PLACEMENT_3D('',#1291,#1067,#1068);
#864=AXIS2_PLACEMENT_3D('',#1292,#1069,#1070);
#865=AXIS2_PLACEMENT_3D('',#1293,#1071,#1072);
#866=AXIS2_PLACEMENT_3D('',#1295,#1073,#1074);
#867=AXIS2_PLACEMENT_3D('',#1296,#1075,#1076);
#868=AXIS2_PLACEMENT_3D('',#1297,#1077,#1078);
#869=AXIS2_PLACEMENT_3D('',#1299,#1079,#1080);
#870=AXIS2_PLACEMENT_3D('',#1300,#1081,#1082);
#871=AXIS2_PLACEMENT_3D('',#1301,#1083,#1084);
#872=AXIS2_PLACEMENT_3D('',#1303,#1085,#1086);
#873=DIRECTION('',(0.,0.,1.));
#874=DIRECTION('',(1.,0.,0.));
#875=DIRECTION('',(0.,0.,-1.));
#876=DIRECTION('',(-1.,0.,0.));
#877=DIRECTION('',(0.,0.,-1.));
#878=DIRECTION('',(-1.,0.,0.));
#879=DIRECTION('',(0.,0.,1.));
#880=DIRECTION('',(1.,0.,0.));
#881=DIRECTION('',(0.,0.,-1.));
#882=DIRECTION('',(-1.,0.,0.));
#883=DIRECTION('',(0.,0.,-1.));
#884=DIRECTION('',(-1.,0.,0.));
#885=DIRECTION('',(0.,0.,1.));
#886=DIRECTION('',(1.,0.,0.));
#887=DIRECTION('',(0.,0.,-1.));
#888=DIRECTION('',(-1.,0.,0.));
#889=DIRECTION('',(0.,0.,1.));
#890=DIRECTION('',(-1.,0.,0.));
#891=DIRECTION('',(0.,0.,1.));
#892=DIRECTION('',(1.,0.,0.));
#893=DIRECTION('',(0.,0.,-1.));
#894=DIRECTION('',(-1.,0.,0.));
#895=DIRECTION('',(0.,0.,1.));
#896=DIRECTION('',(-1.,0.,0.));
#897=DIRECTION('',(0.,0.,1.));
#898=DIRECTION('',(1.,0.,0.));
#899=DIRECTION('',(1.22453478175829E-16,-1.,0.));
#900=DIRECTION('',(1.,1.22453478175829E-16,0.));
#901=DIRECTION('',(1.22453478175829E-16,-1.,0.));
#902=DIRECTION('',(1.,1.22453478175829E-16,0.));
#903=DIRECTION('',(1.,1.22453478175829E-16,0.));
#904=DIRECTION('',(0.,0.,-1.));
#905=DIRECTION('',(1.,1.22453478175829E-16,0.));
#906=DIRECTION('',(0.,0.,-1.));
#907=DIRECTION('',(1.,1.22453478175829E-16,0.));
#908=DIRECTION('',(0.,0.,-1.));
#909=DIRECTION('',(1.,1.22453478175829E-16,0.));
#910=DIRECTION('',(0.,0.,1.));
#911=DIRECTION('',(1.,1.22453478175829E-16,0.));
#912=DIRECTION('',(1.,1.22453478175829E-16,0.));
#913=DIRECTION('',(0.,0.,1.));
#914=DIRECTION('',(1.,1.22453478175829E-16,0.));
#915=DIRECTION('',(0.,0.,-1.));
#916=DIRECTION('',(0.,0.,-1.));
#917=DIRECTION('',(1.,0.,0.));
#918=DIRECTION('',(1.,0.,0.));
#919=DIRECTION('',(0.,1.,0.));
#920=DIRECTION('',(1.,0.,0.));
#921=DIRECTION('',(0.,1.,0.));
#922=DIRECTION('',(0.,-1.,0.));
#923=DIRECTION('',(0.,-1.,0.));
#924=DIRECTION('',(0.,0.,-1.));
#925=DIRECTION('',(-1.,0.,0.));
#926=DIRECTION('',(0.,0.,1.));
#927=DIRECTION('',(1.,0.,0.));
#928=DIRECTION('',(0.,1.,0.));
#929=DIRECTION('',(1.,0.,0.));
#930=DIRECTION('',(0.,1.,0.));
#931=DIRECTION('',(0.,-1.,0.));
#932=DIRECTION('',(0.643285760997022,-0.765626168373627,0.));
#933=DIRECTION('',(0.,-1.,0.));
#934=DIRECTION('',(0.643285760997022,0.765626168373628,0.));
#935=DIRECTION('',(0.,1.,0.));
#936=DIRECTION('',(1.,-1.06660169400998E-16,0.));
#937=DIRECTION('',(0.,1.,0.));
#938=DIRECTION('',(0.,0.,-1.));
#939=DIRECTION('',(1.,0.,0.));
#940=DIRECTION('',(0.,1.,0.));
#941=DIRECTION('',(1.,0.,0.));
#942=DIRECTION('',(0.,-1.,0.));
#943=DIRECTION('',(0.,1.,0.));
#944=DIRECTION('',(1.,0.,0.));
#945=DIRECTION('',(0.,1.,0.));
#946=DIRECTION('',(0.,0.,1.));
#947=DIRECTION('',(0.,1.,0.));
#948=DIRECTION('',(0.,0.,1.));
#949=DIRECTION('',(0.,0.,1.));
#950=DIRECTION('',(0.,0.,1.));
#951=DIRECTION('',(0.,0.,-1.));
#952=DIRECTION('',(0.,0.,-1.));
#953=DIRECTION('',(1.,0.,0.));
#954=DIRECTION('',(0.,0.,-1.));
#955=DIRECTION('',(1.,0.,0.));
#956=DIRECTION('',(0.,1.,0.));
#957=DIRECTION('',(0.,-1.,0.));
#958=DIRECTION('',(0.,1.,0.));
#959=DIRECTION('',(0.,0.,1.));
#960=DIRECTION('',(1.,0.,0.));
#961=DIRECTION('',(0.,0.,1.));
#962=DIRECTION('',(1.,0.,0.));
#963=DIRECTION('',(0.,0.,1.));
#964=DIRECTION('',(1.,0.,0.));
#965=DIRECTION('',(0.,0.,1.));
#966=DIRECTION('',(1.,0.,0.));
#967=DIRECTION('',(0.,0.,1.));
#968=DIRECTION('',(1.,0.,0.));
#969=DIRECTION('',(0.,0.,1.));
#970=DIRECTION('',(1.,0.,0.));
#971=DIRECTION('',(1.06660169400998E-16,1.,0.));
#972=DIRECTION('',(1.,-1.06660169400998E-16,0.));
#973=DIRECTION('',(0.,-1.,0.));
#974=DIRECTION('',(1.,0.,0.));
#975=DIRECTION('',(0.,0.,-1.));
#976=DIRECTION('',(0.,0.,1.));
#977=DIRECTION('',(1.06660169400998E-16,1.,0.));
#978=DIRECTION('',(0.,0.,1.));
#979=DIRECTION('',(1.06660169400998E-16,1.,0.));
#980=DIRECTION('',(-1.06660169400998E-16,-1.,0.));
#981=DIRECTION('',(1.,-1.06660169400998E-16,0.));
#982=DIRECTION('',(1.06660169400998E-16,1.,0.));
#983=DIRECTION('',(-1.,1.06660169400998E-16,0.));
#984=DIRECTION('',(0.,0.,1.));
#985=DIRECTION('',(-0.55850100275505,5.9569811564481E-17,0.829503845634006));
#986=DIRECTION('',(0.,0.,1.));
#987=DIRECTION('',(-0.55850100275505,5.9569811564481E-17,-0.829503845634006));
#988=DIRECTION('',(-1.,1.06660169400998E-16,0.));
#989=DIRECTION('',(0.765626168373628,-0.643285760997022,0.));
#990=DIRECTION('',(0.643285760997022,0.765626168373628,0.));
#991=DIRECTION('',(0.643285760997022,0.765626168373628,0.));
#992=DIRECTION('',(0.,0.,1.));
#993=DIRECTION('',(0.,0.,1.));
#994=DIRECTION('',(-1.,0.,0.));
#995=DIRECTION('',(0.,0.,1.));
#996=DIRECTION('',(0.,-1.,0.));
#997=DIRECTION('',(0.,0.,1.));
#998=DIRECTION('',(-0.765626168373627,-0.643285760997022,0.));
#999=DIRECTION('',(0.643285760997022,-0.765626168373627,0.));
#1000=DIRECTION('',(0.643285760997022,-0.765626168373627,0.));
#1001=DIRECTION('',(0.,0.,1.));
#1002=DIRECTION('',(-1.,0.,0.));
#1003=DIRECTION('',(0.,0.,1.));
#1004=DIRECTION('',(0.,-1.,0.));
#1005=DIRECTION('',(0.,0.,1.));
#1006=DIRECTION('',(1.,0.,0.));
#1007=DIRECTION('',(-1.,0.,0.));
#1008=DIRECTION('',(0.,0.,1.));
#1009=DIRECTION('',(-1.,0.,0.));
#1010=DIRECTION('',(0.,0.,1.));
#1011=DIRECTION('',(0.,0.,1.));
#1012=DIRECTION('',(1.,0.,0.));
#1013=DIRECTION('',(1.06660169400998E-16,1.,0.));
#1014=DIRECTION('',(1.,-1.06660169400998E-16,0.));
#1015=DIRECTION('',(-0.829503845634005,8.84750206941025E-17,-0.55850100275505));
#1016=DIRECTION('',(-0.55850100275505,0.,0.829503845634006));
#1017=DIRECTION('',(-0.55850100275505,5.9569811564481E-17,0.829503845634006));
#1018=DIRECTION('',(1.06660169400998E-16,1.,0.));
#1019=DIRECTION('',(-1.,1.06660169400998E-16,0.));
#1020=DIRECTION('',(-1.06660169400998E-16,-1.,0.));
#1021=DIRECTION('',(0.,0.,1.));
#1022=DIRECTION('',(1.06660169400998E-16,1.,0.));
#1023=DIRECTION('',(0.829503845634006,-8.84750206941025E-17,-0.55850100275505));
#1024=DIRECTION('',(-0.55850100275505,0.,-0.829503845634006));
#1025=DIRECTION('',(-0.55850100275505,5.9569811564481E-17,-0.829503845634006));
#1026=DIRECTION('',(1.06660169400998E-16,1.,0.));
#1027=DIRECTION('',(0.,0.,-1.));
#1028=DIRECTION('',(-1.,0.,0.));
#1029=DIRECTION('',(-1.,1.06660169400998E-16,0.));
#1030=DIRECTION('',(1.06660169400998E-16,1.,0.));
#1031=DIRECTION('',(-1.,1.06660169400998E-16,0.));
#1032=DIRECTION('',(0.,0.,-1.));
#1033=DIRECTION('',(-1.,0.,0.));
#1034=DIRECTION('',(0.,0.,-1.));
#1035=DIRECTION('',(-1.,0.,0.));
#1036=DIRECTION('',(1.,0.,0.));
#1037=DIRECTION('',(0.,0.,-1.));
#1038=DIRECTION('',(0.,0.,1.));
#1039=DIRECTION('',(1.,0.,0.));
#1040=DIRECTION('',(0.,0.,-1.));
#1041=DIRECTION('',(0.,0.,1.));
#1042=DIRECTION('',(0.,0.,1.));
#1043=DIRECTION('',(1.,0.,0.));
#1044=DIRECTION('',(0.,0.,-1.));
#1045=DIRECTION('',(-1.,0.,0.));
#1046=DIRECTION('',(0.,0.,-1.));
#1047=DIRECTION('',(1.,0.,0.));
#1048=DIRECTION('',(1.,0.,0.));
#1049=DIRECTION('',(0.,0.,-1.));
#1050=DIRECTION('',(0.,1.,0.));
#1051=DIRECTION('',(0.,0.,1.));
#1052=DIRECTION('',(0.,0.,-1.));
#1053=DIRECTION('',(1.,0.,0.));
#1054=DIRECTION('',(0.,0.,-1.));
#1055=DIRECTION('',(1.06660169400998E-16,1.,0.));
#1056=DIRECTION('',(-1.,1.06660169400998E-16,0.));
#1057=DIRECTION('',(0.,0.,1.));
#1058=DIRECTION('',(1.,0.,0.));
#1059=DIRECTION('',(0.,0.,1.));
#1060=DIRECTION('',(1.,0.,0.));
#1061=DIRECTION('',(0.,0.,1.));
#1062=DIRECTION('',(1.,0.,0.));
#1063=DIRECTION('',(0.,0.,1.));
#1064=DIRECTION('',(1.,0.,0.));
#1065=DIRECTION('',(0.,0.,1.));
#1066=DIRECTION('',(1.,0.,0.));
#1067=DIRECTION('',(0.,0.,1.));
#1068=DIRECTION('',(1.,0.,0.));
#1069=DIRECTION('',(0.,0.,1.));
#1070=DIRECTION('',(1.,0.,0.));
#1071=DIRECTION('',(0.,0.,1.));
#1072=DIRECTION('',(1.,0.,0.));
#1073=DIRECTION('',(0.,0.,1.));
#1074=DIRECTION('',(1.,0.,0.));
#1075=DIRECTION('',(0.,0.,1.));
#1076=DIRECTION('',(1.,0.,0.));
#1077=DIRECTION('',(0.,0.,1.));
#1078=DIRECTION('',(1.,0.,0.));
#1079=DIRECTION('',(0.,0.,1.));
#1080=DIRECTION('',(1.,0.,0.));
#1081=DIRECTION('',(0.,-1.,0.));
#1082=DIRECTION('',(0.,0.,-1.));
#1083=DIRECTION('',(0.,-1.,0.));
#1084=DIRECTION('',(0.,0.,-1.));
#1085=DIRECTION('',(0.,-1.,0.));
#1086=DIRECTION('',(1.,0.,0.));
#1087=CARTESIAN_POINT('',(0.,0.,0.));
#1088=CARTESIAN_POINT('',(0.113329214791842,0.00952544674634934,0.02159));
#1089=CARTESIAN_POINT('',(0.113329214791842,0.00952544674634932,-0.008128));
#1090=CARTESIAN_POINT('',(0.111805214791842,0.00952544674634932,-0.008128));
#1091=CARTESIAN_POINT('',(0.113329214791842,0.00952544674634934,-0.00635));
#1092=CARTESIAN_POINT('',(0.114853214791842,0.00952544674634934,-0.00635));
#1093=CARTESIAN_POINT('',(0.144317214791842,0.00952544674634932,0.02159));
#1094=CARTESIAN_POINT('',(0.144317214791842,0.00952544674634934,-0.008128));
#1095=CARTESIAN_POINT('',(0.142793214791842,0.00952544674634934,-0.008128));
#1096=CARTESIAN_POINT('',(0.144317214791842,0.00952544674634932,-0.00635));
#1097=CARTESIAN_POINT('',(0.145841214791842,0.00952544674634932,-0.00635));
#1098=CARTESIAN_POINT('',(0.144317214791842,0.0405134467463493,0.02159));
#1099=CARTESIAN_POINT('',(0.144317214791842,0.0405134467463493,-0.008128));
#1100=CARTESIAN_POINT('',(0.142793214791842,0.0405134467463493,-0.008128));
#1101=CARTESIAN_POINT('',(0.144317214791842,0.0405134467463493,-0.00635));
#1102=CARTESIAN_POINT('',(0.145841214791842,0.0405134467463493,-0.00635));
#1103=CARTESIAN_POINT('',(0.113329214791842,0.0405134467463493,0.02159));
#1104=CARTESIAN_POINT('',(0.113329214791842,0.0405134467463493,-0.008128));
#1105=CARTESIAN_POINT('',(0.111805214791842,0.0405134467463493,-0.008128));
#1106=CARTESIAN_POINT('',(0.113329214791842,0.0405134467463493,-0.00635));
#1107=CARTESIAN_POINT('',(0.114853214791842,0.0405134467463493,-0.00635));
#1108=CARTESIAN_POINT('',(0.115355901420116,1.04462724265116E-5,-0.0508));
#1109=CARTESIAN_POINT('',(0.0555987148226391,1.04462724265049E-5,-0.04191));
#1110=CARTESIAN_POINT('',(0.0571227148226391,1.0446272426505E-5,-0.04191));
#1111=CARTESIAN_POINT('',(0.115355901420116,1.04462724265116E-5,-0.00381));
#1112=CARTESIAN_POINT('',(0.0609400756657123,1.04462724265049E-5,-0.00381));
#1113=CARTESIAN_POINT('',(0.106898106634617,1.04462724265105E-5,-0.00381));
#1114=CARTESIAN_POINT('',(0.106898106634617,1.04462724265105E-5,-0.00381));
#1115=CARTESIAN_POINT('',(0.106898106634617,1.04462724265105E-5,-0.008128));
#1116=CARTESIAN_POINT('',(0.115355901420116,1.04462724265116E-5,-0.008128));
#1117=CARTESIAN_POINT('',(0.150790959596634,1.0446272426516E-5,-0.008128));
#1118=CARTESIAN_POINT('',(0.150790959596634,1.04462724265159E-5,-0.00381));
#1119=CARTESIAN_POINT('',(0.150790959596634,1.04462724265159E-5,-0.00381));
#1120=CARTESIAN_POINT('',(0.115355901420116,1.04462724265116E-5,-0.00381));
#1121=CARTESIAN_POINT('',(0.177375063300133,1.04462724265192E-5,-0.00381));
#1122=CARTESIAN_POINT('',(0.177375063300133,1.04462724265192E-5,-0.008128));
#1123=CARTESIAN_POINT('',(0.177375063300133,1.04462724265192E-5,-0.0508));
#1124=CARTESIAN_POINT('',(0.115355901420116,1.04462724265116E-5,-0.0508));
#1125=CARTESIAN_POINT('',(0.180411994457245,1.04462724265196E-5,-0.0508));
#1126=CARTESIAN_POINT('',(0.180411994457245,1.04462724265196E-5,-0.0508));
#1127=CARTESIAN_POINT('',(0.180411994457245,1.04462724265118E-5,0.));
#1128=CARTESIAN_POINT('',(0.115355901420116,1.04462724265116E-5,0.));
#1129=CARTESIAN_POINT('',(0.175331994457245,1.04462724265118E-5,0.));
#1130=CARTESIAN_POINT('',(0.115355901420116,1.04462724265116E-5,0.));
#1131=CARTESIAN_POINT('',(0.0502998083829879,1.0446272426504E-5,0.));
#1132=CARTESIAN_POINT('',(0.0502998083829879,1.0446272426504E-5,-0.0508));
#1133=CARTESIAN_POINT('',(0.0502998083829879,1.0446272426504E-5,-0.0508));
#1134=CARTESIAN_POINT('',(0.115355901420116,1.04462724265116E-5,-0.0508));
#1135=CARTESIAN_POINT('',(0.0609400756657123,1.04462724265049E-5,-0.0508));
#1136=CARTESIAN_POINT('',(0.0609400756657123,1.04462724265049E-5,-0.008128));
#1137=CARTESIAN_POINT('',(0.119157569482923,0.0248123565688729,-0.008128));
#1138=CARTESIAN_POINT('',(0.119157569482923,0.00263426639139652,-0.008128));
#1139=CARTESIAN_POINT('',(0.106852214791842,0.00263426639139652,-0.008128));
#1140=CARTESIAN_POINT('',(0.106898106634617,0.00263426639139652,-0.008128));
#1141=CARTESIAN_POINT('',(0.106852214791842,0.0250194467463494,-0.008128));
#1142=CARTESIAN_POINT('',(0.106852214791842,0.0469904467463493,-0.008128));
#1143=CARTESIAN_POINT('',(0.119157569482922,0.0469904467463493,-0.008128));
#1144=CARTESIAN_POINT('',(0.150794214791843,0.0469904467463493,-0.008128));
#1145=CARTESIAN_POINT('',(0.150794214791843,0.0360049467463493,-0.008128));
#1146=CARTESIAN_POINT('',(0.150792587194238,0.00263426639139652,-0.008128));
#1147=CARTESIAN_POINT('',(0.150790959596634,0.0248123565688729,-0.008128));
#1148=CARTESIAN_POINT('',(0.106898106634617,0.0248123565688729,-0.008128));
#1149=CARTESIAN_POINT('',(0.128779796908565,0.0250194467463494,-0.008128));
#1150=CARTESIAN_POINT('',(0.116079796908565,0.0250194467463494,-0.008128));
#1151=CARTESIAN_POINT('',(0.115351997228622,0.025146,-0.0508));
#1152=CARTESIAN_POINT('',(0.177375063300133,0.0248123565688729,-0.0508));
#1153=CARTESIAN_POINT('',(0.177375063300133,0.0469904467463493,-0.0508));
#1154=CARTESIAN_POINT('',(0.119157569482922,0.0469904467463493,-0.0508));
#1155=CARTESIAN_POINT('',(0.0609400756657123,0.0469904467463493,-0.0508));
#1156=CARTESIAN_POINT('',(0.0609400756657123,0.0248123565688729,-0.0508));
#1157=CARTESIAN_POINT('',(0.0502998083829879,0.00759268673118634,-0.0508));
#1158=CARTESIAN_POINT('',(0.0502998083829879,0.0151749271899462,-0.0508));
#1159=CARTESIAN_POINT('',(0.053415989120359,0.0114661096432692,-0.0508));
#1160=CARTESIAN_POINT('',(0.0565321698577302,0.00775729209659231,-0.0508));
#1161=CARTESIAN_POINT('',(0.0565321698577302,0.0338403539517039,-0.0508));
#1162=CARTESIAN_POINT('',(0.0565321698577302,0.0425347079034077,-0.0508));
#1163=CARTESIAN_POINT('',(0.053415989120359,0.0388258903567308,-0.0508));
#1164=CARTESIAN_POINT('',(0.0502998083829879,0.0351170728100538,-0.0508));
#1165=CARTESIAN_POINT('',(0.0502998083829878,0.0426993132688136,-0.0508));
#1166=CARTESIAN_POINT('',(0.0502998083829878,0.0502815537275735,-0.0508));
#1167=CARTESIAN_POINT('',(0.115355901420116,0.0502815537275735,-0.0508));
#1168=CARTESIAN_POINT('',(0.180411994457245,0.0502815537275735,-0.0508));
#1169=CARTESIAN_POINT('',(0.180411994457245,0.0125782231362133,-0.0508));
#1170=CARTESIAN_POINT('',(0.115355901420116,0.025146,-0.00381));
#1171=CARTESIAN_POINT('',(0.106852214791842,0.0250194467463494,-0.00381));
#1172=CARTESIAN_POINT('',(0.106852214791842,0.00263426639139652,-0.00381));
#1173=CARTESIAN_POINT('',(0.106852214791842,0.0469904467463493,-0.00381));
#1174=CARTESIAN_POINT('',(0.119157569482922,0.00263426639139652,-0.00381));
#1175=CARTESIAN_POINT('',(0.106898106634617,0.00263426639139652,-0.00381));
#1176=CARTESIAN_POINT('',(0.106898106634617,0.00131713319569826,-0.00381));
#1177=CARTESIAN_POINT('',(0.0609400756657123,0.0248123565688729,-0.00381));
#1178=CARTESIAN_POINT('',(0.0609400756657123,0.0469904467463493,-0.00381));
#1179=CARTESIAN_POINT('',(0.119157569482922,0.0469904467463493,-0.00381));
#1180=CARTESIAN_POINT('',(0.119157569482922,0.0469904467463493,-0.00381));
#1181=CARTESIAN_POINT('',(0.0704907402396202,0.0469904467463493,-0.0254));
#1182=CARTESIAN_POINT('',(0.0704907402396202,0.0469904467463493,-0.01651));
#1183=CARTESIAN_POINT('',(0.150794214791843,0.0469904467463493,-0.008128));
#1184=CARTESIAN_POINT('',(0.150794214791843,0.0469904467463493,-0.00381));
#1185=CARTESIAN_POINT('',(0.106852214791842,0.0469904467463493,-0.008128));
#1186=CARTESIAN_POINT('',(0.0609400756657123,0.0469904467463493,-0.00381));
#1187=CARTESIAN_POINT('',(0.177375063300133,0.0469904467463493,-0.00381));
#1188=CARTESIAN_POINT('',(0.177375063300133,0.0469904467463493,-0.00381));
#1189=CARTESIAN_POINT('',(0.119157569482922,0.0469904467463493,-0.00381));
#1190=CARTESIAN_POINT('',(0.115355901420116,0.025146,-0.00381));
#1191=CARTESIAN_POINT('',(0.177375063300133,0.0248123565688729,-0.00381));
#1192=CARTESIAN_POINT('',(0.150790959596634,0.00131713319569826,-0.00381));
#1193=CARTESIAN_POINT('',(0.150792587194238,0.00263426639139652,-0.00381));
#1194=CARTESIAN_POINT('',(0.150794214791843,0.0360049467463493,-0.00381));
#1195=CARTESIAN_POINT('',(0.115355901420116,0.025146,0.));
#1196=CARTESIAN_POINT('',(0.144317214791842,0.00952544674634932,0.));
#1197=CARTESIAN_POINT('',(0.148127214791842,0.00952544674634932,0.));
#1198=CARTESIAN_POINT('',(0.144317214791842,0.0405134467463493,0.));
#1199=CARTESIAN_POINT('',(0.148127214791842,0.0405134467463493,0.));
#1200=CARTESIAN_POINT('',(0.113329214791842,0.0405134467463493,0.));
#1201=CARTESIAN_POINT('',(0.117139214791842,0.0405134467463493,0.));
#1202=CARTESIAN_POINT('',(0.113329214791842,0.00952544674634934,0.));
#1203=CARTESIAN_POINT('',(0.117139214791842,0.00952544674634934,0.));
#1204=CARTESIAN_POINT('',(0.128823214791842,0.0250194467463494,0.));
#1205=CARTESIAN_POINT('',(0.131363214791842,0.0250194467463494,0.));
#1206=CARTESIAN_POINT('',(0.175331994457245,-6.87242652369635E-9,0.));
#1207=CARTESIAN_POINT('',(0.175331994457245,0.0502815537275735,0.));
#1208=CARTESIAN_POINT('',(0.115355901420116,0.0502815537275735,0.));
#1209=CARTESIAN_POINT('',(0.0502998083829878,0.0502815537275735,0.));
#1210=CARTESIAN_POINT('',(0.0502998083829878,0.025146,0.));
#1211=CARTESIAN_POINT('',(0.180411994457245,0.0125782231362133,-0.0508));
#1212=CARTESIAN_POINT('',(0.180411994457245,0.0502815537275735,-0.0508));
#1213=CARTESIAN_POINT('',(0.180411994457245,0.0502815537275735,0.01778));
#1214=CARTESIAN_POINT('',(0.180411994457245,-6.87242652369635E-9,0.01778));
#1215=CARTESIAN_POINT('',(0.180411994457245,-6.87242652369635E-9,0.01778));
#1216=CARTESIAN_POINT('',(0.180411994457245,-6.87242652369635E-9,0.00889));
#1217=CARTESIAN_POINT('',(0.180411994457245,-6.87242652369635E-9,0.));
#1218=CARTESIAN_POINT('',(0.180411994457245,-6.87242652369635E-9,0.));
#1219=CARTESIAN_POINT('',(0.115355901420116,0.0502815537275735,-0.0508));
#1220=CARTESIAN_POINT('',(0.0704907402396202,0.0502815537275735,-0.0254));
#1221=CARTESIAN_POINT('',(0.0616007402396202,0.0502815537275735,-0.0254));
#1222=CARTESIAN_POINT('',(0.0502998083829878,0.0502815537275735,-0.0508));
#1223=CARTESIAN_POINT('',(0.173671923360825,0.0502815537275735,0.00246559155975303));
#1224=CARTESIAN_POINT('',(0.172011852264405,0.0502815537275735,0.00493118311950604));
#1225=CARTESIAN_POINT('',(0.172011852264405,0.0502815537275735,0.00691059155975302));
#1226=CARTESIAN_POINT('',(0.172011852264405,0.0502815537275735,0.012848816880494));
#1227=CARTESIAN_POINT('',(0.173671923360825,0.0502815537275735,0.015314408440247));
#1228=CARTESIAN_POINT('',(0.175331994457245,0.0502815537275735,0.01778));
#1229=CARTESIAN_POINT('',(0.177871994457245,0.0502815537275735,0.01778));
#1230=CARTESIAN_POINT('',(0.053415989120359,0.0388258903567308,-0.0508));
#1231=CARTESIAN_POINT('',(0.053415989120359,0.0388258903567308,-0.0254));
#1232=CARTESIAN_POINT('',(0.0502998083829878,0.0351170728100538,-0.0254));
#1233=CARTESIAN_POINT('',(0.0565321698577302,0.0425347079034077,-0.0254));
#1234=CARTESIAN_POINT('',(0.0502998083829879,0.0351170728100538,-0.0508));
#1235=CARTESIAN_POINT('',(0.0565321698577302,0.0425347079034077,-0.0508));
#1236=CARTESIAN_POINT('',(0.0565321698577302,0.0338403539517039,-0.0508));
#1237=CARTESIAN_POINT('',(0.0565321698577302,0.0338403539517039,-0.0254));
#1238=CARTESIAN_POINT('',(0.0565321698577302,0.00775729209659231,-0.0254));
#1239=CARTESIAN_POINT('',(0.0565321698577302,0.00775729209659231,-0.0508));
#1240=CARTESIAN_POINT('',(0.053415989120359,0.0114661096432692,-0.0508));
#1241=CARTESIAN_POINT('',(0.053415989120359,0.0114661096432692,-0.0254));
#1242=CARTESIAN_POINT('',(0.0502998083829878,0.0151749271899462,-0.0254));
#1243=CARTESIAN_POINT('',(0.0502998083829879,0.0151749271899462,-0.0508));
#1244=CARTESIAN_POINT('',(0.0502998083829879,0.00759268673118634,-0.0508));
#1245=CARTESIAN_POINT('',(0.0502998083829878,0.025146,-0.0254));
#1246=CARTESIAN_POINT('',(0.115355901420116,0.025146,-0.0254));
#1247=CARTESIAN_POINT('',(0.0609400756657123,0.0248123565688729,-0.00381));
#1248=CARTESIAN_POINT('',(0.177375063300133,0.0248123565688729,-0.00381));
#1249=CARTESIAN_POINT('',(0.115355901420116,-6.87242651675746E-9,0.));
#1250=CARTESIAN_POINT('',(0.175331994457245,-6.87242652369635E-9,0.));
#1251=CARTESIAN_POINT('',(0.175331994457245,-6.87242652369635E-9,0.));
#1252=CARTESIAN_POINT('',(0.115355901420116,-6.87242651675746E-9,0.));
#1253=CARTESIAN_POINT('',(0.173671923360825,-6.87242652369635E-9,0.00246559155975303));
#1254=CARTESIAN_POINT('',(0.173671923360825,-6.87242652369635E-9,0.00246559155975303));
#1255=CARTESIAN_POINT('',(0.172011852264405,-6.87242652369635E-9,0.00493118311950604));
#1256=CARTESIAN_POINT('',(0.172011852264405,-6.87242652369635E-9,0.00493118311950604));
#1257=CARTESIAN_POINT('',(0.172011852264405,-6.87242652369635E-9,0.00691059155975302));
#1258=CARTESIAN_POINT('',(0.172011852264405,-6.87242652369635E-9,0.00691059155975302));
#1259=CARTESIAN_POINT('',(0.172011852264405,-6.87242652369635E-9,0.012848816880494));
#1260=CARTESIAN_POINT('',(0.172011852264405,-6.87242652369635E-9,0.012848816880494));
#1261=CARTESIAN_POINT('',(0.173671923360825,-6.87242652369635E-9,0.015314408440247));
#1262=CARTESIAN_POINT('',(0.173671923360825,-6.87242652369635E-9,0.015314408440247));
#1263=CARTESIAN_POINT('',(0.175331994457245,-6.87242652369635E-9,0.01778));
#1264=CARTESIAN_POINT('',(0.175331994457245,-6.87242652369635E-9,0.01778));
#1265=CARTESIAN_POINT('',(0.177871994457245,-6.87242652369635E-9,0.01778));
#1266=CARTESIAN_POINT('',(0.177871994457245,-6.87242652369635E-9,0.01778));
#1267=CARTESIAN_POINT('',(0.115355901420116,-6.87242651675746E-9,-0.0163380255267024));
#1268=CARTESIAN_POINT('',(0.128823214791842,0.0250194467463494,0.02159));
#1269=CARTESIAN_POINT('',(0.128823214791842,0.0250194467463494,-0.005842));
#1270=CARTESIAN_POINT('',(0.126283214791842,0.0250194467463494,-0.005842));
#1271=CARTESIAN_POINT('',(0.150794214791843,0.0360049467463493,-0.008128));
#1272=CARTESIAN_POINT('',(0.150794214791843,0.00263426639139652,-0.008128));
#1273=CARTESIAN_POINT('',(0.106852214791842,0.0250194467463494,-0.008128));
#1274=CARTESIAN_POINT('',(0.106852214791842,0.00263426639139652,-0.008128));
#1275=CARTESIAN_POINT('',(0.128779796908565,0.0250194467463494,-0.008128));
#1276=CARTESIAN_POINT('',(0.128779796908565,0.0250194467463494,-0.005842));
#1277=CARTESIAN_POINT('',(0.116079796908565,0.0250194467463494,-0.005842));
#1278=CARTESIAN_POINT('',(0.119157569482923,0.0248123565688729,-0.005842));
#1279=CARTESIAN_POINT('',(0.150790959596634,0.00131713319569826,-0.00381));
#1280=CARTESIAN_POINT('',(0.119157569482922,0.00263426639139652,-0.00381));
#1281=CARTESIAN_POINT('',(0.106898106634617,0.00263426639139652,-0.00381));
#1282=CARTESIAN_POINT('',(0.106898106634617,0.00131713319569826,-0.00381));
#1283=CARTESIAN_POINT('',(0.0704907402396202,0.0248815537275735,-0.0254));
#1284=CARTESIAN_POINT('',(0.113329214791842,0.0405134467463493,-0.00635));
#1285=CARTESIAN_POINT('',(0.113329214791842,0.0405134467463493,-0.00635));
#1286=CARTESIAN_POINT('',(0.117139214791842,0.0405134467463493,-0.00635));
#1287=CARTESIAN_POINT('',(0.112815901420116,0.025146,-0.00635));
#1288=CARTESIAN_POINT('',(0.144317214791842,0.0405134467463493,-0.00635));
#1289=CARTESIAN_POINT('',(0.144317214791842,0.0405134467463493,-0.00635));
#1290=CARTESIAN_POINT('',(0.148127214791842,0.0405134467463493,-0.00635));
#1291=CARTESIAN_POINT('',(0.112815901420116,0.025146,-0.00635));
#1292=CARTESIAN_POINT('',(0.144317214791842,0.00952544674634932,-0.00635));
#1293=CARTESIAN_POINT('',(0.144317214791842,0.00952544674634932,-0.00635));
#1294=CARTESIAN_POINT('',(0.148127214791842,0.00952544674634932,-0.00635));
#1295=CARTESIAN_POINT('',(0.112815901420116,0.025146,-0.00635));
#1296=CARTESIAN_POINT('',(0.113329214791842,0.00952544674634934,-0.00635));
#1297=CARTESIAN_POINT('',(0.113329214791842,0.00952544674634934,-0.00635));
#1298=CARTESIAN_POINT('',(0.117139214791842,0.00952544674634934,-0.00635));
#1299=CARTESIAN_POINT('',(0.112815901420116,0.025146,-0.00635));
#1300=CARTESIAN_POINT('',(0.0555987148226391,0.00775723244039098,-0.04191));
#1301=CARTESIAN_POINT('',(0.0555987148226391,0.00775723244039098,-0.04191));
#1302=CARTESIAN_POINT('',(0.0555987148226391,0.00775723244039098,-0.043434));
#1303=CARTESIAN_POINT('',(0.0524616994775299,0.00775723244039098,-0.04191));
#1304=MECHANICAL_DESIGN_GEOMETRIC_PRESENTATION_REPRESENTATION('',(#792),
#1305);
#1305=(
GEOMETRIC_REPRESENTATION_CONTEXT(3)
GLOBAL_UNCERTAINTY_ASSIGNED_CONTEXT((#1306))
GLOBAL_UNIT_ASSIGNED_CONTEXT((#1309,#1308,#1307))
REPRESENTATION_CONTEXT('Part 11','TOP_LEVEL_ASSEMBLY_PART')
);
#1306=UNCERTAINTY_MEASURE_WITH_UNIT(LENGTH_MEASURE(2.32551952083493E-5),
#1309,'DISTANCE_ACCURACY_VALUE','Maximum Tolerance applied to model');
#1307=(
NAMED_UNIT(*)
SI_UNIT($,.STERADIAN.)
SOLID_ANGLE_UNIT()
);
#1308=(
NAMED_UNIT(*)
PLANE_ANGLE_UNIT()
SI_UNIT($,.RADIAN.)
);
#1309=(
LENGTH_UNIT()
NAMED_UNIT(*)
SI_UNIT($,.METRE.)
);
#1310=PRODUCT_DEFINITION_SHAPE('','',#1311);
#1311=PRODUCT_DEFINITION('','',#1313,#1312);
#1312=PRODUCT_DEFINITION_CONTEXT('',#1319,'design');
#1313=PRODUCT_DEFINITION_FORMATION_WITH_SPECIFIED_SOURCE('','',#1315,
 .NOT_KNOWN.);
#1314=PRODUCT_RELATED_PRODUCT_CATEGORY('','',(#1315));
#1315=PRODUCT('Part 11','Part 11','Part 11',(#1317));
#1316=PRODUCT_CATEGORY('','');
#1317=PRODUCT_CONTEXT('',#1319,'mechanical');
#1318=APPLICATION_PROTOCOL_DEFINITION('international standard',
'ap242_managed_model_based_3d_engineering',2020,#1319);
#1319=APPLICATION_CONTEXT('managed model based 3d engineering');
ENDSEC;
END-ISO-10303-21;
